<svg width="32" height="32" viewBox="0 0 32 32" fill="none" xmlns="http://www.w3.org/2000/svg">
<mask id="mask0_492_1319" style="mask-type:luminance" maskUnits="userSpaceOnUse" x="4" y="7" width="24" height="18">
<path d="M28 7.81818H4V24.1818H28V7.81818Z" fill="white"/>
</mask>
<g mask="url(#mask0_492_1319)">
<path d="M12.326 7.81818H10.128C9.97617 7.81818 9.84068 7.91336 9.7886 8.05631L4.01109 23.9386C3.96813 24.0568 4.05537 24.1818 4.18077 24.1818H6.37881C6.5306 24.1818 6.66609 24.0866 6.71817 23.9438L12.4957 8.06137C12.5387 7.9432 12.4514 7.81818 12.326 7.81818ZM14.9995 14.473C14.9418 14.3143 14.718 14.3143 14.6601 14.473L13.5206 17.6059C13.4915 17.6861 13.4915 17.7741 13.5206 17.8542L15.7358 23.9437C15.7878 24.0866 15.9234 24.1817 16.0752 24.1817H18.2732C18.3986 24.1817 18.4859 24.0567 18.4429 23.9385L14.9995 14.473ZM20.6029 17.5395C20.6606 17.6982 20.8844 17.6982 20.9421 17.5395L24.39 8.06137C24.4329 7.9432 24.3457 7.81818 24.2203 7.81818H22.0223C21.8704 7.81818 21.735 7.91324 21.6829 8.05631L19.4632 14.1582C19.4341 14.2383 19.4341 14.3262 19.4632 14.4063L20.6029 17.5395ZM16.269 8.05463C16.2175 7.91264 16.0828 7.81818 15.9323 7.81818H13.7268C13.5751 7.81818 13.4396 7.91324 13.3875 8.05619L7.61012 23.9386C7.56716 24.0568 7.65441 24.1818 7.7798 24.1818H9.97796C10.1298 24.1818 10.2652 24.0868 10.3173 23.9438L14.7408 11.7833C14.7698 11.7036 14.8823 11.7036 14.9112 11.7833L19.3347 23.9438C19.3867 24.0868 19.5223 24.1818 19.6741 24.1818H21.8723C21.9976 24.1818 22.0849 24.0568 22.0419 23.9387L16.269 8.05463ZM27.8193 7.81818H25.6211C25.4694 7.81818 25.3338 7.91324 25.2818 8.05619L21.2627 19.105C21.2335 19.1852 21.2335 19.273 21.2627 19.3531L22.4024 22.4863C22.4601 22.645 22.6839 22.645 22.7416 22.4863L26.7201 11.5491L27.9891 8.06125C28.0321 7.9432 27.9448 7.81818 27.8193 7.81818Z" fill="#EF8220"/>
</g>
</svg>
