<svg width="32" height="32" viewBox="0 0 32 32" fill="none" xmlns="http://www.w3.org/2000/svg">
<path d="M19.2028 15.0313L21.2915 11.4873L26.9214 20.256L26.924 21.9383L26.9056 10.3586C26.899 10.2189 26.8589 10.0828 26.7887 9.96191C26.7185 9.84098 26.6203 9.73871 26.5022 9.66375L16.3664 3.83384C16.2453 3.7763 16.1128 3.74675 15.9788 3.74739C15.8447 3.74802 15.7125 3.77881 15.592 3.83749C15.5607 3.85317 15.5303 3.8707 15.5011 3.88999L15.4659 3.91228L5.62722 9.61348L5.58891 9.63071C5.53792 9.65433 5.48926 9.68269 5.44358 9.71543C5.25906 9.8472 5.13331 10.0458 5.09314 10.269C5.08698 10.3028 5.08279 10.337 5.08057 10.3713L5.09597 19.8077L10.3399 11.6799C11.0001 10.6022 12.4385 10.255 13.7738 10.2738L15.341 10.3144L6.10657 25.1236L7.19521 25.7503L16.5403 10.3292L20.6709 10.3142L11.3499 26.1238L15.2346 28.3595L15.6988 28.6264C15.899 28.706 16.1213 28.7104 16.3245 28.6388L26.6028 22.6824L24.6367 23.8211L19.2028 15.0313ZM19.9998 26.5089L16.0766 20.3515L18.4713 16.2878L23.6237 24.4087L19.9998 26.5089Z" fill="#2D374B"/>
<path d="M16.0806 20.3527L20.0038 26.51L23.6278 24.4097L18.4757 16.2891L16.0806 20.3527Z" fill="#28A0F0"/>
<path d="M26.9255 21.938L26.9229 20.2557L21.293 11.487L19.2031 15.0306L24.638 23.8203L26.6041 22.6816C26.6993 22.6045 26.7771 22.5081 26.8325 22.3988C26.8879 22.2896 26.9197 22.1698 26.9257 22.0474L26.9255 21.938Z" fill="#28A0F0"/>
<path d="M3.33325 23.5249L6.10825 25.1239L15.3427 10.3147L13.7755 10.2742C12.4402 10.2553 11.0017 10.6023 10.3416 11.6802L5.09765 19.808L3.33427 22.5185V23.5257L3.33325 23.5249Z" fill="white"/>
<path d="M20.6732 10.3151L16.5429 10.3301L7.19775 25.7512L10.4641 27.632L11.3522 26.1254L20.6732 10.3151Z" fill="white"/>
<path d="M28.6666 10.294C28.6477 9.8677 28.5254 9.45243 28.3102 9.08396C28.0951 8.7155 27.7935 8.40489 27.4316 8.17892L17.163 2.27381C16.7965 2.09367 16.3935 2 15.985 2C15.5766 2 15.1736 2.09367 14.807 2.27381C14.7213 2.31698 4.82098 8.05892 4.82098 8.05892C4.68343 8.12497 4.55186 8.20282 4.42776 8.29161C4.1063 8.52021 3.84081 8.81869 3.65124 9.16461C3.46167 9.51054 3.35295 9.89492 3.33325 10.2889V22.5187L5.09663 19.8081L5.08305 10.3722C5.0913 10.2428 5.12814 10.1169 5.19091 10.0035C5.25369 9.89007 5.34083 9.79199 5.44607 9.7163C5.49269 9.68286 15.562 3.85437 15.594 3.83836C15.7146 3.77968 15.8468 3.74889 15.9809 3.74825C16.1149 3.74762 16.2474 3.77717 16.3685 3.83471L26.5043 9.66502C26.6224 9.73999 26.7206 9.84225 26.7908 9.96318C26.861 10.0841 26.9011 10.2202 26.9077 10.3598V22.0492C26.9052 22.1704 26.8769 22.2897 26.8247 22.3991C26.7724 22.5085 26.6974 22.6054 26.6046 22.6835L24.6386 23.8222L23.6251 24.4099L20.0011 26.5102L16.3257 28.6402C16.1225 28.7119 15.9003 28.7075 15.7 28.6279L11.3518 26.1269L10.4636 27.6333L14.3714 29.8831C14.5007 29.9565 14.6159 30.0218 14.7103 30.0749C14.8567 30.1559 14.9564 30.2117 14.9914 30.2287C15.3184 30.372 15.6719 30.4447 16.0288 30.4421C16.3562 30.4426 16.6807 30.3815 16.9855 30.2621L27.6604 24.0802C27.9616 23.8459 28.2077 23.5484 28.3815 23.2088C28.5553 22.8691 28.6525 22.4954 28.6662 22.1141L28.6666 10.294Z" fill="#96BEDC"/>
</svg>
