<svg width="33" height="32" viewBox="0 0 33 32" fill="none" xmlns="http://www.w3.org/2000/svg">
<rect x="4.23022" y="3.27274" width="25.3345" height="25.3345" rx="12.6673" fill="#051221"/>
<path d="M16.7983 5.45514L7.86621 10.6123V20.9265L16.7983 26.0837L25.7156 20.9265V10.6123L16.7983 5.45514ZM23.0701 19.3958L16.7835 23.0221L10.5117 19.3958V12.1431L16.7983 8.51672L23.0701 12.1431V19.3958Z" fill="white"/>
<path d="M16.7978 26.0837L25.7151 20.9265V10.6123L16.7978 5.45514V8.51672L23.0696 12.1431V19.4106L16.783 23.037V26.0837H16.7978Z" fill="white"/>
<path d="M16.7835 5.45514L7.86621 10.6123V20.9265L16.7835 26.0837V23.0221L10.5117 19.3958V12.1282L16.7835 8.51672V5.45514Z" fill="white"/>
<path d="M20.9609 18.1762L16.7995 20.5838L12.6233 18.1762V13.3609L16.7995 10.9532L20.9609 13.3609L19.222 14.3715L16.7847 12.9596L14.3621 14.3715V17.1804L16.7995 18.5923L19.2369 17.1804L20.9609 18.1762Z" fill="white"/>
</svg>
