<svg width="33" height="32" viewBox="0 0 33 32" fill="none" xmlns="http://www.w3.org/2000/svg">
<g clip-path="url(#clip0_492_1323)">
<path d="M11.7505 17.758C12.4781 17.758 13.1879 17.5155 13.7616 17.0718L9.14789 12.4581C8.03586 13.8954 8.30204 15.9657 9.7394 17.0777C10.3191 17.5155 11.023 17.758 11.7505 17.758Z" fill="#00193C"/>
<path d="M25.4742 14.4614C25.4742 13.7338 25.2317 13.024 24.7881 12.4503L20.1743 17.064C21.6117 18.176 23.676 17.9099 24.7881 16.4725C25.2317 15.8987 25.4742 15.1889 25.4742 14.4614Z" fill="#00193C"/>
<path d="M27.7985 9.43924L25.7578 11.4799C27.4022 13.4497 27.142 16.3835 25.1723 18.0279C23.4451 19.4712 20.9371 19.4712 19.2099 18.0279L16.9681 20.2697L14.7322 18.0338C12.7624 19.6782 9.82857 19.418 8.18418 17.4482C6.74091 15.721 6.74091 13.2131 8.18418 11.4859L7.13722 10.4389L6.14349 9.43924C4.94273 11.4149 4.30981 13.6863 4.30981 15.9991C4.30981 22.9907 9.97645 28.6573 16.9681 28.6573C23.9597 28.6573 29.6263 22.9907 29.6263 15.9991C29.6322 13.6863 28.9934 11.4149 27.7985 9.43924Z" fill="#00193C"/>
<path d="M26.1256 7.26258C21.3048 2.2052 13.2958 2.01592 8.23844 6.8367C8.09056 6.97866 7.9486 7.12062 7.81255 7.26258C7.49905 7.59382 7.2033 7.9369 6.92529 8.29772L16.9691 18.3474L27.0129 8.29772C26.7408 7.9369 26.4391 7.59382 26.1256 7.26258ZM16.9691 4.99711C19.9266 4.99711 22.683 6.13872 24.7533 8.22082L16.9691 16.005L9.18485 8.22082C11.2551 6.13872 14.0115 4.99711 16.9691 4.99711Z" fill="#00193C"/>
</g>
<defs>
<clipPath id="clip0_492_1323">
<rect width="25.3165" height="25.3165" fill="white" transform="translate(4.30981 3.34174)"/>
</clipPath>
</defs>
</svg>
