<svg width="32" height="32" viewBox="0 0 32 32" fill="none" xmlns="http://www.w3.org/2000/svg">
<path fill-rule="evenodd" clip-rule="evenodd" d="M27.2861 14.6369C27.339 15.083 27.3684 15.538 27.3684 16.0004C27.3684 22.2717 22.2783 27.3572 15.9979 27.3572C11.425 27.3572 7.48403 24.6611 5.67807 20.7732L7.49725 19.8589C8.96668 23.0833 12.22 25.3245 15.9979 25.3245C21.1527 25.3245 25.3333 21.1504 25.3333 16.0004C25.3333 15.9049 25.3318 15.8095 25.3288 15.7141L27.2861 14.6369ZM15.9979 4.64346C20.7868 4.64346 24.8851 7.60084 26.5602 11.7881L24.6147 12.4075C23.207 9.04207 19.8787 6.67621 15.9979 6.67621C10.8431 6.67621 6.66262 10.8503 6.66262 16.0004C6.66262 16.0635 6.66407 16.128 6.66554 16.1911L4.76116 17.7469C4.673 17.1774 4.62744 16.5948 4.62744 16.0004C4.62891 9.7275 9.71904 4.64346 15.9979 4.64346Z" fill="#010F36"/>
<path fill-rule="evenodd" clip-rule="evenodd" d="M3.33228 20.5418L14.4529 11.4569L13.9916 15.2347L20.482 11.5611L20.1529 15.1481L28.6668 12.4402L17.12 18.7923L17.9826 15.1774L11.3113 19.0829L11.7522 16.3105L3.33228 20.5418Z" fill="#010F36"/>
</svg>
