<svg width="33" height="32" viewBox="0 0 33 32" fill="none" xmlns="http://www.w3.org/2000/svg">
<path d="M23.8812 19.3435C24.3442 18.8448 24.7583 18.2927 25.119 17.6916C25.9872 16.2356 26.4235 14.6372 26.4235 12.8963C26.4235 11.1554 25.9917 9.52578 25.1279 8.06537C24.2641 6.60051 23.1065 5.44732 21.6505 4.60135C20.1945 3.75538 18.6184 3.3324 16.9264 3.3324C15.2345 3.3324 13.6316 3.75538 12.1667 4.60135C10.7019 5.44732 9.53533 6.60051 8.66264 8.05647C7.78996 9.51242 7.35807 11.102 7.35807 12.8295C7.35807 14.5571 7.79441 16.2446 8.66264 17.7094C9.0322 18.3328 9.45964 18.9027 9.93605 19.4103C8.3198 20.3943 7.3269 21.7166 7.3269 23.1681C7.3269 26.2003 11.6458 28.6669 16.9576 28.6669C22.2694 28.6669 26.5883 26.2003 26.5883 23.1681C26.5883 21.6855 25.5553 20.3364 23.8767 19.3479L23.8812 19.3435ZM10.0518 25.519C9.09453 24.8067 8.57359 23.9918 8.57359 23.1637C8.57359 22.1441 9.36613 21.1378 10.7998 20.3275C10.8265 20.3141 10.8533 20.2963 10.8844 20.2829C11.2807 20.6035 11.6992 20.8929 12.1489 21.1556C12.1935 21.1823 12.2424 21.2046 12.287 21.2313C10.7464 21.9882 9.76686 23.1147 9.76686 24.3659C9.76686 24.7666 9.86481 25.1495 10.0518 25.519ZM16.9665 27.2555C14.7803 27.2555 13.5871 26.3071 13.5871 25.8174C13.5871 25.3276 14.7803 24.3792 16.9665 24.3792C19.1527 24.3792 20.3459 25.3276 20.3459 25.8174C20.3459 26.3071 19.1527 27.2555 16.9665 27.2555ZM21.5525 26.1424C21.5748 26.0355 21.5882 25.9287 21.5882 25.8174C21.5882 24.3391 19.5133 23.1414 16.9665 23.1414C14.4197 23.1414 12.3448 24.3436 12.3448 25.8174C12.3448 25.9287 12.3582 26.0355 12.3805 26.1424C11.5345 25.6393 11.0091 25.0159 11.0091 24.3659C11.0091 23.3863 12.1979 22.4691 13.8765 21.9393C14.816 22.2554 15.791 22.4112 16.8107 22.4112C17.9015 22.4112 18.9434 22.242 19.9363 21.9036C21.6817 22.4246 22.9239 23.3685 22.9239 24.3659C22.9239 25.0159 22.3985 25.6393 21.5525 26.1424ZM23.8812 25.519C24.0682 25.1539 24.1661 24.7666 24.1661 24.3659C24.1661 23.0835 23.1421 21.9393 21.5436 21.1779C21.5659 21.1645 21.5882 21.1556 21.6104 21.1423C22.0868 20.8707 22.5321 20.5634 22.9417 20.2251C23.004 20.2607 23.0708 20.2918 23.1332 20.3275C24.5669 21.1378 25.3594 22.1441 25.3594 23.1637C25.3594 23.9874 24.8429 24.8067 23.8812 25.519Z" fill="#00A84F"/>
</svg>
