<svg width="32" height="32" viewBox="0 0 32 32" fill="none" xmlns="http://www.w3.org/2000/svg">
<path d="M21.2899 19.9471L26.4651 16.9588C26.7395 16.8001 26.909 16.5057 26.909 16.1897V10.2132C26.909 9.89722 26.7395 9.60286 26.4651 9.44412L21.2899 6.45582C21.0156 6.29708 20.675 6.29862 20.4022 6.45582L15.227 9.44412C14.9527 9.60286 14.7832 9.89722 14.7832 10.2132V20.8934L11.1537 22.9878L7.52431 20.8934V16.703L11.1537 14.6086L13.5472 15.9909V13.1799L11.5976 12.0533C11.4635 11.9762 11.3094 11.9346 11.1537 11.9346C10.998 11.9346 10.844 11.9762 10.7099 12.0533L5.53468 15.0416C5.26035 15.2003 5.09082 15.4947 5.09082 15.8107V21.7873C5.09082 22.1032 5.26035 22.3975 5.53468 22.5563L10.7099 25.5446C10.9842 25.7018 11.3233 25.7018 11.5976 25.5446L16.7728 22.5563C17.0471 22.3975 17.2166 22.1032 17.2166 21.7873V11.1055L17.2813 11.0685L20.8446 9.01105L24.474 11.1055V15.2959L20.8446 17.3903L18.4542 16.011V18.8221L20.4007 19.9456C20.675 20.1028 21.0156 20.1028 21.2884 19.9456L21.2899 19.9471Z" fill="url(#paint0_linear_492_1315)"/>
<defs>
<linearGradient id="paint0_linear_492_1315" x1="5.01993" y1="22.3729" x2="25.972" y2="10.2116" gradientUnits="userSpaceOnUse">
<stop stop-color="#A726C1"/>
<stop offset="0.88" stop-color="#803BDF"/>
<stop offset="1" stop-color="#7B3FE4"/>
</linearGradient>
</defs>
</svg>
