<svg width="17" height="16" viewBox="0 0 17 16" fill="none" xmlns="http://www.w3.org/2000/svg">
<g clip-path="url(#clip0_596_14057)">
<path d="M16.51 7.53125H15.643C15.4124 4.22019 12.7586 1.56638 9.44751 1.33575V0.46875C9.44751 0.209875 9.23763 0 8.97876 0C8.71988 0 8.51001 0.209875 8.51001 0.46875V1.33575C5.19895 1.56638 2.54517 4.22019 2.31451 7.53125H1.44751C1.18863 7.53125 0.97876 7.74113 0.97876 8C0.97876 8.25887 1.18863 8.46875 1.44751 8.46875H2.31451C2.54517 11.7798 5.19895 14.4336 8.51001 14.6643V15.5312C8.51001 15.7901 8.71988 16 8.97876 16C9.23763 16 9.44751 15.7901 9.44751 15.5312V14.6643C12.7586 14.4336 15.4124 11.7798 15.643 8.46875H16.51C16.7689 8.46875 16.9788 8.25887 16.9788 8C16.9788 7.74113 16.7689 7.53125 16.51 7.53125ZM9.44751 13.7242V12.8931C9.44751 12.6342 9.23763 12.4243 8.97876 12.4243C8.71988 12.4243 8.51001 12.6342 8.51001 12.8931V13.7242C5.71617 13.4974 3.48132 11.2626 3.25457 8.46875H4.08567C4.34454 8.46875 4.55442 8.25887 4.55442 8C4.55442 7.74113 4.34454 7.53125 4.08567 7.53125H3.25457C3.48132 4.73738 5.71617 2.50256 8.51001 2.27578V3.10691C8.51001 3.36578 8.71988 3.57566 8.97876 3.57566C9.23763 3.57566 9.44751 3.36578 9.44751 3.10691V2.27578C12.2414 2.50256 14.4762 4.73738 14.7029 7.53125H13.8719C13.613 7.53125 13.4031 7.74113 13.4031 8C13.4031 8.25887 13.613 8.46875 13.8719 8.46875H14.7029C14.4762 11.2626 12.2414 13.4974 9.44751 13.7242Z" fill="#303030"/>
<path d="M11.701 7.53115H10.8902C10.7162 6.82174 10.1568 6.2624 9.44744 6.0884V5.27759C9.44744 5.01871 9.23757 4.80884 8.97869 4.80884C8.71982 4.80884 8.50994 5.01871 8.50994 5.27759V6.0884C7.80053 6.2624 7.24119 6.82174 7.06716 7.53115H6.25635C5.99747 7.53115 5.7876 7.74103 5.7876 7.9999C5.7876 8.25878 5.99747 8.46865 6.25635 8.46865H7.06716C7.24116 9.17806 7.80053 9.7374 8.50994 9.9114V10.7222C8.50994 10.9811 8.71982 11.191 8.97869 11.191C9.23757 11.191 9.44744 10.9811 9.44744 10.7222V9.9114C10.1568 9.7374 10.7162 9.17806 10.8902 8.46865H11.701C11.9599 8.46865 12.1698 8.25878 12.1698 7.9999C12.1698 7.74103 11.9599 7.53115 11.701 7.53115ZM8.97872 9.03074C8.41032 9.03074 7.94785 8.56831 7.94785 7.9999C7.94785 7.43149 8.41028 6.96906 8.97872 6.96906C9.54716 6.96906 10.0096 7.43149 10.0096 7.9999C10.0096 8.56831 9.54713 9.03074 8.97872 9.03074Z" fill="#303030"/>
</g>
<defs>
<clipPath id="clip0_596_14057">
<rect width="16" height="16" fill="white" transform="translate(0.97876)"/>
</clipPath>
</defs>
</svg>
