<svg width="17" height="16" viewBox="0 0 17 16" fill="none" xmlns="http://www.w3.org/2000/svg">
<g clip-path="url(#clip0_601_13394)">
<path d="M8.97868 13.9998C12.9787 13.9998 13.6453 10.5105 13.6453 9.33317V4.6665H4.31201V9.33317C4.31201 10.4832 4.97868 13.9998 8.97868 13.9998Z" stroke="#93959C" stroke-linejoin="round"/>
<path d="M2.31201 2.6665L4.31201 4.6665M15.6453 2.6665L13.6453 4.6665M2.31201 8.99984H4.31201M15.6453 8.99984H13.6453M3.31201 14.6665L5.31201 12.6665M14.6453 14.6665L12.6453 12.6665M8.97868 13.9998V4.6665M8.97868 13.9998C7.62001 13.9998 6.64601 13.5945 5.95201 13.0132M8.97868 13.9998C10.349 13.9998 11.3283 13.5902 12.0233 13.0045" stroke="#93959C" stroke-linecap="round" stroke-linejoin="round"/>
<path d="M11.6453 4.11092C11.6453 2.57692 10.4513 1.33325 8.97868 1.33325C7.50601 1.33325 6.31201 2.57692 6.31201 4.11092V4.66659H11.6453V4.11092Z" stroke="#93959C" stroke-linejoin="round"/>
</g>
<defs>
<clipPath id="clip0_601_13394">
<rect width="16" height="16" fill="white" transform="translate(0.97876)"/>
</clipPath>
</defs>
</svg>
