<svg width="17" height="16" viewBox="0 0 17 16" xmlns="http://www.w3.org/2000/svg">
<g clip-path="url(#clip0_596_14119)">
<path fill-rule="evenodd" clip-rule="evenodd" d="M9.11414 1.5L16.1788 3.38308L16.9788 3.96154V12.2569L16.5234 12.8477L8.97876 14.9277L1.42184 12.8477L0.97876 12.2569V3.96154L1.72953 3.38308L8.78184 1.5H9.11414ZM9.00338 2.73077L4.0803 3.96154L4.75722 4.20769L8.97876 5.31538L12.6711 4.31846L13.8403 3.96154L9.00338 2.73077ZM2.20953 11.7892L8.36338 13.4754V6.42308L2.20953 4.77385V11.7892ZM9.59414 6.42308V13.4754L15.748 11.7892V4.73692L13.2618 5.41754V8.57692L12.0311 8.89692V5.75477L9.59414 6.42308Z" />
</g>
<defs>
<clipPath id="clip0_596_14119">
<rect width="16" height="16" fill="white" transform="translate(0.97876)"/>
</clipPath>
</defs>
</svg>
