<svg width="17" height="16" viewBox="0 0 17 16" fill="none" xmlns="http://www.w3.org/2000/svg">
<g clip-path="url(#clip0_596_14032)">
<path d="M5.55089 6.75621L8.82974 8.65049C8.87534 8.6758 8.92662 8.68913 8.97878 8.68924C9.03113 8.68915 9.08253 8.67527 9.12782 8.649L12.4067 6.75472C12.4519 6.72859 12.4895 6.69101 12.5157 6.64575C12.5418 6.6005 12.5556 6.54916 12.5557 6.49689V2.7128C12.5559 2.66028 12.5422 2.60863 12.5161 2.56309C12.4899 2.51755 12.4521 2.47974 12.4067 2.45347L9.12782 0.560687C9.0825 0.534525 9.0311 0.520752 8.97878 0.520752C8.92645 0.520752 8.87505 0.534525 8.82974 0.560687L5.55089 2.45646C5.50563 2.48259 5.46803 2.52017 5.44187 2.56543C5.41571 2.61068 5.40191 2.66202 5.40186 2.71429V6.49838C5.40191 6.55065 5.41571 6.60199 5.44187 6.64724C5.46803 6.6925 5.50563 6.73008 5.55089 6.75621ZM5.99801 3.22996L8.6807 4.77698V7.87549L5.99801 6.32698V3.22996ZM9.27685 7.87549V4.78145L11.9595 3.29107V6.32549L9.27685 7.87549ZM8.97878 1.16876L11.7181 2.74559L8.97878 4.2628L6.29609 2.71429L8.97878 1.16876Z" fill="#303030" stroke="#303030" stroke-width="0.3"/>
<path d="M16.5797 6.20181L13.599 4.49681C13.5302 4.45728 13.4485 4.44669 13.3719 4.46738C13.2953 4.48806 13.2301 4.53832 13.1906 4.6071C13.1511 4.67587 13.1405 4.75754 13.1612 4.83412C13.1818 4.9107 13.2321 4.97594 13.3009 5.01546L15.9001 6.50585L8.97876 10.4196L2.12299 6.46561L4.65665 5.01546C4.72542 4.97594 4.77568 4.9107 4.79637 4.83412C4.81705 4.75754 4.80646 4.67587 4.76693 4.6071C4.74736 4.57304 4.72127 4.54318 4.69016 4.5192C4.65905 4.49523 4.62351 4.47762 4.58559 4.46738C4.50901 4.44669 4.42735 4.45728 4.35857 4.49681L1.3778 6.20479C1.33231 6.23105 1.29457 6.26887 1.2684 6.31441C1.24223 6.35995 1.22855 6.41159 1.22876 6.46412V10.8786C1.22855 10.9312 1.24223 10.9828 1.2684 11.0283C1.29457 11.0739 1.33231 11.1117 1.3778 11.138L8.82972 15.4407C8.87533 15.466 8.9266 15.4793 8.97876 15.4795C9.03111 15.4794 9.08251 15.4655 9.1278 15.4392L16.5797 11.1335C16.625 11.1074 16.6626 11.0698 16.6887 11.0245C16.7149 10.9793 16.7287 10.9279 16.7288 10.8757V6.46113C16.729 6.40861 16.7153 6.35696 16.6891 6.31142C16.6629 6.26589 16.6252 6.22807 16.5797 6.20181ZM1.82492 6.97979L8.68068 10.9353V14.6612L1.82492 10.7072V6.97979ZM9.27684 14.6657V10.9397L16.1326 7.06474V10.7043L9.27684 14.6657Z" fill="#303030" stroke="#303030" stroke-width="0.3"/>
</g>
<defs>
<clipPath id="clip0_596_14032">
<rect width="16" height="16" fill="white" transform="translate(0.97876)"/>
</clipPath>
</defs>
</svg>
