<svg width="64" height="65" viewBox="0 0 64 65" fill="none" xmlns="http://www.w3.org/2000/svg">
<g id="007-sketch" clip-path="url(#clip0_674_14752)">
<g id="Group">
<g id="Group_2">
<path id="Vector" d="M9.33302 11.1474C7.12389 11.1474 5.33301 12.9383 5.33301 15.1474V25.8141H7.99964V15.1474C7.99964 14.411 8.59665 13.814 9.33302 13.814H41.3331V11.1474H9.33302Z" fill="#EDECEC"/>
</g>
</g>
<g id="Group_3">
<g id="Group_4">
<path id="Vector_2" d="M9.33302 51.1476C8.59665 51.1476 7.99964 50.5506 7.99964 49.8142V36.4808H5.33301V49.8142C5.33301 52.0233 7.12389 53.8142 9.33302 53.8142H22.6665V51.1476H9.33302Z" fill="#EDECEC"/>
</g>
</g>
<g id="Group_5">
<g id="Group_6">
<path id="Vector_3" d="M42.2759 54.5862L9.89441 22.2047C9.37379 21.6842 8.52978 21.6842 8.00903 22.2047L0.390377 29.8235C-0.130125 30.3441 -0.130125 31.1881 0.390377 31.7089L32.7719 64.0902C33.0219 64.3404 33.361 64.4809 33.7145 64.4809C34.0681 64.4807 34.4071 64.3402 34.6571 64.0902L42.2758 56.4716C42.7964 55.9508 42.7964 55.1068 42.2759 54.5862ZM33.7145 61.2622L3.21839 30.7661L8.95179 25.0327L39.4479 55.529L33.7145 61.2622Z" fill="#EDECEC"/>
</g>
</g>
<g id="Group_7">
<g id="Group_8">
<path id="Vector_4" d="M58.6666 51.1476H38.6665V53.8142H53.3332V60.4809C53.3332 61.2172 53.9302 61.8143 54.6666 61.8143H58.6666C61.6121 61.8143 64 59.4265 64 56.4809C64 53.5353 61.6121 51.1476 58.6666 51.1476ZM58.6666 59.1476H55.9999V53.8142H58.6666C60.1393 53.8142 61.3332 55.0081 61.3332 56.4809C61.3332 57.9537 60.1393 59.1476 58.6666 59.1476Z" fill="#EDECEC"/>
</g>
</g>
<g id="Group_9">
<g id="Group_10">
<path id="Vector_5" d="M58.6667 11.1474H52V13.814H58.6667C60.1394 13.814 61.3333 15.0079 61.3333 16.4807V56.4808H63.9999V16.4807C64.0001 13.5352 61.6122 11.1474 58.6667 11.1474Z" fill="#EDECEC"/>
</g>
</g>
<g id="Group_11">
<g id="Group_12">
<path id="Vector_6" d="M24.391 38.2046L20.3906 42.2049L22.2762 44.0905L26.2765 40.0901L24.391 38.2046Z" fill="#EDECEC"/>
</g>
</g>
<g id="Group_13">
<g id="Group_14">
<path id="Vector_7" d="M19.0577 32.8712L15.0574 36.8715L16.9429 38.7571L20.9433 34.7568L19.0577 32.8712Z" fill="#EDECEC"/>
</g>
</g>
<g id="Group_15">
<g id="Group_16">
<path id="Vector_8" d="M29.7214 43.5379L25.7211 47.5383L27.6066 49.4238L31.607 45.4235L29.7214 43.5379Z" fill="#EDECEC"/>
</g>
</g>
<g id="Group_17">
<g id="Group_18">
<path id="Vector_9" d="M35.0571 48.874L31.0568 52.8743L32.9423 54.7599L36.9427 50.7596L35.0571 48.874Z" fill="#EDECEC"/>
</g>
</g>
<g id="Group_19">
<g id="Group_20">
<path id="Vector_10" d="M13.7207 27.5378L9.72034 31.5381L11.6059 33.4237L15.6063 29.4234L13.7207 27.5378Z" fill="#EDECEC"/>
</g>
</g>
<g id="Group_21">
<g id="Group_22">
<path id="Vector_11" d="M57.512 3.47802L55.6692 1.63539C54.1101 0.147009 51.6563 0.147009 50.0972 1.63539L29.8225 21.9101C29.302 22.4307 29.302 23.2747 29.8225 23.7955L35.3519 29.3249C35.6013 29.5759 35.9408 29.7165 36.2945 29.7155C36.6482 29.7154 36.9872 29.5749 37.2372 29.3249L57.512 9.05004C57.5126 9.04942 57.5132 9.04879 57.5139 9.04817C59.0515 7.50954 59.0506 5.01565 57.512 3.47802ZM55.628 7.16341L36.2945 26.4967L32.6505 22.8527L51.984 3.52065C52.4875 3.03952 53.2805 3.03952 53.784 3.52065L55.628 5.36203C55.6281 5.36228 55.6284 5.3624 55.6286 5.36265C56.1256 5.86003 56.1254 6.66628 55.628 7.16341Z" fill="#EDECEC"/>
</g>
</g>
<g id="Group_23">
<g id="Group_24">
<path id="Vector_12" d="M35.8665 27.1181L30.1119 29.0395L32.0333 23.2755L29.4999 22.4315L26.7345 30.7261C26.6893 30.8621 26.6661 31.0045 26.6661 31.1477C26.6663 31.8841 27.2634 32.481 27.9998 32.4807C28.1409 32.4812 28.2813 32.4596 28.4158 32.4167L36.7104 29.6514L35.8665 27.1181Z" fill="#EDECEC"/>
</g>
</g>
<g id="Group_25">
<g id="Group_26">
<path id="Vector_13" d="M48.2955 5.3206L46.4099 7.20618L51.9395 12.7357L53.825 10.8501L48.2955 5.3206Z" fill="#EDECEC"/>
</g>
</g>
<g id="Group_27">
<g id="Group_28">
<path id="Vector_14" d="M48 29.8141H27.9999V32.4807H48V29.8141Z" fill="#EDECEC"/>
</g>
</g>
<g id="Group_29">
<g id="Group_30">
<path id="Vector_15" d="M53.3333 29.8141H50.6666V32.4807H53.3333V29.8141Z" fill="#EDECEC"/>
</g>
</g>
<g id="Group_31">
<g id="Group_32">
<path id="Vector_16" d="M58.6666 29.8141H56V32.4807H58.6666V29.8141Z" fill="#EDECEC"/>
</g>
</g>
</g>
<defs>
<clipPath id="clip0_674_14752">
<rect width="64" height="64" fill="white" transform="translate(0 0.5)"/>
</clipPath>
</defs>
</svg>
