<svg width="17" height="16" viewBox="0 0 17 16" fill="none" xmlns="http://www.w3.org/2000/svg">
<path d="M10.312 5.33325H3.64534C2.91001 5.33325 2.31201 5.93125 2.31201 6.66659V13.3333C2.31201 14.0686 2.91001 14.6666 3.64534 14.6666H10.312C11.0473 14.6666 11.6453 14.0686 11.6453 13.3333V6.66659C11.6453 5.93125 11.0473 5.33325 10.312 5.33325Z" fill="#B8BAC1"/>
<path d="M14.312 1.33325H7.64534C7.29172 1.33325 6.95258 1.47373 6.70254 1.72378C6.45249 1.97382 6.31201 2.31296 6.31201 2.66659V3.99992H11.6453C11.999 3.99992 12.3381 4.14039 12.5882 4.39044C12.8382 4.64049 12.9787 4.97963 12.9787 5.33325V10.6666H14.312C14.6656 10.6666 15.0048 10.5261 15.2548 10.2761C15.5049 10.026 15.6453 9.68687 15.6453 9.33325V2.66659C15.6453 2.31296 15.5049 1.97382 15.2548 1.72378C15.0048 1.47373 14.6656 1.33325 14.312 1.33325Z" fill="#B8BAC1"/>
</svg>
