<svg width="21" height="20" viewBox="0 0 21 20" fill="none" xmlns="http://www.w3.org/2000/svg">
<path d="M16.7932 4.08858C15.6776 3.58547 14.4818 3.2136 13.2313 3.00215C13.2201 3.00001 13.2086 3.00139 13.1983 3.00609C13.188 3.0108 13.1794 3.01859 13.1737 3.0284C13.0206 3.29746 12.8499 3.64817 12.7304 3.92525C11.4041 3.72709 10.0558 3.72709 8.72954 3.92525C8.59635 3.61818 8.44616 3.31876 8.27966 3.0284C8.27401 3.01847 8.26548 3.0105 8.25518 3.00555C8.24489 3.0006 8.23333 2.9989 8.22205 3.00069C6.9723 3.21214 5.7765 3.58401 4.66018 4.08785C4.65057 4.09188 4.64243 4.09875 4.63685 4.10754C2.36774 7.44338 1.74578 10.6968 2.0513 13.9094C2.05215 13.9173 2.05459 13.9249 2.05847 13.9318C2.06236 13.9387 2.06761 13.9447 2.0739 13.9495C3.39831 14.9138 4.87552 15.6483 6.44367 16.1224C6.4546 16.1258 6.46629 16.1258 6.47722 16.1224C6.48815 16.119 6.4978 16.1124 6.50492 16.1034C6.84236 15.6522 7.14139 15.1734 7.39885 14.6721C7.40242 14.6653 7.40448 14.6577 7.40489 14.65C7.40529 14.6423 7.40404 14.6346 7.4012 14.6274C7.39837 14.6202 7.39402 14.6137 7.38846 14.6083C7.38289 14.603 7.37624 14.5989 7.36895 14.5963C6.89793 14.4189 6.44154 14.2049 6.00399 13.9561C5.99613 13.9516 5.98951 13.9452 5.98471 13.9376C5.97992 13.9299 5.97711 13.9211 5.97653 13.9121C5.97595 13.9031 5.97762 13.894 5.9814 13.8858C5.98518 13.8776 5.99093 13.8704 5.99816 13.865C6.09003 13.7972 6.18191 13.7264 6.2694 13.6557C6.27728 13.6493 6.28677 13.6453 6.29681 13.644C6.30685 13.6427 6.31705 13.6442 6.32628 13.6484C9.18963 14.9346 12.2907 14.9346 15.1205 13.6484C15.1298 13.644 15.1401 13.6423 15.1502 13.6434C15.1604 13.6446 15.1701 13.6486 15.1781 13.655C15.2656 13.7264 15.3567 13.7972 15.4493 13.865C15.4566 13.8703 15.4625 13.8774 15.4664 13.8855C15.4703 13.8937 15.4721 13.9027 15.4717 13.9117C15.4712 13.9207 15.4686 13.9295 15.4639 13.9373C15.4593 13.945 15.4527 13.9515 15.445 13.9561C15.0089 14.2069 14.5554 14.4191 14.0793 14.5956C14.072 14.5982 14.0653 14.6024 14.0597 14.6078C14.0542 14.6133 14.0498 14.6198 14.047 14.6271C14.0442 14.6343 14.0429 14.6421 14.0433 14.6499C14.0437 14.6576 14.0458 14.6652 14.0494 14.6721C14.3119 15.1731 14.6123 15.6499 14.9426 16.1027C14.9495 16.112 14.959 16.1189 14.97 16.1226C14.9809 16.1263 14.9928 16.1264 15.0038 16.1231C16.5747 15.6504 18.0543 14.9155 19.3802 13.9495C19.3866 13.945 19.3921 13.9392 19.3961 13.9324C19.4001 13.9256 19.4026 13.918 19.4035 13.9102C19.7681 10.1959 18.7925 6.9687 16.8158 4.10899C16.8109 4.0997 16.8029 4.09246 16.7932 4.08858ZM7.82686 11.9531C6.96501 11.9531 6.25409 11.1737 6.25409 10.2178C6.25409 9.26114 6.95115 8.48241 7.82686 8.48241C8.70912 8.48241 9.41348 9.2677 9.39962 10.2178C9.39962 11.1744 8.70256 11.9531 7.82686 11.9531V11.9531ZM13.6418 11.9531C12.7792 11.9531 12.069 11.1737 12.069 10.2178C12.069 9.26114 12.7654 8.48241 13.6418 8.48241C14.5241 8.48241 15.2284 9.2677 15.2146 10.2178C15.2146 11.1744 14.5248 11.9531 13.6418 11.9531V11.9531Z" fill="#B8BAC1"/>
</svg>
