<svg width="66" height="29" viewBox="0 0 66 29" fill="none" xmlns="http://www.w3.org/2000/svg">
<g clip-path="url(#clip0_1974_14329)">
<path d="M8.72323 21.0328V27.6142L0.647644 15.8894L8.72323 21.0328Z" fill="url(#paint0_linear_1974_14329)"/>
<path d="M16.7434 15.8894L8.72321 27.6142V21.0328L16.7434 15.8894Z" fill="url(#paint1_linear_1974_14329)"/>
<path d="M16.7434 14.2302L8.72321 9.63989V19.3736L16.7434 14.2302Z" fill="url(#paint2_linear_1974_14329)"/>
<path d="M16.7434 14.2302L8.72321 0.237793V9.63988L16.7434 14.2302Z" fill="url(#paint3_linear_1974_14329)"/>
<path d="M8.72323 0.237793V9.63988L0.647644 14.2302L8.72323 0.237793Z" fill="url(#paint4_linear_1974_14329)"/>
<path d="M8.72323 9.63989V19.3736L0.647644 14.2302L8.72323 9.63989Z" fill="url(#paint5_linear_1974_14329)"/>
<path d="M20.7294 5.22832C20.7294 4.76982 20.8233 4.36363 21.0111 4.00992C21.199 3.65638 21.4614 3.38294 21.7986 3.18943C22.1356 2.99609 22.5252 2.89941 22.9674 2.89941C23.3927 2.89941 23.7727 2.99885 24.1071 3.19789C24.4414 3.39675 24.7026 3.67589 24.8904 4.03495C25.0783 4.39419 25.1722 4.80297 25.1722 5.26164V5.60965H21.9146C21.9311 5.88602 22.0361 6.10975 22.2296 6.28099C22.423 6.45241 22.6771 6.53786 22.9922 6.53786C23.2132 6.53786 23.4176 6.48953 23.6056 6.39286C23.7935 6.29619 23.9979 6.12908 24.219 5.89155L24.9567 6.64575C24.7024 6.92765 24.4096 7.14723 24.0781 7.30467C23.7467 7.46211 23.3845 7.54082 22.9922 7.54082C22.5445 7.54082 22.1495 7.44398 21.8068 7.25064C21.4641 7.0573 21.199 6.78524 21.0111 6.43429C20.8233 6.08351 20.7294 5.68146 20.7294 5.22832ZM23.9787 4.74755C23.9566 4.5045 23.8502 4.30287 23.6595 4.1425C23.4689 3.9823 23.2381 3.9022 22.9674 3.9022C22.6856 3.9022 22.4534 3.97954 22.2711 4.13421C22.0888 4.28888 21.9755 4.49345 21.9313 4.74755H23.9787Z" fill="#30354B"/>
<path d="M25.9265 5.21996C25.9265 4.76699 26.0204 4.36494 26.2082 4.01399C26.396 3.66321 26.66 3.3896 26.9998 3.1935C27.3395 2.99739 27.7278 2.89917 28.1644 2.89917C28.6784 2.89917 29.1204 3.04003 29.4907 3.32193C29.8608 3.60366 30.1124 3.98223 30.245 4.45747L29.1012 4.77234C29.046 4.52928 28.9408 4.33715 28.7861 4.19628C28.6314 4.05542 28.4241 3.98499 28.1644 3.98499C27.833 3.98499 27.5745 4.09409 27.3894 4.31229C27.2042 4.53066 27.1118 4.8331 27.1118 5.21979C27.1118 5.60647 27.2044 5.90908 27.3894 6.12728C27.5745 6.34566 27.833 6.45458 28.1644 6.45458C28.4241 6.45458 28.6313 6.38415 28.7861 6.24329C28.9408 6.10243 29.0458 5.91047 29.1012 5.66724L30.245 5.98211C30.1124 6.45735 29.8608 6.83574 29.4907 7.11764C29.1204 7.39937 28.6784 7.5404 28.1644 7.5404C27.7278 7.5404 27.3397 7.44218 26.9998 7.24608C26.6598 7.04997 26.3959 6.77653 26.2082 6.42558C26.0204 6.07481 25.9265 5.67276 25.9265 5.21961V5.21996Z" fill="#30354B"/>
<path d="M30.9578 5.21996C30.9578 4.76699 31.0517 4.36494 31.2396 4.01399C31.4274 3.66321 31.6914 3.3896 32.0311 3.1935C32.3709 2.99739 32.7592 2.89917 33.1958 2.89917C33.6378 2.89917 34.0288 2.99739 34.3686 3.1935C34.7085 3.3896 34.9723 3.66321 35.1601 4.01399C35.348 4.36494 35.4421 4.76699 35.4421 5.21996C35.4421 5.67293 35.348 6.07515 35.1601 6.42593C34.9723 6.77687 34.7085 7.05031 34.3686 7.24642C34.0286 7.44252 33.6378 7.54075 33.1958 7.54075C32.7592 7.54075 32.3711 7.44252 32.0311 7.24642C31.6912 7.05031 31.4272 6.77687 31.2396 6.42593C31.0517 6.07515 30.9578 5.6731 30.9578 5.21996ZM34.2567 5.21996C34.2567 4.83327 34.1642 4.53066 33.9791 4.31246C33.794 4.09426 33.5328 3.98516 33.1958 3.98516C32.8643 3.98516 32.6059 4.09426 32.4208 4.31246C32.2356 4.53083 32.1432 4.83327 32.1432 5.21996C32.1432 5.60664 32.2357 5.90925 32.4208 6.12745C32.6059 6.34583 32.8643 6.45475 33.1958 6.45475C33.5273 6.45475 33.7869 6.34427 33.9749 6.12331C34.1628 5.90235 34.2567 5.60112 34.2567 5.21996Z" fill="#30354B"/>
<path d="M36.105 5.96595L37.1827 5.71737C37.2599 5.99374 37.3995 6.20504 37.6012 6.35142C37.803 6.49781 38.0583 6.571 38.3679 6.571C38.6443 6.571 38.8554 6.53786 39.002 6.47157C39.1484 6.40528 39.2216 6.31137 39.2216 6.18967C39.2216 6.05174 39.147 5.94523 38.9979 5.87066C38.8487 5.79608 38.5751 5.72013 38.1771 5.64279C37.5252 5.52126 37.0594 5.35261 36.7804 5.13717C36.5014 4.92156 36.3618 4.6262 36.3618 4.25039C36.3618 3.98506 36.4391 3.75046 36.594 3.5459C36.7487 3.34151 36.9655 3.18269 37.2447 3.06928C37.5237 2.95604 37.8429 2.89941 38.2021 2.89941C38.694 2.89941 39.1305 3.02112 39.5118 3.264C39.893 3.50723 40.1499 3.83056 40.2827 4.23382L39.2632 4.56526C39.1803 4.3443 39.0462 4.17305 38.8611 4.05135C38.6761 3.92982 38.4537 3.86888 38.194 3.86888C37.9784 3.86888 37.8071 3.90358 37.6801 3.97263C37.5528 4.04168 37.4895 4.13715 37.4895 4.2585C37.4895 4.36915 37.5599 4.45892 37.7008 4.52797C37.8417 4.59702 38.0974 4.66469 38.4675 4.73098C39.1417 4.85803 39.6239 5.03342 39.9139 5.25714C40.2041 5.48087 40.3491 5.79177 40.3491 6.1895C40.3491 6.46035 40.2675 6.69788 40.1047 6.90227C39.9417 7.10684 39.7095 7.26427 39.4084 7.37458C39.1071 7.48506 38.7605 7.5403 38.3682 7.5403C37.7714 7.5403 37.2754 7.4022 36.8804 7.126C36.4852 6.84962 36.2269 6.46294 36.1054 5.9656L36.105 5.96595Z" fill="#30354B"/>
<path d="M42.6698 7.24233L40.9207 3.02368H42.1641L43.2581 5.83335H43.2749L44.3606 3.02368H45.604L43.051 9.28122H41.816L42.6698 7.24233Z" fill="#30354B"/>
<path d="M45.8359 5.96595L46.9135 5.71737C46.9907 5.99374 47.1304 6.20504 47.332 6.35142C47.5338 6.49781 47.7892 6.571 48.0987 6.571C48.3751 6.571 48.5863 6.53786 48.7328 6.47157C48.8792 6.40528 48.9524 6.31137 48.9524 6.18967C48.9524 6.05174 48.8779 5.94523 48.7287 5.87066C48.5795 5.79608 48.3059 5.72013 47.9079 5.64279C47.256 5.52126 46.7902 5.35261 46.5113 5.13717C46.2323 4.92156 46.0926 4.6262 46.0926 4.25039C46.0926 3.98506 46.1699 3.75046 46.3248 3.5459C46.4795 3.34151 46.6963 3.18269 46.9755 3.06928C47.2545 2.95604 47.5737 2.89941 47.933 2.89941C48.4248 2.89941 48.8613 3.02112 49.2427 3.264C49.6238 3.50723 49.8807 3.83056 50.0135 4.23382L48.994 4.56526C48.9112 4.3443 48.777 4.17305 48.592 4.05135C48.4069 3.92982 48.1845 3.86888 47.9249 3.86888C47.7092 3.86888 47.538 3.90358 47.4109 3.97263C47.2837 4.04168 47.2203 4.13715 47.2203 4.2585C47.2203 4.36915 47.2907 4.45892 47.4316 4.52797C47.5725 4.59702 47.8282 4.66469 48.1983 4.73098C48.8725 4.85803 49.3547 5.03342 49.6447 5.25714C49.935 5.48087 50.08 5.79177 50.08 6.1895C50.08 6.46035 49.9983 6.69788 49.8355 6.90227C49.6725 7.10684 49.4403 7.26427 49.1392 7.37458C48.838 7.48506 48.4913 7.5403 48.0991 7.5403C47.5022 7.5403 47.0062 7.4022 46.6112 7.126C46.216 6.84962 45.9578 6.46294 45.8362 5.9656L45.8359 5.96595Z" fill="#30354B"/>
<path d="M52.9314 4.08454V5.84999C52.9314 5.99914 52.9657 6.10685 53.0349 6.17332C53.104 6.2396 53.2186 6.27275 53.379 6.27275H54.3821V7.4164H53.2713C52.785 7.4164 52.4091 7.30177 52.1439 7.07235C51.8788 6.84311 51.746 6.51581 51.746 6.09028V4.08454H50.6685V3.02358H51.746V1.90479H52.9314V3.02358H54.6554V4.08454H52.9314Z" fill="#30354B"/>
<path d="M55.4511 5.22832C55.4511 4.76982 55.545 4.36363 55.733 4.00992C55.9207 3.65638 56.1833 3.38294 56.5205 3.18943C56.8575 2.99609 57.2471 2.89941 57.6893 2.89941C58.1148 2.89941 58.4946 2.99885 58.8291 3.19789C59.1635 3.39692 59.4245 3.67589 59.6123 4.03495C59.8002 4.39419 59.8943 4.80297 59.8943 5.26164V5.60965H56.6368C56.6534 5.88602 56.7582 6.10975 56.9517 6.28099C57.1451 6.45241 57.3994 6.53786 57.7143 6.53786C57.9351 6.53786 58.1397 6.48953 58.3277 6.39286C58.5155 6.29619 58.72 6.12908 58.9411 5.89155L59.6788 6.64575C59.4245 6.92765 59.1317 7.14723 58.8001 7.30467C58.4686 7.46211 58.1065 7.54082 57.7143 7.54082C57.2666 7.54082 56.8715 7.44398 56.5289 7.25064C56.1864 7.0573 55.921 6.78524 55.7334 6.43429C55.5454 6.08351 55.4515 5.68146 55.4515 5.22832H55.4511ZM58.7003 4.74755C58.6782 4.5045 58.5718 4.30287 58.3812 4.1425C58.1906 3.9823 57.9598 3.9022 57.6889 3.9022C57.4072 3.9022 57.175 3.97954 56.9928 4.13421C56.8103 4.28888 56.6971 4.49345 56.6529 4.74755H58.7001H58.7003Z" fill="#30354B"/>
<path d="M60.6895 3.02371H61.7338V3.40487H61.7505C61.8444 3.25572 61.9644 3.14109 62.111 3.06082C62.2574 2.9809 62.419 2.94067 62.596 2.94067C62.9442 2.94067 63.2232 3.10363 63.4333 3.42972H63.4499C63.6708 3.10381 63.9749 2.94067 64.3616 2.94067C64.682 2.94067 64.9418 3.05392 65.1409 3.2804C65.3398 3.50706 65.4394 3.8026 65.4394 4.16718V7.41618H64.3452V4.37468C64.3452 4.24763 64.312 4.15096 64.2457 4.08467C64.1794 4.01838 64.0854 3.98524 63.9638 3.98524C63.8478 3.98524 63.7553 4.02252 63.6862 4.0971C63.6171 4.17167 63.5826 4.27266 63.5826 4.39954V7.41653H62.5464V4.37468C62.5464 4.25315 62.5145 4.15803 62.4511 4.08881C62.3876 4.01976 62.2976 3.98524 62.1816 3.98524C62.0601 3.98524 61.9632 4.02252 61.8914 4.0971C61.8196 4.17167 61.7837 4.27266 61.7837 4.39954V7.41653H60.6896V3.02371H60.6895Z" fill="#30354B"/>
<path d="M20.8454 14.9425L21.9229 14.6939C22.0002 14.9705 22.1397 15.1816 22.3415 15.328C22.5432 15.4745 22.7987 15.5476 23.1082 15.5476C23.3845 15.5476 23.5959 15.5146 23.7423 15.4481C23.8888 15.3818 23.962 15.2879 23.962 15.1664C23.962 15.0283 23.8874 14.9218 23.7382 14.8472C23.589 14.7725 23.3156 14.6967 22.9176 14.6194C22.2656 14.4978 21.7999 14.3292 21.5209 14.1137C21.242 13.8983 21.1025 13.6028 21.1025 13.227C21.1025 12.9616 21.1798 12.727 21.3345 12.5225C21.4892 12.3181 21.706 12.1593 21.9852 12.0458C22.2642 11.9326 22.5832 11.876 22.9425 11.876C23.4342 11.876 23.8708 11.9977 24.2522 12.2406C24.6334 12.4838 24.8904 12.8071 25.023 13.2104L24.0036 13.542C23.9207 13.321 23.7865 13.1496 23.6015 13.0281C23.4162 12.9066 23.1939 12.8456 22.9342 12.8456C22.7187 12.8456 22.5473 12.8803 22.4202 12.9494C22.293 13.0184 22.2296 13.1139 22.2296 13.2352C22.2296 13.3459 22.3001 13.4357 22.441 13.5045C22.5818 13.5736 22.8374 13.6413 23.2077 13.7077C23.8818 13.8348 24.364 14.0102 24.6541 14.2341C24.9441 14.4578 25.0893 14.7687 25.0893 15.1664C25.0893 15.4371 25.0077 15.6748 24.8447 15.8792C24.6817 16.0837 24.4495 16.2412 24.1484 16.3515C23.8471 16.462 23.5005 16.5172 23.1081 16.5172C22.5112 16.5172 22.0152 16.3793 21.6202 16.1029C21.225 15.8267 20.9669 15.4398 20.8454 14.9425Z" fill="#30354B"/>
<path d="M25.8436 14.9011V12.0002H27.0289V14.6276C27.0289 15.1636 27.2941 15.4315 27.8247 15.4315C28.0622 15.4315 28.2516 15.3583 28.3925 15.212C28.5334 15.0656 28.6038 14.8708 28.6038 14.6276V12.0002H29.7892V16.3929H28.6535V16.0033H28.6369C28.5152 16.158 28.3481 16.2824 28.1354 16.3763C27.9225 16.4702 27.7002 16.517 27.4681 16.517C26.9487 16.517 26.5481 16.3749 26.2664 16.0903C25.9846 15.8056 25.8436 15.4093 25.8436 14.9007V14.9011Z" fill="#30354B"/>
<path d="M31.1236 12.0004H32.2592V12.3816H32.2758C32.6017 12.0446 33.0135 11.876 33.5109 11.876C33.8974 11.876 34.2445 11.9728 34.5511 12.166C34.8577 12.3595 35.0966 12.6316 35.2679 12.9823C35.4391 13.3333 35.525 13.7379 35.525 14.1964C35.525 14.6387 35.4391 15.0364 35.2679 15.39C35.0966 15.7437 34.8561 16.0199 34.5468 16.2189C34.2372 16.4176 33.8864 16.5172 33.494 16.5172C33.2454 16.5172 33.0216 16.4785 32.8226 16.4012C32.6237 16.324 32.4579 16.2189 32.3252 16.0863H32.3086V18.2578H31.1232V12.0003L31.1236 12.0004ZM34.3396 14.1968C34.3396 13.8211 34.2455 13.5215 34.0577 13.2976C33.8698 13.0738 33.6102 12.962 33.2785 12.962C33.0133 12.962 32.7854 13.0547 32.5947 13.2396C32.4041 13.4248 32.3088 13.6499 32.3088 13.915V14.4868C32.3088 14.6527 32.353 14.8072 32.4414 14.9508C32.5298 15.0946 32.6527 15.2106 32.8101 15.299C32.9678 15.3875 33.143 15.4317 33.3365 15.4317C33.6459 15.4317 33.8905 15.3199 34.0701 15.0962C34.2496 14.8723 34.3396 14.5727 34.3396 14.1968Z" fill="#30354B"/>
<path d="M36.3205 12.0004H37.4561V12.3816H37.4727C37.7988 12.0446 38.2104 11.876 38.7078 11.876C39.0943 11.876 39.4414 11.9728 39.748 12.166C40.0546 12.3595 40.2935 12.6316 40.4648 12.9823C40.636 13.3333 40.7219 13.7379 40.7219 14.1964C40.7219 14.6387 40.636 15.0364 40.4648 15.39C40.2935 15.7437 40.053 16.0199 39.7437 16.2189C39.4341 16.4176 39.0833 16.5172 38.6909 16.5172C38.4423 16.5172 38.2185 16.4785 38.0195 16.4012C37.8206 16.324 37.6548 16.2189 37.5221 16.0863H37.5055V18.2578H36.3201V12.0003L36.3205 12.0004ZM39.5367 14.1968C39.5367 13.8211 39.4426 13.5215 39.2547 13.2976C39.0669 13.0738 38.8072 12.962 38.4756 12.962C38.2104 12.962 37.9825 13.0547 37.7917 13.2396C37.6011 13.4248 37.5058 13.6499 37.5058 13.915V14.4868C37.5058 14.6527 37.55 14.8072 37.6384 14.9508C37.7268 15.0946 37.8499 15.2106 38.0074 15.299C38.1648 15.3875 38.3402 15.4317 38.5338 15.4317C38.8431 15.4317 39.0878 15.3199 39.2673 15.0962C39.4469 14.8723 39.5368 14.5727 39.5368 14.1968H39.5367Z" fill="#30354B"/>
<path d="M41.5178 14.1966C41.5178 13.7436 41.6117 13.3417 41.7997 12.9908C41.9874 12.64 42.2513 12.3664 42.5913 12.1703C42.9312 11.9742 43.3193 11.876 43.7557 11.876C44.1979 11.876 44.5887 11.9742 44.9287 12.1703C45.2686 12.3664 45.5324 12.64 45.7203 12.9908C45.9081 13.3417 46.0022 13.7436 46.0022 14.1966C46.0022 14.6496 45.9081 15.0518 45.7203 15.4026C45.5324 15.7535 45.2686 16.027 44.9287 16.2231C44.5887 16.4192 44.1979 16.5172 43.7557 16.5172C43.3193 16.5172 42.9312 16.4192 42.5913 16.2231C42.2513 16.027 41.9874 15.7535 41.7997 15.4026C41.6117 15.0518 41.5178 14.6497 41.5178 14.1966ZM44.8166 14.1966C44.8166 13.8101 44.7241 13.5075 44.539 13.2891C44.354 13.0709 44.0927 12.9618 43.7557 12.9618C43.4243 12.9618 43.1658 13.0709 42.9809 13.2891C42.7957 13.5075 42.7033 13.8101 42.7033 14.1966C42.7033 14.5831 42.7957 14.8861 42.9809 15.1043C43.1658 15.3226 43.4243 15.4316 43.7557 15.4316C44.0872 15.4316 44.347 15.3211 44.5351 15.0999C44.7229 14.8792 44.8168 14.5779 44.8168 14.1966H44.8166Z" fill="#30354B"/>
<path d="M46.9137 12.0003H48.0492V12.4065H48.0658C48.2536 12.2186 48.4486 12.0831 48.6502 12.0003C48.852 11.9174 49.0827 11.876 49.3425 11.876C49.7237 11.876 50.0524 11.9878 50.3288 12.2116C50.6052 12.4353 50.7986 12.7407 50.9091 13.1275L49.7983 13.4923C49.671 13.133 49.4086 12.9535 49.0107 12.9535C48.7122 12.9535 48.4857 13.0405 48.331 13.2145C48.1763 13.3885 48.0988 13.6276 48.0988 13.9314V16.3931H46.9136V12.0004L46.9137 12.0003Z" fill="#30354B"/>
<path d="M53.7603 13.0612V14.8266C53.7603 14.9758 53.7946 15.0835 53.8639 15.1498C53.9329 15.2162 54.0476 15.2492 54.2079 15.2492H55.211V16.393H54.1002C53.6139 16.393 53.238 16.2784 52.9728 16.0492C52.7077 15.8199 52.5749 15.4924 52.5749 15.0671V13.0613H51.4974V12.0004H52.5749V10.8816H53.7603V12.0004H55.4843V13.0613H53.7603V13.0612Z" fill="#30354B"/>
<path d="M20.8951 20.977H22.0307V21.3583H22.0473C22.3733 21.0214 22.785 20.8525 23.2824 20.8525C23.6691 20.8525 24.016 20.9494 24.3226 21.1427C24.6294 21.3362 24.8683 21.6083 25.0396 21.9591C25.2108 22.31 25.2965 22.7147 25.2965 23.1732C25.2965 23.6154 25.2107 24.0132 25.0396 24.3667C24.8681 24.7204 24.6278 24.9966 24.3184 25.1956C24.0089 25.3943 23.6581 25.4939 23.2658 25.4939C23.0172 25.4939 22.7933 25.4553 22.5944 25.3779C22.3955 25.3008 22.2298 25.1956 22.097 25.0631H22.0805V27.2345H20.8951V20.977ZM24.1111 23.1733C24.1111 22.7977 24.0172 22.498 23.8293 22.2741C23.6415 22.0504 23.3817 21.9385 23.0502 21.9385C22.785 21.9385 22.5571 22.0311 22.3664 22.2161C22.1758 22.4013 22.0805 22.6264 22.0805 22.8916V23.4633C22.0805 23.6292 22.1246 23.7837 22.213 23.9274C22.3014 24.0712 22.4244 24.1872 22.5818 24.2755C22.7394 24.3641 22.9147 24.4083 23.1082 24.4083C23.4176 24.4083 23.662 24.2964 23.8418 24.0727C24.0213 23.8488 24.1111 23.5493 24.1111 23.1733Z" fill="#30354B"/>
<path d="M26.1254 20.977H27.261V21.3832H27.2776C27.4654 21.1954 27.6602 21.06 27.862 20.977C28.0636 20.8941 28.2943 20.8525 28.5541 20.8525C28.9353 20.8525 29.2642 20.9644 29.5404 21.1883C29.8168 21.412 30.01 21.7172 30.1207 22.1041L29.0099 22.4688C28.8828 22.1096 28.6204 21.9301 28.2225 21.9301C27.924 21.9301 27.6975 22.0171 27.5428 22.1913C27.3881 22.3653 27.3107 22.6044 27.3107 22.908V25.3697H26.1254V20.977Z" fill="#30354B"/>
<path d="M30.6262 23.1732C30.6262 22.7202 30.7201 22.3183 30.9079 21.9674C31.0958 21.6166 31.3597 21.3431 31.6995 21.1469C32.0392 20.9508 32.4275 20.8525 32.8641 20.8525C33.3061 20.8525 33.6971 20.9508 34.0371 21.1469C34.377 21.3431 34.6406 21.6166 34.8285 21.9674C35.0163 22.3183 35.1104 22.7202 35.1104 23.1732C35.1104 23.6261 35.0163 24.0283 34.8285 24.3791C34.6406 24.7301 34.377 25.0035 34.0371 25.1996C33.6971 25.3957 33.3061 25.4938 32.8641 25.4938C32.4275 25.4938 32.0394 25.3957 31.6995 25.1996C31.3595 25.0035 31.0956 24.7301 30.9079 24.3791C30.7201 24.0283 30.6262 23.6263 30.6262 23.1732ZM33.9252 23.1732C33.9252 22.7866 33.8325 22.484 33.6474 22.2657C33.4623 22.0475 33.2013 21.9384 32.8643 21.9384C32.5328 21.9384 32.2744 22.0476 32.0893 22.2657C31.9041 22.484 31.8117 22.7866 31.8117 23.1732C31.8117 23.5597 31.9042 23.8626 32.0893 24.0808C32.2744 24.2992 32.5328 24.4081 32.8643 24.4081C33.1958 24.4081 33.4556 24.2976 33.6435 24.0765C33.8313 23.8557 33.9254 23.5545 33.9254 23.1732H33.9252Z" fill="#30354B"/>
<path d="M36.1464 26.3476L37.0499 25.6598C37.2156 25.8974 37.3827 26.0645 37.5512 26.1611C37.7199 26.2578 37.9285 26.3063 38.1771 26.3063C38.4866 26.3063 38.7325 26.2205 38.9148 26.0493C39.0971 25.878 39.1883 25.6405 39.1883 25.3365V25.0216H39.1717C39.0113 25.1874 38.8414 25.3075 38.662 25.3823C38.4823 25.4568 38.2653 25.4939 38.0112 25.4939C37.6132 25.4939 37.261 25.3959 36.9544 25.1998C36.6478 25.0037 36.4101 24.7302 36.2416 24.3793C36.0727 24.0285 35.9886 23.6265 35.9886 23.1733C35.9886 22.7259 36.0757 22.3268 36.2499 21.9756C36.4239 21.6249 36.6642 21.3499 36.971 21.151C37.2778 20.9521 37.6272 20.8525 38.0195 20.8525C38.2681 20.8525 38.4809 20.8886 38.6577 20.9604C38.8345 21.0322 38.9977 21.1427 39.1468 21.2919H39.1634V20.977H40.3073V25.3862C40.3073 25.7729 40.2174 26.1157 40.0378 26.414C39.8581 26.7125 39.6081 26.9444 39.2875 27.1101C38.9671 27.276 38.5968 27.3587 38.1767 27.3587C37.3147 27.3587 36.6378 27.0217 36.1459 26.3476H36.1464ZM39.1221 23.4551V22.8833C39.1221 22.5961 39.0336 22.3666 38.857 22.1954C38.6802 22.0243 38.4535 21.9385 38.1771 21.9385C37.8675 21.9385 37.6231 22.0492 37.4435 22.2701C37.264 22.4911 37.1742 22.7922 37.1742 23.1733C37.1742 23.5438 37.2652 23.8421 37.4477 24.0686C37.6301 24.2952 37.8703 24.4085 38.1688 24.4085C38.3347 24.4085 38.4906 24.3657 38.6372 24.28C38.7836 24.1944 38.901 24.0784 38.9894 23.9318C39.0778 23.7855 39.1221 23.6263 39.1221 23.4551Z" fill="#30354B"/>
<path d="M41.5509 20.977H42.6864V21.3832H42.7029C42.8908 21.1954 43.0857 21.06 43.2873 20.977C43.4892 20.8941 43.7198 20.8525 43.9796 20.8525C44.3608 20.8525 44.6896 20.9644 44.966 21.1883C45.2424 21.412 45.4357 21.7172 45.5462 22.1041L44.4354 22.4688C44.3082 22.1096 44.0458 21.9301 43.6478 21.9301C43.3493 21.9301 43.1228 22.0171 42.9681 22.1913C42.8134 22.3653 42.7359 22.6044 42.7359 22.908V25.3697H41.5507L41.5509 20.977Z" fill="#30354B"/>
<path d="M46.1593 24.1927C46.1593 23.7837 46.2989 23.4661 46.5779 23.2396C46.8569 23.0131 47.3225 22.8474 47.9746 22.7423C48.3171 22.6872 48.5507 22.6249 48.6752 22.5558C48.7995 22.4868 48.8616 22.3941 48.8616 22.2783C48.8616 22.1455 48.8007 22.0407 48.6792 21.9632C48.5576 21.8861 48.3919 21.8472 48.182 21.8472C47.9442 21.8472 47.7384 21.9192 47.5644 22.0627C47.3902 22.2064 47.2785 22.3972 47.2288 22.6346L46.1263 22.386C46.1814 22.0875 46.3058 21.8224 46.4992 21.5903C46.6926 21.3583 46.9356 21.1772 47.2288 21.0474C47.5216 20.9176 47.8393 20.8525 48.182 20.8525C48.7456 20.8525 49.1959 21.0101 49.5329 21.325C49.8699 21.6399 50.0386 22.0599 50.0386 22.5848V25.3697H48.9775V24.8806H48.9609C48.8339 25.0741 48.6555 25.2246 48.4262 25.3324C48.1968 25.4401 47.9385 25.4939 47.6512 25.4939C47.364 25.4939 47.1069 25.4387 46.8804 25.3282C46.6537 25.2177 46.4769 25.0631 46.3499 24.8642C46.2228 24.6653 46.1593 24.4414 46.1593 24.1927ZM48.9112 23.7368V23.2394H48.8946C48.8449 23.3221 48.7619 23.3886 48.646 23.4383C48.5298 23.488 48.3475 23.5377 48.0989 23.5875C47.7894 23.6537 47.5768 23.7242 47.4606 23.7988C47.3446 23.8735 47.2866 23.9769 47.2866 24.1097C47.2866 24.2367 47.3376 24.3334 47.4399 24.3998C47.5421 24.4661 47.6899 24.4993 47.8835 24.4993C48.0601 24.4993 48.2287 24.4647 48.3891 24.3955C48.5493 24.3266 48.6762 24.2327 48.7703 24.1138C48.8642 23.995 48.9112 23.8694 48.9112 23.7368Z" fill="#30354B"/>
<path d="M51.1243 20.9769H52.1687V21.3582H52.1854C52.2793 21.2091 52.3993 21.0945 52.5459 21.0142C52.6923 20.9341 52.8539 20.894 53.0308 20.894C53.3791 20.894 53.658 21.057 53.8682 21.3831H53.8847C54.1057 21.057 54.4097 20.894 54.7965 20.894C55.1169 20.894 55.3767 21.0073 55.5758 21.2339C55.7748 21.4606 55.8743 21.756 55.8743 22.1209V25.3697H54.7801V22.3281C54.7801 22.201 54.7469 22.1042 54.6806 22.0379C54.6143 21.9716 54.5202 21.9384 54.3987 21.9384C54.2827 21.9384 54.1901 21.9757 54.1211 22.0503C54.052 22.1249 54.0175 22.2259 54.0175 22.3527V25.3697H52.9813V22.3281C52.9813 22.2065 52.9493 22.1112 52.886 22.0422C52.8225 21.9731 52.7325 21.9384 52.6165 21.9384C52.4949 21.9384 52.3981 21.9757 52.3263 22.0503C52.2545 22.1249 52.2185 22.2259 52.2185 22.3527V25.3697H51.1245V20.9771L51.1243 20.9769Z" fill="#30354B"/>
</g>
<defs>
<linearGradient id="paint0_linear_1974_14329" x1="0.467922" y1="16.0691" x2="10.3677" y2="25.9699" gradientUnits="userSpaceOnUse">
<stop stop-color="#F47D51"/>
<stop offset="0.96" stop-color="#DF72AC"/>
</linearGradient>
<linearGradient id="paint1_linear_1974_14329" x1="10.345" y1="19.3639" x2="13.6626" y2="22.6817" gradientUnits="userSpaceOnUse">
<stop stop-color="#F15D4C"/>
<stop offset="1" stop-color="#C36CA1"/>
</linearGradient>
<linearGradient id="paint2_linear_1974_14329" x1="7.13799" y1="11.2073" x2="12.7834" y2="16.8533" gradientUnits="userSpaceOnUse">
<stop stop-color="#B46947"/>
<stop offset="0.896" stop-color="#AE5262"/>
</linearGradient>
<linearGradient id="paint3_linear_1974_14329" x1="12.7332" y1="0.237793" x2="12.7332" y2="14.2302" gradientUnits="userSpaceOnUse">
<stop stop-color="#FFD663"/>
<stop offset="1" stop-color="#F26C7D"/>
</linearGradient>
<linearGradient id="paint4_linear_1974_14329" x1="3.20588" y1="5.75458" x2="7.90684" y2="10.456" gradientUnits="userSpaceOnUse">
<stop stop-color="#FFF171"/>
<stop offset="1" stop-color="#FAB382"/>
</linearGradient>
<linearGradient id="paint5_linear_1974_14329" x1="3.81428" y1="11.0641" x2="10.4058" y2="17.6563" gradientUnits="userSpaceOnUse">
<stop stop-color="#D48A3D"/>
<stop offset="0.795" stop-color="#DB474E"/>
</linearGradient>
<clipPath id="clip0_1974_14329">
<rect width="64.9599" height="28" fill="white" transform="translate(0.619995 0.237793)"/>
</clipPath>
</defs>
</svg>
