<svg width="53" height="45" viewBox="0 0 53 45" fill="none" xmlns="http://www.w3.org/2000/svg">
<g clip-path="url(#clip0_2653_14724)">
<path d="M6.82883 28.0344V33.3678L0.36438 23.8662L6.82883 28.0344Z" fill="url(#paint0_linear_2653_14724)"/>
<path d="M13.2489 23.8662L6.82886 33.3678V28.0344L13.2489 23.8662Z" fill="url(#paint1_linear_2653_14724)"/>
<path d="M13.2489 22.5216L6.82886 18.8016V26.6897L13.2489 22.5216Z" fill="url(#paint2_linear_2653_14724)"/>
<path d="M13.2489 22.5215L6.82886 11.1823V18.8016L13.2489 22.5215Z" fill="url(#paint3_linear_2653_14724)"/>
<path d="M6.82883 11.1823V18.8016L0.36438 22.5215L6.82883 11.1823Z" fill="url(#paint4_linear_2653_14724)"/>
<path d="M6.82883 18.8016V26.6897L0.36438 22.5216L6.82883 18.8016Z" fill="url(#paint5_linear_2653_14724)"/>
<path d="M16.4397 15.2266C16.4397 14.855 16.5149 14.5258 16.6652 14.2392C16.8156 13.9527 17.0257 13.7311 17.2956 13.5743C17.5653 13.4176 17.8773 13.3392 18.2312 13.3392C18.5717 13.3392 18.8759 13.4198 19.1436 13.5811C19.4111 13.7423 19.6202 13.9685 19.7706 14.2595C19.921 14.5506 19.9961 14.8819 19.9961 15.2536V15.5356H17.3884C17.4017 15.7596 17.4857 15.9409 17.6407 16.0796C17.7954 16.2185 17.9989 16.2878 18.2511 16.2878C18.428 16.2878 18.5916 16.2486 18.7421 16.1703C18.8925 16.0919 19.0561 15.9565 19.2331 15.764L19.8237 16.3752C19.6201 16.6037 19.3857 16.7816 19.1204 16.9092C18.855 17.0368 18.5651 17.1006 18.2511 17.1006C17.8927 17.1006 17.5765 17.0221 17.3022 16.8654C17.0279 16.7087 16.8156 16.4883 16.6652 16.2039C16.5149 15.9196 16.4397 15.5938 16.4397 15.2266ZM19.0408 14.8369C19.0231 14.64 18.9379 14.4766 18.7852 14.3466C18.6327 14.2168 18.4479 14.1519 18.2312 14.1519C18.0056 14.1519 17.8198 14.2146 17.6738 14.3399C17.5279 14.4652 17.4372 14.631 17.4018 14.8369H19.0408Z" fill="#30354B"/>
<path d="M20.5999 15.2199C20.5999 14.8528 20.6751 14.527 20.8255 14.2426C20.9758 13.9583 21.1871 13.7366 21.4591 13.5776C21.7311 13.4187 22.0419 13.3391 22.3914 13.3391C22.8028 13.3391 23.1566 13.4533 23.4531 13.6817C23.7494 13.91 23.9507 14.2168 24.0569 14.6019L23.1413 14.8571C23.0971 14.6601 23.0129 14.5044 22.8891 14.3903C22.7652 14.2761 22.5993 14.219 22.3914 14.219C22.1261 14.219 21.9192 14.3075 21.771 14.4843C21.6227 14.6613 21.5488 14.9064 21.5488 15.2197C21.5488 15.5331 21.6229 15.7783 21.771 15.9551C21.9192 16.1321 22.1261 16.2204 22.3914 16.2204C22.5993 16.2204 22.7651 16.1633 22.8891 16.0492C23.0129 15.935 23.0969 15.7794 23.1413 15.5823L24.0569 15.8375C23.9507 16.2226 23.7494 16.5293 23.4531 16.7577C23.1566 16.986 22.8028 17.1003 22.3914 17.1003C22.0419 17.1003 21.7312 17.0207 21.4591 16.8618C21.187 16.7029 20.9757 16.4813 20.8255 16.1969C20.6751 15.9126 20.5999 15.5868 20.5999 15.2196V15.2199Z" fill="#30354B"/>
<path d="M24.6275 15.2199C24.6275 14.8528 24.7027 14.527 24.853 14.2426C25.0034 13.9583 25.2147 13.7366 25.4867 13.5776C25.7587 13.4187 26.0695 13.3391 26.419 13.3391C26.7728 13.3391 27.0858 13.4187 27.3578 13.5776C27.6299 13.7366 27.8411 13.9583 27.9914 14.2426C28.1418 14.527 28.2171 14.8528 28.2171 15.2199C28.2171 15.5869 28.1418 15.9129 27.9914 16.1972C27.8411 16.4816 27.6299 16.7032 27.3578 16.8621C27.0857 17.021 26.7728 17.1006 26.419 17.1006C26.0695 17.1006 25.7588 17.021 25.4867 16.8621C25.2146 16.7032 25.0033 16.4816 24.853 16.1972C24.7027 15.9129 24.6275 15.5871 24.6275 15.2199ZM27.2682 15.2199C27.2682 14.9065 27.1942 14.6613 27.046 14.4844C26.8979 14.3076 26.6888 14.2192 26.419 14.2192C26.1536 14.2192 25.9468 14.3076 25.7986 14.4844C25.6503 14.6614 25.5764 14.9065 25.5764 15.2199C25.5764 15.5332 25.6505 15.7785 25.7986 15.9553C25.9468 16.1322 26.1536 16.2205 26.419 16.2205C26.6843 16.2205 26.8922 16.131 27.0427 15.9519C27.193 15.7729 27.2682 15.5287 27.2682 15.2199Z" fill="#30354B"/>
<path d="M28.7478 15.8243L29.6104 15.6229C29.6722 15.8468 29.784 16.0181 29.9454 16.1367C30.107 16.2553 30.3114 16.3147 30.5592 16.3147C30.7804 16.3147 30.9495 16.2878 31.0668 16.2341C31.184 16.1804 31.2426 16.1043 31.2426 16.0056C31.2426 15.8938 31.1829 15.8075 31.0635 15.7471C30.9441 15.6867 30.725 15.6251 30.4065 15.5624C29.8846 15.464 29.5118 15.3273 29.2884 15.1527C29.0651 14.978 28.9533 14.7386 28.9533 14.434C28.9533 14.219 29.0152 14.0289 29.1392 13.8631C29.263 13.6975 29.4366 13.5688 29.6601 13.4769C29.8834 13.3851 30.1389 13.3392 30.4265 13.3392C30.8203 13.3392 31.1696 13.4379 31.4749 13.6347C31.7801 13.8318 31.9857 14.0938 32.092 14.4206L31.2759 14.6892C31.2096 14.5102 31.1022 14.3714 30.954 14.2728C30.8059 14.1743 30.6279 14.1249 30.42 14.1249C30.2474 14.1249 30.1103 14.153 30.0086 14.209C29.9067 14.2649 29.856 14.3423 29.856 14.4406C29.856 14.5303 29.9124 14.603 30.0252 14.659C30.138 14.715 30.3426 14.7698 30.6389 14.8235C31.1786 14.9265 31.5646 15.0686 31.7968 15.2499C32.0291 15.4312 32.1452 15.6832 32.1452 16.0055C32.1452 16.225 32.0798 16.4175 31.9495 16.5831C31.819 16.7489 31.6331 16.8765 31.3921 16.9659C31.151 17.0554 30.8735 17.1002 30.5595 17.1002C30.0817 17.1002 29.6847 16.9882 29.3685 16.7644C29.0521 16.5404 28.8454 16.2271 28.7481 15.824L28.7478 15.8243Z" fill="#30354B"/>
<path d="M34.0028 16.8587L32.6027 13.4399H33.598L34.4738 15.7169H34.4872L35.3564 13.4399H36.3517L34.308 18.511H33.3194L34.0028 16.8587Z" fill="#30354B"/>
<path d="M36.5373 15.8243L37.3999 15.6229C37.4617 15.8468 37.5735 16.0181 37.7349 16.1367C37.8965 16.2553 38.1009 16.3147 38.3487 16.3147C38.5699 16.3147 38.739 16.2878 38.8563 16.2341C38.9735 16.1804 39.0321 16.1043 39.0321 16.0056C39.0321 15.8938 38.9724 15.8075 38.853 15.7471C38.7336 15.6867 38.5145 15.6251 38.196 15.5624C37.6741 15.464 37.3013 15.3273 37.0779 15.1527C36.8546 14.978 36.7428 14.7386 36.7428 14.434C36.7428 14.219 36.8047 14.0289 36.9287 13.8631C37.0525 13.6975 37.2261 13.5688 37.4495 13.4769C37.6729 13.3851 37.9284 13.3392 38.216 13.3392C38.6097 13.3392 38.9591 13.4379 39.2644 13.6347C39.5695 13.8318 39.7752 14.0938 39.8815 14.4206L39.0654 14.6892C38.9991 14.5102 38.8917 14.3714 38.7435 14.2728C38.5954 14.1743 38.4174 14.1249 38.2095 14.1249C38.0369 14.1249 37.8998 14.153 37.7981 14.209C37.6962 14.2649 37.6455 14.3423 37.6455 14.4406C37.6455 14.5303 37.7019 14.603 37.8147 14.659C37.9274 14.715 38.1321 14.7698 38.4284 14.8235C38.9681 14.9265 39.3541 15.0686 39.5863 15.2499C39.8186 15.4312 39.9347 15.6832 39.9347 16.0055C39.9347 16.225 39.8693 16.4175 39.739 16.5831C39.6085 16.7489 39.4226 16.8765 39.1816 16.9659C38.9405 17.0554 38.6629 17.1002 38.349 17.1002C37.8712 17.1002 37.4742 16.9882 37.1579 16.7644C36.8416 16.5404 36.6349 16.2271 36.5376 15.824L36.5373 15.8243Z" fill="#30354B"/>
<path d="M42.2172 14.2997V15.7304C42.2172 15.8512 42.2447 15.9385 42.3001 15.9924C42.3553 16.0461 42.4471 16.073 42.5755 16.073H43.3784V16.9998H42.4893C42.1 16.9998 41.7991 16.9069 41.5868 16.7209C41.3745 16.5352 41.2683 16.2699 41.2683 15.9251V14.2997H40.4058V13.4399H41.2683V12.5332H42.2172V13.4399H43.5972V14.2997H42.2172Z" fill="#30354B"/>
<path d="M44.2342 15.2266C44.2342 14.855 44.3094 14.5258 44.4599 14.2392C44.6101 13.9527 44.8203 13.7311 45.0902 13.5743C45.36 13.4176 45.6719 13.3392 46.0258 13.3392C46.3665 13.3392 46.6705 13.4198 46.9382 13.5811C47.2059 13.7424 47.4149 13.9685 47.5652 14.2595C47.7156 14.5506 47.7909 14.8819 47.7909 15.2536V15.5356H45.1834C45.1966 15.7596 45.2805 15.9409 45.4354 16.0796C45.5902 16.2185 45.7938 16.2878 46.0459 16.2878C46.2226 16.2878 46.3864 16.2486 46.5369 16.1703C46.6872 16.0919 46.8509 15.9565 47.0279 15.764L47.6184 16.3752C47.4149 16.6037 47.1805 16.7816 46.915 16.9092C46.6497 17.0368 46.3598 17.1006 46.0459 17.1006C45.6875 17.1006 45.3712 17.0221 45.097 16.8654C44.8228 16.7087 44.6104 16.4883 44.4602 16.2039C44.3097 15.9196 44.2345 15.5938 44.2345 15.2266H44.2342ZM46.8351 14.8369C46.8174 14.64 46.7323 14.4766 46.5797 14.3466C46.4272 14.2168 46.2424 14.1519 46.0255 14.1519C45.8 14.1519 45.6141 14.2146 45.4683 14.3399C45.3222 14.4652 45.2316 14.631 45.1962 14.8369H46.835H46.8351Z" fill="#30354B"/>
<path d="M48.4275 13.44H49.2635V13.7489H49.2769C49.352 13.628 49.4481 13.5351 49.5654 13.47C49.6826 13.4053 49.812 13.3727 49.9536 13.3727C50.2324 13.3727 50.4557 13.5047 50.6239 13.769H50.6372C50.8141 13.5049 51.0574 13.3727 51.367 13.3727C51.6235 13.3727 51.8315 13.4645 51.9908 13.648C52.15 13.8317 52.2298 14.0712 52.2298 14.3666V16.9996H51.3539V14.5348C51.3539 14.4318 51.3273 14.3535 51.2743 14.2998C51.2212 14.246 51.1459 14.2192 51.0486 14.2192C50.9557 14.2192 50.8816 14.2494 50.8264 14.3098C50.7711 14.3703 50.7434 14.4521 50.7434 14.5549V16.9999H49.914V14.5348C49.914 14.4363 49.8884 14.3592 49.8377 14.3031C49.7868 14.2472 49.7148 14.2192 49.622 14.2192C49.5247 14.2192 49.4471 14.2494 49.3896 14.3098C49.3321 14.3703 49.3034 14.4521 49.3034 14.5549V16.9999H48.4276V13.44H48.4275Z" fill="#30354B"/>
<path d="M16.5325 23.0989L17.3951 22.8974C17.457 23.1215 17.5686 23.2926 17.7302 23.4112C17.8916 23.53 18.0961 23.5892 18.3439 23.5892C18.5651 23.5892 18.7344 23.5625 18.8515 23.5086C18.9687 23.4549 19.0273 23.3788 19.0273 23.2803C19.0273 23.1684 18.9676 23.0821 18.8482 23.0216C18.7288 22.9611 18.5099 22.8996 18.1914 22.837C17.6694 22.7385 17.2967 22.6018 17.0733 22.4272C16.85 22.2526 16.7383 22.0131 16.7383 21.7086C16.7383 21.4936 16.8002 21.3035 16.9241 21.1377C17.0479 20.972 17.2215 20.8433 17.4449 20.7514C17.6683 20.6597 17.9237 20.6138 18.2113 20.6138C18.6049 20.6138 18.9544 20.7124 19.2597 20.9092C19.5648 21.1063 19.7706 21.3684 19.8767 21.6952L19.0606 21.9639C18.9943 21.7848 18.8869 21.6459 18.7388 21.5474C18.5905 21.4489 18.4125 21.3996 18.2046 21.3996C18.0322 21.3996 17.8949 21.4277 17.7932 21.4836C17.6914 21.5396 17.6406 21.617 17.6406 21.7153C17.6406 21.805 17.697 21.8777 17.8098 21.9335C17.9226 21.9895 18.1271 22.0443 18.4235 22.0982C18.9632 22.2012 19.3492 22.3433 19.5814 22.5247C19.8136 22.706 19.9298 22.958 19.9298 23.2803C19.9298 23.4997 19.8644 23.6923 19.734 23.8579C19.6035 24.0237 19.4176 24.1513 19.1766 24.2407C18.9354 24.3302 18.6579 24.375 18.3438 24.375C17.866 24.375 17.469 24.2632 17.1528 24.0392C16.8364 23.8154 16.6298 23.5019 16.5325 23.0989Z" fill="#30354B"/>
<path d="M20.5336 23.0653V20.7145H21.4825V22.8437C21.4825 23.278 21.6947 23.4952 22.1194 23.4952C22.3096 23.4952 22.4612 23.4358 22.574 23.3172C22.6867 23.1986 22.7431 23.0408 22.7431 22.8437V20.7145H23.692V24.2742H22.7829V23.9585H22.7696C22.6722 24.0838 22.5384 24.1847 22.3682 24.2608C22.1978 24.3369 22.0198 24.3748 21.834 24.3748C21.4182 24.3748 21.0976 24.2597 20.872 24.029C20.6465 23.7983 20.5336 23.4771 20.5336 23.065V23.0653Z" fill="#30354B"/>
<path d="M24.7602 20.7145H25.6692V21.0234H25.6825C25.9434 20.7503 26.273 20.6136 26.6712 20.6136C26.9806 20.6136 27.2584 20.6921 27.5039 20.8487C27.7493 21.0055 27.9406 21.226 28.0777 21.5102C28.2148 21.7946 28.2834 22.1226 28.2834 22.4941C28.2834 22.8525 28.2148 23.1748 28.0777 23.4613C27.9406 23.748 27.7481 23.9718 27.5004 24.1331C27.2526 24.2941 26.9718 24.3749 26.6577 24.3749C26.4586 24.3749 26.2795 24.3435 26.1202 24.2808C25.961 24.2183 25.8283 24.1331 25.722 24.0257H25.7088V25.7854H24.7599V20.7144L24.7602 20.7145ZM27.3346 22.4944C27.3346 22.19 27.2592 21.9471 27.1089 21.7657C26.9585 21.5844 26.7507 21.4937 26.4852 21.4937C26.2729 21.4937 26.0905 21.5688 25.9378 21.7187C25.7852 21.8688 25.7089 22.0512 25.7089 22.2661V22.7294C25.7089 22.8639 25.7443 22.9891 25.815 23.1055C25.8858 23.222 25.9842 23.316 26.1102 23.3876C26.2364 23.4594 26.3767 23.4952 26.5316 23.4952C26.7793 23.4952 26.9751 23.4045 27.1188 23.2232C27.2626 23.0418 27.3346 22.7991 27.3346 22.4944Z" fill="#30354B"/>
<path d="M28.9203 20.7145H29.8293V21.0234H29.8426C30.1037 20.7503 30.4331 20.6136 30.8313 20.6136C31.1407 20.6136 31.4185 20.6921 31.6639 20.8487C31.9094 21.0055 32.1007 21.226 32.2378 21.5102C32.3748 21.7946 32.4435 22.1226 32.4435 22.4941C32.4435 22.8525 32.3748 23.1748 32.2378 23.4613C32.1007 23.748 31.9081 23.9718 31.6605 24.1331C31.4127 24.2941 31.1319 24.3749 30.8177 24.3749C30.6187 24.3749 30.4396 24.3435 30.2803 24.2808C30.1211 24.2183 29.9884 24.1331 29.8821 24.0257H29.8689V25.7854H28.92V20.7144L28.9203 20.7145ZM31.4948 22.4944C31.4948 22.19 31.4195 21.9471 31.2691 21.7657C31.1187 21.5844 30.9109 21.4937 30.6454 21.4937C30.4331 21.4937 30.2507 21.5688 30.098 21.7187C29.9454 21.8688 29.8691 22.0512 29.8691 22.2661V22.7294C29.8691 22.8639 29.9045 22.9891 29.9753 23.1055C30.046 23.222 30.1446 23.316 30.2706 23.3876C30.3967 23.4594 30.5371 23.4952 30.692 23.4952C30.9396 23.4952 31.1355 23.4045 31.2792 23.2232C31.4229 23.0418 31.4949 22.7991 31.4949 22.4944H31.4948Z" fill="#30354B"/>
<path d="M33.0806 22.4944C33.0806 22.1273 33.1558 21.8016 33.3063 21.5172C33.4565 21.2329 33.6678 21.0112 33.94 20.8523C34.2121 20.6934 34.5227 20.6138 34.8721 20.6138C35.226 20.6138 35.5389 20.6934 35.811 20.8523C36.0832 21.0112 36.2943 21.2329 36.4447 21.5172C36.5951 21.8016 36.6704 22.1273 36.6704 22.4944C36.6704 22.8615 36.5951 23.1874 36.4447 23.4717C36.2943 23.7561 36.0832 23.9777 35.811 24.1366C35.5389 24.2955 35.226 24.375 34.8721 24.375C34.5227 24.375 34.2121 24.2955 33.94 24.1366C33.6678 23.9777 33.4565 23.7561 33.3063 23.4717C33.1558 23.1874 33.0806 22.8616 33.0806 22.4944ZM35.7214 22.4944C35.7214 22.1811 35.6473 21.9359 35.4991 21.7589C35.351 21.5821 35.1419 21.4937 34.8721 21.4937C34.6068 21.4937 34.3999 21.5821 34.2519 21.7589C34.1036 21.9359 34.0296 22.1811 34.0296 22.4944C34.0296 22.8076 34.1036 23.0531 34.2519 23.2299C34.3999 23.4069 34.6068 23.4952 34.8721 23.4952C35.1375 23.4952 35.3454 23.4056 35.4959 23.2264C35.6463 23.0475 35.7215 22.8034 35.7215 22.4944H35.7214Z" fill="#30354B"/>
<path d="M37.4001 20.7145H38.309V21.0437H38.3223C38.4727 20.8915 38.6287 20.7816 38.7901 20.7145C38.9517 20.6473 39.1363 20.6138 39.3443 20.6138C39.6494 20.6138 39.9126 20.7044 40.1338 20.8857C40.3551 21.067 40.5099 21.3145 40.5983 21.628L39.7092 21.9236C39.6073 21.6325 39.3972 21.487 39.0787 21.487C38.8397 21.487 38.6584 21.5575 38.5346 21.6985C38.4108 21.8395 38.3487 22.0333 38.3487 22.2795V24.2744H37.4V20.7146L37.4001 20.7145Z" fill="#30354B"/>
<path d="M42.8807 21.5742V23.0049C42.8807 23.1257 42.9082 23.213 42.9636 23.2668C43.0189 23.3206 43.1107 23.3473 43.2391 23.3473H44.042V24.2743H43.1528C42.7635 24.2743 42.4627 24.1814 42.2504 23.9956C42.0381 23.8098 41.9318 23.5444 41.9318 23.1997V21.5743H41.0693V20.7145H41.9318V19.8079H42.8807V20.7145H44.2608V21.5743H42.8807V21.5742Z" fill="#30354B"/>
<path d="M16.5724 27.989H17.4815V28.2981H17.4947C17.7557 28.025 18.0853 27.8882 18.4834 27.8882C18.793 27.8882 19.0706 27.9667 19.3161 28.1233C19.5617 28.2802 19.7529 28.5006 19.89 28.7849C20.0271 29.0693 20.0957 29.3972 20.0957 29.7688C20.0957 30.1272 20.027 30.4495 19.89 30.736C19.7528 31.0227 19.5604 31.2465 19.3128 31.4078C19.065 31.5688 18.7841 31.6495 18.4702 31.6495C18.2711 31.6495 18.0919 31.6182 17.9327 31.5555C17.7735 31.493 17.6408 31.4078 17.5345 31.3004H17.5213V33.0601H16.5724V27.989ZM19.1468 29.7689C19.1468 29.4645 19.0716 29.2217 18.9212 29.0402C18.7709 28.8589 18.5629 28.7683 18.2975 28.7683C18.0853 28.7683 17.9028 28.8432 17.7501 28.9932C17.5976 29.1433 17.5213 29.3257 17.5213 29.5406V30.004C17.5213 30.1384 17.5566 30.2636 17.6274 30.38C17.6982 30.4965 17.7966 30.5905 17.9226 30.6622C18.0488 30.7339 18.1891 30.7697 18.344 30.7697C18.5916 30.7697 18.7873 30.6791 18.9312 30.4978C19.0749 30.3163 19.1468 30.0736 19.1468 29.7689Z" fill="#30354B"/>
<path d="M20.7592 27.989H21.6682V28.3182H21.6815C21.8319 28.166 21.9878 28.0563 22.1493 27.989C22.3107 27.9219 22.4954 27.8882 22.7034 27.8882C23.0085 27.8882 23.2718 27.9788 23.4929 28.1603C23.7142 28.3416 23.8688 28.5889 23.9574 28.9024L23.0682 29.198C22.9665 28.9069 22.7564 28.7614 22.4379 28.7614C22.1989 28.7614 22.0176 28.8319 21.8938 28.9731C21.77 29.1141 21.708 29.3078 21.708 29.5539V31.5488H20.7592V27.989Z" fill="#30354B"/>
<path d="M24.362 29.7689C24.362 29.4018 24.4372 29.0762 24.5875 28.7917C24.7379 28.5075 24.9492 28.2859 25.2212 28.1268C25.4932 27.9679 25.804 27.8883 26.1535 27.8883C26.5073 27.8883 26.8203 27.9679 27.0924 28.1268C27.3645 28.2859 27.5756 28.5075 27.7259 28.7917C27.8763 29.0762 27.9516 29.4018 27.9516 29.7689C27.9516 30.136 27.8763 30.4619 27.7259 30.7462C27.5756 31.0306 27.3645 31.2522 27.0924 31.4111C26.8203 31.5701 26.5073 31.6495 26.1535 31.6495C25.804 31.6495 25.4933 31.5701 25.2212 31.4111C24.9491 31.2522 24.7378 31.0306 24.5875 30.7462C24.4372 30.4619 24.362 30.1361 24.362 29.7689ZM27.0029 29.7689C27.0029 29.4557 26.9287 29.2105 26.7805 29.0335C26.6324 28.8567 26.4234 28.7682 26.1536 28.7682C25.8883 28.7682 25.6814 28.8568 25.5332 29.0335C25.385 29.2105 25.311 29.4557 25.311 29.7689C25.311 30.0821 25.3851 30.3276 25.5332 30.5045C25.6814 30.6814 25.8883 30.7697 26.1536 30.7697C26.419 30.7697 26.627 30.6802 26.7773 30.501C26.9277 30.3221 27.003 30.0779 27.003 29.7689H27.0029Z" fill="#30354B"/>
<path d="M28.781 32.3413L29.5042 31.784C29.6368 31.9765 29.7706 32.1119 29.9055 32.1902C30.0405 32.2686 30.2075 32.3079 30.4065 32.3079C30.6543 32.3079 30.8511 32.2383 30.997 32.0996C31.143 31.9608 31.2159 31.7683 31.2159 31.5219V31.2668H31.2027C31.0743 31.4011 30.9383 31.4984 30.7947 31.559C30.6508 31.6195 30.4771 31.6495 30.2737 31.6495C29.9551 31.6495 29.6732 31.5701 29.4278 31.4112C29.1823 31.2522 28.992 31.0306 28.8571 30.7462C28.722 30.462 28.6547 30.1362 28.6547 29.7689C28.6547 29.4063 28.7243 29.0829 28.8638 28.7983C29.0031 28.5141 29.1954 28.2912 29.441 28.1301C29.6866 27.9689 29.9663 27.8882 30.2803 27.8882C30.4793 27.8882 30.6497 27.9174 30.7912 27.9756C30.9328 28.0338 31.0634 28.1233 31.1828 28.2442H31.196V27.989H32.1117V31.5622C32.1117 31.8756 32.0397 32.1534 31.896 32.3952C31.7521 32.637 31.552 32.8249 31.2954 32.9592C31.0389 33.0937 30.7425 33.1607 30.4062 33.1607C29.7162 33.1607 29.1743 32.8876 28.7806 32.3413H28.781ZM31.163 29.9972V29.5339C31.163 29.3011 31.0921 29.1152 30.9507 28.9764C30.8092 28.8378 30.6277 28.7683 30.4065 28.7683C30.1587 28.7683 29.963 28.8579 29.8193 29.037C29.6755 29.2161 29.6037 29.46 29.6037 29.7689C29.6037 30.0691 29.6765 30.3109 29.8226 30.4944C29.9687 30.6781 30.1609 30.7699 30.3999 30.7699C30.5327 30.7699 30.6575 30.7352 30.7748 30.6658C30.892 30.5964 30.986 30.5024 31.0567 30.3836C31.1275 30.265 31.163 30.136 31.163 29.9972Z" fill="#30354B"/>
<path d="M33.1072 27.989H34.0161V28.3182H34.0294C34.1798 28.166 34.3358 28.0563 34.4972 27.989C34.6588 27.9219 34.8434 27.8882 35.0514 27.8882C35.3565 27.8882 35.6197 27.9788 35.8409 28.1603C36.0622 28.3416 36.217 28.5889 36.3054 28.9024L35.4162 29.198C35.3144 28.9069 35.1043 28.7614 34.7858 28.7614C34.5468 28.7614 34.3655 28.8319 34.2417 28.9731C34.1179 29.1141 34.0558 29.3078 34.0558 29.5539V31.5488H33.1071L33.1072 27.989Z" fill="#30354B"/>
<path d="M36.7962 30.5951C36.7962 30.2637 36.908 30.0063 37.1313 29.8228C37.3546 29.6392 37.7274 29.5049 38.2493 29.4197C38.5235 29.3751 38.7105 29.3246 38.8102 29.2686C38.9097 29.2127 38.9594 29.1376 38.9594 29.0437C38.9594 28.9361 38.9106 28.8512 38.8133 28.7884C38.7161 28.7259 38.5834 28.6944 38.4153 28.6944C38.225 28.6944 38.0603 28.7527 37.921 28.869C37.7815 28.9855 37.6921 29.1401 37.6523 29.3324L36.7698 29.131C36.8139 28.8891 36.9135 28.6742 37.0683 28.4862C37.2231 28.2982 37.4177 28.1514 37.6523 28.0462C37.8867 27.941 38.141 27.8883 38.4153 27.8883C38.8666 27.8883 39.227 28.016 39.4967 28.2712C39.7665 28.5264 39.9015 28.8667 39.9015 29.2921V31.5489H39.0522V31.1526H39.0389C38.9372 31.3094 38.7944 31.4314 38.6109 31.5187C38.4272 31.606 38.2205 31.6497 37.9905 31.6497C37.7605 31.6497 37.5548 31.6049 37.3734 31.5154C37.192 31.4258 37.0505 31.3005 36.9487 31.1393C36.847 30.9782 36.7962 30.7967 36.7962 30.5951ZM38.9991 30.2257V29.8226H38.9858C38.946 29.8896 38.8795 29.9435 38.7868 29.9838C38.6938 30.0241 38.5479 30.0644 38.3489 30.1047C38.1011 30.1584 37.9309 30.2155 37.8379 30.2759C37.7451 30.3365 37.6986 30.4203 37.6986 30.5278C37.6986 30.6308 37.7394 30.7091 37.8213 30.763C37.9032 30.8167 38.0215 30.8436 38.1764 30.8436C38.3178 30.8436 38.4528 30.8156 38.5812 30.7595C38.7094 30.7037 38.811 30.6276 38.8863 30.5312C38.9615 30.435 38.9991 30.3331 38.9991 30.2257Z" fill="#30354B"/>
<path d="M40.7706 27.989H41.6066V28.2981H41.62C41.6952 28.1772 41.7912 28.0843 41.9086 28.0192C42.0258 27.9543 42.1551 27.9219 42.2968 27.9219C42.5755 27.9219 42.7989 28.0539 42.967 28.3182H42.9803C43.1572 28.0539 43.4006 27.9219 43.7101 27.9219C43.9666 27.9219 44.1746 28.0136 44.334 28.1973C44.4933 28.381 44.5729 28.6204 44.5729 28.9161V31.5489H43.697V29.084C43.697 28.981 43.6705 28.9025 43.6174 28.8488C43.5643 28.7951 43.489 28.7682 43.3917 28.7682C43.2989 28.7682 43.2248 28.7985 43.1695 28.8589C43.1142 28.9193 43.0866 29.0012 43.0866 29.104V31.5489H42.2571V29.084C42.2571 28.9855 42.2315 28.9083 42.1808 28.8523C42.13 28.7964 42.058 28.7682 41.9651 28.7682C41.8678 28.7682 41.7903 28.7985 41.7328 28.8589C41.6753 28.9193 41.6465 29.0012 41.6465 29.104V31.5489H40.7708V27.9892L40.7706 27.989Z" fill="#30354B"/>
</g>
<defs>
<linearGradient id="paint0_linear_2653_14724" x1="0.220513" y1="24.0118" x2="8.24259" y2="31.9368" gradientUnits="userSpaceOnUse">
<stop stop-color="#F47D51"/>
<stop offset="0.96" stop-color="#DF72AC"/>
</linearGradient>
<linearGradient id="paint1_linear_2653_14724" x1="8.12711" y1="26.6819" x2="10.8154" y2="29.3376" gradientUnits="userSpaceOnUse">
<stop stop-color="#F15D4C"/>
<stop offset="1" stop-color="#C36CA1"/>
</linearGradient>
<linearGradient id="paint2_linear_2653_14724" x1="5.5599" y1="20.0719" x2="10.1345" y2="24.5911" gradientUnits="userSpaceOnUse">
<stop stop-color="#B46947"/>
<stop offset="0.896" stop-color="#AE5262"/>
</linearGradient>
<linearGradient id="paint3_linear_2653_14724" x1="10.0388" y1="11.1823" x2="10.0388" y2="22.5215" gradientUnits="userSpaceOnUse">
<stop stop-color="#FFD663"/>
<stop offset="1" stop-color="#F26C7D"/>
</linearGradient>
<linearGradient id="paint4_linear_2653_14724" x1="2.41223" y1="15.653" x2="6.22156" y2="19.4162" gradientUnits="userSpaceOnUse">
<stop stop-color="#FFF171"/>
<stop offset="1" stop-color="#FAB382"/>
</linearGradient>
<linearGradient id="paint5_linear_2653_14724" x1="2.89925" y1="19.9558" x2="8.24059" y2="25.2324" gradientUnits="userSpaceOnUse">
<stop stop-color="#D48A3D"/>
<stop offset="0.795" stop-color="#DB474E"/>
</linearGradient>
<clipPath id="clip0_2653_14724">
<rect width="52" height="22.6909" fill="white" transform="translate(0.342285 11.1823)"/>
</clipPath>
</defs>
</svg>
