<svg width="16" height="16" viewBox="0 0 16 16" fill="none" xmlns="http://www.w3.org/2000/svg">
<g clip-path="url(#clip0_2452_7564)">
<path fill-rule="evenodd" clip-rule="evenodd" d="M6.16111 1.73334C6.96819 0.298523 9.03285 0.298523 9.83888 1.73334L15.7258 12.199C16.5171 13.6064 15.5011 15.343 13.888 15.343H2.11303C0.498868 15.343 -0.517107 13.6064 0.274151 12.199L6.16111 1.73334ZM9.055 12.179C9.055 12.4588 8.94385 12.7271 8.746 12.925C8.54815 13.1229 8.2798 13.234 7.99999 13.234C7.72019 13.234 7.45184 13.1229 7.25399 12.925C7.05614 12.7271 6.94498 12.4588 6.94498 12.179C6.94498 11.8992 7.05614 11.6308 7.25399 11.433C7.45184 11.2351 7.72019 11.124 7.99999 11.124C8.2798 11.124 8.54815 11.2351 8.746 11.433C8.94385 11.6308 9.055 11.8992 9.055 12.179ZM7.99999 3.73891C7.72019 3.73891 7.45184 3.85006 7.25399 4.04792C7.05614 4.24577 6.94498 4.51412 6.94498 4.79392V7.95895C6.94498 8.23876 7.05614 8.50711 7.25399 8.70496C7.45184 8.90281 7.72019 9.01396 7.99999 9.01396C8.2798 9.01396 8.54815 8.90281 8.746 8.70496C8.94385 8.50711 9.055 8.23876 9.055 7.95895V4.79392C9.055 4.51412 8.94385 4.24577 8.746 4.04792C8.54815 3.85006 8.2798 3.73891 7.99999 3.73891Z" fill="#E15F5F"/>
</g>
<defs>
<clipPath id="clip0_2452_7564">
<rect width="16" height="16" fill="white"/>
</clipPath>
</defs>
</svg>
