<svg width="17" height="16" viewBox="0 0 17 16" xmlns="http://www.w3.org/2000/svg">
<g clip-path="url(#clip0_596_14113)">
<path d="M8.02961 12.2105C8.02961 12.3184 7.98675 12.4219 7.91046 12.4981C7.83418 12.5744 7.73071 12.6173 7.62283 12.6173H5.72452C5.61664 12.6173 5.51317 12.5744 5.43689 12.4981C5.3606 12.4219 5.31774 12.3184 5.31774 12.2105C5.31774 12.1026 5.3606 11.9992 5.43689 11.9229C5.51317 11.8466 5.61664 11.8037 5.72452 11.8037H7.62283C7.73071 11.8037 7.83418 11.8466 7.91046 11.9229C7.98675 11.9992 8.02961 12.1026 8.02961 12.2105ZM12.233 11.8037H10.3347C10.2268 11.8037 10.1233 11.8466 10.0471 11.9229C9.97077 11.9992 9.92791 12.1026 9.92791 12.2105C9.92791 12.3184 9.97077 12.4219 10.0471 12.4981C10.1233 12.5744 10.2268 12.6173 10.3347 12.6173H12.233C12.3409 12.6173 12.4443 12.5744 12.5206 12.4981C12.5969 12.4219 12.6398 12.3184 12.6398 12.2105C12.6398 12.1026 12.5969 11.9992 12.5206 11.9229C12.4443 11.8466 12.3409 11.8037 12.233 11.8037ZM16.9788 14.9224C16.9788 15.0303 16.9359 15.1337 16.8596 15.21C16.7833 15.2863 16.6799 15.3292 16.572 15.3292H1.38554C1.27765 15.3292 1.17419 15.2863 1.0979 15.21C1.02162 15.1337 0.97876 15.0303 0.97876 14.9224C0.97876 14.8145 1.02162 14.711 1.0979 14.6347C1.17419 14.5584 1.27765 14.5156 1.38554 14.5156H2.60588V6.24441C2.60588 6.16886 2.62691 6.09481 2.66663 6.03055C2.70635 5.96629 2.76317 5.91436 2.83074 5.88057C2.89831 5.84679 2.97395 5.83249 3.04919 5.83927C3.12443 5.84606 3.19629 5.87366 3.25673 5.91898L6.94486 8.68508V6.24441C6.94486 6.16886 6.9659 6.09481 7.00561 6.03055C7.04533 5.96629 7.10216 5.91436 7.16972 5.88057C7.23729 5.84679 7.31293 5.83249 7.38817 5.83927C7.46341 5.84606 7.53527 5.87366 7.59571 5.91898L10.4025 8.0261L11.216 2.31356C11.2496 2.08803 11.3628 1.88198 11.5352 1.73273C11.7076 1.58349 11.9277 1.50092 12.1557 1.5H13.3842C13.6122 1.50092 13.8323 1.58349 14.0047 1.73273C14.1771 1.88198 14.2903 2.08803 14.3238 2.31356L15.3408 9.44102C15.3408 9.44102 15.3449 9.48102 15.3449 9.49864V14.5156H16.5652C16.6192 14.5147 16.6728 14.5246 16.723 14.5446C16.7731 14.5646 16.8187 14.5944 16.8572 14.6323C16.8957 14.6702 16.9263 14.7153 16.9472 14.7651C16.968 14.8149 16.9788 14.8684 16.9788 14.9224ZM11.1483 8.58271L11.8262 9.09186H14.4757L13.5211 2.42881C13.5165 2.39623 13.5002 2.36644 13.4753 2.34499C13.4503 2.32353 13.4184 2.31188 13.3855 2.3122H12.1611C12.1282 2.31188 12.0963 2.32353 12.0714 2.34499C12.0464 2.36644 12.0301 2.39623 12.0255 2.42881L11.1483 8.58271ZM3.41944 14.5156H14.5381V9.90542H11.6906C11.6026 9.90542 11.517 9.87688 11.4466 9.82407L10.4703 9.09186L7.75842 7.05797V9.49864C7.75842 9.57419 7.73738 9.64824 7.69767 9.7125C7.65795 9.77676 7.60113 9.82869 7.53356 9.86248C7.46599 9.89626 7.39035 9.91056 7.31511 9.90378C7.23987 9.897 7.16801 9.86939 7.10757 9.82407L3.41944 7.05797V14.5156Z" />
</g>
<defs>
<clipPath id="clip0_596_14113">
<rect width="16" height="16" fill="white" transform="translate(0.97876)"/>
</clipPath>
</defs>
</svg>
