<svg width="17" height="16" viewBox="0 0 17 16" fill="none" xmlns="http://www.w3.org/2000/svg">
<path d="M8.97872 1.33496C9.59055 1.33496 10.1807 1.41307 10.7491 1.56928C11.3175 1.72549 11.8469 1.95113 12.3373 2.24619C12.8276 2.54126 13.2767 2.88839 13.6846 3.2876C14.0925 3.6868 14.4418 4.13591 14.7325 4.63492C15.0232 5.13392 15.2467 5.66548 15.4029 6.22957C15.5591 6.79367 15.6394 7.3838 15.6437 7.99996C15.6437 8.61179 15.5656 9.20192 15.4094 9.77035C15.2532 10.3388 15.0276 10.8682 14.7325 11.3585C14.4374 11.8488 14.0903 12.2979 13.6911 12.7058C13.2919 13.1137 12.8428 13.463 12.3438 13.7537C11.8448 14.0445 11.3132 14.2679 10.7491 14.4241C10.185 14.5803 9.59489 14.6606 8.97872 14.665C8.36689 14.665 7.77676 14.5869 7.20833 14.4306C6.6399 14.2744 6.11051 14.0488 5.62019 13.7537C5.12986 13.4587 4.68075 13.1115 4.27287 12.7123C3.86498 12.3131 3.51568 11.864 3.22495 11.365C2.93423 10.866 2.71076 10.3344 2.55455 9.77035C2.39833 9.20626 2.31806 8.61613 2.31372 7.99996C2.31372 7.38813 2.39183 6.798 2.54804 6.22957C2.70425 5.66114 2.92989 5.13175 3.22495 4.64143C3.52002 4.1511 3.86715 3.70199 4.26636 3.29411C4.66556 2.88622 5.11467 2.53692 5.61368 2.24619C6.11268 1.95547 6.64424 1.732 7.20833 1.57579C7.77243 1.41958 8.36256 1.3393 8.97872 1.33496ZM9.71421 7.99996L11.9402 5.77395L11.2047 5.03846L8.97872 7.26447L6.75271 5.03846L6.01722 5.77395L8.24323 7.99996L6.01722 10.226L6.75271 10.9615L8.97872 8.73545L11.2047 10.9615L11.9402 10.226L9.71421 7.99996Z" fill="#C16666"/>
</svg>
