<svg width="17" height="16" viewBox="0 0 17 16" fill="none" xmlns="http://www.w3.org/2000/svg">
<g clip-path="url(#clip0_596_14044)">
<path d="M16.6454 13.3333H3.64542V0.333344C3.64542 0.149094 3.49635 0 3.3121 0H2.64542C2.46117 0 2.31207 0.149094 2.31207 0.333344V13.3333H1.31207C1.12785 13.3333 0.97876 13.4824 0.97876 13.6667V14.3333C0.97876 14.5176 1.12785 14.6667 1.3121 14.6667H2.3121V15.6667C2.3121 15.8509 2.4612 16 2.64545 16H3.3121C3.49635 16 3.64545 15.8509 3.64545 15.6667V14.6667H16.6454C16.8297 14.6667 16.9788 14.5176 16.9788 14.3333V13.6667C16.9788 13.4824 16.8297 13.3333 16.6454 13.3333Z" fill="#303030"/>
<path d="M4.88096 11.2356C5.01115 11.3658 5.22218 11.3658 5.35237 11.2356L8.64531 7.94266L10.174 9.47131C10.4343 9.73163 10.8563 9.73163 11.1167 9.47131L14.9787 5.60931V5.6666C14.9787 5.85085 15.1277 5.99994 15.312 5.99994H15.9787C16.1627 5.99994 16.312 5.85069 16.312 5.6666V3.6666C16.312 3.4825 16.1627 3.33325 15.9787 3.33325H13.9787C13.7946 3.33325 13.6453 3.4825 13.6453 3.6666V4.33325C13.6453 4.5175 13.7944 4.6666 13.9787 4.6666H14.0359L10.6453 8.05722L9.11665 6.52856C8.85634 6.26825 8.43428 6.26825 8.17393 6.52856L4.40965 10.2929C4.27946 10.4231 4.27946 10.6341 4.40965 10.7643L4.88096 11.2356Z" fill="#303030"/>
</g>
<defs>
<clipPath id="clip0_596_14044">
<rect width="16" height="16" fill="white" transform="translate(0.97876)"/>
</clipPath>
</defs>
</svg>
