<svg width="33" height="34" viewBox="0 0 33 34" fill="none" xmlns="http://www.w3.org/2000/svg">
<g clip-path="url(#clip0_1938_14304)">
<path d="M16.3514 7.97168V16.9999H13.8542L16.3514 7.97168Z" fill="#898989"/>
<path d="M16.3514 19.6895V34.0002L11.1649 26.7968L13.1819 19.6895H16.3514Z" fill="#898989"/>
<path d="M21.5378 26.7968L16.3514 34.0002V19.6895H19.5209L21.5378 26.7968Z" fill="#303030"/>
<path d="M18.8486 16.9999H16.3514V7.97168L18.8486 16.9999Z" fill="#303030"/>
<path d="M32.1028 21.7062C32.1028 21.6102 32.1028 21.5141 32.1028 21.4181C32.0067 20.7458 31.7186 19.9774 31.3344 19.4011L19.1367 1.44068C17.792 -0.480226 14.9107 -0.480226 13.6621 1.44068L1.46436 19.4011C0.984135 20.0734 0.695999 20.8418 0.695999 21.6102V21.7062C0.503909 24.1073 2.23272 26.4124 4.82594 26.7966C5.01803 26.7966 5.11408 26.7966 5.30617 26.7966C7.41916 26.7966 9.14798 25.452 9.72425 23.5311L9.82029 23.1469L14.0463 7.49153C14.3344 6.62712 15.0067 5.9548 15.8711 5.76271C17.1197 5.47458 18.3683 6.24294 18.6564 7.39548L23.0745 23.2429V23.339C23.0745 23.435 23.0745 23.435 23.0745 23.5311C23.6508 25.452 25.3796 26.7966 27.4926 26.7966C27.5887 26.7966 27.6847 26.7966 27.6847 26.7966C27.7807 26.7966 27.8768 26.7966 27.8768 26.7966C30.5661 26.5085 32.2949 24.1073 32.1028 21.7062Z" fill="#B9DF58"/>
</g>
<defs>
<clipPath id="clip0_1938_14304">
<rect width="31.5028" height="34" fill="white" transform="translate(0.599976)"/>
</clipPath>
</defs>
</svg>
