<svg width="49" height="49" viewBox="0 0 49 49" fill="none" xmlns="http://www.w3.org/2000/svg">
<path d="M2.53816 28.5C1.1091 26.0248 1.1091 22.9752 2.53816 20.5L9.91936 7.71539C11.3484 5.24018 13.9894 3.71539 16.8476 3.71539L31.61 3.71539C34.4681 3.71539 37.1091 5.24018 38.5382 7.71539L45.9194 20.5C47.3484 22.9752 47.3484 26.0248 45.9194 28.5L38.5382 41.2846C37.1091 43.7598 34.4681 45.2846 31.61 45.2846L16.8476 45.2846C13.9894 45.2846 11.3484 43.7598 9.91936 41.2846L2.53816 28.5Z" fill="#303030"/>
<path d="M39.5366 16.2186C39.5361 16.1823 39.5312 16.1461 39.5255 16.1095C39.5223 16.0884 39.521 16.0669 39.5161 16.0461C39.5151 16.0416 39.5151 16.037 39.5142 16.0325C39.5048 15.9955 39.49 15.9618 39.4759 15.9274C39.4702 15.9137 39.467 15.8989 39.4606 15.8853C39.4359 15.8331 39.4059 15.7846 39.3715 15.7401C39.3655 15.7321 39.3576 15.7257 39.3511 15.718C39.3211 15.6821 39.2891 15.6484 39.2536 15.6186C39.2496 15.6152 39.2468 15.6106 39.2426 15.6074L34.3081 11.5954C34.3 11.589 34.2902 11.586 34.2821 11.5797C34.2381 11.5467 34.1913 11.5184 34.1415 11.495C34.1268 11.488 34.1128 11.4803 34.0977 11.4743C34.0371 11.4501 33.9741 11.4326 33.9086 11.4237C33.8971 11.4222 33.8858 11.4229 33.8743 11.4218C33.8199 11.4169 33.765 11.4178 33.7093 11.4244C33.6901 11.4267 33.6712 11.4293 33.6522 11.4329C33.6367 11.436 33.6212 11.436 33.6056 11.4399L9.57791 17.5216C9.53318 17.5329 9.49148 17.5497 9.45053 17.5678C9.44524 17.5701 9.43939 17.5702 9.4343 17.5727C9.43317 17.5733 9.43222 17.5742 9.43109 17.5748C9.36919 17.6042 9.3139 17.6423 9.26257 17.685C9.24955 17.6959 9.23766 17.7076 9.22539 17.7193C9.18557 17.757 9.14991 17.7984 9.11877 17.8431C9.11122 17.8538 9.10254 17.8634 9.09556 17.8748C9.06102 17.9301 9.03404 17.9895 9.01365 18.0517C9.00894 18.0661 9.00629 18.081 9.00252 18.0957C8.98856 18.1487 8.98025 18.2029 8.97742 18.2587C8.97686 18.2693 8.9727 18.2789 8.9727 18.2897L8.91382 23.4238C8.91364 23.4383 8.9176 23.4521 8.91817 23.4664C8.91949 23.4983 8.92269 23.5298 8.92779 23.5613C8.93194 23.5866 8.93647 23.6115 8.94308 23.6362C8.95081 23.6653 8.961 23.6934 8.97195 23.7217C8.98138 23.7459 8.99007 23.77 9.00158 23.7932C9.01516 23.8202 9.03253 23.8453 9.04932 23.8709C9.06366 23.8926 9.07612 23.9153 9.09254 23.9355C9.1116 23.9591 9.135 23.9796 9.15689 24.0013C9.17482 24.0189 9.18991 24.0391 9.20973 24.0551L9.26464 24.0998C10.1442 24.826 12.2422 26.9177 12.1818 28.5864C12.185 30.2615 12.1105 32.9854 12.1095 33.0129C12.1027 33.2563 12.2071 33.4895 12.393 33.6469L16.8151 37.3916C16.8198 37.3956 16.8251 37.3982 16.8298 37.4022C16.8517 37.4199 16.8749 37.4354 16.8987 37.4505C16.9138 37.4603 16.9283 37.4708 16.9438 37.4795C16.9689 37.4935 16.9953 37.5046 17.0217 37.5157C17.0368 37.5222 17.0514 37.5299 17.0667 37.5354C17.0999 37.5471 17.134 37.5552 17.1687 37.5625C17.1782 37.5644 17.1872 37.568 17.1967 37.5695C17.2412 37.5772 17.2867 37.5816 17.3327 37.5816C17.3339 37.5816 17.335 37.5812 17.3361 37.5812C17.3978 37.581 17.4594 37.5722 17.5201 37.5576C17.525 37.5565 17.5299 37.5571 17.5349 37.5557L22.401 36.2937C22.7513 36.2029 22.9974 35.8886 23.0015 35.5267L23.0853 28.2322C23.0987 28.0298 23.2584 26.2507 24.7135 25.1906C25.8666 25.3943 25.852 26.4349 25.8183 26.7517C25.8145 26.7815 25.8126 26.8113 25.8122 26.8413L25.7807 29.5932C25.7781 29.8341 25.8838 30.0635 26.0687 30.2181L30.4703 33.8912C30.4804 33.8997 30.492 33.9058 30.5025 33.9137C30.5201 33.9269 30.5376 33.9392 30.5563 33.9511C30.5797 33.9658 30.6039 33.979 30.6284 33.9912C30.648 34.0011 30.6675 34.0105 30.6878 34.0188C30.715 34.0295 30.7428 34.0378 30.7709 34.0456C30.7905 34.0511 30.8096 34.0573 30.8296 34.0612C30.8671 34.0686 30.9052 34.0722 30.9437 34.0741C30.9543 34.0744 30.9643 34.0775 30.9751 34.0775C30.9783 34.0775 30.9813 34.0775 30.9845 34.0775C31.0466 34.0775 31.1062 34.0688 31.1642 34.0554C31.1689 34.0544 31.1736 34.0548 31.1783 34.0537L36.0034 32.8509C36.3572 32.7626 36.6071 32.4467 36.6112 32.082L36.6914 25.1058C36.6918 25.096 36.692 25.086 36.6922 25.0758C36.6935 24.8753 36.7727 23.126 38.8486 22.1466C38.908 22.1336 38.9667 22.1142 39.0233 22.0872C39.2991 21.9553 39.4759 21.6785 39.4795 21.3729L39.5383 16.2386C39.5387 16.232 39.5366 16.2255 39.5366 16.2186ZM14.9027 21.4349L11.5196 18.6842L32.9883 13.2505L32.9468 16.868L14.9027 21.4349ZM10.5222 23.0551L10.5575 19.9689L13.9027 22.6891L13.8672 25.7751L10.5222 23.0551ZM34.5852 13.8874L36.9916 15.844L34.5557 16.4606L34.5852 13.8874ZM37.9228 17.2627L37.8946 19.7249L35.5374 17.8663L37.9228 17.2627ZM13.7026 27.7081L14.1442 28.0671C14.148 28.0703 14.1523 28.0722 14.1563 28.0754C14.1723 28.0881 14.1901 28.0985 14.2073 28.11C14.232 28.1264 14.2567 28.1424 14.2829 28.156C14.3005 28.1651 14.3186 28.1726 14.3371 28.1803C14.3663 28.1928 14.396 28.2037 14.4264 28.2126C14.4365 28.2154 14.4454 28.2205 14.4556 28.2232C15.1905 28.4069 16.5262 29.3186 16.5928 30.4856L16.5484 35.0641L13.7234 32.6718C13.744 31.8526 13.7885 29.9086 13.7857 28.6143C13.7966 28.3105 13.7649 28.0077 13.7026 27.7081ZM26.7956 24.6338C26.7469 24.5715 26.6943 24.513 26.6405 24.4558C26.6435 24.4555 26.6458 24.4547 26.6488 24.4543C27.5995 24.3289 28.3431 24.5036 28.9236 24.9883C30.0751 25.9498 30.2298 27.8368 30.2427 28.03L30.2019 31.5784L27.3891 29.2307L27.4159 26.8964C27.4414 26.6209 27.4912 25.5243 26.7956 24.6338ZM35.0888 25.0324C35.0885 25.0428 35.0881 25.0532 35.0879 25.0636L35.0147 31.4445L31.7982 32.2463L31.8467 28.0211C31.8469 28.0068 31.8465 27.9924 31.846 27.9781C31.8413 27.8668 31.7109 25.2347 29.9604 23.7645C29.0281 22.9817 27.8426 22.6789 26.4388 22.8644C22.7181 23.3557 21.5703 26.5434 21.4831 28.1603C21.4827 28.1719 21.4822 28.183 21.482 28.1943L21.405 34.8952L18.1459 35.7405L18.1969 30.4767C18.197 30.4622 18.1967 30.4477 18.1961 30.433C18.1191 28.713 16.6847 27.4294 15.4588 26.8851L15.5041 22.9366L33.5767 18.3623L37.2262 21.2398C35.2476 22.6427 35.0981 24.654 35.0888 25.0324Z" fill="#C5E86C"/>
</svg>
