<svg width="21" height="20" viewBox="0 0 21 20" fill="none" xmlns="http://www.w3.org/2000/svg">
<path d="M4.83262 6.55C4.84219 6.45489 4.82937 6.35887 4.79518 6.26961C4.761 6.18034 4.70639 6.10032 4.63574 6.03594L3.17637 4.26484V4H7.70606L11.2076 11.7383L14.2857 4H18.6045V4.26484L17.3568 5.46875C17.304 5.50957 17.2632 5.56398 17.2388 5.62617C17.2145 5.68837 17.2075 5.75601 17.2186 5.82187V14.6766C17.2075 14.7424 17.2145 14.8101 17.2388 14.8723C17.2632 14.9345 17.304 14.9889 17.3568 15.0297L18.5756 16.2344V16.5H12.4475V16.2352L13.71 15.0008C13.8342 14.8758 13.8342 14.8391 13.8342 14.6484V7.49063L10.3248 16.4703H9.85137L5.76543 7.49063V13.5094C5.73184 13.7617 5.81543 14.0172 5.99199 14.2L7.6334 16.2063V16.4703H2.97949V16.2063L4.62012 14.2C4.70692 14.1094 4.77135 13.9998 4.80824 13.8799C4.84514 13.76 4.85349 13.6331 4.83262 13.5094V6.55Z" fill="#B8BAC1"/>
</svg>
