<svg width="254" height="136" viewBox="0 0 254 136" fill="none" xmlns="http://www.w3.org/2000/svg">
<path d="M241.867 135.957H165.167C158.754 135.957 153.496 130.698 153.496 124.285V11.6717C153.496 5.2587 158.754 0 165.167 0L241.867 0C248.281 0 253.539 5.2587 253.539 11.6717V124.413C253.411 130.826 248.281 135.957 241.867 135.957Z" fill="#F4F6EF"/>
<path d="M189.793 32.9631H171.58C170.041 32.9631 168.887 31.6805 168.887 30.2696V20.65C168.887 19.1109 170.17 17.9565 171.58 17.9565H189.793C191.333 17.9565 192.487 19.2392 192.487 20.65V30.2696C192.487 31.6805 191.204 32.9631 189.793 32.9631Z" fill="#EFCACA"/>
<path d="M238.148 17.9565L195.18 17.9565V19.6239L238.148 19.6239V17.9565Z" fill="#CDE5E9"/>
<path d="M238.148 22.3174L195.18 22.3174V23.9848L238.148 23.9848V22.3174Z" fill="#CDE5E9"/>
<path d="M238.148 26.8066L195.18 26.8066V28.474L238.148 28.474V26.8066Z" fill="#CDE5E9"/>
<path d="M238.148 31.167L195.18 31.167V32.8344H238.148V31.167Z" fill="#CDE5E9"/>
<path d="M238.148 35.5283L169.656 35.5283V37.1957L238.148 37.1957V35.5283Z" fill="#CDE5E9"/>
<path d="M202.235 40.0176H169.656V41.685H202.235V40.0176Z" fill="#CDE5E9"/>
<path d="M190.435 71.1847H170.811C169.657 71.1847 168.759 70.2869 168.759 69.1326V58.2304C168.759 57.0761 169.657 56.1782 170.811 56.1782H190.435C191.589 56.1782 192.487 57.0761 192.487 58.2304V69.1326C192.487 70.2869 191.589 71.1847 190.435 71.1847Z" fill="#F4D7AA"/>
<path d="M238.148 56.1782H195.18V57.8456H238.148V56.1782Z" fill="#CDE5E9"/>
<path d="M238.148 60.5396H195.18V62.2069H238.148V60.5396Z" fill="#CDE5E9"/>
<path d="M238.148 64.8999H195.18V66.5673H238.148V64.8999Z" fill="#CDE5E9"/>
<path d="M238.148 69.3892H195.18V71.0566H238.148V69.3892Z" fill="#CDE5E9"/>
<path d="M238.148 73.75H169.656V75.4174H238.148V73.75Z" fill="#CDE5E9"/>
<path d="M202.235 78.1108H169.656V79.7782H202.235V78.1108Z" fill="#CDE5E9"/>
<path d="M190.307 109.278H170.939C169.785 109.278 168.759 108.252 168.759 107.098V96.4524C168.759 95.2981 169.785 94.272 170.939 94.272H190.307C191.461 94.272 192.487 95.2981 192.487 96.4524V107.098C192.487 108.381 191.461 109.278 190.307 109.278Z" fill="#DCECB0"/>
<path d="M238.148 94.272H195.18V95.9394H238.148V94.272Z" fill="#CDE5E9"/>
<path d="M238.148 98.7607H195.18V100.428H238.148V98.7607Z" fill="#CDE5E9"/>
<path d="M238.148 103.122H195.18V104.789H238.148V103.122Z" fill="#CDE5E9"/>
<path d="M238.148 107.611H195.18V109.278H238.148V107.611Z" fill="#CDE5E9"/>
<path d="M238.148 111.972H169.656V113.639H238.148V111.972Z" fill="#CDE5E9"/>
<path d="M202.235 116.333H169.656V118H202.235V116.333Z" fill="#CDE5E9"/>
<path d="M132.313 135.956H10.5934C4.94995 135.956 0.460815 131.339 0.460815 125.824L0.460815 51.9456C0.460815 46.3021 5.07821 41.813 10.5934 41.813L132.313 41.813C137.956 41.813 142.446 46.4304 142.446 51.9456V125.696C142.446 131.339 137.956 135.956 132.313 135.956Z" fill="#F4F6EF"/>
<path d="M45.8652 54.896C27.1391 54.896 11.8761 70.159 11.8761 88.8851C11.8761 107.611 27.1391 122.874 45.8652 122.874C64.5913 122.874 79.8543 107.611 79.8543 88.8851C79.8543 70.0308 64.5913 54.896 45.8652 54.896ZM45.8652 99.2743C40.0935 99.2743 35.4761 94.6569 35.4761 88.8851C35.4761 83.1134 40.0935 78.496 45.8652 78.496C51.6369 78.496 56.2543 83.1134 56.2543 88.8851C56.2543 94.6569 51.6369 99.2743 45.8652 99.2743Z" fill="#BED0ED"/>
<path d="M79.8543 88.8849C79.8543 81.061 77.2891 73.8783 72.8 68.2349L53.9456 82.3436C55.3565 84.1392 56.2543 86.4479 56.2543 89.0131C56.2543 91.9631 54.9717 94.6566 52.9195 96.5805C57.6652 101.198 64.0782 107.226 69.9782 112.87C76.1347 106.585 79.8543 98.1196 79.8543 88.8849Z" fill="#DCECB0"/>
<path d="M53.9456 82.2156L72.9282 68.2351C66.6434 60.1547 56.8956 54.896 45.8652 54.896V78.496C49.0717 78.3677 52.0217 79.9069 53.9456 82.2156Z" fill="#F4D7AA"/>
<path d="M53.0478 96.4526C52.15 97.2222 51.2522 97.9918 50.0978 98.3765L61.1283 119.155C64.4631 117.487 67.5413 115.179 70.1065 112.614L53.0478 96.4526Z" fill="#EFCACA"/>
<path d="M50.0977 98.3766C48.8151 99.0179 47.4043 99.2744 45.8651 99.2744C40.0934 99.2744 35.476 94.657 35.476 88.8853C35.476 86.8331 36.1173 84.9092 37.1434 83.2418L17.9043 69.7744C14.1847 75.2896 12.0043 81.8309 12.0043 88.8853C12.0043 107.611 27.2673 122.874 45.9934 122.874C51.5086 122.874 56.6391 121.592 61.2564 119.283L50.0977 98.3766Z" fill="#CDE5E9"/>
<path d="M91.0129 64.0028C88.8325 64.0028 87.1651 62.2071 87.1651 60.155C87.1651 57.9745 88.9608 56.3071 91.0129 56.3071C93.1934 56.3071 94.8608 58.1028 94.8608 60.155C94.8608 62.2071 93.1934 64.0028 91.0129 64.0028Z" fill="#F4D7AA"/>
<path d="M131.159 57.4614H98.7086V59.2571H131.159V57.4614Z" fill="#CDE5E9"/>
<path d="M110.124 60.7964H98.7085V62.592H110.124V60.7964Z" fill="#CDE5E9"/>
<path d="M91.0129 78.368C88.8325 78.368 87.1651 76.5724 87.1651 74.5202C87.1651 72.3398 88.9607 70.6724 91.0129 70.6724C93.1933 70.6724 94.8607 72.468 94.8607 74.5202C94.8607 76.5724 93.1933 78.368 91.0129 78.368Z" fill="#DCECB0"/>
<path d="M131.159 71.9551H98.7086V73.7507H131.159V71.9551Z" fill="#CDE5E9"/>
<path d="M110.124 75.29H98.7085V77.0857H110.124V75.29Z" fill="#CDE5E9"/>
<path d="M91.0129 92.7328C88.8325 92.7328 87.1651 90.9371 87.1651 88.8849C87.1651 86.7045 88.9607 85.0371 91.0129 85.0371C93.1933 85.0371 94.8607 86.8328 94.8607 88.8849C94.8607 90.9371 93.1933 92.7328 91.0129 92.7328Z" fill="#EFCACA"/>
<path d="M131.159 86.3198H98.7086V88.1155H131.159V86.3198Z" fill="#CDE5E9"/>
<path d="M110.124 89.6548H98.7085V91.4504H110.124V89.6548Z" fill="#CDE5E9"/>
<path d="M91.0129 107.098C88.8325 107.098 87.1651 105.303 87.1651 103.251C87.1651 101.07 88.9607 99.4028 91.0129 99.4028C93.1933 99.4028 94.8607 101.198 94.8607 103.251C94.8607 105.431 93.1933 107.098 91.0129 107.098Z" fill="#CDE5E9"/>
<path d="M131.159 100.686H98.7086V102.481H131.159V100.686Z" fill="#CDE5E9"/>
<path d="M110.124 104.021H98.7085V105.816H110.124V104.021Z" fill="#CDE5E9"/>
<path d="M91.0129 121.463C88.8325 121.463 87.1651 119.668 87.1651 117.615C87.1651 115.435 88.9607 113.768 91.0129 113.768C93.1933 113.768 94.8607 115.563 94.8607 117.615C94.8607 119.796 93.1933 121.463 91.0129 121.463Z" fill="#BED0ED"/>
<path d="M131.159 115.05H98.7086V116.846H131.159V115.05Z" fill="#CDE5E9"/>
<path d="M110.124 118.385H98.7085V120.181H110.124V118.385Z" fill="#CDE5E9"/>
</svg>
