<svg width="54" height="45" viewBox="0 0 54 45" fill="none" xmlns="http://www.w3.org/2000/svg">
<g clip-path="url(#clip0_2653_14642)">
<path d="M8.57507 30.5277C12.9934 30.5277 16.5751 26.946 16.5751 22.5277C16.5751 18.1094 12.9934 14.5277 8.57507 14.5277C4.1568 14.5277 0.575073 18.1094 0.575073 22.5277C0.575073 26.946 4.1568 30.5277 8.57507 30.5277Z" fill="#FF0420"/>
<path d="M6.24227 24.6525C5.76547 24.6525 5.37507 24.5405 5.07107 24.3165C4.77027 24.0893 4.61987 23.7629 4.61987 23.3437C4.61987 23.2541 4.62947 23.1485 4.64867 23.0205C4.69987 22.7325 4.77347 22.3869 4.86947 21.9805C5.14147 20.8797 5.84547 20.3293 6.97827 20.3293C7.28547 20.3293 7.56387 20.3805 7.80707 20.4861C8.05027 20.5853 8.24227 20.7389 8.38307 20.9437C8.52387 21.1453 8.59427 21.3853 8.59427 21.6637C8.59427 21.7469 8.58467 21.8525 8.56547 21.9805C8.50467 22.3357 8.43427 22.6845 8.34787 23.0205C8.20707 23.5677 7.96707 23.9805 7.62147 24.2525C7.27907 24.5213 6.81827 24.6525 6.24227 24.6525ZM6.32867 23.7885C6.55267 23.7885 6.74147 23.7213 6.89827 23.5901C7.05827 23.4589 7.17347 23.2573 7.24067 22.9821C7.33347 22.6045 7.40387 22.2781 7.45187 21.9965C7.46787 21.9133 7.47747 21.8269 7.47747 21.7373C7.47747 21.3725 7.28867 21.1901 6.90787 21.1901C6.68387 21.1901 6.49187 21.2573 6.33187 21.3885C6.17507 21.5197 6.06307 21.7213 5.99587 21.9965C5.92227 22.2653 5.85187 22.5917 5.77827 22.9821C5.76227 23.0621 5.75267 23.1453 5.75267 23.2349C5.74947 23.6061 5.94467 23.7885 6.32867 23.7885Z" fill="white"/>
<path d="M8.87266 24.5949C8.82786 24.5949 8.79586 24.5821 8.77026 24.5533C8.75106 24.5213 8.74466 24.4861 8.75106 24.4445L9.57986 20.5405C9.58626 20.4957 9.60866 20.4605 9.64706 20.4317C9.68226 20.4029 9.72066 20.3901 9.76226 20.3901H11.3591C11.8039 20.3901 12.1591 20.4829 12.4279 20.6653C12.6999 20.8509 12.8375 21.1165 12.8375 21.4653C12.8375 21.5645 12.8247 21.6701 12.8023 21.7789C12.7031 22.2397 12.5015 22.5789 12.1943 22.7997C11.8935 23.0205 11.4807 23.1293 10.9559 23.1293H10.1463L9.87106 24.4445C9.86146 24.4893 9.84226 24.5245 9.80386 24.5533C9.76866 24.5821 9.73026 24.5949 9.68866 24.5949H8.87266ZM10.9975 22.3005C11.1671 22.3005 11.3111 22.2557 11.4359 22.1629C11.5639 22.0701 11.6471 21.9389 11.6887 21.7661C11.7015 21.6989 11.7079 21.6381 11.7079 21.5869C11.7079 21.4717 11.6727 21.3821 11.6055 21.3213C11.5383 21.2573 11.4199 21.2253 11.2567 21.2253H10.5367L10.3095 22.3005H10.9975Z" fill="white"/>
</g>
<path d="M21.6071 17.4077C21.2071 17.4077 20.8524 17.3277 20.5431 17.1677C20.2337 17.0024 19.9937 16.7704 19.8231 16.4717C19.6577 16.173 19.5751 15.829 19.5751 15.4397V13.6157C19.5751 13.2317 19.6604 12.893 19.8311 12.5997C20.0017 12.301 20.2391 12.0717 20.5431 11.9117C20.8524 11.7464 21.2071 11.6637 21.6071 11.6637C22.0124 11.6637 22.3671 11.7464 22.6711 11.9117C22.9804 12.0717 23.2204 12.301 23.3911 12.5997C23.5617 12.893 23.6471 13.2317 23.6471 13.6157V15.4397C23.6471 15.829 23.5617 16.173 23.3911 16.4717C23.2204 16.7704 22.9804 17.0024 22.6711 17.1677C22.3671 17.3277 22.0124 17.4077 21.6071 17.4077ZM21.6071 16.6077C21.9431 16.6077 22.2124 16.5037 22.4151 16.2957C22.6177 16.0877 22.7191 15.813 22.7191 15.4717V13.6077C22.7191 13.261 22.6177 12.9837 22.4151 12.7757C22.2124 12.5677 21.9431 12.4637 21.6071 12.4637C21.2764 12.4637 21.0097 12.5677 20.8071 12.7757C20.6044 12.9837 20.5031 13.261 20.5031 13.6077V15.4717C20.5031 15.813 20.6044 16.0877 20.8071 16.2957C21.0097 16.5037 21.2764 16.6077 21.6071 16.6077Z" fill="#30354B"/>
<path d="M26.9278 11.7197C27.2638 11.7197 27.5598 11.789 27.8158 11.9277C28.0718 12.0664 28.2692 12.2637 28.4078 12.5197C28.5518 12.7704 28.6238 13.061 28.6238 13.3917C28.6238 13.717 28.5518 14.005 28.4078 14.2557C28.2638 14.5064 28.0585 14.701 27.7918 14.8397C27.5305 14.973 27.2265 15.0397 26.8798 15.0397H25.5998C25.5732 15.0397 25.5598 15.053 25.5598 15.0797V17.2317C25.5598 17.2584 25.5492 17.2824 25.5278 17.3037C25.5118 17.3197 25.4905 17.3277 25.4638 17.3277H24.7278C24.7012 17.3277 24.6772 17.3197 24.6558 17.3037C24.6398 17.2824 24.6318 17.2584 24.6318 17.2317V11.8157C24.6318 11.789 24.6398 11.7677 24.6558 11.7517C24.6772 11.7304 24.7012 11.7197 24.7278 11.7197H26.9278ZM26.7918 14.2877C27.0638 14.2877 27.2825 14.2077 27.4478 14.0477C27.6132 13.8877 27.6958 13.677 27.6958 13.4157C27.6958 13.149 27.6132 12.933 27.4478 12.7677C27.2825 12.6024 27.0638 12.5197 26.7918 12.5197H25.5998C25.5732 12.5197 25.5598 12.533 25.5598 12.5597V14.2477C25.5598 14.2744 25.5732 14.2877 25.5998 14.2877H26.7918Z" fill="#30354B"/>
<path d="M21.5831 25.3917C21.1831 25.3917 20.8311 25.3144 20.5271 25.1597C20.2231 24.9997 19.9884 24.7784 19.8231 24.4957C19.6577 24.213 19.5751 23.885 19.5751 23.5117V21.5357C19.5751 21.1624 19.6577 20.8344 19.8231 20.5517C19.9884 20.269 20.2231 20.0504 20.5271 19.8957C20.8311 19.741 21.1831 19.6637 21.5831 19.6637C21.9777 19.6637 22.3271 19.7384 22.6311 19.8877C22.9351 20.037 23.1697 20.2477 23.3351 20.5197C23.5004 20.7917 23.5831 21.1064 23.5831 21.4637C23.5831 21.4904 23.5724 21.5144 23.5511 21.5357C23.5351 21.5517 23.5137 21.5597 23.4871 21.5597L22.7511 21.5997C22.6871 21.5997 22.6551 21.5704 22.6551 21.5117C22.6551 21.197 22.5564 20.9437 22.3591 20.7517C22.1671 20.5597 21.9084 20.4637 21.5831 20.4637C21.2577 20.4637 20.9964 20.5597 20.7991 20.7517C20.6017 20.9437 20.5031 21.197 20.5031 21.5117V23.5517C20.5031 23.861 20.6017 24.1117 20.7991 24.3037C20.9964 24.4957 21.2577 24.5917 21.5831 24.5917C21.9084 24.5917 22.1671 24.4984 22.3591 24.3117C22.5564 24.1197 22.6551 23.8664 22.6551 23.5517C22.6551 23.493 22.6871 23.4637 22.7511 23.4637L23.4871 23.4957C23.5137 23.4957 23.5351 23.5037 23.5511 23.5197C23.5724 23.5357 23.5831 23.5544 23.5831 23.5757C23.5831 23.9384 23.5004 24.2584 23.3351 24.5357C23.1697 24.8077 22.9351 25.0184 22.6311 25.1677C22.3271 25.317 21.9777 25.3917 21.5831 25.3917Z" fill="#30354B"/>
<path d="M26.2184 25.3917C25.7971 25.3917 25.4344 25.285 25.1304 25.0717C24.8318 24.8584 24.6211 24.5624 24.4984 24.1837C24.4078 23.8957 24.3624 23.5917 24.3624 23.2717C24.3624 22.9304 24.4051 22.6264 24.4904 22.3597C24.6131 21.9864 24.8264 21.6957 25.1304 21.4877C25.4344 21.2797 25.7998 21.1757 26.2264 21.1757C26.6318 21.1757 26.9811 21.2797 27.2744 21.4877C27.5731 21.6957 27.7838 21.9837 27.9064 22.3517C28.0024 22.6077 28.0504 22.9117 28.0504 23.2637C28.0504 23.5997 28.0051 23.9037 27.9144 24.1757C27.7918 24.5544 27.5811 24.853 27.2824 25.0717C26.9838 25.285 26.6291 25.3917 26.2184 25.3917ZM26.2184 24.5917C26.4158 24.5917 26.5838 24.5357 26.7224 24.4237C26.8664 24.3117 26.9704 24.1544 27.0344 23.9517C27.0878 23.7757 27.1144 23.5517 27.1144 23.2797C27.1144 22.9917 27.0878 22.7677 27.0344 22.6077C26.9758 22.405 26.8744 22.2504 26.7304 22.1437C26.5864 22.0317 26.4104 21.9757 26.2024 21.9757C26.0051 21.9757 25.8344 22.0317 25.6904 22.1437C25.5464 22.2504 25.4424 22.405 25.3784 22.6077C25.3251 22.7944 25.2984 23.0184 25.2984 23.2797C25.2984 23.541 25.3251 23.765 25.3784 23.9517C25.4371 24.1544 25.5384 24.3117 25.6824 24.4237C25.8318 24.5357 26.0104 24.5917 26.2184 24.5917Z" fill="#30354B"/>
<path d="M29.0238 25.3277C28.9971 25.3277 28.9731 25.3197 28.9518 25.3037C28.9358 25.2824 28.9278 25.2584 28.9278 25.2317V19.8237C28.9278 19.797 28.9358 19.7757 28.9518 19.7597C28.9731 19.7384 28.9971 19.7277 29.0238 19.7277H29.7598C29.7864 19.7277 29.8078 19.7384 29.8238 19.7597C29.8451 19.7757 29.8558 19.797 29.8558 19.8237V25.2317C29.8558 25.2584 29.8451 25.2824 29.8238 25.3037C29.8078 25.3197 29.7864 25.3277 29.7598 25.3277H29.0238Z" fill="#30354B"/>
<path d="M30.9378 25.3277C30.9112 25.3277 30.8872 25.3197 30.8658 25.3037C30.8498 25.2824 30.8418 25.2584 30.8418 25.2317V19.8237C30.8418 19.797 30.8498 19.7757 30.8658 19.7597C30.8872 19.7384 30.9112 19.7277 30.9378 19.7277H31.6738C31.7005 19.7277 31.7218 19.7384 31.7378 19.7597C31.7592 19.7757 31.7698 19.797 31.7698 19.8237V25.2317C31.7698 25.2584 31.7592 25.2824 31.7378 25.3037C31.7218 25.3197 31.7005 25.3277 31.6738 25.3277H30.9378Z" fill="#30354B"/>
<path d="M36.2039 22.8237C36.2252 22.957 36.2359 23.1064 36.2359 23.2717L36.2279 23.5197C36.2279 23.5837 36.1959 23.6157 36.1319 23.6157H33.6279C33.6012 23.6157 33.5879 23.629 33.5879 23.6557C33.6039 23.8317 33.6279 23.9517 33.6599 24.0157C33.7879 24.3997 34.0999 24.5944 34.5959 24.5997C34.9586 24.5997 35.2466 24.4504 35.4599 24.1517C35.4812 24.1197 35.5079 24.1037 35.5399 24.1037C35.5612 24.1037 35.5799 24.1117 35.5959 24.1277L36.0919 24.5357C36.1399 24.573 36.1479 24.6157 36.1159 24.6637C35.9506 24.8984 35.7292 25.0797 35.4519 25.2077C35.1799 25.3357 34.8759 25.3997 34.5399 25.3997C34.1239 25.3997 33.7692 25.3064 33.4759 25.1197C33.1879 24.933 32.9772 24.6717 32.8439 24.3357C32.7212 24.0477 32.6599 23.6477 32.6599 23.1357C32.6599 22.8264 32.6919 22.5757 32.7559 22.3837C32.8626 22.0104 33.0626 21.717 33.3559 21.5037C33.6546 21.285 34.0119 21.1757 34.4279 21.1757C35.4786 21.1757 36.0706 21.725 36.2039 22.8237ZM34.4279 21.9757C34.2306 21.9757 34.0652 22.0264 33.9319 22.1277C33.8039 22.2237 33.7132 22.3597 33.6599 22.5357C33.6279 22.6264 33.6066 22.7437 33.5959 22.8877C33.5852 22.9144 33.5959 22.9277 33.6279 22.9277H35.2519C35.2786 22.9277 35.2919 22.9144 35.2919 22.8877C35.2812 22.7544 35.2652 22.653 35.2439 22.5837C35.1959 22.3917 35.0999 22.2424 34.9559 22.1357C34.8172 22.029 34.6412 21.9757 34.4279 21.9757Z" fill="#30354B"/>
<path d="M38.788 25.3917C38.3773 25.3917 38.0227 25.2877 37.724 25.0797C37.4253 24.8664 37.2173 24.581 37.1 24.2237C37.0147 23.9837 36.972 23.6637 36.972 23.2637C36.972 22.8797 37.0147 22.565 37.1 22.3197C37.212 21.9677 37.4173 21.6904 37.716 21.4877C38.02 21.2797 38.3773 21.1757 38.788 21.1757C39.204 21.1757 39.5667 21.2797 39.876 21.4877C40.1853 21.6957 40.3907 21.957 40.492 22.2717C40.5187 22.357 40.5373 22.4424 40.548 22.5277V22.5437C40.548 22.597 40.5187 22.629 40.46 22.6397L39.74 22.7437H39.724C39.676 22.7437 39.644 22.717 39.628 22.6637C39.628 22.637 39.6253 22.6157 39.62 22.5997C39.6093 22.557 39.5987 22.5197 39.588 22.4877C39.54 22.3384 39.444 22.2157 39.3 22.1197C39.156 22.0237 38.9853 21.9757 38.788 21.9757C38.5853 21.9757 38.412 22.029 38.268 22.1357C38.1293 22.237 38.036 22.3784 37.988 22.5597C37.9347 22.7304 37.908 22.9677 37.908 23.2717C37.908 23.565 37.932 23.8024 37.98 23.9837C38.0333 24.1704 38.1293 24.3197 38.268 24.4317C38.4067 24.5384 38.58 24.5917 38.788 24.5917C38.9907 24.5917 39.164 24.541 39.308 24.4397C39.4573 24.333 39.5533 24.1917 39.596 24.0157C39.6013 24.005 39.604 23.9917 39.604 23.9757C39.6093 23.9704 39.612 23.9624 39.612 23.9517C39.628 23.8877 39.6653 23.861 39.724 23.8717L40.444 23.9837C40.4707 23.989 40.492 24.0024 40.508 24.0237C40.5293 24.0397 40.5373 24.0637 40.532 24.0957C40.516 24.181 40.5027 24.2424 40.492 24.2797C40.3907 24.621 40.1853 24.893 39.876 25.0957C39.5667 25.293 39.204 25.3917 38.788 25.3917Z" fill="#30354B"/>
<path d="M43.502 21.8957C43.502 21.9224 43.4913 21.9464 43.47 21.9677C43.454 21.9837 43.4327 21.9917 43.406 21.9917H42.59C42.5633 21.9917 42.55 22.005 42.55 22.0317V23.9597C42.55 24.1624 42.5927 24.309 42.678 24.3997C42.7687 24.4904 42.91 24.5357 43.102 24.5357H43.342C43.3687 24.5357 43.39 24.5464 43.406 24.5677C43.4273 24.5837 43.438 24.605 43.438 24.6317V25.2317C43.438 25.2904 43.406 25.325 43.342 25.3357L42.926 25.3437C42.5047 25.3437 42.19 25.2717 41.982 25.1277C41.774 24.9837 41.6673 24.7117 41.662 24.3117V22.0317C41.662 22.005 41.6487 21.9917 41.622 21.9917H41.166C41.1393 21.9917 41.1153 21.9837 41.094 21.9677C41.078 21.9464 41.07 21.9224 41.07 21.8957V21.3357C41.07 21.309 41.078 21.2877 41.094 21.2717C41.1153 21.2504 41.1393 21.2397 41.166 21.2397H41.622C41.6487 21.2397 41.662 21.2264 41.662 21.1997V20.2637C41.662 20.237 41.67 20.2157 41.686 20.1997C41.7073 20.1784 41.7313 20.1677 41.758 20.1677H42.454C42.4807 20.1677 42.502 20.1784 42.518 20.1997C42.5393 20.2157 42.55 20.237 42.55 20.2637V21.1997C42.55 21.2264 42.5633 21.2397 42.59 21.2397H43.406C43.4327 21.2397 43.454 21.2504 43.47 21.2717C43.4913 21.2877 43.502 21.309 43.502 21.3357V21.8957Z" fill="#30354B"/>
<path d="M44.8542 20.6797C44.6889 20.6797 44.5529 20.6264 44.4462 20.5197C44.3395 20.413 44.2862 20.277 44.2862 20.1117C44.2862 19.9464 44.3395 19.8104 44.4462 19.7037C44.5529 19.597 44.6889 19.5437 44.8542 19.5437C45.0195 19.5437 45.1555 19.597 45.2622 19.7037C45.3689 19.8104 45.4222 19.9464 45.4222 20.1117C45.4222 20.277 45.3689 20.413 45.2622 20.5197C45.1555 20.6264 45.0195 20.6797 44.8542 20.6797ZM44.4702 25.3277C44.4435 25.3277 44.4195 25.3197 44.3982 25.3037C44.3822 25.2824 44.3742 25.2584 44.3742 25.2317V21.3277C44.3742 21.301 44.3822 21.2797 44.3982 21.2637C44.4195 21.2424 44.4435 21.2317 44.4702 21.2317H45.2062C45.2329 21.2317 45.2542 21.2424 45.2702 21.2637C45.2915 21.2797 45.3022 21.301 45.3022 21.3277V25.2317C45.3022 25.2584 45.2915 25.2824 45.2702 25.3037C45.2542 25.3197 45.2329 25.3277 45.2062 25.3277H44.4702Z" fill="#30354B"/>
<path d="M47.4693 25.3277C47.4159 25.3277 47.3813 25.301 47.3653 25.2477L46.0773 21.3437C46.0719 21.333 46.0693 21.3197 46.0693 21.3037C46.0693 21.2557 46.0986 21.2317 46.1573 21.2317H46.9733C47.0319 21.2317 47.0693 21.2584 47.0853 21.3117L47.8613 23.9837C47.8666 23.9997 47.8746 24.0077 47.8853 24.0077C47.8959 24.0077 47.9039 23.9997 47.9093 23.9837L48.6853 21.3117C48.7013 21.2584 48.7386 21.2317 48.7973 21.2317L49.6133 21.2477C49.6453 21.2477 49.6693 21.2584 49.6853 21.2797C49.7013 21.2957 49.7039 21.3224 49.6933 21.3597L48.4133 25.2477C48.3973 25.301 48.3626 25.3277 48.3093 25.3277H47.4693Z" fill="#30354B"/>
<path d="M53.6258 22.8237C53.6471 22.957 53.6578 23.1064 53.6578 23.2717L53.6498 23.5197C53.6498 23.5837 53.6178 23.6157 53.5538 23.6157H51.0498C51.0231 23.6157 51.0098 23.629 51.0098 23.6557C51.0258 23.8317 51.0498 23.9517 51.0818 24.0157C51.2098 24.3997 51.5218 24.5944 52.0178 24.5997C52.3804 24.5997 52.6684 24.4504 52.8818 24.1517C52.9031 24.1197 52.9298 24.1037 52.9618 24.1037C52.9831 24.1037 53.0018 24.1117 53.0178 24.1277L53.5138 24.5357C53.5618 24.573 53.5698 24.6157 53.5378 24.6637C53.3724 24.8984 53.1511 25.0797 52.8738 25.2077C52.6018 25.3357 52.2978 25.3997 51.9618 25.3997C51.5458 25.3997 51.1911 25.3064 50.8978 25.1197C50.6098 24.933 50.3991 24.6717 50.2658 24.3357C50.1431 24.0477 50.0818 23.6477 50.0818 23.1357C50.0818 22.8264 50.1138 22.5757 50.1778 22.3837C50.2844 22.0104 50.4844 21.717 50.7778 21.5037C51.0764 21.285 51.4338 21.1757 51.8498 21.1757C52.9004 21.1757 53.4924 21.725 53.6258 22.8237ZM51.8498 21.9757C51.6524 21.9757 51.4871 22.0264 51.3538 22.1277C51.2258 22.2237 51.1351 22.3597 51.0818 22.5357C51.0498 22.6264 51.0284 22.7437 51.0178 22.8877C51.0071 22.9144 51.0178 22.9277 51.0498 22.9277H52.6738C52.7004 22.9277 52.7138 22.9144 52.7138 22.8877C52.7031 22.7544 52.6871 22.653 52.6658 22.5837C52.6178 22.3917 52.5218 22.2424 52.3778 22.1357C52.2391 22.029 52.0631 21.9757 51.8498 21.9757Z" fill="#30354B"/>
<path d="M21.5831 33.3917C21.1831 33.3917 20.8311 33.3144 20.5271 33.1597C20.2231 32.9997 19.9884 32.7757 19.8231 32.4877C19.6577 32.1997 19.5751 31.869 19.5751 31.4957V29.5597C19.5751 29.181 19.6577 28.8504 19.8231 28.5677C19.9884 28.2797 20.2231 28.0584 20.5271 27.9037C20.8311 27.7437 21.1831 27.6637 21.5831 27.6637C21.9777 27.6637 22.3244 27.741 22.6231 27.8957C22.9271 28.0504 23.1617 28.261 23.3271 28.5277C23.4924 28.7944 23.5751 29.0957 23.5751 29.4317V29.4957C23.5751 29.5224 23.5644 29.5464 23.5431 29.5677C23.5271 29.5837 23.5057 29.5917 23.4791 29.5917H22.7511C22.7244 29.5917 22.7004 29.5837 22.6791 29.5677C22.6631 29.5464 22.6551 29.5224 22.6551 29.4957V29.4557C22.6551 29.1677 22.5564 28.9304 22.3591 28.7437C22.1671 28.557 21.9084 28.4637 21.5831 28.4637C21.2577 28.4637 20.9964 28.5624 20.7991 28.7597C20.6017 28.9517 20.5031 29.2077 20.5031 29.5277V31.5277C20.5031 31.8477 20.6071 32.1064 20.8151 32.3037C21.0231 32.4957 21.2924 32.5917 21.6231 32.5917C21.9431 32.5917 22.1937 32.509 22.3751 32.3437C22.5617 32.173 22.6551 31.941 22.6551 31.6477V31.1517C22.6551 31.125 22.6417 31.1117 22.6151 31.1117H21.6311C21.6044 31.1117 21.5804 31.1037 21.5591 31.0877C21.5431 31.0664 21.5351 31.0424 21.5351 31.0157V30.4237C21.5351 30.397 21.5431 30.3757 21.5591 30.3597C21.5804 30.3384 21.6044 30.3277 21.6311 30.3277H23.4791C23.5057 30.3277 23.5271 30.3384 23.5431 30.3597C23.5644 30.3757 23.5751 30.397 23.5751 30.4237V31.4477C23.5751 32.061 23.3937 32.5384 23.0311 32.8797C22.6737 33.221 22.1911 33.3917 21.5831 33.3917Z" fill="#30354B"/>
<path d="M26.4333 29.1917C26.604 29.1917 26.7533 29.2264 26.8813 29.2957C26.924 29.317 26.94 29.357 26.9293 29.4157L26.7933 30.1357C26.788 30.1997 26.7507 30.2184 26.6813 30.1917C26.6013 30.165 26.508 30.1517 26.4013 30.1517C26.332 30.1517 26.2787 30.1544 26.2413 30.1597C26.0173 30.1704 25.8307 30.2504 25.6813 30.3997C25.532 30.5437 25.4573 30.733 25.4573 30.9677V33.2317C25.4573 33.2584 25.4467 33.2824 25.4253 33.3037C25.4093 33.3197 25.388 33.3277 25.3613 33.3277H24.6253C24.5987 33.3277 24.5747 33.3197 24.5533 33.3037C24.5373 33.2824 24.5293 33.2584 24.5293 33.2317V29.3357C24.5293 29.309 24.5373 29.2877 24.5533 29.2717C24.5747 29.2504 24.5987 29.2397 24.6253 29.2397H25.3613C25.388 29.2397 25.4093 29.2504 25.4253 29.2717C25.4467 29.2877 25.4573 29.309 25.4573 29.3357V29.6957C25.4573 29.717 25.46 29.7304 25.4653 29.7357C25.476 29.7357 25.4867 29.7277 25.4973 29.7117C25.7213 29.365 26.0333 29.1917 26.4333 29.1917Z" fill="#30354B"/>
<path d="M29.0581 29.1757C29.3941 29.1757 29.6901 29.2344 29.9461 29.3517C30.2021 29.469 30.3994 29.6317 30.5381 29.8397C30.6767 30.0424 30.7461 30.2744 30.7461 30.5357V33.2317C30.7461 33.2584 30.7354 33.2824 30.7141 33.3037C30.6981 33.3197 30.6767 33.3277 30.6501 33.3277H29.9141C29.8874 33.3277 29.8634 33.3197 29.8421 33.3037C29.8261 33.2824 29.8181 33.2584 29.8181 33.2317V32.9757C29.8181 32.9597 29.8127 32.9517 29.8021 32.9517C29.7914 32.9464 29.7807 32.949 29.7701 32.9597C29.5087 33.2477 29.1301 33.3917 28.6341 33.3917C28.2341 33.3917 27.9034 33.2904 27.6421 33.0877C27.3861 32.885 27.2581 32.5837 27.2581 32.1837C27.2581 31.7677 27.4021 31.445 27.6901 31.2157C27.9834 30.981 28.3941 30.8637 28.9221 30.8637H29.7781C29.8047 30.8637 29.8181 30.8504 29.8181 30.8237V30.6317C29.8181 30.4237 29.7567 30.2637 29.6341 30.1517C29.5114 30.0344 29.3274 29.9757 29.0821 29.9757C28.8794 29.9757 28.7141 30.013 28.5861 30.0877C28.4634 30.157 28.3861 30.2557 28.3541 30.3837C28.3381 30.4477 28.3007 30.4744 28.2421 30.4637L27.4661 30.3677C27.4394 30.3624 27.4154 30.3544 27.3941 30.3437C27.3781 30.3277 27.3727 30.309 27.3781 30.2877C27.4207 29.9624 27.5941 29.6957 27.8981 29.4877C28.2074 29.2797 28.5941 29.1757 29.0581 29.1757ZM28.8661 32.6557C29.1274 32.6557 29.3514 32.5864 29.5381 32.4477C29.7247 32.309 29.8181 32.133 29.8181 31.9197V31.5437C29.8181 31.517 29.8047 31.5037 29.7781 31.5037H29.1061C28.8234 31.5037 28.5994 31.557 28.4341 31.6637C28.2741 31.7704 28.1941 31.9224 28.1941 32.1197C28.1941 32.2904 28.2554 32.4237 28.3781 32.5197C28.5061 32.6104 28.6687 32.6557 28.8661 32.6557Z" fill="#30354B"/>
<path d="M33.6378 29.1757C34.0698 29.1757 34.4138 29.3037 34.6698 29.5597C34.9311 29.8157 35.0618 30.165 35.0618 30.6077V33.2317C35.0618 33.2584 35.0511 33.2824 35.0298 33.3037C35.0138 33.3197 34.9924 33.3277 34.9658 33.3277H34.2298C34.2031 33.3277 34.1791 33.3197 34.1578 33.3037C34.1418 33.2824 34.1338 33.2584 34.1338 33.2317V30.7997C34.1338 30.5544 34.0644 30.357 33.9258 30.2077C33.7871 30.053 33.6031 29.9757 33.3738 29.9757C33.1444 29.9757 32.9578 30.0504 32.8138 30.1997C32.6751 30.349 32.6058 30.5464 32.6058 30.7917V33.2317C32.6058 33.2584 32.5951 33.2824 32.5738 33.3037C32.5578 33.3197 32.5364 33.3277 32.5098 33.3277H31.7738C31.7471 33.3277 31.7231 33.3197 31.7018 33.3037C31.6858 33.2824 31.6778 33.2584 31.6778 33.2317V29.3357C31.6778 29.309 31.6858 29.2877 31.7018 29.2717C31.7231 29.2504 31.7471 29.2397 31.7738 29.2397H32.5098C32.5364 29.2397 32.5578 29.2504 32.5738 29.2717C32.5951 29.2877 32.6058 29.309 32.6058 29.3357V29.5917C32.6058 29.6077 32.6111 29.6184 32.6218 29.6237C32.6324 29.629 32.6404 29.6237 32.6458 29.6077C32.8644 29.3197 33.1951 29.1757 33.6378 29.1757Z" fill="#30354B"/>
<path d="M38.1973 29.8957C38.1973 29.9224 38.1867 29.9464 38.1653 29.9677C38.1493 29.9837 38.128 29.9917 38.1013 29.9917H37.2853C37.2587 29.9917 37.2453 30.005 37.2453 30.0317V31.9597C37.2453 32.1624 37.288 32.309 37.3733 32.3997C37.464 32.4904 37.6053 32.5357 37.7973 32.5357H38.0373C38.064 32.5357 38.0853 32.5464 38.1013 32.5677C38.1227 32.5837 38.1333 32.605 38.1333 32.6317V33.2317C38.1333 33.2904 38.1013 33.325 38.0373 33.3357L37.6213 33.3437C37.2 33.3437 36.8853 33.2717 36.6773 33.1277C36.4693 32.9837 36.3627 32.7117 36.3573 32.3117V30.0317C36.3573 30.005 36.344 29.9917 36.3173 29.9917H35.8613C35.8347 29.9917 35.8107 29.9837 35.7893 29.9677C35.7733 29.9464 35.7653 29.9224 35.7653 29.8957V29.3357C35.7653 29.309 35.7733 29.2877 35.7893 29.2717C35.8107 29.2504 35.8347 29.2397 35.8613 29.2397H36.3173C36.344 29.2397 36.3573 29.2264 36.3573 29.1997V28.2637C36.3573 28.237 36.3653 28.2157 36.3813 28.1997C36.4027 28.1784 36.4267 28.1677 36.4533 28.1677H37.1493C37.176 28.1677 37.1973 28.1784 37.2133 28.1997C37.2347 28.2157 37.2453 28.237 37.2453 28.2637V29.1997C37.2453 29.2264 37.2587 29.2397 37.2853 29.2397H38.1013C38.128 29.2397 38.1493 29.2504 38.1653 29.2717C38.1867 29.2877 38.1973 29.309 38.1973 29.3357V29.8957Z" fill="#30354B"/>
<defs>
<clipPath id="clip0_2653_14642">
<rect width="16" height="16" fill="white" transform="translate(0.575073 14.5277)"/>
</clipPath>
</defs>
</svg>
