<svg width="17" height="16" viewBox="0 0 17 16" fill="none" xmlns="http://www.w3.org/2000/svg">
<path d="M15.4788 7.63882V12.6944C15.4788 13.0775 15.3266 13.4449 15.0557 13.7157C14.7848 13.9866 14.4174 14.1388 14.0343 14.1388H3.9232C3.54011 14.1388 3.17271 13.9866 2.90183 13.7157C2.63094 13.4449 2.47876 13.0775 2.47876 12.6944V7.63882H15.4788ZM15.4788 7.63882H2.50295C2.50295 6.91154 2.24332 6.18354 3.42957 4.72718C4.91265 2.9079 6.76623 0.906622 8.99068 2.3619C11.2151 3.81754 15.4788 6.91082 15.4788 7.63882ZM2.47876 10.5277H15.4788M2.47876 9.08326V11.9722M15.4788 9.08326V11.9722" stroke="#303030" stroke-linecap="round" stroke-linejoin="round"/>
</svg>
