<svg width="17" height="16" viewBox="0 0 17 16"  xmlns="http://www.w3.org/2000/svg">
<g clip-path="url(#clip0_596_14071)">
<path d="M8.97874 0.363525C8.57709 0.363525 8.25146 0.68915 8.25146 1.0908V3.99989C8.25146 4.40154 8.57709 4.72716 8.97874 4.72716C9.38039 4.72716 9.70601 4.40154 9.70601 3.99989V1.0908C9.70601 0.68915 9.38039 0.363525 8.97874 0.363525Z" />
<path d="M8.97874 12.7271C8.57709 12.7271 8.25146 13.0527 8.25146 13.4543V14.9089C8.25146 15.3105 8.57709 15.6361 8.97874 15.6361C9.38039 15.6361 9.70601 15.3105 9.70601 14.9089V13.4543C9.70601 13.0527 9.38039 12.7271 8.97874 12.7271Z" />
<path d="M16.2516 7.63623H13.3425C12.9409 7.63623 12.6152 7.96185 12.6152 8.3635C12.6152 8.76515 12.9409 9.09078 13.3425 9.09078H16.2516C16.6532 9.09078 16.9789 8.76515 16.9789 8.3635C16.9789 7.96185 16.6532 7.63623 16.2516 7.63623Z" />
<path d="M5.3424 8.3635C5.3424 7.96185 5.01677 7.63623 4.61512 7.63623H1.70603C1.30438 7.63623 0.97876 7.96185 0.97876 8.3635C0.97876 8.76515 1.30438 9.09078 1.70603 9.09078H4.61512C5.01677 9.09078 5.3424 8.76515 5.3424 8.3635Z" />
<path d="M14.6358 2.70667C14.3518 2.42265 13.8913 2.42265 13.6072 2.70667L11.5502 4.76374C11.2662 5.04776 11.2662 5.50822 11.5502 5.79225C11.6922 5.93426 11.8783 6.00529 12.0644 6.00529C12.2505 6.00529 12.4367 5.93431 12.5787 5.79225L14.6358 3.73518C14.9198 3.45116 14.9198 2.99069 14.6358 2.70667Z" />
<path d="M5.37884 10.9349L3.32187 12.992C3.03789 13.276 3.03789 13.7365 3.32187 14.0205C3.46388 14.1625 3.65001 14.2335 3.83615 14.2335C4.02228 14.2335 4.20841 14.1625 4.35043 14.0205L6.40744 11.9635C6.69142 11.6794 6.69142 11.219 6.40744 10.9349C6.12337 10.6509 5.66291 10.6509 5.37884 10.9349Z" />
<path d="M4.35041 2.70665C4.06639 2.42263 3.60593 2.42268 3.3219 2.70665C3.03788 2.99068 3.03788 3.45114 3.3219 3.73516L5.37892 5.79223C5.52098 5.93424 5.70707 6.00527 5.8932 6.00527C6.07929 6.00527 6.26547 5.93424 6.40743 5.79228C6.69146 5.50825 6.69146 5.04779 6.40743 4.76377L4.35041 2.70665Z" />
</g>
<defs>
<clipPath id="clip0_596_14071">
<rect width="16" height="16" fill="white" transform="translate(0.97876)"/>
</clipPath>
</defs>
</svg>
