<svg width="16" height="17" viewBox="0 0 16 17"  xmlns="http://www.w3.org/2000/svg">
<g id="ph:paper-plane">
<path id="Vector" d="M15.3597 13.5951L8.92678 2.34943C8.83356 2.18371 8.69792 2.04579 8.5338 1.9498C8.36967 1.85381 8.18296 1.80322 7.99282 1.80322C7.80269 1.80322 7.61597 1.85381 7.45185 1.9498C7.28772 2.04579 7.15209 2.18371 7.05887 2.34943L0.636705 13.6011C0.530334 13.791 0.484294 14.0087 0.504712 14.2254C0.52513 14.4421 0.611037 14.6474 0.751004 14.814C0.890972 14.9807 1.07836 15.1008 1.28825 15.1583C1.49814 15.2159 1.72057 15.2081 1.92596 15.1361L7.98512 13.0599H7.99784L14.0711 15.1361C14.2771 15.209 14.5005 15.2172 14.7112 15.1595C14.922 15.1018 15.1101 14.9811 15.2503 14.8135C15.3905 14.6458 15.4761 14.4394 15.4957 14.2217C15.5152 14.0041 15.4678 13.7856 15.3597 13.5957V13.5951ZM14.422 14.1201L8.53498 12.1062V8.23111C8.53498 8.089 8.47853 7.95272 8.37805 7.85224C8.27757 7.75176 8.14129 7.69531 7.99918 7.69531C7.85708 7.69531 7.7208 7.75176 7.62032 7.85224C7.51984 7.95272 7.46339 8.089 7.46339 8.23111V12.1009L1.57769 14.1208L1.56966 14.1248L7.98981 2.87317L14.4287 14.1248L14.422 14.1201Z" />
</g>
</svg>
