<svg width="17" height="16" viewBox="0 0 17 16" fill="none" xmlns="http://www.w3.org/2000/svg">
<g clip-path="url(#clip0_597_15411)">
<path d="M8.97876 1C10.8353 1 12.6158 1.7375 13.9285 3.05025C15.2413 4.36301 15.9788 6.14348 15.9788 8C15.9788 9.85652 15.2413 11.637 13.9285 12.9497C12.6158 14.2625 10.8353 15 8.97876 15C7.12224 15 5.34177 14.2625 4.02901 12.9497C2.71626 11.637 1.97876 9.85652 1.97876 8C1.97876 6.14348 2.71626 4.36301 4.02901 3.05025C5.34177 1.7375 7.12224 1 8.97876 1ZM9.34976 3.992C8.53576 3.992 7.89776 4.223 7.42476 4.685C6.94076 5.147 6.70976 5.785 6.70976 6.599H7.96376C7.96376 6.137 8.05176 5.774 8.23876 5.521C8.44776 5.213 8.78876 5.07 9.27276 5.07C9.64676 5.07 9.94376 5.169 10.1528 5.378C10.3508 5.587 10.4608 5.873 10.4608 6.236C10.4608 6.511 10.3618 6.775 10.1638 7.017L10.0318 7.171C9.31676 7.809 8.88776 8.271 8.74476 8.568C8.59076 8.865 8.52476 9.228 8.52476 9.646V9.8H9.78976V9.646C9.78976 9.382 9.84476 9.151 9.95476 8.931C10.0538 8.733 10.1968 8.546 10.3948 8.381C10.9228 7.919 11.2418 7.622 11.3408 7.512C11.6048 7.16 11.7478 6.709 11.7478 6.159C11.7478 5.488 11.5278 4.96 11.0878 4.575C10.6478 4.179 10.0648 3.992 9.34976 3.992ZM9.15176 10.339C8.92747 10.3329 8.70993 10.416 8.54676 10.57C8.4662 10.6459 8.4029 10.7382 8.36115 10.8407C8.3194 10.9432 8.30017 11.0534 8.30476 11.164C8.30476 11.406 8.38176 11.604 8.54676 11.758C8.7087 11.9152 8.9261 12.0021 9.15176 12C9.39376 12 9.59176 11.923 9.75676 11.769C9.83903 11.6916 9.90407 11.5977 9.94766 11.4934C9.99125 11.3892 10.0124 11.277 10.0098 11.164C10.0119 11.0537 9.9915 10.9442 9.9499 10.8421C9.90829 10.74 9.84632 10.6474 9.76776 10.57C9.60035 10.4157 9.37934 10.3328 9.15176 10.339Z" fill="#303030"/>
</g>
<defs>
<clipPath id="clip0_597_15411">
<rect width="16" height="16" fill="white" transform="translate(0.97876)"/>
</clipPath>
</defs>
</svg>
