<svg width="16" height="17" viewBox="0 0 16 17" fill="none" xmlns="http://www.w3.org/2000/svg">
<g id="teenyicons:safe-outline">
<path id="Vector" d="M3.35714 4.08901V6.87472M3.35714 8.73186V11.5176M3.35714 13.839V15.2319M12.6428 13.839V15.2319M9.85713 10.1247C9.36459 10.1247 8.89222 9.92906 8.54394 9.58078C8.19566 9.23249 7.99999 8.76012 7.99999 8.26758C7.99999 7.77503 8.19566 7.30266 8.54394 6.95438C8.89222 6.6061 9.36459 6.41043 9.85713 6.41043C10.3497 6.41043 10.8221 6.6061 11.1703 6.95438C11.5186 7.30266 11.7143 7.77503 11.7143 8.26758C11.7143 8.76012 11.5186 9.23249 11.1703 9.58078C10.8221 9.92906 10.3497 10.1247 9.85713 10.1247ZM2.42856 1.76758H13.5714C13.8177 1.76758 14.0539 1.86541 14.228 2.03955C14.4022 2.21369 14.5 2.44988 14.5 2.69615V12.9104C14.5 13.1567 14.4022 13.3929 14.228 13.567C14.0539 13.7412 13.8177 13.839 13.5714 13.839H2.42856C2.18229 13.839 1.94611 13.7412 1.77196 13.567C1.59782 13.3929 1.49999 13.1567 1.49999 12.9104V2.69615C1.49999 2.44988 1.59782 2.21369 1.77196 2.03955C1.94611 1.86541 2.18229 1.76758 2.42856 1.76758Z" stroke="#93959C"/>
</g>
</svg>
