<svg width="21" height="21" viewBox="0 0 21 21" fill="none" xmlns="http://www.w3.org/2000/svg">
<path d="M19.1036 17.4911L14.3836 12.7711C15.5179 11.4095 16.0835 9.66291 15.9628 7.89483C15.8421 6.12675 15.0444 4.47326 13.7357 3.27834C12.4269 2.08341 10.7079 1.43906 8.93612 1.47932C7.16438 1.51958 5.47637 2.24134 4.22324 3.49448C2.9701 4.74761 2.24833 6.43562 2.20808 8.20736C2.16782 9.9791 2.81217 11.6982 4.0071 13.0069C5.20202 14.3157 6.85551 15.1134 8.62359 15.2341C10.3917 15.3547 12.1382 14.7891 13.4999 13.6549L18.2199 18.3749L19.1036 17.4911ZM3.47865 8.37489C3.47865 7.26237 3.80855 6.17483 4.42663 5.24981C5.04472 4.32478 5.92322 3.60381 6.95105 3.17807C7.97889 2.75232 9.10989 2.64093 10.201 2.85797C11.2922 3.07501 12.2945 3.61074 13.0811 4.39741C13.8678 5.18408 14.4035 6.18636 14.6206 7.27751C14.8376 8.36865 14.7262 9.49965 14.3005 10.5275C13.8747 11.5553 13.1538 12.4338 12.2287 13.0519C11.3037 13.67 10.2162 13.9999 9.10365 13.9999C7.61231 13.9982 6.18253 13.4051 5.128 12.3505C4.07347 11.296 3.4803 9.86622 3.47865 8.37489V8.37489Z" fill="#303030"/>
</svg>
