<svg width="16" height="17" viewBox="0 0 16 17"  xmlns="http://www.w3.org/2000/svg">
<g id="solar:square-transfer-horizontal-outline">
<path id="Vector" fill-rule="evenodd" clip-rule="evenodd" d="M7.96023 1H8.03977C9.6507 1 10.9128 1 11.8979 1.13256C12.9053 1.26791 13.7007 1.55116 14.3251 2.17488C14.9495 2.7993 15.2321 3.59465 15.3674 4.60279C15.5 5.58721 15.5 6.8493 15.5 8.46023V8.53977C15.5 10.1507 15.5 11.4128 15.3674 12.3979C15.2321 13.4053 14.9488 14.2007 14.3251 14.8251C13.7007 15.4495 12.9053 15.7321 11.8972 15.8674C10.9128 16 9.6507 16 8.03977 16H7.96023C6.3493 16 5.08721 16 4.10209 15.8674C3.09465 15.7321 2.2993 15.4488 1.67488 14.8251C1.05047 14.2007 0.767907 13.4053 0.632558 12.3972C0.5 11.4128 0.5 10.1507 0.5 8.53977V8.46023C0.5 6.8493 0.5 5.58721 0.632558 4.60209C0.767907 3.59465 1.05116 2.7993 1.67488 2.17488C2.2993 1.55047 3.09465 1.26791 4.10279 1.13256C5.08721 1 6.3493 1 7.96023 1ZM4.24163 2.1693C3.35 2.2893 2.81209 2.51814 2.41512 2.91512C2.01744 3.31279 1.7893 3.85 1.6693 4.74233C1.54791 5.6493 1.54651 6.84093 1.54651 8.5C1.54651 10.1591 1.54791 11.3507 1.6693 12.2577C1.7893 13.15 2.01814 13.6879 2.41512 14.0856C2.81279 14.4826 3.35 14.7107 4.24233 14.8307C5.1493 14.9521 6.34093 14.9535 8 14.9535C9.65907 14.9535 10.8507 14.9521 11.7577 14.8307C12.65 14.7107 13.1879 14.4819 13.5856 14.0849C13.9826 13.6872 14.2107 13.15 14.3307 12.2577C14.4521 11.3507 14.4535 10.1591 14.4535 8.5C14.4535 6.84093 14.4521 5.6493 14.3307 4.74233C14.2107 3.85 13.9819 3.31209 13.5849 2.91442C13.1872 2.51744 12.65 2.2893 11.7577 2.1693C10.8507 2.04791 9.65907 2.04651 8 2.04651C6.34093 2.04651 5.1486 2.04791 4.24163 2.1693ZM7.30442 4.66698C7.34979 4.71878 7.38448 4.77903 7.40652 4.84428C7.42856 4.90952 7.4375 4.97847 7.43283 5.04717C7.42816 5.11588 7.40998 5.18298 7.37932 5.24465C7.34867 5.30631 7.30614 5.36132 7.25419 5.40651L5.90698 6.5814H11.4884C11.6271 6.5814 11.7602 6.63652 11.8584 6.73465C11.9565 6.83278 12.0116 6.96587 12.0116 7.10465C12.0116 7.24343 11.9565 7.37652 11.8584 7.47465C11.7602 7.57278 11.6271 7.62791 11.4884 7.62791H4.51163C4.40513 7.62787 4.30118 7.59535 4.21366 7.53467C4.12614 7.47399 4.05922 7.38806 4.02183 7.28834C3.98445 7.18862 3.97838 7.07987 4.00444 6.97661C4.0305 6.87335 4.08745 6.7805 4.16767 6.71047L6.56558 4.61744C6.61737 4.57218 6.67757 4.53757 6.74275 4.5156C6.80792 4.49362 6.87679 4.48471 6.94541 4.48938C7.01404 4.49405 7.08106 4.51219 7.14267 4.54279C7.20427 4.57338 7.25923 4.61512 7.30442 4.66698ZM10.093 10.4186H4.51163C4.37285 10.4186 4.23976 10.3635 4.14163 10.2653C4.0435 10.1672 3.98837 10.0341 3.98837 9.89535C3.98837 9.75657 4.0435 9.62348 4.14163 9.52535C4.23976 9.42722 4.37285 9.37209 4.51163 9.37209H11.4884C11.5949 9.37213 11.6988 9.40465 11.7863 9.46533C11.8739 9.52601 11.9408 9.61194 11.9782 9.71166C12.0156 9.81138 12.0216 9.92013 11.9956 10.0234C11.9695 10.1266 11.9126 10.2195 11.8323 10.2895L9.43442 12.3826C9.32987 12.4739 9.19334 12.5199 9.05484 12.5106C8.91635 12.5012 8.78724 12.4372 8.69593 12.3327C8.60462 12.2281 8.55857 12.0916 8.56793 11.9531C8.57728 11.8146 8.64127 11.6855 8.74581 11.5942L10.093 10.4186Z" />
</g>
</svg>
