<svg width="17" height="16" viewBox="0 0 17 16" fill="none" xmlns="http://www.w3.org/2000/svg">
<g clip-path="url(#clip0_596_14019)">
<path d="M12.9788 1.33333C14.4494 1.33333 15.6454 2.52933 15.6454 4V12C15.6454 13.4707 14.4494 14.6667 12.9788 14.6667H4.97876C3.50809 14.6667 2.31209 13.4707 2.31209 12V4C2.31209 2.52933 3.50809 1.33333 4.97876 1.33333H12.9788ZM12.9788 0H4.97876C2.76943 0 0.97876 1.79067 0.97876 4V12C0.97876 14.2093 2.76943 16 4.97876 16H12.9788C15.1881 16 16.9788 14.2093 16.9788 12V4C16.9788 1.79067 15.1881 0 12.9788 0Z" fill="#303030"/>
<path d="M5.64543 12.0001C5.27743 12.0001 4.97876 11.7021 4.97876 11.3334V7.33341C4.97876 6.96541 5.27743 6.66675 5.64543 6.66675C6.01343 6.66675 6.31209 6.96541 6.31209 7.33341V11.3334C6.31209 11.7021 6.01343 12.0001 5.64543 12.0001Z" fill="#303030"/>
<path d="M8.97868 12C8.61068 12 8.31201 11.702 8.31201 11.3333V4.66667C8.31201 4.29867 8.61068 4 8.97868 4C9.34668 4 9.64535 4.29867 9.64535 4.66667V11.3333C9.64535 11.702 9.34668 12 8.97868 12Z" fill="#303030"/>
<path d="M12.3122 12.0001C11.9435 12.0001 11.6455 11.7021 11.6455 11.3334V7.33341C11.6455 6.96541 11.9435 6.66675 12.3122 6.66675C12.6808 6.66675 12.9788 6.96541 12.9788 7.33341V11.3334C12.9788 11.7021 12.6808 12.0001 12.3122 12.0001Z" fill="#303030"/>
</g>
<defs>
<clipPath id="clip0_596_14019">
<rect width="16" height="16" fill="white" transform="translate(0.97876)"/>
</clipPath>
</defs>
</svg>
