<svg width="41" height="45" viewBox="0 0 41 45" fill="none" xmlns="http://www.w3.org/2000/svg">
<path d="M14.7522 26.6601L12.1819 23.1679C11.9027 22.7884 11.4892 22.5611 11.0489 22.511C10.9487 22.4993 10.8592 22.4412 10.809 22.3535C10.758 22.2657 10.7526 22.1593 10.7929 22.0662C10.9692 21.6599 10.98 21.1882 10.7903 20.7568L9.05131 16.785C8.79358 16.1952 8.21094 15.8148 7.56742 15.8148C6.92397 15.8148 6.34133 16.1961 6.0836 16.785L4.34466 20.7568C4.15582 21.1882 4.16567 21.6599 4.34198 22.0662C4.38225 22.1593 4.37598 22.2657 4.32586 22.3535C4.27485 22.4412 4.18625 22.4993 4.08601 22.511C3.64569 22.5611 3.23221 22.7884 2.95298 23.1679L0.382624 26.6601C0.00136705 27.1782 -0.0371171 27.8727 0.284177 28.4303C0.606367 28.987 1.22748 29.3011 1.86648 29.2305L6.17576 28.7507C6.64383 28.6988 7.04748 28.4545 7.31059 28.0983C7.37057 28.0168 7.46633 27.9685 7.56742 27.9685C7.66857 27.9685 7.76345 28.0168 7.82432 28.0983C8.08743 28.4545 8.49108 28.6988 8.95915 28.7507L13.2684 29.2305C13.9074 29.302 14.5285 28.9879 14.8507 28.4303C15.172 27.8727 15.1335 27.1782 14.7522 26.6601ZM5.46874 21.2553L7.21032 17.279C7.27303 17.1367 7.41351 17.0445 7.56831 17.0445C7.72317 17.0445 7.86366 17.1367 7.92636 17.279L9.66797 21.2553C9.72256 21.3806 9.71091 21.5256 9.63573 21.6402C9.56055 21.7547 9.43349 21.8236 9.29566 21.8236H5.84016C5.70322 21.8236 5.57524 21.7547 5.50007 21.6402C5.42489 21.5256 5.41325 21.3806 5.46784 21.2553H5.46874ZM6.3628 27.3089C6.30104 27.4315 6.18114 27.5139 6.04509 27.5291L1.73134 28.0088C1.57741 28.0258 1.42705 27.9507 1.34919 27.8164C1.27133 27.6821 1.28117 27.5148 1.37336 27.3895L3.9464 23.8937C4.02784 23.7836 4.1585 23.721 4.29543 23.729C4.43236 23.7362 4.55587 23.8123 4.62479 23.9313L4.62747 23.9358L6.35032 26.9196L6.35298 26.9241C6.42189 27.0431 6.42544 27.1881 6.36368 27.3098L6.3628 27.3089ZM7.92186 25.9593C7.84846 26.0855 7.71424 26.1643 7.56742 26.1643C7.42156 26.1643 7.28645 26.0864 7.21305 25.9602L5.88938 23.6682C5.81599 23.542 5.81599 23.3854 5.88938 23.2592C5.96277 23.133 6.09703 23.0542 6.24378 23.0542H8.89024C9.03611 23.0542 9.17121 23.1312 9.24462 23.2583C9.31802 23.3854 9.31802 23.5411 9.24462 23.6673L7.92186 25.9593ZM13.7866 27.8164C13.7087 27.9507 13.5593 28.0267 13.4045 28.0097L9.0907 27.53C8.95465 27.5148 8.83475 27.4324 8.773 27.3098C8.71124 27.1872 8.71479 27.0422 8.78371 26.9241L8.78643 26.9196L10.5092 23.9358L10.5119 23.9313C10.5808 23.8123 10.7043 23.7362 10.8412 23.729C10.9782 23.7219 11.1088 23.7836 11.1903 23.8937L13.7633 27.3895C13.8555 27.5148 13.8644 27.6821 13.7875 27.8164H13.7866Z" fill="#E81899"/>
<path d="M22.0594 15.7878C22.0861 15.7878 22.1074 15.7984 22.1234 15.8198C22.1448 15.8358 22.1554 15.8571 22.1554 15.8838V16.4998C22.1554 16.5264 22.1448 16.5504 22.1234 16.5718C22.1074 16.5878 22.0861 16.5958 22.0594 16.5958H20.5874C20.5608 16.5958 20.5474 16.6091 20.5474 16.6358V21.2918C20.5474 21.3184 20.5368 21.3424 20.5154 21.3638C20.4994 21.3798 20.4781 21.3878 20.4514 21.3878H19.7154C19.6888 21.3878 19.6648 21.3798 19.6434 21.3638C19.6274 21.3424 19.6194 21.3184 19.6194 21.2918V16.6358C19.6194 16.6091 19.6061 16.5958 19.5794 16.5958H18.1634C18.1368 16.5958 18.1128 16.5878 18.0914 16.5718C18.0754 16.5504 18.0674 16.5264 18.0674 16.4998V15.8838C18.0674 15.8571 18.0754 15.8358 18.0914 15.8198C18.1128 15.7984 18.1368 15.7878 18.1634 15.7878H22.0594Z" fill="#30354B"/>
<path d="M24.2577 17.2358C24.5937 17.2358 24.8897 17.2944 25.1457 17.4118C25.4017 17.5291 25.599 17.6918 25.7377 17.8998C25.8764 18.1024 25.9457 18.3344 25.9457 18.5958V21.2918C25.9457 21.3184 25.935 21.3424 25.9137 21.3638C25.8977 21.3798 25.8764 21.3878 25.8497 21.3878H25.1137C25.087 21.3878 25.063 21.3798 25.0417 21.3638C25.0257 21.3424 25.0177 21.3184 25.0177 21.2918V21.0358C25.0177 21.0198 25.0124 21.0118 25.0017 21.0118C24.991 21.0064 24.9804 21.0091 24.9697 21.0198C24.7084 21.3078 24.3297 21.4518 23.8337 21.4518C23.4337 21.4518 23.103 21.3504 22.8417 21.1478C22.5857 20.9451 22.4577 20.6438 22.4577 20.2438C22.4577 19.8278 22.6017 19.5051 22.8897 19.2758C23.183 19.0411 23.5937 18.9238 24.1217 18.9238H24.9777C25.0044 18.9238 25.0177 18.9104 25.0177 18.8838V18.6918C25.0177 18.4838 24.9564 18.3238 24.8337 18.2118C24.711 18.0944 24.527 18.0358 24.2817 18.0358C24.079 18.0358 23.9137 18.0731 23.7857 18.1478C23.663 18.2171 23.5857 18.3158 23.5537 18.4438C23.5377 18.5078 23.5004 18.5344 23.4417 18.5238L22.6657 18.4278C22.639 18.4224 22.615 18.4144 22.5937 18.4038C22.5777 18.3878 22.5724 18.3691 22.5777 18.3478C22.6204 18.0224 22.7937 17.7558 23.0977 17.5478C23.407 17.3398 23.7937 17.2358 24.2577 17.2358ZM24.0657 20.7158C24.327 20.7158 24.551 20.6464 24.7377 20.5078C24.9244 20.3691 25.0177 20.1931 25.0177 19.9798V19.6038C25.0177 19.5771 25.0044 19.5638 24.9777 19.5638H24.3057C24.023 19.5638 23.799 19.6171 23.6337 19.7238C23.4737 19.8304 23.3937 19.9824 23.3937 20.1798C23.3937 20.3504 23.455 20.4838 23.5777 20.5798C23.7057 20.6704 23.8684 20.7158 24.0657 20.7158Z" fill="#30354B"/>
<path d="M27.4054 16.7398C27.24 16.7398 27.104 16.6864 26.9974 16.5798C26.8907 16.4731 26.8374 16.3371 26.8374 16.1718C26.8374 16.0064 26.8907 15.8704 26.9974 15.7638C27.104 15.6571 27.24 15.6038 27.4054 15.6038C27.5707 15.6038 27.7067 15.6571 27.8134 15.7638C27.92 15.8704 27.9734 16.0064 27.9734 16.1718C27.9734 16.3371 27.92 16.4731 27.8134 16.5798C27.7067 16.6864 27.5707 16.7398 27.4054 16.7398ZM27.0214 21.3878C26.9947 21.3878 26.9707 21.3798 26.9494 21.3638C26.9334 21.3424 26.9254 21.3184 26.9254 21.2918V17.3878C26.9254 17.3611 26.9334 17.3398 26.9494 17.3238C26.9707 17.3024 26.9947 17.2918 27.0214 17.2918H27.7574C27.784 17.2918 27.8054 17.3024 27.8214 17.3238C27.8427 17.3398 27.8534 17.3611 27.8534 17.3878V21.2918C27.8534 21.3184 27.8427 21.3424 27.8214 21.3638C27.8054 21.3798 27.784 21.3878 27.7574 21.3878H27.0214Z" fill="#30354B"/>
<path d="M29.0124 21.3878C28.9858 21.3878 28.9618 21.3798 28.9404 21.3638C28.9244 21.3424 28.9164 21.3184 28.9164 21.2918V15.8838C28.9164 15.8571 28.9244 15.8358 28.9404 15.8198C28.9618 15.7984 28.9858 15.7878 29.0124 15.7878H29.7484C29.7751 15.7878 29.7964 15.7984 29.8124 15.8198C29.8338 15.8358 29.8444 15.8571 29.8444 15.8838V18.7718C29.8444 18.7878 29.8498 18.7984 29.8604 18.8038C29.8711 18.8091 29.8818 18.8038 29.8924 18.7878L31.1884 17.3558C31.2258 17.3184 31.2658 17.2998 31.3084 17.2998H32.1564C32.2098 17.2998 32.2364 17.3184 32.2364 17.3558C32.2364 17.3718 32.2284 17.3931 32.2124 17.4198L31.1964 18.6358C31.1804 18.6518 31.1778 18.6704 31.1884 18.6918L32.3884 21.2758C32.3991 21.2971 32.4044 21.3131 32.4044 21.3238C32.4044 21.3664 32.3751 21.3878 32.3164 21.3878H31.5404C31.4871 21.3878 31.4498 21.3638 31.4284 21.3158L30.5564 19.2838C30.5511 19.2731 30.5404 19.2678 30.5244 19.2678C30.5138 19.2624 30.5058 19.2651 30.5004 19.2758L29.8604 20.0118C29.8498 20.0331 29.8444 20.0518 29.8444 20.0678V21.2918C29.8444 21.3184 29.8338 21.3424 29.8124 21.3638C29.7964 21.3798 29.7751 21.3878 29.7484 21.3878H29.0124Z" fill="#30354B"/>
<path d="M34.5431 21.4518C34.1217 21.4518 33.7591 21.3451 33.4551 21.1318C33.1564 20.9184 32.9457 20.6224 32.8231 20.2438C32.7324 19.9558 32.6871 19.6518 32.6871 19.3318C32.6871 18.9904 32.7297 18.6864 32.8151 18.4198C32.9377 18.0464 33.1511 17.7558 33.4551 17.5478C33.7591 17.3398 34.1244 17.2358 34.5511 17.2358C34.9564 17.2358 35.3057 17.3398 35.5991 17.5478C35.8977 17.7558 36.1084 18.0438 36.2311 18.4118C36.3271 18.6678 36.3751 18.9718 36.3751 19.3238C36.3751 19.6598 36.3297 19.9638 36.2391 20.2358C36.1164 20.6144 35.9057 20.9131 35.6071 21.1318C35.3084 21.3451 34.9537 21.4518 34.5431 21.4518ZM34.5431 20.6518C34.7404 20.6518 34.9084 20.5958 35.0471 20.4838C35.1911 20.3718 35.2951 20.2144 35.3591 20.0118C35.4124 19.8358 35.4391 19.6118 35.4391 19.3398C35.4391 19.0518 35.4124 18.8278 35.3591 18.6678C35.3004 18.4651 35.1991 18.3104 35.0551 18.2038C34.9111 18.0918 34.7351 18.0358 34.5271 18.0358C34.3297 18.0358 34.1591 18.0918 34.0151 18.2038C33.8711 18.3104 33.7671 18.4651 33.7031 18.6678C33.6497 18.8544 33.6231 19.0784 33.6231 19.3398C33.6231 19.6011 33.6497 19.8251 33.7031 20.0118C33.7617 20.2144 33.8631 20.3718 34.0071 20.4838C34.1564 20.5958 34.3351 20.6518 34.5431 20.6518Z" fill="#30354B"/>
<path d="M20.2514 29.4518C19.8514 29.4518 19.4994 29.3744 19.1954 29.2198C18.8914 29.0598 18.6568 28.8358 18.4914 28.5478C18.3261 28.2598 18.2434 27.9291 18.2434 27.5558V25.6198C18.2434 25.2411 18.3261 24.9104 18.4914 24.6278C18.6568 24.3398 18.8914 24.1184 19.1954 23.9638C19.4994 23.8038 19.8514 23.7238 20.2514 23.7238C20.6461 23.7238 20.9928 23.8011 21.2914 23.9558C21.5954 24.1104 21.8301 24.3211 21.9954 24.5878C22.1608 24.8544 22.2434 25.1558 22.2434 25.4918V25.5558C22.2434 25.5824 22.2328 25.6064 22.2114 25.6278C22.1954 25.6438 22.1741 25.6518 22.1474 25.6518H21.4194C21.3928 25.6518 21.3688 25.6438 21.3474 25.6278C21.3314 25.6064 21.3234 25.5824 21.3234 25.5558V25.5158C21.3234 25.2278 21.2248 24.9904 21.0274 24.8038C20.8354 24.6171 20.5768 24.5238 20.2514 24.5238C19.9261 24.5238 19.6648 24.6224 19.4674 24.8198C19.2701 25.0118 19.1714 25.2678 19.1714 25.5878V27.5878C19.1714 27.9078 19.2754 28.1664 19.4834 28.3638C19.6914 28.5558 19.9608 28.6518 20.2914 28.6518C20.6114 28.6518 20.8621 28.5691 21.0434 28.4038C21.2301 28.2331 21.3234 28.0011 21.3234 27.7078V27.2118C21.3234 27.1851 21.3101 27.1718 21.2834 27.1718H20.2994C20.2728 27.1718 20.2488 27.1638 20.2274 27.1478C20.2114 27.1264 20.2034 27.1024 20.2034 27.0758V26.4838C20.2034 26.4571 20.2114 26.4358 20.2274 26.4198C20.2488 26.3984 20.2728 26.3878 20.2994 26.3878H22.1474C22.1741 26.3878 22.1954 26.3984 22.2114 26.4198C22.2328 26.4358 22.2434 26.4571 22.2434 26.4838V27.5078C22.2434 28.1211 22.0621 28.5984 21.6994 28.9398C21.3421 29.2811 20.8594 29.4518 20.2514 29.4518Z" fill="#30354B"/>
<path d="M25.1017 25.2518C25.2724 25.2518 25.4217 25.2864 25.5497 25.3558C25.5924 25.3771 25.6084 25.4171 25.5977 25.4758L25.4617 26.1958C25.4564 26.2598 25.419 26.2784 25.3497 26.2518C25.2697 26.2251 25.1764 26.2118 25.0697 26.2118C25.0004 26.2118 24.947 26.2144 24.9097 26.2198C24.6857 26.2304 24.499 26.3104 24.3497 26.4598C24.2004 26.6038 24.1257 26.7931 24.1257 27.0278V29.2918C24.1257 29.3184 24.115 29.3424 24.0937 29.3638C24.0777 29.3798 24.0564 29.3878 24.0297 29.3878H23.2937C23.267 29.3878 23.243 29.3798 23.2217 29.3638C23.2057 29.3424 23.1977 29.3184 23.1977 29.2918V25.3958C23.1977 25.3691 23.2057 25.3478 23.2217 25.3318C23.243 25.3104 23.267 25.2998 23.2937 25.2998H24.0297C24.0564 25.2998 24.0777 25.3104 24.0937 25.3318C24.115 25.3478 24.1257 25.3691 24.1257 25.3958V25.7558C24.1257 25.7771 24.1284 25.7904 24.1337 25.7958C24.1444 25.7958 24.155 25.7878 24.1657 25.7718C24.3897 25.4251 24.7017 25.2518 25.1017 25.2518Z" fill="#30354B"/>
<path d="M27.7264 25.2358C28.0624 25.2358 28.3584 25.2944 28.6144 25.4118C28.8704 25.5291 29.0678 25.6918 29.2064 25.8998C29.3451 26.1024 29.4144 26.3344 29.4144 26.5958V29.2918C29.4144 29.3184 29.4038 29.3424 29.3824 29.3638C29.3664 29.3798 29.3451 29.3878 29.3184 29.3878H28.5824C28.5558 29.3878 28.5318 29.3798 28.5104 29.3638C28.4944 29.3424 28.4864 29.3184 28.4864 29.2918V29.0358C28.4864 29.0198 28.4811 29.0118 28.4704 29.0118C28.4598 29.0064 28.4491 29.0091 28.4384 29.0198C28.1771 29.3078 27.7984 29.4518 27.3024 29.4518C26.9024 29.4518 26.5718 29.3504 26.3104 29.1478C26.0544 28.9451 25.9264 28.6438 25.9264 28.2438C25.9264 27.8278 26.0704 27.5051 26.3584 27.2758C26.6518 27.0411 27.0624 26.9238 27.5904 26.9238H28.4464C28.4731 26.9238 28.4864 26.9104 28.4864 26.8838V26.6918C28.4864 26.4838 28.4251 26.3238 28.3024 26.2118C28.1798 26.0944 27.9958 26.0358 27.7504 26.0358C27.5478 26.0358 27.3824 26.0731 27.2544 26.1478C27.1318 26.2171 27.0544 26.3158 27.0224 26.4438C27.0064 26.5078 26.9691 26.5344 26.9104 26.5238L26.1344 26.4278C26.1078 26.4224 26.0838 26.4144 26.0624 26.4038C26.0464 26.3878 26.0411 26.3691 26.0464 26.3478C26.0891 26.0224 26.2624 25.7558 26.5664 25.5478C26.8758 25.3398 27.2624 25.2358 27.7264 25.2358ZM27.5344 28.7158C27.7958 28.7158 28.0198 28.6464 28.2064 28.5078C28.3931 28.3691 28.4864 28.1931 28.4864 27.9798V27.6038C28.4864 27.5771 28.4731 27.5638 28.4464 27.5638H27.7744C27.4918 27.5638 27.2678 27.6171 27.1024 27.7238C26.9424 27.8304 26.8624 27.9824 26.8624 28.1798C26.8624 28.3504 26.9238 28.4838 27.0464 28.5798C27.1744 28.6704 27.3371 28.7158 27.5344 28.7158Z" fill="#30354B"/>
<path d="M32.3061 25.2358C32.7381 25.2358 33.0821 25.3638 33.3381 25.6198C33.5995 25.8758 33.7301 26.2251 33.7301 26.6678V29.2918C33.7301 29.3184 33.7195 29.3424 33.6981 29.3638C33.6821 29.3798 33.6608 29.3878 33.6341 29.3878H32.8981C32.8715 29.3878 32.8475 29.3798 32.8261 29.3638C32.8101 29.3424 32.8021 29.3184 32.8021 29.2918V26.8598C32.8021 26.6144 32.7328 26.4171 32.5941 26.2678C32.4555 26.1131 32.2715 26.0358 32.0421 26.0358C31.8128 26.0358 31.6261 26.1104 31.4821 26.2598C31.3435 26.4091 31.2741 26.6064 31.2741 26.8518V29.2918C31.2741 29.3184 31.2635 29.3424 31.2421 29.3638C31.2261 29.3798 31.2048 29.3878 31.1781 29.3878H30.4421C30.4155 29.3878 30.3915 29.3798 30.3701 29.3638C30.3541 29.3424 30.3461 29.3184 30.3461 29.2918V25.3958C30.3461 25.3691 30.3541 25.3478 30.3701 25.3318C30.3915 25.3104 30.4155 25.2998 30.4421 25.2998H31.1781C31.2048 25.2998 31.2261 25.3104 31.2421 25.3318C31.2635 25.3478 31.2741 25.3691 31.2741 25.3958V25.6518C31.2741 25.6678 31.2795 25.6784 31.2901 25.6838C31.3008 25.6891 31.3088 25.6838 31.3141 25.6678C31.5328 25.3798 31.8635 25.2358 32.3061 25.2358Z" fill="#30354B"/>
<path d="M36.8657 25.9558C36.8657 25.9824 36.855 26.0064 36.8337 26.0278C36.8177 26.0438 36.7964 26.0518 36.7697 26.0518H35.9537C35.927 26.0518 35.9137 26.0651 35.9137 26.0918V28.0198C35.9137 28.2224 35.9564 28.3691 36.0417 28.4598C36.1324 28.5504 36.2737 28.5958 36.4657 28.5958H36.7057C36.7324 28.5958 36.7537 28.6064 36.7697 28.6278C36.791 28.6438 36.8017 28.6651 36.8017 28.6918V29.2918C36.8017 29.3504 36.7697 29.3851 36.7057 29.3958L36.2897 29.4038C35.8684 29.4038 35.5537 29.3318 35.3457 29.1878C35.1377 29.0438 35.031 28.7718 35.0257 28.3718V26.0918C35.0257 26.0651 35.0124 26.0518 34.9857 26.0518H34.5297C34.503 26.0518 34.479 26.0438 34.4577 26.0278C34.4417 26.0064 34.4337 25.9824 34.4337 25.9558V25.3958C34.4337 25.3691 34.4417 25.3478 34.4577 25.3318C34.479 25.3104 34.503 25.2998 34.5297 25.2998H34.9857C35.0124 25.2998 35.0257 25.2864 35.0257 25.2598V24.3238C35.0257 24.2971 35.0337 24.2758 35.0497 24.2598C35.071 24.2384 35.095 24.2278 35.1217 24.2278H35.8177C35.8444 24.2278 35.8657 24.2384 35.8817 24.2598C35.903 24.2758 35.9137 24.2971 35.9137 24.3238V25.2598C35.9137 25.2864 35.927 25.2998 35.9537 25.2998H36.7697C36.7964 25.2998 36.8177 25.3104 36.8337 25.3318C36.855 25.3478 36.8657 25.3691 36.8657 25.3958V25.9558Z" fill="#30354B"/>
<path d="M39.2099 29.4358C38.8739 29.4358 38.5779 29.3878 38.3219 29.2918C38.0712 29.1904 37.8765 29.0544 37.7379 28.8838C37.5992 28.7078 37.5299 28.5131 37.5299 28.2998V28.2278C37.5299 28.2011 37.5379 28.1798 37.5539 28.1638C37.5752 28.1424 37.5992 28.1318 37.6259 28.1318H38.3299C38.3565 28.1318 38.3779 28.1424 38.3939 28.1638C38.4152 28.1798 38.4259 28.2011 38.4259 28.2278V28.2438C38.4259 28.3771 38.4979 28.4944 38.6419 28.5958C38.7912 28.6918 38.9779 28.7398 39.2019 28.7398C39.4152 28.7398 39.5885 28.6971 39.7219 28.6118C39.8552 28.5211 39.9219 28.4091 39.9219 28.2758C39.9219 28.1531 39.8659 28.0624 39.7539 28.0038C39.6472 27.9398 39.4712 27.8731 39.2259 27.8038L38.9219 27.7078C38.6499 27.6278 38.4205 27.5424 38.2339 27.4518C38.0472 27.3611 37.8899 27.2384 37.7619 27.0838C37.6339 26.9238 37.5699 26.7211 37.5699 26.4758C37.5699 26.1024 37.7165 25.8064 38.0099 25.5878C38.3032 25.3638 38.6899 25.2518 39.1699 25.2518C39.4952 25.2518 39.7805 25.3051 40.0259 25.4118C40.2712 25.5131 40.4605 25.6571 40.5939 25.8438C40.7272 26.0251 40.7939 26.2331 40.7939 26.4678C40.7939 26.4944 40.7832 26.5184 40.7619 26.5398C40.7459 26.5558 40.7245 26.5638 40.6979 26.5638H40.0179C39.9912 26.5638 39.9672 26.5558 39.9459 26.5398C39.9299 26.5184 39.9219 26.4944 39.9219 26.4678C39.9219 26.3291 39.8525 26.2144 39.7139 26.1238C39.5805 26.0278 39.3965 25.9798 39.1619 25.9798C38.9539 25.9798 38.7832 26.0198 38.6499 26.0998C38.5219 26.1744 38.4579 26.2811 38.4579 26.4198C38.4579 26.5478 38.5192 26.6464 38.6419 26.7158C38.7699 26.7798 38.9805 26.8518 39.2739 26.9318L39.4499 26.9798C39.7325 27.0651 39.9699 27.1531 40.1619 27.2438C40.3539 27.3291 40.5165 27.4518 40.6499 27.6118C40.7832 27.7664 40.8499 27.9691 40.8499 28.2198C40.8499 28.5984 40.7005 28.8971 40.4019 29.1158C40.1032 29.3291 39.7059 29.4358 39.2099 29.4358Z" fill="#30354B"/>
</svg>
