<svg width="17" height="16" viewBox="0 0 17 16" xmlns="http://www.w3.org/2000/svg">
<path d="M8.97876 16C13.3902 16 16.9788 12.4114 16.9788 8C16.9788 3.58857 13.3902 0 8.97876 0C4.56733 0 0.97876 3.58857 0.97876 8C0.97876 12.4114 4.56733 16 8.97876 16ZM8.97876 1.14286C12.7616 1.14286 15.8359 4.21714 15.8359 8C15.8359 11.7829 12.7616 14.8571 8.97876 14.8571C5.1959 14.8571 2.12162 11.7829 2.12162 8C2.12162 4.21714 5.1959 1.14286 8.97876 1.14286Z" />
<path d="M5.55011 7.42847H12.4073C12.7231 7.42847 12.9787 7.17259 12.9787 6.85704C12.9787 6.5415 12.7231 6.28561 12.4073 6.28561H6.61794L7.16846 5.45973C7.34343 5.19716 7.27251 4.84224 7.01 4.66733C6.74691 4.49184 6.39223 4.56299 6.2176 4.82579L5.07474 6.54007C4.95783 6.71527 4.94697 6.94076 5.04629 7.12659C5.14583 7.31241 5.33943 7.42847 5.55011 7.42847Z" />
<path d="M5.55019 9.71439H11.3398L10.789 10.5403C10.6138 10.8028 10.6846 11.1578 10.9474 11.3327C11.0452 11.3977 11.1551 11.4287 11.2639 11.4287C11.4486 11.4287 11.63 11.3394 11.7399 11.1742L12.8828 9.45993C12.9994 9.28473 13.0105 9.05925 12.9112 8.87342C12.8119 8.68759 12.6182 8.57153 12.4073 8.57153H5.55019C5.23465 8.57153 4.97876 8.82742 4.97876 9.14296C4.97876 9.4585 5.23465 9.71439 5.55019 9.71439Z" />
</svg>
