<svg width="21" height="20" viewBox="0 0 21 20" fill="none" xmlns="http://www.w3.org/2000/svg">
<path d="M19.5065 4.631C18.8845 4.90662 18.2163 5.09285 17.5139 5.17702C18.2387 4.74333 18.7809 4.06074 19.0395 3.25664C18.3585 3.66112 17.6132 3.94583 16.836 4.09839C16.3134 3.54035 15.6211 3.17047 14.8667 3.04618C14.1123 2.92189 13.338 3.05014 12.6639 3.41102C11.9899 3.7719 11.4539 4.34522 11.139 5.04197C10.8242 5.73872 10.7482 6.51991 10.9229 7.26427C9.54308 7.19499 8.19325 6.83635 6.96102 6.21164C5.72878 5.58692 4.64167 4.71008 3.77024 3.63803C3.47227 4.15202 3.30094 4.74795 3.30094 5.38262C3.30061 5.95396 3.44131 6.51656 3.71055 7.02048C3.9798 7.52441 4.36927 7.95409 4.8444 8.27139C4.29337 8.25386 3.7545 8.10497 3.27264 7.83711V7.8818C3.27258 8.68314 3.54977 9.45981 4.05716 10.08C4.56456 10.7003 5.27092 11.1258 6.05638 11.2846C5.5452 11.4229 5.00928 11.4433 4.48908 11.3442C4.71069 12.0337 5.14236 12.6366 5.72367 13.0686C6.30498 13.5006 7.00682 13.7399 7.73094 13.7532C6.50171 14.7182 4.98362 15.2416 3.42087 15.2393C3.14405 15.2394 2.86746 15.2232 2.59253 15.1909C4.1788 16.2108 6.02534 16.7521 7.91121 16.75C14.2951 16.75 17.785 11.4626 17.785 6.87691C17.785 6.72793 17.7813 6.57746 17.7746 6.42848C18.4534 5.93756 19.0394 5.32965 19.505 4.63324L19.5065 4.631V4.631Z" fill="#B8BAC1"/>
</svg>
