<svg width="16" height="17" viewBox="0 0 16 17"  xmlns="http://www.w3.org/2000/svg">
<g id="ph:wallet">
<path id="Vector" d="M13.88 4.57984H2.68C2.53148 4.57984 2.38904 4.52084 2.28402 4.41582C2.179 4.3108 2.12 4.16837 2.12 4.01984C2.12 3.87132 2.179 3.72888 2.28402 3.62386C2.38904 3.51884 2.53148 3.45984 2.68 3.45984H12.2C12.3485 3.45984 12.491 3.40084 12.596 3.29582C12.701 3.1908 12.76 3.04836 12.76 2.89984C12.76 2.75132 12.701 2.60888 12.596 2.50386C12.491 2.39884 12.3485 2.33984 12.2 2.33984H2.68C2.23444 2.33984 1.80712 2.51684 1.49206 2.8319C1.177 3.14697 1 3.57428 1 4.01984V12.9798C1 13.4254 1.177 13.8527 1.49206 14.1678C1.80712 14.4828 2.23444 14.6598 2.68 14.6598H13.88C14.177 14.6598 14.4619 14.5418 14.672 14.3318C14.882 14.1218 15 13.8369 15 13.5398V5.69984C15 5.4028 14.882 5.11793 14.672 4.90788C14.4619 4.69784 14.177 4.57984 13.88 4.57984ZM13.88 13.5398H2.68C2.53148 13.5398 2.38904 13.4808 2.28402 13.3758C2.179 13.2708 2.12 13.1284 2.12 12.9798V5.60394C2.29981 5.66768 2.48922 5.70012 2.68 5.69984H13.88V13.5398ZM10.52 9.33984C10.52 9.17371 10.5693 9.0113 10.6616 8.87317C10.7539 8.73503 10.8851 8.62736 11.0385 8.56379C11.192 8.50021 11.3609 8.48357 11.5239 8.51598C11.6868 8.5484 11.8365 8.6284 11.954 8.74587C12.0714 8.86335 12.1514 9.01302 12.1839 9.17597C12.2163 9.33891 12.1996 9.50781 12.1361 9.6613C12.0725 9.81479 11.9648 9.94598 11.8267 10.0383C11.6885 10.1306 11.5261 10.1798 11.36 10.1798C11.1372 10.1798 10.9236 10.0913 10.766 9.93381C10.6085 9.77628 10.52 9.56263 10.52 9.33984Z" />
</g>
</svg>
