<svg width="17" height="16" viewBox="0 0 17 16" fill="none" xmlns="http://www.w3.org/2000/svg">
<g clip-path="url(#clip0_596_14052)">
<path d="M12.7605 8.00977H13.6971V8.96618H12.7605V8.00977Z" fill="#303030"/>
<path d="M14.7783 5.11522H10.6837C9.90345 5.11522 9.20608 5.58106 8.90708 6.3021L8.71638 6.76211C8.56799 7.11962 8.22219 7.35065 7.83546 7.35065C7.61594 7.35065 7.40124 7.27391 7.23099 7.13464C7.06106 6.99561 6.94373 6.80061 6.90064 6.58553L6.44376 4.59895C7.63134 4.50772 8.5698 3.51222 8.5698 2.30167V1.73657H6.03873C5.54048 1.73657 5.09069 1.94797 4.77429 2.28574C4.4579 1.94794 4.00811 1.73657 3.50986 1.73657H0.97876V2.30167C0.97876 3.52299 1.93386 4.52543 3.13642 4.60117V8.82049C3.13642 9.41287 3.22622 9.99705 3.40327 10.5566C3.76318 11.6957 4.48163 12.6442 5.48095 13.2995C6.44251 13.9302 7.62181 14.2635 8.89134 14.2635H13.2744C15.317 14.2635 16.9788 12.6017 16.9788 10.5591V7.31565C16.9788 6.10232 15.9917 5.11522 14.7783 5.11522ZM3.28285 3.66907C2.65756 3.66907 2.12893 3.24719 1.96668 2.67313H3.50982C3.94882 2.67313 4.30595 3.03027 4.30595 3.46926H5.24257C5.24257 3.03027 5.59971 2.67313 6.0387 2.67313H7.58188C7.41963 3.24722 6.891 3.66907 6.26568 3.66907H6.26099C6.02303 3.66907 5.80011 3.77469 5.64947 3.95889C5.49887 4.143 5.43952 4.38231 5.48666 4.61547L5.98369 6.77647C6.07039 7.2007 6.30252 7.58512 6.63792 7.85952C6.97504 8.13532 7.40036 8.28724 7.83549 8.28724C8.60211 8.28724 9.28747 7.82952 9.58157 7.12096L9.7723 6.66083C9.92572 6.2909 10.2835 6.05184 10.6838 6.05184H14.7783C15.4752 6.05184 16.0421 6.61878 16.0421 7.31565V9.94725H11.7808L11.6835 10.2864C11.5752 10.6638 11.3429 10.8982 10.9068 11.0701C10.6488 11.1717 10.3669 11.2264 10.0689 11.2326L9.10452 11.2526C9.23352 11.0124 9.35322 10.8156 9.42085 10.7488L10.2325 9.94725H4.20598C4.11797 9.58006 4.07305 9.20248 4.07305 8.82049V4.45927C4.07305 4.24741 3.99053 4.04865 3.84158 3.90054C3.69234 3.75128 3.4939 3.66907 3.28285 3.66907ZM13.2744 13.3269H8.89134C6.90492 13.3269 5.2959 12.406 4.54229 10.8839H8.23855C8.09375 11.1585 7.97295 11.4202 7.91697 11.5446L7.61273 12.2204L10.0883 12.169C10.4977 12.1605 10.8886 12.0839 11.2502 11.9414C11.8297 11.713 12.2272 11.3653 12.4563 10.8838H16.023C15.8617 12.2576 14.6907 13.3269 13.2744 13.3269Z" fill="#303030"/>
<path d="M12.7605 3.92953V4.14808H13.6971V3.92953C13.6971 3.38729 14.1383 2.94614 14.6805 2.94614V2.00952C14.101 2.00952 13.5811 2.2679 13.2288 2.67509C12.8765 2.2679 12.3566 2.00952 11.7771 2.00952V2.94614C12.3193 2.94617 12.7605 3.38729 12.7605 3.92953Z" fill="#303030"/>
</g>
<defs>
<clipPath id="clip0_596_14052">
<rect width="16" height="16" fill="white" transform="translate(0.97876)"/>
</clipPath>
</defs>
</svg>
