<svg width="26" height="46" viewBox="0 0 26 46" fill="none" xmlns="http://www.w3.org/2000/svg">
<path d="M10.1302 43.3274C10.1302 43.3274 10.2385 43.3274 10.3468 43.4357C10.4551 43.544 10.6717 43.544 10.8883 43.6523C11.1049 43.7606 11.4298 43.8689 11.7547 43.8689C12.0796 43.9772 12.4045 43.9772 12.7294 43.9772C13.0543 43.9772 13.4875 43.9772 13.8124 43.8689C14.1373 43.7606 14.4622 43.6523 14.7871 43.4357C15.4369 43.0025 15.9784 42.461 16.3033 41.4863C16.0867 41.378 15.7618 41.378 15.5452 41.378C15.3286 41.378 15.112 41.2697 14.8954 41.2697C14.6788 41.2697 14.4622 41.2697 14.2456 41.2697C14.029 41.2697 13.8124 41.2697 13.7041 41.2697C12.946 41.378 12.2962 41.5946 11.7547 41.9195C11.2132 42.2444 10.78 42.5693 10.5634 42.7859C10.2385 43.1108 10.1302 43.3274 10.1302 43.3274Z" fill="#DBDCDD"/>
<path d="M7.20619 37.4792C6.66469 37.5875 6.23148 37.8041 5.90658 37.9124C5.58168 38.129 5.36508 38.2373 5.36508 38.2373L5.47338 38.3456C5.58168 38.4539 5.68998 38.5622 5.90658 38.6705C6.12318 38.7788 6.33978 38.9954 6.55638 39.1037C6.77298 39.212 7.09789 39.3203 7.42279 39.4286C7.74769 39.5369 8.07259 39.6452 8.39749 39.6452C8.72239 39.6452 9.04729 39.6452 9.48049 39.5369C10.1303 39.3203 10.7801 38.8871 11.4299 38.129C10.5635 37.5875 9.80539 37.3709 9.04729 37.2626C8.39749 37.3709 7.74769 37.3708 7.20619 37.4792Z" fill="#DBDCDD"/>
<path d="M3.09088 33.472C3.30748 33.6887 3.52408 33.9053 3.74068 34.0136C3.95728 34.2302 4.28219 34.3385 4.60709 34.4468C4.93199 34.5551 5.25689 34.6634 5.58179 34.6634C6.23159 34.6634 6.9897 34.4468 7.7478 33.9053C7.098 33.2554 6.44819 32.7139 5.79839 32.4973C5.14859 32.1724 4.60709 32.0641 4.06559 32.0641C3.52409 32.0641 3.09088 32.0641 2.65768 32.1724C2.44108 32.2807 2.22448 32.2807 2.22448 32.2807C2.22448 32.2807 2.33278 32.4973 2.65768 32.9305C2.76598 33.1471 2.87428 33.2555 3.09088 33.472Z" fill="#DBDCDD"/>
<path d="M3.30769 28.8151C3.95749 29.0317 4.60729 29.0317 5.47369 28.7068C5.25709 28.2736 5.04049 27.9487 4.82389 27.6238C4.60729 27.2989 4.39069 27.0823 4.06579 26.8657C3.52429 26.4325 3.09109 26.1076 2.54959 25.9993C2.11639 25.7827 1.68319 25.7827 1.35829 25.7827C1.03339 25.7827 0.816788 25.7827 0.816788 25.7827C0.816788 25.7827 0.925085 25.9993 1.03338 26.4325C1.14168 26.8657 1.46659 27.2989 1.79149 27.7321C2.22469 28.1653 2.76619 28.5985 3.30769 28.8151Z" fill="#DBDCDD"/>
<path d="M1.24968 19.8262C1.24968 20.0428 1.35797 20.2594 1.35797 20.476C1.46627 20.6926 1.46627 21.0175 1.57457 21.2341C1.79117 21.7756 2.11607 22.2088 2.65757 22.5337C3.19908 22.8586 3.84888 23.0752 4.60698 22.9669C4.28208 21.3424 3.52398 20.3677 2.65757 19.7179C2.22437 19.393 1.89947 19.2847 1.57457 19.1764C1.24967 19.0681 1.03307 19.0681 1.03307 19.0681C1.03307 19.0681 1.03307 19.1764 1.03307 19.2847C1.24967 19.393 1.24968 19.6096 1.24968 19.8262Z" fill="#DBDCDD"/>
<path d="M3.41568 15.6025C3.52398 15.8191 3.63227 16.144 3.84887 16.3606C4.17378 16.7938 4.71528 17.1187 5.47338 17.3353C5.68998 15.7108 5.14848 14.6278 4.60698 13.978C4.28208 13.6531 3.95718 13.3282 3.74058 13.2199C3.52398 13.0033 3.30737 13.0033 3.30737 13.0033V13.1116C3.30737 13.2199 3.30738 13.3282 3.19908 13.5448C3.19908 13.7614 3.19908 13.978 3.19908 14.1946C3.19908 14.4112 3.19907 14.7361 3.30737 14.9527C3.30737 15.061 3.30738 15.3859 3.41568 15.6025Z" fill="#DBDCDD"/>
<path d="M7.96457 12.0286C8.07288 11.7037 8.18118 11.3788 8.28948 11.0539C8.39778 10.729 8.39778 10.4041 8.39778 10.1875C8.39778 9.646 8.28947 9.1045 8.07287 8.7796C7.85627 8.34639 7.63967 8.02149 7.53137 7.80489C7.31477 7.58829 7.20648 7.47999 7.20648 7.47999C7.20648 7.47999 7.20647 7.47999 7.09817 7.58829C7.09817 7.69659 6.98987 7.80489 6.88157 7.91319C6.77327 8.02149 6.77328 8.23809 6.66498 8.45469C6.55667 8.67129 6.55667 8.88789 6.55667 9.1045C6.44837 9.5377 6.55667 10.0792 6.77327 10.6207C6.88157 11.2705 7.31477 11.7037 7.96457 12.0286Z" fill="#DBDCDD"/>
<path d="M11.755 7.6966C12.6214 6.61359 12.838 5.53059 12.7297 4.77249C12.7297 4.33929 12.5131 4.01439 12.4048 3.79779C12.2965 3.58119 12.1882 3.47289 12.1882 3.47289C12.1882 3.47289 12.0799 3.58119 11.8633 3.90609C11.755 4.01439 11.6467 4.23099 11.5384 4.33929C11.4301 4.55589 11.3218 4.66419 11.2135 4.88079C11.1052 5.09739 10.9969 5.31399 10.9969 5.53059C10.9969 5.74719 10.9969 5.96379 10.9969 6.28869C11.1052 6.61359 11.3218 7.15509 11.755 7.6966Z" fill="#DBDCDD"/>
<path d="M18.3612 2.17328C18.4695 1.84838 18.4695 1.41518 18.3612 1.19858C18.3612 0.981981 18.2529 0.765381 18.2529 0.765381C18.2529 0.765381 18.0363 0.873681 17.8197 0.981981C17.7114 1.09028 17.4948 1.19858 17.3865 1.30688C17.2782 1.41518 17.0616 1.63178 16.9533 1.74008C16.845 1.95668 16.7367 2.06498 16.6284 2.28158C16.5201 2.49818 16.4118 2.71478 16.4118 2.93139C16.3035 3.36459 16.4118 3.90609 16.7367 4.44759C17.8197 3.90609 18.2529 2.93139 18.3612 2.17328Z" fill="#DBDCDD"/>
<path d="M16.7366 36.2879C16.6283 36.1796 16.6283 36.0713 16.52 36.0713L16.4117 35.963C16.4117 35.963 16.3034 36.0713 16.1951 36.3962C16.0868 36.6128 15.8702 36.9377 15.8702 37.3709C15.7619 37.8041 15.7619 38.2373 15.8702 38.7788C15.9785 39.212 16.3034 39.7535 16.8449 40.1867C17.1698 39.5369 17.2781 38.9954 17.2781 38.4539C17.2781 37.9124 17.1698 37.4792 17.0615 37.1543C16.9532 36.9377 16.9532 36.8294 16.8449 36.7211C16.8449 36.5045 16.7366 36.3962 16.7366 36.2879Z" fill="#DBDCDD"/>
<path d="M13.2711 35.8546C13.3794 35.4214 13.4877 34.9883 13.3794 34.555C13.3794 34.2301 13.2711 33.9052 13.1628 33.6886C13.1628 33.5803 13.0545 33.472 13.0545 33.472C13.0545 33.3637 13.0545 33.3637 13.0545 33.3637C13.0545 33.3637 12.9462 33.472 12.7296 33.6886C12.513 33.9052 12.2964 34.1218 12.0798 34.555C11.6466 35.2049 11.43 36.2879 12.2964 37.3709C12.9462 36.8294 13.1628 36.3962 13.2711 35.8546Z" fill="#DBDCDD"/>
<path d="M10.1304 32.1724C10.347 31.7392 10.5636 31.4143 10.5636 31.0894C10.6719 30.7645 10.6719 30.4396 10.6719 30.223C10.6719 30.1147 10.6719 30.0064 10.6719 30.0064C10.6719 29.8981 10.6719 29.8981 10.6719 29.8981C10.6719 29.8981 10.5636 30.0064 10.347 30.1147C10.1304 30.223 9.80548 30.4396 9.58888 30.6562C9.04738 31.1977 8.61417 32.0641 9.04738 33.3638C9.48058 32.9305 9.91378 32.6056 10.1304 32.1724Z" fill="#DBDCDD"/>
<path d="M8.07279 27.7321C8.39769 27.4072 8.6143 27.0823 8.8309 26.8657C8.9392 26.5408 9.04749 26.3242 9.15579 26.1076C9.15579 25.9993 9.15579 25.891 9.15579 25.891C9.15579 25.7827 9.15579 25.7827 9.15579 25.7827C9.15579 25.7827 9.04749 25.7827 8.72259 25.891C8.50599 25.9993 8.1811 26.1076 7.85619 26.2159C7.53129 26.4325 7.20639 26.6491 6.98979 27.0823C6.88149 27.2989 6.77319 27.5155 6.77319 27.7321C6.77319 27.8404 6.66489 27.9487 6.66489 28.1653C6.66489 28.2736 6.66489 28.4902 6.66489 28.5985C7.31469 28.2736 7.74789 27.9487 8.07279 27.7321Z" fill="#DBDCDD"/>
<path d="M6.23148 22.2088C6.12318 22.4254 6.01488 22.642 5.90658 22.9669C6.44808 22.9669 6.98959 22.8586 7.31449 22.7503C7.74769 22.5337 7.96428 22.3171 8.18088 22.1005C8.39748 21.8839 8.50579 21.6673 8.61409 21.4507C8.72239 21.2341 8.72239 21.1258 8.72239 21.1258C8.72239 21.1258 8.61409 21.1258 8.39749 21.1258C8.18089 21.1258 7.85598 21.1258 7.53108 21.2341C7.20618 21.3424 6.88128 21.4507 6.55638 21.7756C6.44808 21.8839 6.33978 21.9922 6.23148 22.2088Z" fill="#DBDCDD"/>
<path d="M9.0475 17.3353C9.2641 17.227 9.48069 17.0104 9.6973 16.7938C9.8056 16.6855 9.9139 16.5772 9.9139 16.5772C9.9139 16.5772 9.8056 16.4689 9.589 16.4689C9.3724 16.3606 9.04749 16.3606 8.72259 16.3606C8.07279 16.3606 7.20639 16.5772 6.66489 17.5519C7.7479 17.9851 8.50599 17.6602 9.0475 17.3353Z" fill="#DBDCDD"/>
<path d="M11.7551 12.6784C11.8634 12.6784 11.8634 12.5701 11.9717 12.5701H12.08C12.08 12.5701 11.6468 12.2452 11.1053 12.0286C10.5638 11.812 9.69741 11.812 8.9393 12.5701C9.80571 13.2199 10.5638 13.1116 11.1053 13.0033C11.3219 12.895 11.5385 12.7867 11.7551 12.6784Z" fill="#DBDCDD"/>
<path d="M15.0038 9.3211C15.1121 9.3211 15.1121 9.3211 15.2204 9.2128H15.3287C15.3287 9.2128 15.0038 8.7796 14.4623 8.4547C14.0291 8.1298 13.271 7.9132 12.4046 8.3464C13.0544 9.1045 13.7042 9.3211 14.2457 9.3211C14.5706 9.4294 14.7872 9.3211 15.0038 9.3211Z" fill="#DBDCDD"/>
<path d="M18.4693 6.8302C18.6859 6.9385 18.9025 6.9385 19.1191 6.9385C19.2274 6.9385 19.2274 6.9385 19.3357 6.9385H19.444C19.444 6.9385 19.3357 6.5053 19.0108 6.0721C18.7942 5.85549 18.5776 5.63889 18.361 5.53059C18.2527 5.42229 18.0361 5.42229 17.8195 5.42229C17.6029 5.42229 17.3863 5.42229 17.1697 5.42229C17.3863 6.397 17.9278 6.7219 18.4693 6.8302Z" fill="#DBDCDD"/>
<path d="M5.36519 19.393C5.36519 19.6096 5.25689 19.8262 5.25689 20.0428C5.25689 20.2594 5.14859 20.476 5.14859 20.6926C5.14859 20.9092 5.14859 21.1258 5.04029 21.3424C5.04029 21.7756 4.93198 22.2088 4.93198 22.642V25.2412C5.25689 28.8151 6.66479 32.1724 8.5059 34.8799C9.4806 36.1796 10.5636 37.3709 11.7549 38.3456C12.9462 39.3203 14.1375 40.0784 15.3288 40.7282C16.5201 41.378 17.6031 41.8112 18.6861 42.0278C19.6608 42.3527 20.6355 42.461 21.3936 42.5693C21.6102 42.5693 21.7185 42.5693 21.9351 42.6776H22.0434C22.0434 42.6776 25.509 43.0025 25.9422 45.71V42.0278H23.7762C23.7762 42.0278 23.5596 42.0278 23.1264 42.0278C23.0181 42.0278 22.9098 42.0278 22.8015 42.0278C22.6932 42.0278 22.5849 42.0278 22.3683 42.0278C22.26 42.0278 22.0434 42.0278 21.9351 42.0278C21.7185 42.0278 21.6102 42.0278 21.3936 41.9195C20.6355 41.8112 19.7691 41.7029 18.7944 41.378C17.8197 41.0531 16.7367 40.7282 15.5454 40.0784C14.3541 39.5369 13.2711 38.7788 12.0798 37.8041C10.9968 36.8294 9.9138 35.7463 8.9391 34.4467C6.98969 31.8475 5.69009 28.4902 5.36519 25.0246C5.04029 21.559 5.58179 17.9851 6.88139 15.061C8.18099 12.0286 10.1304 9.5377 12.0798 7.91319C14.1375 6.18039 16.0869 5.20569 17.4948 4.66419C17.8197 4.55589 18.1446 4.44759 18.4695 4.33928C18.5778 4.33928 18.7944 4.23098 18.9027 4.23098C19.2276 4.33928 19.4442 4.44759 19.7691 4.44759C20.094 4.55589 20.4189 4.55589 20.6355 4.55589C20.9604 4.55589 21.177 4.55589 21.5019 4.44759C21.6102 4.44759 21.7185 4.33928 21.8268 4.33928C21.9351 4.33928 22.0434 4.23098 22.1517 4.23098C22.3683 4.12268 22.5849 4.01438 22.8015 4.01438C23.0181 3.90608 23.1264 3.79778 23.2347 3.79778C23.5596 3.68948 23.6679 3.47288 23.6679 3.47288C23.6679 3.47288 23.5596 3.36458 23.2347 3.14798C23.1264 3.03968 22.9098 2.93138 22.6932 2.93138C22.4766 2.82308 22.26 2.82308 22.0434 2.71478C21.9351 2.71478 21.8268 2.71478 21.6102 2.60648C21.5019 2.60648 21.2853 2.60648 21.177 2.60648C20.8521 2.60648 20.6355 2.60648 20.3106 2.71478C19.7691 2.93138 19.2276 3.25628 18.7944 3.79778C18.3612 3.90608 17.928 4.01438 17.2782 4.33928C16.5201 4.66419 15.6537 4.98909 14.679 5.53059C13.7043 6.07209 12.7296 6.72189 11.6466 7.58829C11.43 7.80489 11.1051 8.02149 10.8885 8.23809C10.6719 8.45469 10.347 8.77959 10.1304 8.99619C9.9138 9.2128 9.5889 9.5377 9.3723 9.8626C9.5889 10.2958 9.264 10.6207 9.0474 10.9456C8.07269 12.1369 7.3146 13.5448 6.66479 15.061C6.33989 15.8191 6.01499 16.5772 5.79839 17.4436C5.69009 17.8768 5.58179 18.31 5.47349 18.7432C5.47349 18.9598 5.47349 19.1764 5.36519 19.393Z" fill="#DBDCDD"/>
<path d="M8.50601 40.8365C8.28941 40.8365 8.07281 40.8365 7.96451 41.0531C7.85621 41.1614 7.74791 41.378 7.85621 41.5946C7.85621 41.8112 8.07281 42.0278 8.18111 42.2444C8.61431 42.5693 9.15582 42.6776 9.37242 42.3527C9.58902 42.0278 9.48071 41.5946 9.15581 41.1614C8.93921 40.9448 8.72261 40.8365 8.50601 40.8365Z" fill="#DBDCDD"/>
<path d="M4.93197 37.046C5.25687 36.8293 5.25688 36.3961 5.04027 35.9629C4.82367 35.5297 4.28217 35.4214 3.95727 35.5297C3.63237 35.7463 3.52406 36.1795 3.84897 36.6127C4.06557 37.1543 4.60707 37.2626 4.93197 37.046Z" fill="#DBDCDD"/>
<path d="M2.33278 29.5732C2.22448 29.14 1.89957 28.9234 1.57467 29.0317C1.24977 29.14 1.14148 29.4649 1.24978 29.8981C1.35808 30.3313 1.68298 30.5479 2.00788 30.4396C2.22448 30.3313 2.44108 30.0064 2.33278 29.5732Z" fill="#DBDCDD"/>
<path d="M2.22458 17.6602C2.44118 17.7685 2.76609 17.5519 2.87439 17.227C2.98269 16.9021 2.76608 16.5772 2.54948 16.4689C2.33288 16.3606 2.00798 16.5772 1.89968 16.9021C1.79138 17.227 1.89968 17.5519 2.22458 17.6602Z" fill="#DBDCDD"/>
<path d="M1.14148 23.6167C1.46638 23.6167 1.68298 23.2918 1.68298 22.9669C1.68298 22.642 1.46638 22.3171 1.14148 22.3171C0.816576 22.3171 0.599976 22.642 0.599976 22.9669C0.708276 23.2918 0.924876 23.6167 1.14148 23.6167Z" fill="#DBDCDD"/>
<path d="M4.82375 11.5954C5.04035 11.7037 5.36525 11.5954 5.58185 11.3788C5.79846 11.1622 5.69015 10.729 5.47355 10.6207C5.25695 10.5124 4.93205 10.6207 4.71545 10.8373C4.60715 11.0539 4.60715 11.3788 4.82375 11.5954Z" fill="#DBDCDD"/>
<path d="M9.58875 6.6136C9.80535 6.39699 9.80534 6.07209 9.69704 5.96379C9.48044 5.74719 9.26385 5.74719 8.93895 5.96379C8.72235 6.18039 8.72235 6.50529 8.83065 6.6136C9.04725 6.9385 9.37215 6.8302 9.58875 6.6136Z" fill="#DBDCDD"/>
<path d="M14.8955 3.03968C15.1121 2.93138 15.2204 2.71478 15.1121 2.49818C15.0038 2.28158 14.7872 2.28158 14.5706 2.38988C14.354 2.49818 14.2457 2.71478 14.354 2.93138C14.4623 3.03968 14.6789 3.14798 14.8955 3.03968Z" fill="#DBDCDD"/>
<path d="M20.2025 1.84838C20.4191 1.84838 20.5274 1.63178 20.5274 1.41518C20.5274 1.19858 20.3108 1.09028 20.0942 1.19858C19.8776 1.19858 19.7693 1.41518 19.7693 1.63178C19.7693 1.84838 19.9859 1.95669 20.2025 1.84838Z" fill="#DBDCDD"/>
</svg>
