<svg width="20" height="20" viewBox="0 0 20 20" fill="none" xmlns="http://www.w3.org/2000/svg">
<g clip-path="url(#clip0_2015_3334)">
<path d="M10 4.44444L6.11111 0H0L7.77778 9.44444L14.1783 6.80556L10 4.44444Z" fill="#55ACEE"/>
<path d="M13.8889 0L10 4.44444L12.9944 8.50667L13.6761 7.67944L20 0H13.8889Z" fill="#3B88C3"/>
<path d="M12.8917 8.90334C12.9361 8.78278 12.9644 8.65445 12.9644 8.51834C12.9644 8.22365 12.8474 7.94104 12.639 7.73266C12.4306 7.52429 12.148 7.40723 11.8533 7.40723H8.14944C7.85476 7.40723 7.57214 7.52429 7.36377 7.73266C7.1554 7.94104 7.03833 8.22365 7.03833 8.51834C7.03833 8.65445 7.06611 8.78278 7.11111 8.90334C5.30111 9.91778 4.07556 11.8517 4.07556 14.0739C4.075 17.3467 6.72833 20 10.0011 20C13.2739 20 15.9272 17.3467 15.9272 14.0739C15.9272 11.8517 14.7017 9.91778 12.8917 8.90334Z" fill="#FF8A3B"/>
<path d="M7.845 16.3053L8.49944 15.6509C8.53209 15.6154 8.57694 15.5935 8.62503 15.5896C8.67313 15.5856 8.72093 15.6 8.75889 15.6298C8.75889 15.6298 9.40278 16.1081 9.90111 16.1081C10.3483 16.1081 10.8056 15.7342 10.8056 15.277C10.8056 14.8198 10.3378 14.4359 9.56945 14.4359H9.21445C9.16277 14.4341 9.1137 14.4127 9.07719 14.3761C9.04067 14.3395 9.01944 14.2904 9.01778 14.2387V13.3765C9.01778 13.262 9.11111 13.1792 9.21445 13.1792H9.56945C10.2967 13.1792 10.6806 12.8265 10.6806 12.3798C10.6806 11.9326 10.2967 11.6009 9.84945 11.6009C9.39222 11.6009 9.10167 11.8398 8.94611 12.0159C8.87278 12.0992 8.74889 12.0992 8.66611 12.027L8.03222 11.4037C7.94833 11.3303 7.95889 11.2065 8.03222 11.1337C8.03222 11.1337 8.88389 10.2192 10.0156 10.2192C11.2206 10.2192 12.2594 10.957 12.2594 12.1203C12.2594 12.9198 11.6567 13.512 11.1894 13.7298V13.7615C11.6778 13.9692 12.4461 14.6131 12.4461 15.5065C12.4461 16.6387 11.4594 17.4909 10.0256 17.4909C8.71778 17.4909 8.05222 16.8465 7.83445 16.5665C7.77167 16.492 7.78278 16.3776 7.845 16.3053Z" fill="#7C4119"/>
</g>
<defs>
<clipPath id="clip0_2015_3334">
<rect width="20" height="20" fill="white"/>
</clipPath>
</defs>
</svg>
