<svg width="20" height="20" viewBox="0 0 20 20" fill="none" xmlns="http://www.w3.org/2000/svg">
<g clip-path="url(#clip0_2015_5675)">
<path d="M10 4.44444L6.11111 0H0L7.77778 9.44444L14.1783 6.80556L10 4.44444Z" fill="#55ACEE"/>
<path d="M13.8889 0L10 4.44444L12.9944 8.50667L13.6761 7.67944L20 0H13.8889Z" fill="#3B88C3"/>
<path d="M12.8917 8.90334C12.9361 8.78278 12.9644 8.65445 12.9644 8.51834C12.9644 8.22365 12.8474 7.94104 12.639 7.73266C12.4306 7.52429 12.148 7.40723 11.8533 7.40723H8.14944C7.85476 7.40723 7.57214 7.52429 7.36377 7.73266C7.1554 7.94104 7.03833 8.22365 7.03833 8.51834C7.03833 8.65445 7.06611 8.78278 7.11111 8.90334C5.30111 9.91778 4.07556 11.8517 4.07556 14.0739C4.075 17.3467 6.72833 20 10.0011 20C13.2739 20 15.9272 17.3467 15.9272 14.0739C15.9272 11.8517 14.7017 9.91778 12.8917 8.90334Z" fill="#CCD6DD"/>
<path d="M12.2233 16.0673H10.255C10.7428 15.3817 11.595 14.2706 11.9272 13.6778C12.1767 13.1895 12.3322 12.8784 12.3322 12.3278C12.3322 11.1745 11.46 10.2295 9.97444 10.2295C8.73833 10.2295 7.89667 11.2473 7.89667 11.2473C7.82389 11.3306 7.83444 11.455 7.90722 11.5178L8.54111 12.1617C8.5598 12.1815 8.58233 12.1972 8.6073 12.208C8.63228 12.2187 8.65919 12.2243 8.68639 12.2243C8.71358 12.2243 8.74049 12.2187 8.76547 12.208C8.79045 12.1972 8.81298 12.1815 8.83167 12.1617C9.02889 11.9434 9.41333 11.6423 9.83889 11.6423C10.4206 11.6423 10.7533 11.995 10.7533 12.39C10.7533 12.6806 10.6183 12.9717 10.4833 13.1795C9.87 14.1139 8.33278 16.2023 7.73056 16.9917V17.1995C7.73056 17.3039 7.81333 17.3967 7.92778 17.3967H12.2233C12.2751 17.3949 12.3242 17.3736 12.3608 17.337C12.3974 17.3004 12.4188 17.2512 12.4206 17.1995V16.265C12.419 16.2132 12.3978 16.1638 12.3611 16.1271C12.3245 16.0903 12.2752 16.0689 12.2233 16.0673Z" fill="#627077"/>
</g>
<defs>
<clipPath id="clip0_2015_5675">
<rect width="20" height="20" fill="white"/>
</clipPath>
</defs>
</svg>
