<svg width="20" height="20" viewBox="0 0 20 20" fill="none" xmlns="http://www.w3.org/2000/svg">
<g clip-path="url(#clip0_184_3295)">
<path d="M10 4.44444L6.11111 0H0L7.77778 9.44444L14.1783 6.80556L10 4.44444Z" fill="#55ACEE"/>
<path d="M13.8889 0L10 4.44444L12.9944 8.50667L13.6761 7.67944L20 0H13.8889Z" fill="#3B88C3"/>
<path d="M12.8917 8.90334C12.9361 8.78278 12.9644 8.65445 12.9644 8.51834C12.9644 8.22365 12.8474 7.94104 12.639 7.73266C12.4306 7.52429 12.148 7.40723 11.8533 7.40723H8.14944C7.85476 7.40723 7.57214 7.52429 7.36377 7.73266C7.1554 7.94104 7.03833 8.22365 7.03833 8.51834C7.03833 8.65445 7.06611 8.78278 7.11111 8.90334C5.30111 9.91778 4.07556 11.8517 4.07556 14.0739C4.075 17.3467 6.72833 20 10.0011 20C13.2739 20 15.9272 17.3467 15.9272 14.0739C15.9272 11.8517 14.7017 9.91778 12.8917 8.90334Z" fill="#FFAC33"/>
<path d="M10.78 10.3335H9.82389L8.30722 11.5179C8.2718 11.5626 8.25018 11.6167 8.245 11.6735V12.3279C8.245 12.4313 8.32833 12.5246 8.43222 12.5246H9.42944V17.1991C9.42944 17.3035 9.51278 17.3963 9.62667 17.3963H10.78C10.8833 17.3963 10.9667 17.3029 10.9667 17.1991V10.5302C10.9667 10.4268 10.8839 10.3335 10.78 10.3335Z" fill="#9E5200"/>
</g>
<defs>
<clipPath id="clip0_184_3295">
<rect width="20" height="20" fill="white"/>
</clipPath>
</defs>
</svg>
