<svg width="17" height="16" viewBox="0 0 17 16"  xmlns="http://www.w3.org/2000/svg">
<g clip-path="url(#clip0_596_14067)">
<path fill-rule="evenodd" clip-rule="evenodd" d="M11.4208 2.51561C10.239 1.98901 8.91858 1.85855 7.65658 2.14369C6.39452 2.42884 5.25846 3.1143 4.41781 4.09785C3.57717 5.08141 3.07698 6.31035 2.99185 7.60141C2.90672 8.89248 3.2412 10.1764 3.94542 11.2619C4.64964 12.3473 5.68585 13.1759 6.89952 13.6243C8.11318 14.0727 9.43931 14.1168 10.68 13.7499C11.9208 13.3831 13.0098 12.625 13.7844 11.5887C14.5592 10.5524 14.9781 9.29348 14.9788 7.99961V7.38668C14.9788 7.01848 15.2773 6.72001 15.6455 6.72001C16.0137 6.72001 16.3122 7.01848 16.3122 7.38668V8.00001C16.3112 9.58135 15.7992 11.1205 14.8524 12.387C13.9055 13.6536 12.5746 14.5802 11.0581 15.0285C9.54164 15.4769 7.92084 15.4231 6.43746 14.8751C4.95408 14.327 3.68759 13.3141 2.82688 11.9875C1.96617 10.6609 1.55736 9.09161 1.6614 7.51368C1.76546 5.93572 2.3768 4.43368 3.40425 3.23156C4.4317 2.02944 5.82022 1.19165 7.36272 0.843148C8.90524 0.494639 10.519 0.654086 11.9635 1.29771C12.2998 1.44756 12.451 1.84167 12.3011 2.17799C12.1513 2.51431 11.7572 2.66546 11.4208 2.51561Z" />
<path fill-rule="evenodd" clip-rule="evenodd" d="M16.1168 2.19503C16.3773 2.45525 16.3775 2.87735 16.1173 3.13783L9.45059 9.8112C9.32559 9.93627 9.15599 10.0066 8.97906 10.0067C8.80219 10.0067 8.63259 9.93647 8.50752 9.8114L6.50752 7.8114C6.24717 7.55107 6.24717 7.12893 6.50752 6.8686C6.76787 6.60825 7.18998 6.60825 7.45033 6.8686L8.97866 8.39693L15.1739 2.1955C15.4342 1.93502 15.8563 1.93481 16.1168 2.19503Z" />
</g>
<defs>
<clipPath id="clip0_596_14067">
<rect width="16" height="16" fill="white" transform="translate(0.97876)"/>
</clipPath>
</defs>
</svg>
