<svg width="17" height="16" viewBox="0 0 17 16" fill="none" xmlns="http://www.w3.org/2000/svg">
<g clip-path="url(#clip0_596_14123)">
<path d="M16.454 5.50819C16.1777 5.01091 15.5506 4.83172 15.0533 5.10801L13.4191 6.01591L12.3419 4.36841C12.31 4.36954 12.2782 4.37085 12.2461 4.37085C11.1611 4.37085 10.2266 3.7161 9.8155 2.78122C8.55235 2.78113 6.42069 2.78101 6.42069 2.78101C6.04525 2.78101 5.69957 2.98529 5.51844 3.31413L4.21375 5.68319C3.93935 6.18151 4.12082 6.80791 4.6191 7.08232C4.77666 7.1691 4.94704 7.21029 5.11507 7.21029C5.47835 7.21029 5.8306 7.01769 6.01822 6.67697L7.02932 4.84104H8.97463L6.00457 10.0255H2.40357C1.83472 10.0255 1.37354 10.4867 1.37354 11.0555C1.37354 11.6244 1.83469 12.0856 2.40357 12.0856H6.59235C6.95663 12.0856 7.29382 11.8932 7.47913 11.5795L8.21904 10.3274L10.087 11.7992L8.96707 14.5855C8.75491 15.1133 9.01079 15.7132 9.5386 15.9253C9.66457 15.9759 9.79454 15.9999 9.92244 15.9999C10.3306 15.9999 10.7169 15.7557 10.8785 15.3538L12.2862 11.8517C12.4567 11.4274 12.3271 10.9414 11.9679 10.6584L9.89672 9.02657L11.3288 6.58326L12.2194 7.94544C12.4161 8.24619 12.745 8.41191 13.0823 8.41191C13.2519 8.41191 13.4237 8.36994 13.5818 8.28216L16.0538 6.90879C16.5511 6.63257 16.7303 6.00547 16.454 5.50819Z" fill="#5D55F0"/>
<path d="M12.2463 3.43344C13.1944 3.43344 13.963 2.66484 13.963 1.71672C13.963 0.768601 13.1944 0 12.2463 0C11.2981 0 10.5295 0.768601 10.5295 1.71672C10.5295 2.66484 11.2981 3.43344 12.2463 3.43344Z" fill="#5D55F0"/>
</g>
<defs>
<clipPath id="clip0_596_14123">
<rect width="16" height="16" fill="white" transform="translate(0.97876)"/>
</clipPath>
</defs>
</svg>
