<svg width="17" height="16" viewBox="0 0 17 16" xmlns="http://www.w3.org/2000/svg">
<path d="M14.1588 4.82L14.1655 4.81333L12.0388 2.68667C11.9447 2.59368 11.8178 2.54153 11.6855 2.54153C11.5532 2.54153 11.4263 2.59368 11.3322 2.68667C11.1388 2.88 11.1388 3.2 11.3322 3.39333L12.3855 4.44667C11.6855 4.71333 11.2122 5.42667 11.3322 6.25333C11.4388 6.98667 12.0655 7.58 12.7988 7.66C13.1122 7.69333 13.3855 7.64 13.6455 7.52667V12.3333C13.6455 12.7 13.3455 13 12.9788 13C12.6122 13 12.3122 12.7 12.3122 12.3333V9.33333C12.3122 8.6 11.7122 8 10.9788 8H10.3122V3.33333C10.3122 2.6 9.71217 2 8.97884 2H4.97884C4.24551 2 3.64551 2.6 3.64551 3.33333V13.3333C3.64551 13.7 3.94551 14 4.31217 14H9.64551C10.0122 14 10.3122 13.7 10.3122 13.3333V9H11.3122V12.24C11.3122 13.1133 11.9388 13.9067 12.8055 13.9933C13.0379 14.0176 13.2729 13.9928 13.4951 13.9204C13.7173 13.848 13.9218 13.7297 14.0953 13.5732C14.2688 13.4167 14.4074 13.2254 14.5022 13.0118C14.597 12.7982 14.6458 12.567 14.6455 12.3333V6C14.6455 5.54 14.4588 5.12 14.1588 4.82ZM8.97884 6.66667H4.97884V4C4.97884 3.63333 5.27884 3.33333 5.64551 3.33333H8.31217C8.67884 3.33333 8.97884 3.63333 8.97884 4V6.66667ZM12.9788 6.66667C12.6122 6.66667 12.3122 6.36667 12.3122 6C12.3122 5.63333 12.6122 5.33333 12.9788 5.33333C13.3455 5.33333 13.6455 5.63333 13.6455 6C13.6455 6.36667 13.3455 6.66667 12.9788 6.66667Z" />
</svg>
