<svg width="17" height="16" viewBox="0 0 17 16" xmlns="http://www.w3.org/2000/svg">
<path d="M4.97884 2.66659H3.64551V1.33325H14.3122V2.66659H12.9788V3.99992C12.9788 5.07659 12.4348 5.94325 11.7495 6.65125C11.2808 7.13525 10.7108 7.58125 10.1328 7.99992C10.7108 8.41858 11.2808 8.86458 11.7495 9.34858C12.4348 10.0566 12.9788 10.9233 12.9788 11.9999V13.3333H14.3122V14.6666H3.64551V13.3333H4.97884V11.9999C4.97884 10.9233 5.52284 10.0566 6.20817 9.34858C6.67684 8.86458 7.24684 8.41858 7.82484 7.99992C7.24684 7.58125 6.67684 7.13525 6.20817 6.65125C5.52284 5.94325 4.97884 5.07659 4.97884 3.99992V2.66659ZM6.31217 2.66659V3.99992C6.31217 4.45659 6.48551 4.88992 6.82617 5.33325H11.1315C11.4715 4.88992 11.6455 4.45659 11.6455 3.99992V2.66659H6.31217ZM8.97884 8.81458C8.28217 9.30658 7.65084 9.77525 7.16617 10.2759C7.04553 10.3996 6.93202 10.53 6.82617 10.6666H11.1315C11.0257 10.53 10.9121 10.3996 10.7915 10.2759C10.3068 9.77525 9.67551 9.30658 8.97884 8.81458Z" />
</svg>
