<svg width="33" height="33" viewBox="0 0 33 33" fill="none" xmlns="http://www.w3.org/2000/svg">
<g clip-path="url(#clip0_596_13918)">
<path d="M24.2556 32.25H2.25464C1.65356 32.25 1.16626 31.7627 1.16626 31.1616V3.23901C1.16626 1.58838 2.50464 0.25 4.15527 0.25H28.3333C26.6824 0.25 25.344 1.58838 25.344 3.23901V31.1616C25.344 31.7627 24.8567 32.25 24.2556 32.25Z" fill="url(#paint0_linear_596_13918)"/>
<path d="M25.344 7.14502H30.2339C30.835 7.14502 31.3223 6.65771 31.3223 6.05664V3.23901C31.3223 1.58838 29.9841 0.25 28.3333 0.25C26.6824 0.25 25.344 1.58838 25.344 3.23901V7.14502Z" fill="url(#paint1_linear_596_13918)"/>
<path d="M25.344 26.0715V31.1616C25.344 31.7627 24.8567 32.25 24.2556 32.25H2.25488C1.65356 32.25 1.16626 31.7627 1.16626 31.1616V26.0715H25.344Z" fill="url(#paint2_linear_596_13918)"/>
<path d="M25.344 10.4546L21.0935 6.2041C20.4958 5.47119 19.5286 4.99438 18.4365 4.99438C16.6211 4.99438 15.1494 6.31055 15.1494 7.93384V8.62891C15.1494 9.48877 15.5625 10.2625 16.2207 10.8L25.3442 19.9233V10.4546H25.344Z" fill="url(#paint3_linear_596_13918)"/>
<path d="M25.344 20.939L10.6094 6.2041C10.0115 5.47119 9.04443 4.99438 7.95215 4.99438C6.13672 4.99438 4.66528 6.31055 4.66528 7.93384V8.62891C4.66528 9.48877 5.07837 10.2625 5.73657 10.8L25.3442 30.4077V20.939H25.344Z" fill="url(#paint4_linear_596_13918)"/>
<path d="M21.7234 7.93384C21.7234 6.31055 20.2517 4.99438 18.4365 4.99438C16.6211 4.99438 15.1494 6.3103 15.1494 7.93384V8.62891C15.1494 10.2524 16.6211 11.5686 18.4365 11.5686C20.2517 11.5686 21.7234 10.2524 21.7234 8.62891C21.7234 8.62671 21.7234 7.93628 21.7234 7.93384Z" fill="url(#paint5_linear_596_13918)"/>
<path d="M21.1436 6.2666C20.5505 5.49805 19.5593 4.99438 18.4363 4.99438C17.3135 4.99438 16.322 5.49805 15.7292 6.2666V10.2961C16.322 11.0647 17.3135 11.5684 18.4363 11.5684C19.5593 11.5684 20.5505 11.0647 21.1436 10.2961V6.2666Z" fill="url(#paint6_linear_596_13918)"/>
<path d="M16.5083 11.0098C17.05 11.3611 17.7161 11.5684 18.4363 11.5684C19.1567 11.5684 19.8228 11.3611 20.3643 11.0098V5.55322C19.8228 5.20166 19.1567 4.99438 18.4363 4.99438C17.7161 4.99438 17.05 5.20166 16.5083 5.55322V11.0098Z" fill="url(#paint7_linear_596_13918)"/>
<path d="M17.6897 11.4922C17.9294 11.542 18.1794 11.5684 18.4363 11.5684C18.6934 11.5684 18.9431 11.542 19.1831 11.4922V5.07056C18.9431 5.02075 18.6934 4.99438 18.4363 4.99438C18.1794 4.99438 17.9294 5.02075 17.6897 5.07056V11.4922Z" fill="url(#paint8_linear_596_13918)"/>
<path d="M21.7234 7.93384C21.7234 6.31055 20.2517 4.99438 18.4363 4.99438C16.6211 4.99438 15.1494 6.31055 15.1494 7.93384C15.1494 9.55737 16.6211 10.8735 18.4363 10.8735C20.2517 10.8735 21.7234 9.55737 21.7234 7.93384Z" fill="url(#paint9_radial_596_13918)"/>
<path d="M21.3569 7.93384C21.3569 6.49146 20.0493 5.32202 18.4363 5.32202C16.8235 5.32202 15.5159 6.49146 15.5159 7.93384C15.5159 9.37646 16.8235 10.5457 18.4363 10.5457C20.0493 10.5457 21.3569 9.37646 21.3569 7.93384Z" fill="url(#paint10_radial_596_13918)"/>
<path d="M21.0803 7.93384C21.0803 6.62817 19.8965 5.56958 18.4363 5.56958C16.9763 5.56958 15.7925 6.62817 15.7925 7.93384C15.7925 9.23975 16.9763 10.2983 18.4363 10.2983C19.8965 10.2983 21.0803 9.23975 21.0803 7.93384Z" fill="url(#paint11_radial_596_13918)"/>
<path d="M11.2393 7.93384C11.2393 6.31055 9.76758 4.99438 7.95215 4.99438C6.13696 4.99438 4.66528 6.3103 4.66528 7.93384V8.62891C4.66528 10.2524 6.13696 11.5686 7.95215 11.5686C9.76758 11.5686 11.2393 10.2524 11.2393 8.62891C11.2393 8.62671 11.2393 7.93628 11.2393 7.93384Z" fill="url(#paint12_linear_596_13918)"/>
<path d="M10.6594 6.2666C10.0664 5.49805 9.0752 4.99438 7.95215 4.99438C6.8291 4.99438 5.83789 5.49805 5.24487 6.2666V10.2961C5.83789 11.0647 6.8291 11.5684 7.95215 11.5684C9.0752 11.5684 10.0664 11.0647 10.6594 10.2961V6.2666Z" fill="url(#paint13_linear_596_13918)"/>
<path d="M6.02417 11.0098C6.56592 11.3611 7.23193 11.5684 7.95215 11.5684C8.67236 11.5684 9.33862 11.3611 9.88013 11.0098V5.55322C9.33862 5.20166 8.67236 4.99438 7.95215 4.99438C7.23193 4.99438 6.56592 5.20166 6.02417 5.55322V11.0098Z" fill="url(#paint14_linear_596_13918)"/>
<path d="M7.20532 11.4922C7.44531 11.542 7.69531 11.5684 7.95215 11.5684C8.20898 11.5684 8.45898 11.542 8.69897 11.4922V5.07056C8.45898 5.02075 8.20898 4.99438 7.95215 4.99438C7.69531 4.99438 7.44531 5.02075 7.20532 5.07056V11.4922Z" fill="url(#paint15_linear_596_13918)"/>
<path d="M11.2393 7.93384C11.2393 6.31055 9.76758 4.99438 7.95215 4.99438C6.13672 4.99438 4.66504 6.31055 4.66504 7.93384C4.66504 9.55737 6.13672 10.8735 7.95215 10.8735C9.76758 10.8735 11.2393 9.55737 11.2393 7.93384Z" fill="url(#paint16_radial_596_13918)"/>
<path d="M10.8726 7.93384C10.8726 6.49146 9.56519 5.32202 7.95215 5.32202C6.33911 5.32202 5.03174 6.49146 5.03174 7.93384C5.03174 9.37646 6.33911 10.5457 7.95215 10.5457C9.56519 10.5457 10.8726 9.37646 10.8726 7.93384Z" fill="url(#paint17_radial_596_13918)"/>
<path d="M10.5959 7.93384C10.5959 6.62817 9.41235 5.56958 7.95215 5.56958C6.49194 5.56958 5.30835 6.62817 5.30835 7.93384C5.30835 9.23975 6.49194 10.2983 7.95215 10.2983C9.41235 10.2983 10.5959 9.23975 10.5959 7.93384Z" fill="url(#paint18_radial_596_13918)"/>
<path d="M11.0779 8.84546L8.79053 6.55811C8.75806 6.50732 8.69507 6.46509 8.60156 6.4314C8.50073 6.39526 8.39331 6.37061 8.2793 6.35718C8.27319 6.35327 8.26709 6.34985 8.26074 6.34692L8.09204 6.16626C8.06567 6.14673 8.03711 6.13696 8.00659 6.13696C7.97314 6.13696 7.94458 6.14673 7.9209 6.16626C7.89722 6.18579 7.8855 6.20801 7.8855 6.23315V6.35425C7.65991 6.37915 7.47119 6.45435 7.31958 6.57959C7.16772 6.70508 7.09204 6.88867 7.09204 7.13037C7.09204 7.21655 7.10181 7.29492 7.12134 7.36597C7.14063 7.43677 7.17285 7.49854 7.21729 7.55127C7.26172 7.604 7.3042 7.64917 7.34473 7.68677C7.34497 7.68701 7.34521 7.68726 7.34546 7.6875C7.34546 7.6875 7.87061 8.21265 7.87085 8.21289C7.87598 8.21826 7.88062 8.22314 7.8855 8.22803V8.92676C7.76221 8.91821 7.65332 8.88647 7.55957 8.83081C7.46558 8.77515 7.3916 8.72314 7.33789 8.67456C7.28418 8.62598 7.24072 8.60156 7.20776 8.60156C7.15796 8.60156 7.11353 8.62793 7.07495 8.68066C7.03613 8.7334 7.01685 8.78638 7.01685 8.83911C7.01685 8.92334 7.06445 9.00659 7.15967 9.08862L8.83667 10.7656C9.89551 10.5017 10.739 9.77563 11.0779 8.84546Z" fill="url(#paint19_linear_596_13918)"/>
<path d="M7.01685 8.83911C7.01685 8.78638 7.03613 8.73364 7.07471 8.68066C7.11353 8.62793 7.15771 8.60156 7.20752 8.60156C7.24072 8.60156 7.28394 8.62598 7.33789 8.67456C7.3916 8.72314 7.46533 8.77539 7.55933 8.83081C7.65332 8.88647 7.76196 8.91846 7.88525 8.92676V7.94751C7.80176 7.91675 7.73779 7.89258 7.69336 7.87451C7.64868 7.85645 7.5896 7.83008 7.51587 7.79541C7.44214 7.7605 7.38501 7.72437 7.34448 7.68701C7.3042 7.64941 7.26172 7.60425 7.21729 7.55151C7.17261 7.49878 7.14062 7.43701 7.12109 7.36597C7.10156 7.29517 7.0918 7.2168 7.0918 7.13062C7.0918 6.88867 7.16772 6.70508 7.31958 6.57983C7.47119 6.45459 7.65991 6.37939 7.88525 6.35425V6.23315C7.88525 6.20825 7.89722 6.18604 7.9209 6.1665C7.94458 6.14697 7.97314 6.13721 8.00659 6.13721C8.03711 6.13721 8.06567 6.14697 8.09204 6.1665C8.11841 6.18604 8.13184 6.20825 8.13184 6.23315V6.34595C8.30151 6.35156 8.45825 6.38013 8.60156 6.43164C8.74487 6.48315 8.81665 6.55469 8.81665 6.64673C8.81665 6.69678 8.7998 6.74902 8.76611 6.80322C8.73242 6.85767 8.6875 6.88477 8.63135 6.88477C8.60913 6.88477 8.5481 6.86108 8.44824 6.81372C8.34863 6.76636 8.24292 6.73853 8.13159 6.73022V7.57666C8.24243 7.61816 8.33447 7.65796 8.40771 7.69531C8.4812 7.73291 8.55859 7.78491 8.64038 7.85181C8.72217 7.91846 8.78369 8.00244 8.8252 8.10376C8.8667 8.20532 8.88745 8.32397 8.88745 8.46021C8.88745 8.70898 8.81958 8.90649 8.68384 9.05322C8.54834 9.19995 8.36426 9.29004 8.13159 9.32349V9.46313C8.13159 9.48755 8.11841 9.50952 8.09204 9.52881C8.06543 9.54785 8.03687 9.55737 8.00635 9.55737C7.9729 9.55737 7.94434 9.54785 7.92065 9.52881C7.89697 9.50952 7.88525 9.48779 7.88525 9.46313V9.33618C7.64307 9.33325 7.43774 9.27783 7.26929 9.16968C7.10083 9.06152 7.01685 8.95142 7.01685 8.83911ZM7.50537 7.08887C7.50537 7.19727 7.53906 7.27979 7.60669 7.33667C7.67407 7.3938 7.77539 7.44727 7.9104 7.49731V6.73804C7.64038 6.77124 7.50537 6.88843 7.50537 7.08887ZM8.10669 8.91821C8.35156 8.87378 8.47412 8.73633 8.47412 8.50562C8.47412 8.38354 8.44214 8.2876 8.37817 8.21826C8.31396 8.14868 8.22363 8.08911 8.10669 8.03906V8.91821Z" fill="url(#paint20_linear_596_13918)"/>
<path d="M21.5625 8.84546L19.2751 6.55811C19.2427 6.50732 19.1797 6.46509 19.0862 6.4314C18.9854 6.39526 18.8779 6.37061 18.7639 6.35718C18.7578 6.35327 18.7517 6.34985 18.7454 6.34692L18.5767 6.16626C18.5503 6.14673 18.5217 6.13696 18.4912 6.13696C18.4578 6.13696 18.4292 6.14673 18.4055 6.16626C18.3818 6.18579 18.3701 6.20801 18.3701 6.23315V6.35425C18.1445 6.37915 17.9558 6.45435 17.8042 6.57959C17.6523 6.70508 17.5767 6.88867 17.5767 7.13037C17.5767 7.21655 17.5864 7.29492 17.606 7.36597C17.6252 7.43677 17.6575 7.49854 17.7019 7.55127C17.7463 7.604 17.7888 7.64917 17.8293 7.68677C17.8296 7.68701 17.8298 7.68726 17.8301 7.6875C17.8301 7.6875 18.3552 8.21265 18.3555 8.21289C18.3606 8.21826 18.3652 8.22314 18.3701 8.22803V8.92676C18.2468 8.91821 18.1379 8.88647 18.0442 8.83081C17.9502 8.77515 17.8762 8.72314 17.8225 8.67456C17.7688 8.62598 17.7253 8.60156 17.6924 8.60156C17.6426 8.60156 17.5981 8.62793 17.5596 8.68066C17.5208 8.7334 17.5015 8.78638 17.5015 8.83911C17.5015 8.92334 17.5491 9.00659 17.6443 9.08862L19.3213 10.7656C20.3801 10.5017 21.2236 9.77563 21.5625 8.84546Z" fill="url(#paint21_linear_596_13918)"/>
<path d="M17.5015 8.83911C17.5015 8.78638 17.5208 8.73364 17.5593 8.68066C17.5981 8.62793 17.6423 8.60156 17.6921 8.60156C17.7253 8.60156 17.7686 8.62598 17.8225 8.67456C17.8762 8.72314 17.95 8.77539 18.0439 8.83081C18.1379 8.88647 18.2466 8.91846 18.3699 8.92676V7.94751C18.2864 7.91675 18.2224 7.89258 18.178 7.87451C18.1333 7.85645 18.0742 7.83008 18.0005 7.79541C17.9268 7.7605 17.8696 7.72437 17.8291 7.68701C17.7888 7.64941 17.7463 7.60425 17.7019 7.55151C17.6572 7.49878 17.6252 7.43701 17.6057 7.36597C17.5862 7.29517 17.5764 7.2168 17.5764 7.13062C17.5764 6.88867 17.6523 6.70508 17.8042 6.57983C17.9558 6.45459 18.1445 6.37939 18.3699 6.35425V6.23315C18.3699 6.20825 18.3818 6.18604 18.4055 6.1665C18.4292 6.14697 18.4578 6.13721 18.4912 6.13721C18.5217 6.13721 18.5503 6.14697 18.5767 6.1665C18.603 6.18604 18.6165 6.20825 18.6165 6.23315V6.34595C18.7861 6.35156 18.9429 6.38013 19.0862 6.43164C19.2295 6.48315 19.3013 6.55469 19.3013 6.64673C19.3013 6.69678 19.2844 6.74902 19.2507 6.80322C19.217 6.85767 19.1721 6.88477 19.116 6.88477C19.0938 6.88477 19.0327 6.86108 18.9329 6.81372C18.8333 6.76636 18.7275 6.73853 18.6162 6.73022V7.57666C18.7271 7.61816 18.8191 7.65796 18.8923 7.69531C18.9658 7.73291 19.0432 7.78491 19.125 7.85181C19.2068 7.91846 19.2683 8.00244 19.3098 8.10376C19.3513 8.20532 19.3721 8.32397 19.3721 8.46021C19.3721 8.70898 19.3042 8.90649 19.1685 9.05322C19.033 9.19995 18.8489 9.29004 18.6162 9.32349V9.46313C18.6162 9.48755 18.603 9.50952 18.5767 9.52881C18.55 9.54785 18.5215 9.55737 18.491 9.55737C18.4575 9.55737 18.429 9.54785 18.4053 9.52881C18.3816 9.50952 18.3699 9.48779 18.3699 9.46313V9.33618C18.1277 9.33325 17.9224 9.27783 17.7539 9.16968C17.5854 9.06152 17.5015 8.95142 17.5015 8.83911ZM17.99 7.08887C17.99 7.19727 18.0237 7.27979 18.0913 7.33667C18.1587 7.3938 18.26 7.44727 18.395 7.49731V6.73804C18.125 6.77124 17.99 6.88843 17.99 7.08887ZM18.5913 8.91821C18.8362 8.87378 18.9587 8.73633 18.9587 8.50562C18.9587 8.38354 18.9268 8.2876 18.8628 8.21826C18.7986 8.14868 18.7083 8.08911 18.5913 8.03906V8.91821Z" fill="url(#paint22_linear_596_13918)"/>
<path d="M11.7319 22.6975H4.96313C4.79858 22.6975 4.66504 22.8311 4.66504 22.9956V23.7209C4.66504 23.8855 4.79858 24.0188 4.96313 24.0188H11.7319C11.8967 24.0188 12.03 23.8855 12.03 23.7209V22.9956C12.03 22.8311 11.8965 22.6975 11.7319 22.6975Z" fill="url(#paint23_linear_596_13918)"/>
<path d="M15.3359 22.6975H12.9297C12.7651 22.6975 12.6318 22.8311 12.6318 22.9956V23.7209C12.6318 23.8855 12.7651 24.0188 12.9297 24.0188H15.3359C15.5005 24.0188 15.6338 23.8855 15.6338 23.7209V22.9956C15.6338 22.8311 15.5005 22.6975 15.3359 22.6975Z" fill="url(#paint24_linear_596_13918)"/>
<path d="M11.7319 18.8596H4.96313C4.79858 18.8596 4.66504 18.9929 4.66504 19.1575V19.8828C4.66504 20.0474 4.79858 20.1809 4.96313 20.1809H11.7319C11.8967 20.1809 12.03 20.0474 12.03 19.8828V19.1575C12.03 18.9929 11.8965 18.8596 11.7319 18.8596Z" fill="url(#paint25_linear_596_13918)"/>
<path d="M15.707 15.0215H4.96313C4.79858 15.0215 4.66504 15.1548 4.66504 15.3193V16.0447C4.66504 16.2092 4.79858 16.3428 4.96313 16.3428H15.707C15.8716 16.3428 16.0049 16.2092 16.0049 16.0447V15.3193C16.0049 15.1548 15.8716 15.0215 15.707 15.0215Z" fill="url(#paint26_linear_596_13918)"/>
<path d="M21.4255 15.0215H17.2295C17.0649 15.0215 16.9316 15.1548 16.9316 15.3193V16.0447C16.9316 16.2092 17.0649 16.3428 17.2295 16.3428H21.4255C21.5901 16.3428 21.7234 16.2092 21.7234 16.0447V15.3193C21.7234 15.1548 21.5901 15.0215 21.4255 15.0215Z" fill="url(#paint27_linear_596_13918)"/>
<path d="M12.4752 9.11889C12.4752 9.0183 12.5567 8.93676 12.6573 8.93676H13.7315C13.8321 8.93676 13.9136 9.0183 13.9136 9.11889C13.9136 9.28124 14.1099 9.36254 14.2247 9.2478L15.0621 8.41015C15.1334 8.3391 15.1334 8.22363 15.0621 8.15258L14.2247 7.31493C14.1099 7.20019 13.9136 7.28149 13.9136 7.44384C13.9136 7.54443 13.8321 7.62597 13.7315 7.62597H12.6573C12.5567 7.62597 12.4752 7.54443 12.4752 7.44384C12.4752 7.28149 12.2789 7.20019 12.1641 7.31493L11.3265 8.15258C11.2554 8.22363 11.2554 8.3391 11.3265 8.41015L12.1641 9.2478C12.2789 9.36254 12.4752 9.28124 12.4752 9.11889Z" fill="url(#paint28_linear_596_13918)"/>
<path d="M21.3568 22.3811C21.1815 22.5566 20.8968 22.5566 20.7213 22.3811L19.1324 20.792C18.3699 20.0298 17.1339 20.0298 16.3716 20.792C15.6092 21.5544 15.6092 22.7905 16.3716 23.5527L24.8748 32.0562C25.1583 31.8596 25.3441 31.5325 25.3441 31.1614V18.3938L21.3568 22.3811Z" fill="url(#paint29_linear_596_13918)"/>
<path d="M20.7213 22.3812L19.1324 20.7921C18.3702 20.0298 17.1341 20.0298 16.3716 20.7921C15.6092 21.5545 15.6092 22.7906 16.3716 23.553L18.7469 25.9283C20.0128 27.1942 22.0655 27.1942 23.3314 25.9283L30.7505 18.5089C31.513 17.7466 31.513 16.5106 30.7505 15.7481C29.9881 14.9857 28.752 14.9857 27.9898 15.7481L21.3568 22.3812C21.1815 22.5565 20.8968 22.5565 20.7213 22.3812Z" fill="url(#paint30_linear_596_13918)"/>
</g>
<defs>
<linearGradient id="paint0_linear_596_13918" x1="10.1662" y1="6.24147" x2="22.4643" y2="31.967" gradientUnits="userSpaceOnUse">
<stop stop-color="#F9F7FC"/>
<stop offset="1" stop-color="#F0DDFC"/>
</linearGradient>
<linearGradient id="paint1_linear_596_13918" x1="28.9347" y1="9.84862" x2="27.8532" y2="1.30461" gradientUnits="userSpaceOnUse">
<stop stop-color="#F9F7FC"/>
<stop offset="1" stop-color="#F0DDFC"/>
</linearGradient>
<linearGradient id="paint2_linear_596_13918" x1="13.2551" y1="28.1444" x2="13.2551" y2="33.9252" gradientUnits="userSpaceOnUse">
<stop stop-color="#F0DDFC" stop-opacity="0"/>
<stop offset="0.2889" stop-color="#C8B7E0" stop-opacity="0.290196"/>
<stop offset="0.5915" stop-color="#A595C8" stop-opacity="0.592157"/>
<stop offset="0.8395" stop-color="#8F81B8" stop-opacity="0.839216"/>
<stop offset="1" stop-color="#8779B3"/>
</linearGradient>
<linearGradient id="paint3_linear_596_13918" x1="24.6186" y1="14.464" x2="14.7278" y2="4.57317" gradientUnits="userSpaceOnUse">
<stop stop-color="#F0DDFC" stop-opacity="0"/>
<stop offset="0.2889" stop-color="#C8B7E0" stop-opacity="0.290196"/>
<stop offset="0.5915" stop-color="#A595C8" stop-opacity="0.592157"/>
<stop offset="0.8395" stop-color="#8F81B8" stop-opacity="0.839216"/>
<stop offset="1" stop-color="#8779B3"/>
</linearGradient>
<linearGradient id="paint4_linear_596_13918" x1="15.1412" y1="15.4708" x2="2.61461" y2="2.94417" gradientUnits="userSpaceOnUse">
<stop stop-color="#F0DDFC" stop-opacity="0"/>
<stop offset="0.2889" stop-color="#C8B7E0" stop-opacity="0.290196"/>
<stop offset="0.5915" stop-color="#A595C8" stop-opacity="0.592157"/>
<stop offset="0.8395" stop-color="#8F81B8" stop-opacity="0.839216"/>
<stop offset="1" stop-color="#8779B3"/>
</linearGradient>
<linearGradient id="paint5_linear_596_13918" x1="15.1494" y1="8.28139" x2="21.7235" y2="8.28139" gradientUnits="userSpaceOnUse">
<stop stop-color="#FFC738"/>
<stop offset="0.2344" stop-color="#FEC33A"/>
<stop offset="0.4454" stop-color="#FBB840"/>
<stop offset="0.6474" stop-color="#F6A649"/>
<stop offset="0.8426" stop-color="#F08D56"/>
<stop offset="1" stop-color="#E97264"/>
</linearGradient>
<linearGradient id="paint6_linear_596_13918" x1="18.1235" y1="7.67966" x2="20.8253" y2="12.8754" gradientUnits="userSpaceOnUse">
<stop stop-color="#FCA17A" stop-opacity="0"/>
<stop offset="0.152" stop-color="#F69373" stop-opacity="0.152941"/>
<stop offset="0.416" stop-color="#EF816B" stop-opacity="0.415686"/>
<stop offset="0.6926" stop-color="#EA7666" stop-opacity="0.694118"/>
<stop offset="1" stop-color="#E97264"/>
</linearGradient>
<linearGradient id="paint7_linear_596_13918" x1="18.3353" y1="9.30716" x2="18.0162" y2="12.5439" gradientUnits="userSpaceOnUse">
<stop stop-color="#E97264" stop-opacity="0"/>
<stop offset="1" stop-color="#B53759"/>
</linearGradient>
<linearGradient id="paint8_linear_596_13918" x1="17.7854" y1="9.47212" x2="16.7989" y2="11.2763" gradientUnits="userSpaceOnUse">
<stop stop-color="#E97264" stop-opacity="0"/>
<stop offset="1" stop-color="#B53759"/>
</linearGradient>
<radialGradient id="paint9_radial_596_13918" cx="0" cy="0" r="1" gradientUnits="userSpaceOnUse" gradientTransform="translate(17.5186 5.806) scale(6.19756 5.54248)">
<stop stop-color="#FFC738"/>
<stop offset="0.2344" stop-color="#FEC33A"/>
<stop offset="0.4454" stop-color="#FBB840"/>
<stop offset="0.6474" stop-color="#F6A649"/>
<stop offset="0.8426" stop-color="#F08D56"/>
<stop offset="1" stop-color="#E97264"/>
</radialGradient>
<radialGradient id="paint10_radial_596_13918" cx="0" cy="0" r="1" gradientUnits="userSpaceOnUse" gradientTransform="translate(18.6626 8.68107) rotate(180) scale(4.5708 4.08766)">
<stop stop-color="#FFC738"/>
<stop offset="0.2344" stop-color="#FEC33A"/>
<stop offset="0.4454" stop-color="#FBB840"/>
<stop offset="0.6474" stop-color="#F6A649"/>
<stop offset="0.8426" stop-color="#F08D56"/>
<stop offset="1" stop-color="#E97264"/>
</radialGradient>
<radialGradient id="paint11_radial_596_13918" cx="0" cy="0" r="1" gradientUnits="userSpaceOnUse" gradientTransform="translate(17.9867 6.48706) scale(5.14589 4.60197)">
<stop stop-color="#FFC738"/>
<stop offset="0.2344" stop-color="#FEC33A"/>
<stop offset="0.4454" stop-color="#FBB840"/>
<stop offset="0.6474" stop-color="#F6A649"/>
<stop offset="0.8426" stop-color="#F08D56"/>
<stop offset="1" stop-color="#E97264"/>
</radialGradient>
<linearGradient id="paint12_linear_596_13918" x1="4.66514" y1="8.28139" x2="11.2392" y2="8.28139" gradientUnits="userSpaceOnUse">
<stop stop-color="#FFC738"/>
<stop offset="0.2344" stop-color="#FEC33A"/>
<stop offset="0.4454" stop-color="#FBB840"/>
<stop offset="0.6474" stop-color="#F6A649"/>
<stop offset="0.8426" stop-color="#F08D56"/>
<stop offset="1" stop-color="#E97264"/>
</linearGradient>
<linearGradient id="paint13_linear_596_13918" x1="7.63929" y1="7.67966" x2="10.341" y2="12.8754" gradientUnits="userSpaceOnUse">
<stop stop-color="#FCA17A" stop-opacity="0"/>
<stop offset="0.152" stop-color="#F69373" stop-opacity="0.152941"/>
<stop offset="0.416" stop-color="#EF816B" stop-opacity="0.415686"/>
<stop offset="0.6926" stop-color="#EA7666" stop-opacity="0.694118"/>
<stop offset="1" stop-color="#E97264"/>
</linearGradient>
<linearGradient id="paint14_linear_596_13918" x1="7.85106" y1="9.30716" x2="7.53194" y2="12.5439" gradientUnits="userSpaceOnUse">
<stop stop-color="#E97264" stop-opacity="0"/>
<stop offset="1" stop-color="#B53759"/>
</linearGradient>
<linearGradient id="paint15_linear_596_13918" x1="7.30114" y1="9.47212" x2="6.31468" y2="11.2763" gradientUnits="userSpaceOnUse">
<stop stop-color="#E97264" stop-opacity="0"/>
<stop offset="1" stop-color="#B53759"/>
</linearGradient>
<radialGradient id="paint16_radial_596_13918" cx="0" cy="0" r="1" gradientUnits="userSpaceOnUse" gradientTransform="translate(7.03439 5.806) scale(6.19756 5.54248)">
<stop stop-color="#FFC738"/>
<stop offset="0.2344" stop-color="#FEC33A"/>
<stop offset="0.4454" stop-color="#FBB840"/>
<stop offset="0.6474" stop-color="#F6A649"/>
<stop offset="0.8426" stop-color="#F08D56"/>
<stop offset="1" stop-color="#E97264"/>
</radialGradient>
<radialGradient id="paint17_radial_596_13918" cx="0" cy="0" r="1" gradientUnits="userSpaceOnUse" gradientTransform="translate(8.17841 8.68107) rotate(180) scale(4.5708 4.08766)">
<stop stop-color="#FFC738"/>
<stop offset="0.2344" stop-color="#FEC33A"/>
<stop offset="0.4454" stop-color="#FBB840"/>
<stop offset="0.6474" stop-color="#F6A649"/>
<stop offset="0.8426" stop-color="#F08D56"/>
<stop offset="1" stop-color="#E97264"/>
</radialGradient>
<radialGradient id="paint18_radial_596_13918" cx="0" cy="0" r="1" gradientUnits="userSpaceOnUse" gradientTransform="translate(7.50244 6.48706) scale(5.14589 4.60197)">
<stop stop-color="#FFC738"/>
<stop offset="0.2344" stop-color="#FEC33A"/>
<stop offset="0.4454" stop-color="#FBB840"/>
<stop offset="0.6474" stop-color="#F6A649"/>
<stop offset="0.8426" stop-color="#F08D56"/>
<stop offset="1" stop-color="#E97264"/>
</radialGradient>
<linearGradient id="paint19_linear_596_13918" x1="9.78261" y1="9.28672" x2="5.91858" y2="6.75013" gradientUnits="userSpaceOnUse">
<stop stop-color="#E97264" stop-opacity="0"/>
<stop offset="1" stop-color="#B53759"/>
</linearGradient>
<linearGradient id="paint20_linear_596_13918" x1="8.70239" y1="7.84711" x2="5.75679" y2="7.84711" gradientUnits="userSpaceOnUse">
<stop stop-color="#FFC738"/>
<stop offset="1" stop-color="#E97264"/>
</linearGradient>
<linearGradient id="paint21_linear_596_13918" x1="20.2672" y1="9.28672" x2="16.4032" y2="6.75013" gradientUnits="userSpaceOnUse">
<stop stop-color="#E97264" stop-opacity="0"/>
<stop offset="1" stop-color="#B53759"/>
</linearGradient>
<linearGradient id="paint22_linear_596_13918" x1="19.187" y1="7.84711" x2="16.2414" y2="7.84711" gradientUnits="userSpaceOnUse">
<stop stop-color="#FFC738"/>
<stop offset="1" stop-color="#E97264"/>
</linearGradient>
<linearGradient id="paint23_linear_596_13918" x1="8.34757" y1="28.4165" x2="8.34757" y2="7.7477" gradientUnits="userSpaceOnUse">
<stop stop-color="#4F4A72"/>
<stop offset="1" stop-color="#3B395F"/>
</linearGradient>
<linearGradient id="paint24_linear_596_13918" x1="14.1329" y1="28.4165" x2="14.1329" y2="7.7477" gradientUnits="userSpaceOnUse">
<stop stop-color="#4F4A72"/>
<stop offset="1" stop-color="#3B395F"/>
</linearGradient>
<linearGradient id="paint25_linear_596_13918" x1="8.34757" y1="24.5784" x2="8.34757" y2="3.90959" gradientUnits="userSpaceOnUse">
<stop stop-color="#4F4A72"/>
<stop offset="1" stop-color="#3B395F"/>
</linearGradient>
<linearGradient id="paint26_linear_596_13918" x1="10.3351" y1="20.7402" x2="10.3351" y2="0.0714723" gradientUnits="userSpaceOnUse">
<stop stop-color="#4F4A72"/>
<stop offset="1" stop-color="#3B395F"/>
</linearGradient>
<linearGradient id="paint27_linear_596_13918" x1="19.3276" y1="20.7402" x2="19.3276" y2="0.0714723" gradientUnits="userSpaceOnUse">
<stop stop-color="#4F4A72"/>
<stop offset="1" stop-color="#3B395F"/>
</linearGradient>
<linearGradient id="paint28_linear_596_13918" x1="13.1944" y1="7.94419" x2="13.1944" y2="9.36818" gradientUnits="userSpaceOnUse">
<stop stop-color="#FFB5B0"/>
<stop offset="1" stop-color="#FF70AC"/>
</linearGradient>
<linearGradient id="paint29_linear_596_13918" x1="28.8431" y1="28.9585" x2="21.808" y2="21.9235" gradientUnits="userSpaceOnUse">
<stop stop-color="#F0DDFC" stop-opacity="0"/>
<stop offset="0.2889" stop-color="#C8B7E0" stop-opacity="0.290196"/>
<stop offset="0.5915" stop-color="#A595C8" stop-opacity="0.592157"/>
<stop offset="0.8395" stop-color="#8F81B8" stop-opacity="0.839216"/>
<stop offset="1" stop-color="#8779B3"/>
</linearGradient>
<linearGradient id="paint30_linear_596_13918" x1="21.7179" y1="15.7926" x2="27.114" y2="27.0868" gradientUnits="userSpaceOnUse">
<stop stop-color="#00E7B2"/>
<stop offset="0.158" stop-color="#02E3B0"/>
<stop offset="0.318" stop-color="#08D7AB"/>
<stop offset="0.479" stop-color="#12C2A3"/>
<stop offset="0.6406" stop-color="#21A698"/>
<stop offset="0.8029" stop-color="#338189"/>
<stop offset="0.9635" stop-color="#495577"/>
<stop offset="1" stop-color="#4F4A72"/>
</linearGradient>
<clipPath id="clip0_596_13918">
<rect width="32" height="32" fill="white" transform="translate(0.22876 0.25)"/>
</clipPath>
</defs>
</svg>
