<svg width="33" height="33" viewBox="0 0 33 33" fill="none" xmlns="http://www.w3.org/2000/svg">
<g clip-path="url(#clip0_596_13993)">
<path d="M4.57446 10.5129C4.23438 10.6066 3.9292 10.7722 3.67285 10.9899H29.29V6.34273C29.29 5.02168 28.0325 4.06343 26.7588 4.41353L4.57446 10.5129Z" fill="url(#paint0_linear_596_13993)"/>
<path d="M4.63385 10.99H29.2901V6.3428C29.2901 5.02176 28.0325 4.06326 26.7589 4.4136L4.57476 10.513C4.57135 10.5139 4.56793 10.5149 4.56451 10.5159C4.29595 10.5911 4.35504 10.99 4.63385 10.99Z" fill="url(#paint1_linear_596_13993)"/>
<path d="M27.1406 8.52027C27.1406 4.02271 23.0635 0.376709 18.0342 0.376709C13.0049 0.376709 8.92798 4.02271 8.92798 8.52027V10.4456C8.92798 14.9431 13.0049 18.5894 18.0342 18.5894C23.0635 18.5894 27.1406 14.9431 27.1406 10.4456C27.1406 10.4392 27.1406 8.52661 27.1406 8.52027Z" fill="url(#paint2_linear_596_13993)"/>
<path d="M25.5352 3.90112C23.8923 1.77222 21.1462 0.376709 18.0352 0.376709C14.9241 0.376709 12.178 1.77222 10.5354 3.90112V15.0649C12.178 17.1939 14.9241 18.5894 18.0352 18.5894C21.1462 18.5894 23.8923 17.1939 25.5352 15.0649V3.90112Z" fill="url(#paint3_linear_596_13993)"/>
<path d="M12.6936 17.0413C14.1941 18.0149 16.0391 18.5894 18.0347 18.5894C20.03 18.5894 21.8752 18.0149 23.3757 17.0413V1.92456C21.8752 0.951172 20.03 0.376709 18.0347 0.376709C16.0391 0.376709 14.1941 0.950928 12.6936 1.92456V17.0413Z" fill="url(#paint4_linear_596_13993)"/>
<path d="M15.9651 18.3779C16.6296 18.5161 17.3223 18.5894 18.0339 18.5894C18.7456 18.5894 19.4382 18.5161 20.1028 18.3779V0.587891C19.4382 0.449707 18.7456 0.376709 18.0339 0.376709C17.3223 0.376709 16.6296 0.449707 15.9651 0.587891V18.3779Z" fill="url(#paint5_linear_596_13993)"/>
<path d="M27.1406 8.52027C27.1406 4.02271 23.0635 0.376709 18.0342 0.376709C13.0049 0.376709 8.92798 4.02271 8.92798 8.52027C8.92798 13.0181 13.0049 16.6641 18.0342 16.6641C23.0635 16.6641 27.1406 13.0181 27.1406 8.52027Z" fill="url(#paint6_radial_596_13993)"/>
<path d="M26.125 8.52027C26.125 4.52441 22.5027 1.28491 18.0342 1.28491C13.5659 1.28491 9.9436 4.52441 9.9436 8.52027C9.9436 12.5164 13.5659 15.7559 18.0342 15.7559C22.5027 15.7559 26.125 12.5164 26.125 8.52027Z" fill="url(#paint7_radial_596_13993)"/>
<path d="M25.3582 8.52027C25.3582 4.90283 22.0789 1.97021 18.0337 1.97021C13.9885 1.97021 10.7092 4.90283 10.7092 8.52027C10.7092 12.1379 13.9885 15.0706 18.0337 15.0706C22.0789 15.0706 25.3582 12.1379 25.3582 8.52027Z" fill="url(#paint8_radial_596_13993)"/>
<path d="M26.6943 11.0459L20.3574 4.70898C20.2676 4.56812 20.0933 4.45117 19.8342 4.35791C19.5549 4.25757 19.2571 4.18945 18.9417 4.1521C18.9248 4.14136 18.9075 4.13184 18.8899 4.12378L18.4226 3.62329C18.3494 3.56934 18.2703 3.54224 18.1855 3.54224C18.093 3.54224 18.0139 3.56934 17.9485 3.62329C17.8828 3.67725 17.8501 3.73901 17.8501 3.80835V4.1438C17.2253 4.21313 16.7026 4.42139 16.2825 4.76855C15.8621 5.11572 15.6519 5.62427 15.6519 6.29419C15.6519 6.53272 15.6787 6.75024 15.7329 6.94653C15.7866 7.14307 15.8755 7.31421 15.999 7.46045C16.1223 7.60669 16.24 7.73169 16.3518 7.83569C16.3528 7.83643 16.3535 7.83716 16.3542 7.83789C16.3542 7.83789 17.8091 9.29273 17.8098 9.29346C17.8235 9.30786 17.8367 9.32153 17.8501 9.33521V11.2705C17.5083 11.2473 17.2073 11.1589 16.947 11.0049C16.6868 10.8511 16.4822 10.7068 16.3333 10.572C16.1843 10.4373 16.0642 10.3699 15.9727 10.3699C15.8345 10.3699 15.7119 10.4431 15.6045 10.5894C15.4973 10.7356 15.4436 10.8818 15.4436 11.0281C15.4436 11.262 15.5754 11.4922 15.8389 11.7192L20.4851 16.3655C23.4189 15.6343 25.7554 13.6226 26.6943 11.0459Z" fill="url(#paint9_linear_596_13993)"/>
<path d="M15.4436 11.0281C15.4436 10.8818 15.4971 10.7356 15.6045 10.5894C15.7119 10.4431 15.8345 10.3699 15.9727 10.3699C16.0642 10.3699 16.1843 10.4373 16.3333 10.572C16.4822 10.7068 16.6868 10.8511 16.947 11.0049C17.2073 11.1589 17.5083 11.2473 17.8501 11.2705V8.55737C17.6187 8.47266 17.4412 8.40527 17.3179 8.35523C17.1943 8.30542 17.0305 8.23218 16.8262 8.13599C16.6218 8.0398 16.4636 7.9397 16.3518 7.83569C16.24 7.73169 16.1223 7.60669 15.999 7.46045C15.8755 7.31421 15.7866 7.14307 15.7329 6.94653C15.679 6.75024 15.6519 6.53272 15.6519 6.29419C15.6519 5.62427 15.8618 5.11572 16.2825 4.76855C16.7026 4.42139 17.2253 4.21313 17.8501 4.1438V3.80835C17.8501 3.73901 17.8828 3.67725 17.9485 3.62329C18.0139 3.56934 18.093 3.54224 18.1855 3.54224C18.2703 3.54224 18.3494 3.56934 18.4226 3.62329C18.4959 3.67725 18.5327 3.73901 18.5327 3.80835V4.12061C19.0029 4.13623 19.4368 4.21533 19.8342 4.35791C20.2312 4.50073 20.4299 4.69922 20.4299 4.95361C20.4299 5.09253 20.3831 5.23706 20.2898 5.38745C20.1965 5.53784 20.072 5.61304 19.9165 5.61304C19.8552 5.61304 19.686 5.54761 19.4099 5.41626C19.1335 5.28516 18.8411 5.20801 18.5327 5.18506V7.52954C18.8394 7.64502 19.0945 7.75464 19.2976 7.85864C19.5007 7.96265 19.7158 8.10693 19.9421 8.29175C20.1685 8.47632 20.3391 8.70923 20.4541 8.99024C20.5691 9.271 20.6267 9.6001 20.6267 9.9773C20.6267 10.6663 20.4387 11.2141 20.0627 11.6204C19.6868 12.0269 19.177 12.2764 18.5327 12.3694V12.7559C18.5327 12.824 18.4959 12.8848 18.4226 12.9377C18.3494 12.9907 18.2703 13.0173 18.1855 13.0173C18.093 13.0173 18.0139 12.9907 17.9485 12.938C17.8828 12.8848 17.8501 12.8242 17.8501 12.7561V12.4043C17.179 12.3965 16.6101 12.2429 16.1436 11.9436C15.6768 11.6443 15.4436 11.3391 15.4436 11.0281ZM16.7974 6.17896C16.7974 6.47925 16.8906 6.70825 17.0779 6.86597C17.2646 7.02368 17.5454 7.17188 17.9194 7.3103V5.20728C17.1714 5.29981 16.7974 5.62354 16.7974 6.17896ZM18.4634 11.2473C19.1418 11.1243 19.4814 10.7432 19.4814 10.1042C19.4814 9.76587 19.3926 9.50025 19.2153 9.30786C19.0378 9.11548 18.7871 8.94995 18.4634 8.81128V11.2473Z" fill="url(#paint10_linear_596_13993)"/>
<path d="M18.0342 18.5894C20.1101 18.5894 22.0234 17.9678 23.5552 16.9219L10.5344 3.90112C9.52148 5.21362 8.92798 6.80493 8.92798 8.52027V10.4456C8.92773 14.9431 13.0049 18.5894 18.0342 18.5894Z" fill="url(#paint11_linear_596_13993)"/>
<path d="M31.6504 13.3501V29.8445C31.6504 31.148 30.5938 32.2046 29.2903 32.2046H5.20044C3.89697 32.2046 2.84033 31.148 2.84033 29.8445V12.7891C2.84033 12.0791 3.15674 11.4282 3.67188 10.99H29.2903C30.5938 10.99 31.6504 12.0466 31.6504 13.3501Z" fill="url(#paint12_linear_596_13993)"/>
<path d="M2.84009 13.269H27.5593C28.605 13.269 29.4526 14.0496 29.4526 15.0125V27.8826C29.4526 28.8455 28.605 29.6262 27.5593 29.6262H2.84009V13.269Z" fill="url(#paint13_linear_596_13993)"/>
<path d="M31.6501 29.8445V17.3855C31.5544 17.3499 31.4512 17.3301 31.343 17.3301H23.4236C22.9343 17.3301 22.5378 17.7266 22.5378 18.2158V22.384C22.5378 22.677 22.6807 22.936 22.9001 23.0974L31.1277 31.3247C31.4543 30.9199 31.6501 30.4053 31.6501 29.8445Z" fill="url(#paint14_linear_596_13993)"/>
<path d="M31.343 23.2698H23.4236C22.9343 23.2698 22.5378 22.8733 22.5378 22.384V18.2158C22.5378 17.7266 22.9343 17.3301 23.4236 17.3301H31.343C31.8323 17.3301 32.2288 17.7266 32.2288 18.2158V22.384C32.2288 22.873 31.8323 23.2698 31.343 23.2698Z" fill="url(#paint15_linear_596_13993)"/>
<path d="M2.84009 24.5454V29.8445C2.84009 31.148 3.89673 32.2046 5.2002 32.2046H29.29C30.5935 32.2046 31.6502 31.148 31.6502 29.8445V24.5454H2.84009Z" fill="url(#paint16_linear_596_13993)"/>
<path d="M26.9902 19.0559C26.6511 18.6814 26.1611 18.4463 25.6162 18.4463C24.5925 18.4463 23.7627 19.2761 23.7627 20.2998C23.7627 20.8447 23.9978 21.3347 24.3721 21.6738L25.968 23.2698H31.2043L26.9902 19.0559Z" fill="url(#paint17_linear_596_13993)"/>
<path d="M27.47 20.2998C27.47 21.3237 26.6401 22.1536 25.6162 22.1536C24.5925 22.1536 23.7627 21.3237 23.7627 20.2998C23.7627 19.2761 24.5925 18.4463 25.6162 18.4463C26.6401 18.4463 27.47 19.2761 27.47 20.2998Z" fill="url(#paint18_radial_596_13993)"/>
<path d="M10.9514 11.8289C10.523 11.8289 10.1755 11.4814 10.1755 11.0527V10.9919L10.1758 10.99H3.67188C3.15674 11.4282 2.84033 12.0791 2.84033 12.7891V16.0588L18.9861 32.2046H29.2903C30.0591 32.2046 30.7417 31.8369 31.1726 31.2681L12.2859 12.3816C11.9321 12.0276 11.4522 11.8289 10.9514 11.8289Z" fill="url(#paint19_linear_596_13993)"/>
<path d="M10.1604 10.8056V0.758969C10.1604 0.328061 9.811 0.376645 9.38009 0.376645H3.1711C2.7402 0.376645 2.39083 0.328061 2.39083 0.758969V10.8056C2.39083 11.402 1.90743 11.8854 1.311 11.8854C0.348594 11.8854 -0.133096 13.0488 0.547324 13.7292L5.51193 18.694C5.9338 19.1157 6.61739 19.1157 7.03927 18.694L12.0039 13.7292C12.6843 13.049 12.2026 11.8854 11.2402 11.8854C10.6438 11.8854 10.1604 11.402 10.1604 10.8056Z" fill="url(#paint20_linear_596_13993)"/>
</g>
<defs>
<linearGradient id="paint0_linear_596_13993" x1="16.4815" y1="5.8767" x2="16.4815" y2="11.7037" gradientUnits="userSpaceOnUse">
<stop stop-color="#4F4A72"/>
<stop offset="1" stop-color="#3B395F"/>
</linearGradient>
<linearGradient id="paint1_linear_596_13993" x1="16.8406" y1="7.31879" x2="16.8406" y2="16.1725" gradientUnits="userSpaceOnUse">
<stop stop-color="#B53759" stop-opacity="0"/>
<stop offset="1" stop-color="#FFB5B0"/>
</linearGradient>
<linearGradient id="paint2_linear_596_13993" x1="8.92789" y1="9.48295" x2="27.1405" y2="9.48295" gradientUnits="userSpaceOnUse">
<stop stop-color="#FFC738"/>
<stop offset="0.2344" stop-color="#FEC33A"/>
<stop offset="0.4454" stop-color="#FBB840"/>
<stop offset="0.6474" stop-color="#F6A649"/>
<stop offset="0.8426" stop-color="#F08D56"/>
<stop offset="1" stop-color="#E97264"/>
</linearGradient>
<linearGradient id="paint3_linear_596_13993" x1="17.1683" y1="7.81594" x2="24.6532" y2="22.2099" gradientUnits="userSpaceOnUse">
<stop stop-color="#FCA17A" stop-opacity="0"/>
<stop offset="0.152" stop-color="#F69373" stop-opacity="0.152941"/>
<stop offset="0.416" stop-color="#EF816B" stop-opacity="0.415686"/>
<stop offset="0.6926" stop-color="#EA7666" stop-opacity="0.694118"/>
<stop offset="1" stop-color="#E97264"/>
</linearGradient>
<linearGradient id="paint4_linear_596_13993" x1="17.7545" y1="12.3247" x2="16.8705" y2="21.2915" gradientUnits="userSpaceOnUse">
<stop stop-color="#E97264" stop-opacity="0"/>
<stop offset="1" stop-color="#B53759"/>
</linearGradient>
<linearGradient id="paint5_linear_596_13993" x1="16.2303" y1="12.7817" x2="13.4975" y2="17.7799" gradientUnits="userSpaceOnUse">
<stop stop-color="#E97264" stop-opacity="0"/>
<stop offset="1" stop-color="#B53759"/>
</linearGradient>
<radialGradient id="paint6_radial_596_13993" cx="0" cy="0" r="1" gradientUnits="userSpaceOnUse" gradientTransform="translate(15.4916 2.62522) scale(17.1695 15.3547)">
<stop stop-color="#FFC738"/>
<stop offset="0.2344" stop-color="#FEC33A"/>
<stop offset="0.4454" stop-color="#FBB840"/>
<stop offset="0.6474" stop-color="#F6A649"/>
<stop offset="0.8426" stop-color="#F08D56"/>
<stop offset="1" stop-color="#E97264"/>
</radialGradient>
<radialGradient id="paint7_radial_596_13993" cx="0" cy="0" r="1" gradientUnits="userSpaceOnUse" gradientTransform="translate(18.6607 10.59) rotate(180) scale(12.6628 11.3243)">
<stop stop-color="#FFC738"/>
<stop offset="0.2344" stop-color="#FEC33A"/>
<stop offset="0.4454" stop-color="#FBB840"/>
<stop offset="0.6474" stop-color="#F6A649"/>
<stop offset="0.8426" stop-color="#F08D56"/>
<stop offset="1" stop-color="#E97264"/>
</radialGradient>
<radialGradient id="paint8_radial_596_13993" cx="0" cy="0" r="1" gradientUnits="userSpaceOnUse" gradientTransform="translate(16.7878 4.512) scale(14.256 12.7491)">
<stop stop-color="#FFC738"/>
<stop offset="0.2344" stop-color="#FEC33A"/>
<stop offset="0.4454" stop-color="#FBB840"/>
<stop offset="0.6474" stop-color="#F6A649"/>
<stop offset="0.8426" stop-color="#F08D56"/>
<stop offset="1" stop-color="#E97264"/>
</radialGradient>
<linearGradient id="paint9_linear_596_13993" x1="23.1061" y1="12.2681" x2="12.4014" y2="5.2408" gradientUnits="userSpaceOnUse">
<stop stop-color="#E97264" stop-opacity="0"/>
<stop offset="1" stop-color="#B53759"/>
</linearGradient>
<linearGradient id="paint10_linear_596_13993" x1="20.1135" y1="8.27985" x2="11.9531" y2="8.27985" gradientUnits="userSpaceOnUse">
<stop stop-color="#FFC738"/>
<stop offset="1" stop-color="#E97264"/>
</linearGradient>
<linearGradient id="paint11_linear_596_13993" x1="18.5474" y1="17.5448" x2="5.65676" y2="4.65416" gradientUnits="userSpaceOnUse">
<stop stop-color="#E97264" stop-opacity="0"/>
<stop offset="1" stop-color="#B53759"/>
</linearGradient>
<linearGradient id="paint12_linear_596_13993" x1="17.2454" y1="15.8904" x2="17.2454" y2="34.4821" gradientUnits="userSpaceOnUse">
<stop stop-color="#4F4A72"/>
<stop offset="1" stop-color="#3B395F"/>
</linearGradient>
<linearGradient id="paint13_linear_596_13993" x1="14.2399" y1="13.2433" x2="21.0486" y2="45.3533" gradientUnits="userSpaceOnUse">
<stop stop-color="#B53759" stop-opacity="0"/>
<stop offset="1" stop-color="#FFB5B0"/>
</linearGradient>
<linearGradient id="paint14_linear_596_13993" x1="27.9709" y1="20.9444" x2="35.2471" y2="28.2206" gradientUnits="userSpaceOnUse">
<stop stop-color="#B53759" stop-opacity="0"/>
<stop offset="1" stop-color="#FFB5B0"/>
</linearGradient>
<linearGradient id="paint15_linear_596_13993" x1="27.1568" y1="18.5929" x2="28.2982" y2="27.1967" gradientUnits="userSpaceOnUse">
<stop stop-color="#FFB5B0"/>
<stop offset="1" stop-color="#FF70AC"/>
</linearGradient>
<linearGradient id="paint16_linear_596_13993" x1="17.2452" y1="27.5305" x2="17.2452" y2="33.0394" gradientUnits="userSpaceOnUse">
<stop stop-color="#B53759" stop-opacity="0"/>
<stop offset="1" stop-color="#FFB5B0"/>
</linearGradient>
<linearGradient id="paint17_linear_596_13993" x1="28.4114" y1="23.095" x2="23.6315" y2="18.3151" gradientUnits="userSpaceOnUse">
<stop stop-color="#3B395F" stop-opacity="0"/>
<stop offset="1" stop-color="#3B395F"/>
</linearGradient>
<radialGradient id="paint18_radial_596_13993" cx="0" cy="0" r="1" gradientUnits="userSpaceOnUse" gradientTransform="translate(25.078 19.7281) scale(2.32518)">
<stop stop-color="#FFC738"/>
<stop offset="0.2344" stop-color="#FEC33A"/>
<stop offset="0.4454" stop-color="#FBB840"/>
<stop offset="0.6474" stop-color="#F6A649"/>
<stop offset="0.8426" stop-color="#F08D56"/>
<stop offset="1" stop-color="#E97264"/>
</radialGradient>
<linearGradient id="paint19_linear_596_13993" x1="20.1049" y1="26.7619" x2="7.80453" y2="14.4615" gradientUnits="userSpaceOnUse">
<stop stop-color="#4F4A72" stop-opacity="0"/>
<stop offset="1" stop-color="#3B395F"/>
</linearGradient>
<linearGradient id="paint20_linear_596_13993" x1="5.96604" y1="7.86868" x2="16.9023" y2="18.1765" gradientUnits="userSpaceOnUse">
<stop stop-color="#00E7B2"/>
<stop offset="0.4139" stop-color="#1FA999"/>
<stop offset="1" stop-color="#4F4A72"/>
</linearGradient>
<clipPath id="clip0_596_13993">
<rect width="32" height="32" fill="white" transform="translate(0.22876 0.25)"/>
</clipPath>
</defs>
</svg>
