<svg width="33" height="33" viewBox="0 0 33 33" fill="none" xmlns="http://www.w3.org/2000/svg">
<g clip-path="url(#clip0_596_13950)">
<path d="M30.2219 29.8569H6.15527C5.58716 29.8569 5.12671 29.3962 5.12671 28.8281V8.86084C5.12671 8.29272 5.58716 7.83228 6.15527 7.83228H30.2219C30.79 7.83228 31.2507 8.29272 31.2507 8.86084V28.8281C31.2507 29.3962 30.79 29.8569 30.2219 29.8569Z" fill="url(#paint0_linear_596_13950)"/>
<path d="M5.12646 10.1577V28.8281C5.12646 29.3962 5.58716 29.8569 6.15527 29.8569H30.2219C30.79 29.8569 31.2505 29.3962 31.2505 28.8281V10.1577H5.12646Z" fill="url(#paint1_linear_596_13950)"/>
<path d="M5.12646 12.0103V28.8281C5.12646 29.3962 5.58716 29.8569 6.15527 29.8569H30.2219C30.79 29.8569 31.2505 29.3962 31.2505 28.8281V12.0103H5.12646Z" fill="url(#paint2_linear_596_13950)"/>
<path d="M5.12646 14.3569V28.8281C5.12646 29.3962 5.58716 29.8569 6.15527 29.8569H30.2219C30.79 29.8569 31.2505 29.3962 31.2505 28.8281V14.3569H5.12646Z" fill="url(#paint3_linear_596_13950)"/>
<path d="M31.2507 17.074V28.8281C31.2507 29.396 30.79 29.8569 30.2219 29.8569H6.15552C5.5874 29.8569 5.12671 29.3962 5.12671 28.8281V17.074H31.2507Z" fill="url(#paint4_linear_596_13950)"/>
<path d="M31.2507 23.1873V28.8281C31.2507 29.3962 30.79 29.8569 30.2219 29.8569H6.15552C5.5874 29.8569 5.12671 29.3962 5.12671 28.8281V23.1873H31.2507Z" fill="url(#paint5_linear_596_13950)"/>
<path d="M6.15552 29.8569H30.2219C30.79 29.8569 31.2507 29.3962 31.2507 28.8281V23.1872L27.1313 19.068C26.9431 18.8293 26.6519 19.1774 26.324 19.1774H5.12671V28.8281C5.12671 29.3962 5.5874 29.8569 6.15552 29.8569Z" fill="url(#paint6_linear_596_13950)"/>
<path d="M6.84521 10.8047C6.15723 10.5752 5.55908 10.0955 5.12646 9.45508V19.1528H15.1565C15.1567 19.1528 6.89917 10.8228 6.84521 10.8047Z" fill="url(#paint7_linear_596_13950)"/>
<path d="M26.324 32.25H2.25757C1.68921 32.25 1.22876 31.7893 1.22876 31.2212V19.7043C1.22876 19.1362 1.68945 18.6755 2.25757 18.6755H26.324C26.8923 18.6755 27.3528 19.1362 27.3528 19.7043V31.2212C27.3528 31.7893 26.8923 32.25 26.324 32.25Z" fill="url(#paint8_linear_596_13950)"/>
<path d="M3.65454 20.2527H24.927C25.3936 20.2527 25.772 20.6311 25.772 21.0977V29.8276C25.772 30.2944 25.3936 30.6729 24.927 30.6729H3.65454C3.18774 30.6729 2.80957 30.2944 2.80957 29.8276V21.0977C2.80957 20.6311 3.18774 20.2527 3.65454 20.2527Z" fill="url(#paint9_linear_596_13950)"/>
<path d="M18.6753 25.4626C18.6753 27.8843 16.7122 29.8472 14.2908 29.8472C11.8694 29.8472 9.90625 27.8843 9.90625 25.4626C9.90625 23.0413 11.8694 21.0784 14.2908 21.0784C16.7122 21.0784 18.6753 23.0413 18.6753 25.4626Z" fill="url(#paint10_radial_596_13950)"/>
<path d="M15.5911 22.6279C15.3894 22.5554 15.1741 22.5063 14.9463 22.4792C14.9148 22.459 14.8818 22.4451 14.8474 22.4382V22.4277C14.8474 22.3774 14.6238 22.136 14.5708 22.0969C14.5178 22.0579 14.4607 22.0383 14.3994 22.0383C14.3325 22.0383 14.2754 22.0579 14.228 22.0969C14.1807 22.136 14.157 22.1804 14.157 22.2307V22.4731C13.7053 22.5234 13.3276 22.6738 13.0239 22.9248C12.72 23.1755 12.5681 23.5432 12.5681 24.0276C12.5681 24.2 12.5876 24.3572 12.6267 24.4993C12.6655 24.6411 12.7297 24.7646 12.8191 24.8706C12.9082 24.9763 12.9932 25.0667 13.074 25.1418C13.0818 25.1489 14.157 26.2258 14.157 26.2258V27.6245C13.9099 27.6077 13.6924 27.5437 13.5042 27.4324C13.3159 27.3213 13.1682 27.217 13.0605 27.1196C12.9529 27.0222 12.866 26.9736 12.8 26.9736C12.7002 26.9736 12.6116 27.0264 12.5339 27.1321C12.4563 27.2378 12.4177 27.3435 12.4177 27.4492C12.4177 27.6289 12.5256 27.8057 12.741 27.98L17.0107 32.25H25.321L15.9893 22.918C15.9324 22.8 15.8003 22.7031 15.5911 22.6279Z" fill="url(#paint11_linear_596_13950)"/>
<path d="M12.4175 27.4492C12.4175 27.3435 12.4563 27.2378 12.5339 27.1321C12.6116 27.0264 12.7 26.9736 12.7998 26.9736C12.866 26.9736 12.9529 27.0222 13.0605 27.1196C13.1682 27.217 13.3159 27.3213 13.5042 27.4324C13.6924 27.5437 13.9099 27.6077 14.157 27.6245V25.6633C13.9897 25.6021 13.8613 25.5535 13.7722 25.5173C13.6831 25.4812 13.5645 25.4282 13.4167 25.3589C13.269 25.2893 13.1548 25.2168 13.074 25.1418C12.9932 25.0667 12.908 24.9763 12.8191 24.8706C12.7297 24.7646 12.6655 24.6411 12.6267 24.4993C12.5874 24.3572 12.5681 24.2 12.5681 24.0276C12.5681 23.5432 12.72 23.1758 13.0237 22.9248C13.3276 22.6738 13.7053 22.5234 14.157 22.4731V22.2307C14.157 22.1804 14.1804 22.136 14.228 22.0969C14.2754 22.0581 14.3325 22.0383 14.3994 22.0383C14.4607 22.0383 14.5178 22.0579 14.5708 22.0969C14.6238 22.136 14.6501 22.1804 14.6501 22.2307V22.4565C14.9902 22.4678 15.3037 22.5247 15.5911 22.6279C15.8782 22.731 16.0217 22.8745 16.0217 23.0586C16.0217 23.1589 15.9878 23.2634 15.9204 23.3721C15.853 23.481 15.7629 23.5352 15.6506 23.5352C15.6062 23.5352 15.4839 23.4878 15.2844 23.3931C15.0845 23.2983 14.873 23.2424 14.6501 23.2258V24.9204C14.8721 25.0039 15.0564 25.0833 15.2031 25.1584C15.3501 25.2336 15.5054 25.3379 15.6689 25.4714C15.8325 25.605 15.9561 25.7732 16.0391 25.9763C16.1221 26.1792 16.1638 26.4172 16.1638 26.6897C16.1638 27.1877 16.0278 27.5837 15.7563 27.8774C15.4846 28.1711 15.116 28.3516 14.6504 28.4189V28.6982C14.6504 28.7476 14.6238 28.7913 14.5708 28.8296C14.5178 28.8679 14.4607 28.8872 14.3994 28.8872C14.3325 28.8872 14.2754 28.8679 14.228 28.8298C14.1807 28.7913 14.157 28.7476 14.157 28.6982V28.4438C13.6719 28.4382 13.2607 28.3274 12.9236 28.1108C12.5862 27.8948 12.4175 27.6741 12.4175 27.4492ZM13.396 23.9441C13.396 24.1611 13.4634 24.3267 13.5989 24.4407C13.7339 24.5547 13.9368 24.6619 14.207 24.762V23.2417C13.6663 23.3086 13.396 23.5427 13.396 23.9441ZM14.6001 27.6077C15.0906 27.5188 15.3362 27.2434 15.3362 26.7815C15.3362 26.5369 15.272 26.345 15.1438 26.2058C15.0154 26.0669 14.8342 25.9473 14.6001 25.8469V27.6077Z" fill="url(#paint12_linear_596_13950)"/>
<path d="M6.47241 22.334H4.26196C4.0564 22.334 3.88989 22.1675 3.88989 21.9619V21.4055C3.88989 21.2002 4.0564 21.0334 4.26196 21.0334H6.47241C6.67798 21.0334 6.84448 21.2 6.84448 21.4055V21.9619C6.84448 22.1675 6.67798 22.334 6.47241 22.334Z" fill="url(#paint13_linear_596_13950)"/>
<path d="M24.3198 29.8921H19.7322C19.5269 29.8921 19.3604 29.7253 19.3604 29.52V28.9636C19.3604 28.7581 19.5269 28.5916 19.7322 28.5916H24.3198C24.5251 28.5916 24.6917 28.7581 24.6917 28.9636V29.52C24.6917 29.7253 24.5251 29.8921 24.3198 29.8921Z" fill="url(#paint14_linear_596_13950)"/>
<path d="M20.2778 9.77515C20.2986 9.79175 29.4451 18.9197 31.2507 20.7219V17.5667L21.5164 7.83228H19.2117C19.6895 8.32202 20.0483 8.96729 20.2305 9.70093C20.2378 9.7312 20.2549 9.75684 20.2778 9.77515Z" fill="url(#paint15_linear_596_13950)"/>
<path d="M26.6355 9.04443L31.2507 13.6597V11.7947L27.2883 7.83203H26.1511C26.3027 8.17261 26.427 8.53198 26.52 8.90747C26.5356 8.97021 26.5793 9.01978 26.6355 9.04443Z" fill="url(#paint16_linear_596_13950)"/>
<path d="M6.84521 10.8047C5.73364 10.4338 4.85645 9.41089 4.53418 8.11133C4.51929 8.05103 4.46582 8.00806 4.40381 8.00806H4.39746C4.33521 8.00806 4.28198 8.05103 4.26709 8.11133C3.94482 9.41089 3.06763 10.4338 1.95581 10.8047C1.90186 10.8228 1.86621 10.8743 1.86621 10.9312V10.9797C1.86621 11.0366 1.90186 11.0881 1.95581 11.106C3.06763 11.4771 3.94482 12.5 4.26709 13.7996C4.28198 13.8599 4.33521 13.9026 4.39746 13.9026H4.40381C4.46582 13.9026 4.51929 13.8599 4.53418 13.7996C4.85645 12.5 5.73364 11.4771 6.84521 11.106C6.89917 11.0881 6.93481 11.0366 6.93481 10.9797V10.9312C6.93481 10.8743 6.89917 10.8228 6.84521 10.8047Z" fill="url(#paint17_linear_596_13950)"/>
<path d="M22.8086 6.70605C21.697 6.33521 20.8198 5.31226 20.4976 4.0127C20.4824 3.95239 20.4292 3.90942 20.3672 3.90942H20.3608C20.2986 3.90942 20.2454 3.95239 20.2305 4.0127C19.9082 5.31226 19.031 6.33521 17.9192 6.70605C17.8652 6.72412 17.8296 6.77563 17.8296 6.83252V6.8811C17.8296 6.93799 17.8652 6.9895 17.9192 7.00757C19.031 7.37842 19.9082 8.40137 20.2305 9.70093C20.2454 9.76123 20.2986 9.8042 20.3608 9.8042H20.3672C20.4292 9.8042 20.4824 9.76123 20.4976 9.70093C20.8198 8.40137 21.697 7.37842 22.8086 7.00757C22.8625 6.9895 22.8982 6.93799 22.8982 6.8811V6.83252C22.8982 6.77563 22.8625 6.72412 22.8086 6.70605Z" fill="url(#paint18_linear_596_13950)"/>
<path d="M30.3743 4.43066C28.7124 3.87598 27.4011 2.34692 26.9192 0.404297C26.897 0.314209 26.8174 0.25 26.7244 0.25H26.7148C26.6221 0.25 26.5425 0.314209 26.52 0.404297C26.0383 2.34692 24.7268 3.87598 23.0652 4.43066C22.9844 4.45752 22.9312 4.53442 22.9312 4.61938V4.69238C22.9312 4.77734 22.9844 4.85425 23.0652 4.8811C24.7268 5.43579 26.0383 6.96484 26.52 8.90747C26.5425 8.99756 26.6221 9.06177 26.7148 9.06177H26.7244C26.8174 9.06177 26.897 8.99756 26.9192 8.90747C27.4011 6.96484 28.7124 5.43579 30.3743 4.8811C30.4548 4.85425 30.5083 4.77734 30.5083 4.69238V4.61938C30.5083 4.53442 30.4548 4.45752 30.3743 4.43066Z" fill="url(#paint19_linear_596_13950)"/>
</g>
<defs>
<linearGradient id="paint0_linear_596_13950" x1="17.5748" y1="18.266" x2="40.2904" y2="39.6761" gradientUnits="userSpaceOnUse">
<stop stop-color="#00E7B2"/>
<stop offset="0.4139" stop-color="#1FA999"/>
<stop offset="1" stop-color="#4F4A72"/>
</linearGradient>
<linearGradient id="paint1_linear_596_13950" x1="18.876" y1="12.7318" x2="20.8521" y2="-6.78219" gradientUnits="userSpaceOnUse">
<stop stop-color="#3B395F" stop-opacity="0"/>
<stop offset="1" stop-color="#3B395F"/>
</linearGradient>
<linearGradient id="paint2_linear_596_13950" x1="16.381" y1="13.199" x2="12.1818" y2="-3.72136" gradientUnits="userSpaceOnUse">
<stop stop-color="#3B395F" stop-opacity="0"/>
<stop offset="1" stop-color="#3B395F"/>
</linearGradient>
<linearGradient id="paint3_linear_596_13950" x1="18.2007" y1="17.8496" x2="18.2624" y2="-1.35559" gradientUnits="userSpaceOnUse">
<stop stop-color="#3B395F" stop-opacity="0"/>
<stop offset="1" stop-color="#3B395F"/>
</linearGradient>
<linearGradient id="paint4_linear_596_13950" x1="20.5122" y1="24.3702" x2="-13.3257" y2="8.46043" gradientUnits="userSpaceOnUse">
<stop stop-color="#3B395F" stop-opacity="0"/>
<stop offset="1" stop-color="#3B395F"/>
</linearGradient>
<linearGradient id="paint5_linear_596_13950" x1="18.1886" y1="26.6084" x2="18.1886" y2="31.6836" gradientUnits="userSpaceOnUse">
<stop stop-color="#3B395F" stop-opacity="0"/>
<stop offset="1" stop-color="#3B395F"/>
</linearGradient>
<linearGradient id="paint6_linear_596_13950" x1="26.9685" y1="32.7718" x2="15.4296" y2="23.6385" gradientUnits="userSpaceOnUse">
<stop stop-color="#3B395F" stop-opacity="0"/>
<stop offset="1" stop-color="#3B395F"/>
</linearGradient>
<linearGradient id="paint7_linear_596_13950" x1="9.3713" y1="18.2605" x2="-3.12727" y2="3.78192" gradientUnits="userSpaceOnUse">
<stop stop-color="#3B395F" stop-opacity="0"/>
<stop offset="1" stop-color="#3B395F"/>
</linearGradient>
<linearGradient id="paint8_linear_596_13950" x1="13.7839" y1="24.985" x2="32.5418" y2="42.6649" gradientUnits="userSpaceOnUse">
<stop stop-color="#00E7B2"/>
<stop offset="0.4139" stop-color="#1FA999"/>
<stop offset="1" stop-color="#4F4A72"/>
</linearGradient>
<linearGradient id="paint9_linear_596_13950" x1="14.7181" y1="25.8656" x2="-1.09518" y2="10.9611" gradientUnits="userSpaceOnUse">
<stop stop-color="#00E7B2"/>
<stop offset="0.4139" stop-color="#1FA999"/>
<stop offset="1" stop-color="#4F4A72"/>
</linearGradient>
<radialGradient id="paint10_radial_596_13950" cx="0" cy="0" r="1" gradientUnits="userSpaceOnUse" gradientTransform="translate(13.4262 24.66) scale(8.77958)">
<stop stop-color="#FFC738"/>
<stop offset="0.2344" stop-color="#FEC33A"/>
<stop offset="0.4454" stop-color="#FBB840"/>
<stop offset="0.6474" stop-color="#F6A649"/>
<stop offset="0.8426" stop-color="#F08D56"/>
<stop offset="1" stop-color="#E97264"/>
</radialGradient>
<linearGradient id="paint11_linear_596_13950" x1="18.6825" y1="29.7577" x2="9.62076" y2="20.696" gradientUnits="userSpaceOnUse">
<stop stop-color="#E97264" stop-opacity="0"/>
<stop offset="1" stop-color="#B53759"/>
</linearGradient>
<linearGradient id="paint12_linear_596_13950" x1="15.793" y1="25.4628" x2="9.89455" y2="25.4628" gradientUnits="userSpaceOnUse">
<stop stop-color="#4F4A72"/>
<stop offset="1" stop-color="#3B395F"/>
</linearGradient>
<linearGradient id="paint13_linear_596_13950" x1="5.36712" y1="16.7055" x2="5.36712" y2="37.0474" gradientUnits="userSpaceOnUse">
<stop stop-color="#4F4A72"/>
<stop offset="1" stop-color="#3B395F"/>
</linearGradient>
<linearGradient id="paint14_linear_596_13950" x1="22.026" y1="24.2636" x2="22.026" y2="44.6055" gradientUnits="userSpaceOnUse">
<stop stop-color="#4F4A72"/>
<stop offset="1" stop-color="#3B395F"/>
</linearGradient>
<linearGradient id="paint15_linear_596_13950" x1="22.3441" y1="10.5565" x2="15.2904" y2="4.05971" gradientUnits="userSpaceOnUse">
<stop stop-color="#3B395F" stop-opacity="0"/>
<stop offset="1" stop-color="#3B395F"/>
</linearGradient>
<linearGradient id="paint16_linear_596_13950" x1="28.6574" y1="10.3922" x2="22.3926" y2="6.77259" gradientUnits="userSpaceOnUse">
<stop stop-color="#3B395F" stop-opacity="0"/>
<stop offset="1" stop-color="#3B395F"/>
</linearGradient>
<linearGradient id="paint17_linear_596_13950" x1="3.72679" y1="10.2816" x2="6.33027" y2="12.8851" gradientUnits="userSpaceOnUse">
<stop stop-color="#FFB5B0"/>
<stop offset="1" stop-color="#FF70AC"/>
</linearGradient>
<linearGradient id="paint18_linear_596_13950" x1="19.6901" y1="6.18303" x2="22.2936" y2="8.7865" gradientUnits="userSpaceOnUse">
<stop stop-color="#FFB5B0"/>
<stop offset="1" stop-color="#FF70AC"/>
</linearGradient>
<linearGradient id="paint19_linear_596_13950" x1="25.7125" y1="3.6486" x2="29.6043" y2="7.54041" gradientUnits="userSpaceOnUse">
<stop stop-color="#FFB5B0"/>
<stop offset="1" stop-color="#FF70AC"/>
</linearGradient>
<clipPath id="clip0_596_13950">
<rect width="32" height="32" fill="white" transform="translate(0.22876 0.25)"/>
</clipPath>
</defs>
</svg>
