<svg width="33" height="33" viewBox="0 0 33 33" fill="none" xmlns="http://www.w3.org/2000/svg">
<g clip-path="url(#clip0_596_13892)">
<path d="M28.9791 6.25023C25.8707 5.74339 23.0431 4.40038 20.7348 2.45971C18.1225 0.263429 14.3349 0.263429 11.7226 2.45971C9.41425 4.40038 6.58663 5.74339 3.47824 6.25023C1.82297 6.52 0.539768 7.84056 0.345189 9.50632C-0.265893 14.739 1.55051 19.9638 5.27559 23.6891L11.143 29.5566C13.9518 32.3651 18.5058 32.3651 21.3144 29.5566L27.1818 23.6891C30.9071 19.9638 32.7233 14.739 32.1122 9.50632C31.9176 7.84056 30.6344 6.52 28.9791 6.25023Z" fill="url(#paint0_linear_596_13892)"/>
<path d="M16.2288 29.7231C14.8257 29.7231 13.5069 29.1769 12.5147 28.1847L6.64728 22.3173C5.02522 20.6953 3.76985 18.6928 3.01668 16.5261C2.26351 14.3593 2.00594 12.0097 2.27205 9.73142C2.36434 8.93968 2.98885 8.29539 3.79036 8.16478C7.1673 7.61424 10.3419 6.15502 12.971 3.94458C13.8855 3.17578 15.0425 2.75244 16.2288 2.75244C17.4151 2.75244 18.5721 3.17578 19.4866 3.94458C22.1157 6.15502 25.2903 7.61424 28.6672 8.16478C29.4688 8.29539 30.093 8.93968 30.1855 9.73118C30.4517 12.0097 30.1941 14.3593 29.4409 16.5261C28.6877 18.6926 27.4324 20.6953 25.8103 22.3173L19.9429 28.1847C18.9507 29.1769 17.6319 29.7231 16.2288 29.7231Z" fill="url(#paint1_linear_596_13892)"/>
<path d="M16.2288 29.0766C14.9985 29.0766 13.8418 28.5976 12.9719 27.7275L7.10453 21.8603C5.55107 20.3068 4.34868 18.3889 3.62749 16.3137C2.90605 14.2387 2.65947 11.9885 2.91411 9.80638C2.97344 9.30003 3.37651 8.88743 3.89433 8.80296C7.38627 8.23363 10.6687 6.72484 13.3872 4.43945C14.1853 3.76855 15.1943 3.39893 16.2288 3.39893C17.2632 3.39893 18.2722 3.76855 19.0703 4.43945C21.7888 6.72484 25.0713 8.23363 28.5632 8.80296C29.081 8.88743 29.4841 9.29979 29.5432 9.80638C29.7981 11.9883 29.5515 14.2385 28.8303 16.3137C28.1089 18.3889 26.9065 20.3066 25.353 21.8601L19.4856 27.7275C18.6157 28.5976 17.459 29.0766 16.2288 29.0766Z" fill="url(#paint2_linear_596_13892)"/>
<path d="M19.3948 12.4922C18.6531 11.6602 17.511 11.1265 16.2287 11.1265C13.9932 11.1265 12.1809 12.7473 12.1809 14.7466V15.6023C12.1809 16.6069 12.6387 17.5159 13.3777 18.1716L23.0385 27.8325L27.1818 23.6892C27.7561 23.1147 28.2849 22.5044 28.7666 21.864L19.3948 12.4922Z" fill="url(#paint3_linear_596_13892)"/>
<path d="M14.2241 12.456H13.5132V10.3503C13.5132 9.90381 13.1499 9.54053 12.7034 9.54053H10.2659V8.82959H12.7034C13.542 8.82959 14.2244 9.51172 14.2244 10.3503V12.456H14.2241Z" fill="url(#paint4_linear_596_13892)"/>
<path d="M11.2019 9.37475C11.2019 9.94409 10.7405 10.4058 10.1709 10.4058C9.60156 10.4058 9.13989 9.94409 9.13989 9.37475C9.13989 8.80517 9.60156 8.34351 10.1709 8.34351C10.7405 8.34351 11.2019 8.80517 11.2019 9.37475Z" fill="url(#paint5_linear_596_13892)"/>
<path d="M15.856 7.57324H16.5669V12.456H15.856V7.57324Z" fill="url(#paint6_linear_596_13892)"/>
<path d="M17.2427 7.57324C17.2427 8.14257 16.781 8.60424 16.2114 8.60424C15.6421 8.60424 15.1804 8.14257 15.1804 7.57324C15.1804 7.00366 15.6421 6.54199 16.2114 6.54199C16.781 6.54199 17.2427 7.00366 17.2427 7.57324Z" fill="url(#paint7_radial_596_13892)"/>
<path d="M18.9272 12.456H18.2161V8.73852C18.2161 7.8999 18.8982 7.21753 19.7368 7.21753H22.1745V7.92871H19.7368C19.2905 7.92871 18.9272 8.29199 18.9272 8.73828V12.456Z" fill="url(#paint8_linear_596_13892)"/>
<path d="M23.2058 7.57324C23.2058 8.14257 22.7441 8.60424 22.1746 8.60424C21.6052 8.60424 21.1436 8.14257 21.1436 7.57324C21.1436 7.00366 21.6052 6.54199 22.1746 6.54199C22.7441 6.54199 23.2058 7.00366 23.2058 7.57324Z" fill="url(#paint9_linear_596_13892)"/>
<path d="M18.1213 17.9771H18.8323V20.083C18.8323 20.5295 19.1956 20.8928 19.6421 20.8928H22.0798V21.6037H19.6421C18.8035 21.6037 18.1213 20.9216 18.1213 20.083V17.9771Z" fill="url(#paint10_linear_596_13892)"/>
<path d="M23.2058 21.0586C23.2058 21.6282 22.7441 22.0896 22.1746 22.0896C21.6052 22.0896 21.1436 21.6282 21.1436 21.0586C21.1436 20.4893 21.6052 20.0276 22.1746 20.0276C22.7441 20.0276 23.2058 20.4893 23.2058 21.0586Z" fill="url(#paint11_linear_596_13892)"/>
<path d="M15.7786 17.9771H16.4895V22.8601H15.7786V17.9771Z" fill="url(#paint12_linear_596_13892)"/>
<path d="M17.165 22.8601C17.165 23.4294 16.7034 23.8911 16.134 23.8911C15.5645 23.8911 15.103 23.4294 15.103 22.8601C15.103 22.2905 15.5645 21.8291 16.134 21.8291C16.7034 21.8291 17.165 22.2905 17.165 22.8601Z" fill="url(#paint13_radial_596_13892)"/>
<path d="M13.4184 17.9771H14.1294V21.6948C14.1294 22.5334 13.4473 23.2156 12.6086 23.2156H10.1709V22.5046H12.6086C13.0549 22.5046 13.4182 22.1413 13.4182 21.6948V17.9771H13.4184Z" fill="url(#paint14_linear_596_13892)"/>
<path d="M11.2019 22.8601C11.2019 23.4294 10.7405 23.8911 10.1709 23.8911C9.60156 23.8911 9.13989 23.4294 9.13989 22.8601C9.13989 22.2905 9.60156 21.8291 10.1709 21.8291C10.7405 21.8291 11.2019 22.2905 11.2019 22.8601Z" fill="url(#paint15_linear_596_13892)"/>
<path d="M20.2766 14.7466C20.2766 12.7473 18.4643 11.1265 16.2287 11.1265C13.9932 11.1265 12.1809 12.7473 12.1809 14.7466V15.6023C12.1809 17.6015 13.9932 19.2224 16.2287 19.2224C18.4643 19.2224 20.2766 17.6015 20.2766 15.6023C20.2766 15.5996 20.2766 14.7493 20.2766 14.7466Z" fill="url(#paint16_linear_596_13892)"/>
<path d="M19.5625 12.6931C18.8325 11.7468 17.6116 11.1265 16.2287 11.1265C14.8459 11.1265 13.625 11.7468 12.895 12.6931V17.6557C13.625 18.602 14.8459 19.2224 16.2287 19.2224C17.6116 19.2224 18.8325 18.602 19.5625 17.6557V12.6931Z" fill="url(#paint17_linear_596_13892)"/>
<path d="M13.8545 18.5344C14.5215 18.967 15.3418 19.2224 16.2288 19.2224C17.1157 19.2224 17.936 18.967 18.603 18.5344V11.8145C17.936 11.3818 17.1157 11.1265 16.2288 11.1265C15.3418 11.1265 14.5215 11.3818 13.8545 11.8145V18.5344Z" fill="url(#paint18_linear_596_13892)"/>
<path d="M15.3091 19.1284C15.6045 19.1897 15.9124 19.2224 16.2288 19.2224C16.5452 19.2224 16.853 19.1897 17.1484 19.1284V11.2205C16.853 11.1589 16.5452 11.1265 16.2288 11.1265C15.9124 11.1265 15.6045 11.1589 15.3091 11.2205V19.1284Z" fill="url(#paint19_linear_596_13892)"/>
<path d="M20.2766 14.7466C20.2766 12.7473 18.4643 11.1265 16.2287 11.1265C13.9932 11.1265 12.1809 12.7473 12.1809 14.7466C12.1809 16.7458 13.9932 18.3664 16.2287 18.3664C18.4643 18.3664 20.2766 16.7458 20.2766 14.7466Z" fill="url(#paint20_radial_596_13892)"/>
<path d="M19.8252 14.7466C19.8252 12.9702 18.2151 11.5303 16.2287 11.5303C14.2424 11.5303 12.6323 12.9702 12.6323 14.7466C12.6323 16.5229 14.2424 17.9629 16.2287 17.9629C18.2151 17.9629 19.8252 16.5229 19.8252 14.7466Z" fill="url(#paint21_radial_596_13892)"/>
<path d="M19.4846 14.7466C19.4846 13.1384 18.0268 11.8347 16.2288 11.8347C14.4307 11.8347 12.9729 13.1384 12.9729 14.7466C12.9729 16.3545 14.4307 17.6582 16.2288 17.6582C18.0268 17.6582 19.4846 16.3545 19.4846 14.7466Z" fill="url(#paint22_radial_596_13892)"/>
<path d="M20.0779 15.8691L17.261 13.0522C17.2209 12.9897 17.1435 12.9377 17.0283 12.8962C16.9043 12.8516 16.7717 12.8213 16.6316 12.8047C16.624 12.8 16.6165 12.7957 16.6086 12.7922L16.4009 12.5696C16.3684 12.5459 16.3332 12.5337 16.2954 12.5337C16.2544 12.5337 16.2192 12.5457 16.1902 12.5696C16.1609 12.5937 16.1465 12.6211 16.1465 12.6519V12.801C15.8686 12.832 15.6365 12.9246 15.4495 13.0789C15.2627 13.2332 15.1692 13.4592 15.1692 13.7571C15.1692 13.863 15.1812 13.9597 15.2053 14.0471C15.2292 14.1343 15.2688 14.2104 15.3235 14.2754C15.3784 14.3403 15.4307 14.396 15.4805 14.4421C15.4807 14.4426 15.4812 14.4429 15.4814 14.4431C15.4814 14.4431 16.1282 15.0898 16.1287 15.0903C16.1345 15.0967 16.1404 15.1025 16.1465 15.1089V15.969C15.9944 15.9587 15.8606 15.9194 15.7449 15.8511C15.6291 15.7827 15.5383 15.7185 15.4722 15.6587C15.406 15.5989 15.3525 15.5688 15.3118 15.5688C15.2505 15.5688 15.1958 15.6013 15.1482 15.6663C15.1006 15.7314 15.0767 15.7964 15.0767 15.8613C15.0767 15.9653 15.1353 16.0676 15.2524 16.1687L17.3176 18.2339C18.6218 17.9087 19.6606 17.0144 20.0779 15.8691Z" fill="url(#paint23_linear_596_13892)"/>
<path d="M15.0769 15.8613C15.0769 15.7961 15.1006 15.7312 15.1484 15.6663C15.196 15.6013 15.2505 15.5686 15.312 15.5686C15.3525 15.5686 15.406 15.5986 15.4722 15.6584C15.5383 15.7185 15.6294 15.7825 15.7451 15.8508C15.8608 15.9194 15.9946 15.9587 16.1465 15.969V14.7629C16.0437 14.7253 15.9648 14.6953 15.9099 14.6731C15.855 14.6509 15.7822 14.6184 15.6914 14.5757C15.6006 14.533 15.5303 14.4883 15.4805 14.4421C15.4309 14.396 15.3787 14.3403 15.3237 14.2754C15.2688 14.2104 15.2292 14.1343 15.2056 14.0469C15.1814 13.9597 15.1694 13.863 15.1694 13.7568C15.1694 13.4592 15.2627 13.2332 15.4497 13.0789C15.6365 12.9246 15.8689 12.8318 16.1465 12.801V12.6519C16.1465 12.6211 16.1611 12.5935 16.1902 12.5696C16.2195 12.5457 16.2546 12.5337 16.2957 12.5337C16.3335 12.5337 16.3684 12.5457 16.4011 12.5696C16.4336 12.5937 16.4499 12.6211 16.4499 12.6519V12.7908C16.6592 12.7976 16.852 12.8328 17.0286 12.8962C17.2051 12.9597 17.2935 13.0479 17.2935 13.1609C17.2935 13.2227 17.2725 13.2871 17.2312 13.3538C17.1897 13.4207 17.1343 13.4541 17.0652 13.4541C17.0378 13.4541 16.9626 13.425 16.8401 13.3667C16.717 13.3083 16.5872 13.2742 16.4499 13.2639V14.3061C16.5864 14.3574 16.6997 14.4062 16.79 14.4524C16.8804 14.4985 16.9761 14.5627 17.0767 14.6448C17.1772 14.727 17.2529 14.8306 17.3042 14.9553C17.3552 15.0801 17.3809 15.2266 17.3809 15.394C17.3809 15.7004 17.2974 15.9438 17.1304 16.1245C16.9631 16.3052 16.7366 16.4162 16.4499 16.4575V16.6294C16.4499 16.6597 16.4338 16.6865 16.4011 16.7102C16.3686 16.7336 16.3335 16.7453 16.2957 16.7453C16.2546 16.7453 16.2195 16.7336 16.1904 16.7102C16.1611 16.6865 16.1467 16.6597 16.1467 16.6294V16.4729C15.8484 16.4695 15.5955 16.4014 15.3882 16.2683C15.1804 16.1352 15.0769 15.9995 15.0769 15.8613ZM15.6785 13.7058C15.6785 13.8391 15.72 13.9412 15.8032 14.011C15.8862 14.0813 16.011 14.1472 16.1772 14.2087V13.2737C15.8447 13.3149 15.6785 13.459 15.6785 13.7058ZM16.4189 15.9587C16.7207 15.904 16.8716 15.7346 16.8716 15.4507C16.8716 15.3 16.8323 15.1821 16.7534 15.0967C16.6743 15.011 16.563 14.9375 16.4189 14.8757V15.9587Z" fill="url(#paint24_linear_596_13892)"/>
</g>
<defs>
<linearGradient id="paint0_linear_596_13892" x1="6.1716" y1="3.50856" x2="28.4453" y2="25.7823" gradientUnits="userSpaceOnUse">
<stop stop-color="#F9F7FC"/>
<stop offset="1" stop-color="#F0DDFC"/>
</linearGradient>
<linearGradient id="paint1_linear_596_13892" x1="28.2186" y1="25.5574" x2="6.13561" y2="3.4744" gradientUnits="userSpaceOnUse">
<stop stop-color="#F9F7FC"/>
<stop offset="1" stop-color="#F0DDFC"/>
</linearGradient>
<linearGradient id="paint2_linear_596_13892" x1="12.4738" y1="9.81212" x2="26.4587" y2="23.7971" gradientUnits="userSpaceOnUse">
<stop stop-color="#F9F7FC"/>
<stop offset="1" stop-color="#F0DDFC"/>
</linearGradient>
<linearGradient id="paint3_linear_596_13892" x1="22.9856" y1="21.9318" x2="13.245" y2="12.1912" gradientUnits="userSpaceOnUse">
<stop stop-color="#F0DDFC" stop-opacity="0"/>
<stop offset="0.2889" stop-color="#C8B7E0" stop-opacity="0.290196"/>
<stop offset="0.5915" stop-color="#A595C8" stop-opacity="0.592157"/>
<stop offset="0.8395" stop-color="#8F81B8" stop-opacity="0.839216"/>
<stop offset="1" stop-color="#8779B3"/>
</linearGradient>
<linearGradient id="paint4_linear_596_13892" x1="12.245" y1="12.4561" x2="12.245" y2="8.82947" gradientUnits="userSpaceOnUse">
<stop stop-color="#4F4A72"/>
<stop offset="1" stop-color="#3B395F"/>
</linearGradient>
<linearGradient id="paint5_linear_596_13892" x1="9.88647" y1="9.09021" x2="10.7664" y2="9.97013" gradientUnits="userSpaceOnUse">
<stop stop-color="#AF9CE6"/>
<stop offset="1" stop-color="#0796FF"/>
</linearGradient>
<linearGradient id="paint6_linear_596_13892" x1="16.2114" y1="12.4561" x2="16.2114" y2="7.57318" gradientUnits="userSpaceOnUse">
<stop stop-color="#4F4A72"/>
<stop offset="1" stop-color="#3B395F"/>
</linearGradient>
<radialGradient id="paint7_radial_596_13892" cx="0" cy="0" r="1" gradientUnits="userSpaceOnUse" gradientTransform="translate(15.7209 6.11352) scale(2.20648)">
<stop stop-color="#FFC738"/>
<stop offset="0.2344" stop-color="#FEC33A"/>
<stop offset="0.4454" stop-color="#FBB840"/>
<stop offset="0.6474" stop-color="#F6A649"/>
<stop offset="0.8426" stop-color="#F08D56"/>
<stop offset="1" stop-color="#E97264"/>
</radialGradient>
<linearGradient id="paint8_linear_596_13892" x1="20.1953" y1="12.4561" x2="20.1953" y2="7.21762" gradientUnits="userSpaceOnUse">
<stop stop-color="#4F4A72"/>
<stop offset="1" stop-color="#3B395F"/>
</linearGradient>
<linearGradient id="paint9_linear_596_13892" x1="21.4872" y1="6.88577" x2="23.0031" y2="8.40169" gradientUnits="userSpaceOnUse">
<stop stop-color="#00E7B2"/>
<stop offset="0.4139" stop-color="#1FA999"/>
<stop offset="1" stop-color="#4F4A72"/>
</linearGradient>
<linearGradient id="paint10_linear_596_13892" x1="20.1005" y1="17.9771" x2="20.1005" y2="21.6038" gradientUnits="userSpaceOnUse">
<stop stop-color="#4F4A72"/>
<stop offset="1" stop-color="#3B395F"/>
</linearGradient>
<linearGradient id="paint11_linear_596_13892" x1="21.8902" y1="20.7742" x2="22.7701" y2="21.6541" gradientUnits="userSpaceOnUse">
<stop stop-color="#AF9CE6"/>
<stop offset="1" stop-color="#0796FF"/>
</linearGradient>
<linearGradient id="paint12_linear_596_13892" x1="16.1341" y1="17.9771" x2="16.1341" y2="22.8601" gradientUnits="userSpaceOnUse">
<stop stop-color="#4F4A72"/>
<stop offset="1" stop-color="#3B395F"/>
</linearGradient>
<radialGradient id="paint13_radial_596_13892" cx="0" cy="0" r="1" gradientUnits="userSpaceOnUse" gradientTransform="translate(15.6434 21.4004) scale(2.20648)">
<stop stop-color="#FFC738"/>
<stop offset="0.2344" stop-color="#FEC33A"/>
<stop offset="0.4454" stop-color="#FBB840"/>
<stop offset="0.6474" stop-color="#F6A649"/>
<stop offset="0.8426" stop-color="#F08D56"/>
<stop offset="1" stop-color="#E97264"/>
</radialGradient>
<linearGradient id="paint14_linear_596_13892" x1="12.1502" y1="17.9771" x2="12.1502" y2="23.2156" gradientUnits="userSpaceOnUse">
<stop stop-color="#4F4A72"/>
<stop offset="1" stop-color="#3B395F"/>
</linearGradient>
<linearGradient id="paint15_linear_596_13892" x1="9.48351" y1="22.1727" x2="10.9994" y2="23.6886" gradientUnits="userSpaceOnUse">
<stop stop-color="#00E7B2"/>
<stop offset="0.4139" stop-color="#1FA999"/>
<stop offset="1" stop-color="#4F4A72"/>
</linearGradient>
<linearGradient id="paint16_linear_596_13892" x1="12.1808" y1="15.1744" x2="20.2767" y2="15.1744" gradientUnits="userSpaceOnUse">
<stop stop-color="#FFC738"/>
<stop offset="0.2344" stop-color="#FEC33A"/>
<stop offset="0.4454" stop-color="#FBB840"/>
<stop offset="0.6474" stop-color="#F6A649"/>
<stop offset="0.8426" stop-color="#F08D56"/>
<stop offset="1" stop-color="#E97264"/>
</linearGradient>
<linearGradient id="paint17_linear_596_13892" x1="15.8434" y1="14.4334" x2="19.1706" y2="20.8318" gradientUnits="userSpaceOnUse">
<stop stop-color="#FCA17A" stop-opacity="0"/>
<stop offset="0.152" stop-color="#F69373" stop-opacity="0.152941"/>
<stop offset="0.416" stop-color="#EF816B" stop-opacity="0.415686"/>
<stop offset="0.6926" stop-color="#EA7666" stop-opacity="0.694118"/>
<stop offset="1" stop-color="#E97264"/>
</linearGradient>
<linearGradient id="paint18_linear_596_13892" x1="16.1042" y1="16.4376" x2="15.7112" y2="20.4235" gradientUnits="userSpaceOnUse">
<stop stop-color="#E97264" stop-opacity="0"/>
<stop offset="1" stop-color="#B53759"/>
</linearGradient>
<linearGradient id="paint19_linear_596_13892" x1="15.427" y1="16.6408" x2="14.2122" y2="18.8626" gradientUnits="userSpaceOnUse">
<stop stop-color="#E97264" stop-opacity="0"/>
<stop offset="1" stop-color="#B53759"/>
</linearGradient>
<radialGradient id="paint20_radial_596_13892" cx="0" cy="0" r="1" gradientUnits="userSpaceOnUse" gradientTransform="translate(15.0985 12.126) scale(7.63213 6.82541)">
<stop stop-color="#FFC738"/>
<stop offset="0.2344" stop-color="#FEC33A"/>
<stop offset="0.4454" stop-color="#FBB840"/>
<stop offset="0.6474" stop-color="#F6A649"/>
<stop offset="0.8426" stop-color="#F08D56"/>
<stop offset="1" stop-color="#E97264"/>
</radialGradient>
<radialGradient id="paint21_radial_596_13892" cx="0" cy="0" r="1" gradientUnits="userSpaceOnUse" gradientTransform="translate(16.5072 15.6665) rotate(180) scale(5.62881 5.03384)">
<stop stop-color="#FFC738"/>
<stop offset="0.2344" stop-color="#FEC33A"/>
<stop offset="0.4454" stop-color="#FBB840"/>
<stop offset="0.6474" stop-color="#F6A649"/>
<stop offset="0.8426" stop-color="#F08D56"/>
<stop offset="1" stop-color="#E97264"/>
</radialGradient>
<radialGradient id="paint22_radial_596_13892" cx="0" cy="0" r="1" gradientUnits="userSpaceOnUse" gradientTransform="translate(15.6749 12.9647) scale(6.33703 5.6672)">
<stop stop-color="#FFC738"/>
<stop offset="0.2344" stop-color="#FEC33A"/>
<stop offset="0.4454" stop-color="#FBB840"/>
<stop offset="0.6474" stop-color="#F6A649"/>
<stop offset="0.8426" stop-color="#F08D56"/>
<stop offset="1" stop-color="#E97264"/>
</radialGradient>
<linearGradient id="paint23_linear_596_13892" x1="18.4829" y1="16.4125" x2="13.7244" y2="13.2887" gradientUnits="userSpaceOnUse">
<stop stop-color="#E97264" stop-opacity="0"/>
<stop offset="1" stop-color="#B53759"/>
</linearGradient>
<linearGradient id="paint24_linear_596_13892" x1="17.1526" y1="14.6396" x2="13.5252" y2="14.6396" gradientUnits="userSpaceOnUse">
<stop stop-color="#FFC738"/>
<stop offset="1" stop-color="#E97264"/>
</linearGradient>
<clipPath id="clip0_596_13892">
<rect width="32" height="32" fill="white" transform="translate(0.22876 0.25)"/>
</clipPath>
</defs>
</svg>
