<svg width="33" height="33" viewBox="0 0 33 33" fill="none" xmlns="http://www.w3.org/2000/svg">
<g clip-path="url(#clip0_596_13971)">
<path d="M4.57446 10.5131C4.23438 10.6066 3.9292 10.7722 3.67285 10.9899H29.29V6.34296C29.29 5.02191 28.0325 4.06342 26.7588 4.41352L4.57446 10.5131Z" fill="url(#paint0_linear_596_13971)"/>
<path d="M4.63385 10.9899H29.2901V6.34273C29.2901 5.02168 28.0325 4.06343 26.7589 4.41353L4.57476 10.5129C4.57135 10.5139 4.56793 10.5148 4.56451 10.5158C4.29595 10.591 4.35504 10.9899 4.63385 10.9899Z" fill="url(#paint1_linear_596_13971)"/>
<path d="M26.6409 8.52027C26.6409 4.02271 22.5637 0.376709 17.5344 0.376709C12.5051 0.376709 8.42822 4.02271 8.42822 8.52027V10.4456C8.42822 14.9431 12.5051 18.5894 17.5344 18.5894C22.5637 18.5894 26.6409 14.9431 26.6409 10.4456C26.6409 10.4392 26.6409 8.52661 26.6409 8.52027Z" fill="url(#paint2_linear_596_13971)"/>
<path d="M25.0344 3.90112C23.3916 1.77222 20.6455 0.376709 17.5344 0.376709C14.4233 0.376709 11.6772 1.77222 10.0347 3.90112V15.0649C11.6772 17.1939 14.4233 18.5894 17.5344 18.5894C20.6455 18.5894 23.3916 17.1939 25.0344 15.0649V3.90112Z" fill="url(#paint3_linear_596_13971)"/>
<path d="M12.1934 17.0413C13.6938 18.0149 15.5388 18.5894 17.5344 18.5894C19.5298 18.5894 21.375 18.0149 22.8755 17.0413V1.92456C21.375 0.951172 19.5298 0.376709 17.5344 0.376709C15.5388 0.376709 13.6938 0.950928 12.1934 1.92456V17.0413Z" fill="url(#paint4_linear_596_13971)"/>
<path d="M15.4656 18.3779C16.1301 18.5161 16.8228 18.5894 17.5344 18.5894C18.2461 18.5894 18.9387 18.5161 19.6033 18.3779V0.587891C18.9387 0.449707 18.2461 0.376709 17.5344 0.376709C16.8228 0.376709 16.1301 0.449707 15.4656 0.587891V18.3779Z" fill="url(#paint5_linear_596_13971)"/>
<path d="M26.6409 8.52027C26.6409 4.02271 22.5637 0.376709 17.5344 0.376709C12.5051 0.376709 8.42822 4.02271 8.42822 8.52027C8.42822 13.0181 12.5051 16.6641 17.5344 16.6641C22.5637 16.6641 26.6409 13.0181 26.6409 8.52027Z" fill="url(#paint6_radial_596_13971)"/>
<path d="M25.6252 8.52027C25.6252 4.52441 22.0029 1.28491 17.5344 1.28491C13.0662 1.28491 9.44385 4.52441 9.44385 8.52027C9.44385 12.5164 13.0662 15.7559 17.5344 15.7559C22.0029 15.7559 25.6252 12.5164 25.6252 8.52027Z" fill="url(#paint7_radial_596_13971)"/>
<path d="M24.8589 8.52027C24.8589 4.90283 21.5796 1.97021 17.5344 1.97021C13.4893 1.97021 10.21 4.90283 10.21 8.52027C10.21 12.1379 13.4893 15.0706 17.5344 15.0706C21.5796 15.0706 24.8589 12.1379 24.8589 8.52027Z" fill="url(#paint8_radial_596_13971)"/>
<path d="M26.1936 11.0459L19.8567 4.70898C19.7668 4.56812 19.5925 4.45117 19.3335 4.35791C19.0542 4.25757 18.7563 4.18945 18.4409 4.1521C18.4241 4.14136 18.4067 4.13184 18.3892 4.12378L17.9219 3.62329C17.8486 3.56934 17.7695 3.54224 17.6848 3.54224C17.5923 3.54224 17.5132 3.56934 17.4478 3.62329C17.3821 3.67725 17.3494 3.73901 17.3494 3.80835V4.1438C16.7246 4.21313 16.2019 4.42139 15.7817 4.76855C15.3613 5.11572 15.1511 5.62427 15.1511 6.29419C15.1511 6.53272 15.178 6.75024 15.2322 6.94653C15.2859 7.14307 15.3748 7.31421 15.4983 7.46045C15.6216 7.60669 15.7393 7.73169 15.8511 7.83569C15.8521 7.83643 15.8528 7.83716 15.8535 7.83789C15.8535 7.83789 17.3084 9.29273 17.3091 9.29346C17.3228 9.30786 17.3359 9.32153 17.3494 9.33521V11.2705C17.0076 11.2473 16.7065 11.1589 16.4463 11.0049C16.186 10.8511 15.9814 10.7068 15.8325 10.572C15.6836 10.4373 15.5635 10.3699 15.4719 10.3699C15.3337 10.3699 15.2112 10.4431 15.1038 10.5894C14.9966 10.7356 14.9429 10.8818 14.9429 11.0281C14.9429 11.262 15.0747 11.4922 15.3381 11.7192L19.9844 16.3655C22.9182 15.6343 25.2546 13.6226 26.1936 11.0459Z" fill="url(#paint9_linear_596_13971)"/>
<path d="M14.9429 11.0281C14.9429 10.8818 14.9963 10.7356 15.1038 10.5894C15.2112 10.4431 15.3337 10.3699 15.4719 10.3699C15.5635 10.3699 15.6836 10.4373 15.8325 10.572C15.9814 10.7068 16.186 10.8511 16.4463 11.0049C16.7065 11.1589 17.0076 11.2473 17.3494 11.2705V8.55737C17.1179 8.47266 16.9404 8.40527 16.8171 8.35523C16.6936 8.30542 16.5298 8.23218 16.3254 8.13599C16.1211 8.0398 15.9629 7.9397 15.8511 7.83569C15.7393 7.73169 15.6216 7.60669 15.4983 7.46045C15.3748 7.31421 15.2859 7.14307 15.2322 6.94653C15.1782 6.75024 15.1511 6.53272 15.1511 6.29419C15.1511 5.62427 15.3611 5.11572 15.7817 4.76855C16.2019 4.42139 16.7246 4.21313 17.3494 4.1438V3.80835C17.3494 3.73901 17.3821 3.67725 17.4478 3.62329C17.5132 3.56934 17.5923 3.54224 17.6848 3.54224C17.7695 3.54224 17.8486 3.56934 17.9219 3.62329C17.9951 3.67725 18.032 3.73901 18.032 3.80835V4.12061C18.5022 4.13623 18.936 4.21533 19.3335 4.35791C19.7305 4.50073 19.9292 4.69922 19.9292 4.95361C19.9292 5.09253 19.8823 5.23706 19.7891 5.38745C19.6958 5.53784 19.5713 5.61304 19.4158 5.61304C19.3545 5.61304 19.1853 5.54761 18.9092 5.41626C18.6328 5.28516 18.3403 5.20801 18.032 5.18506V7.52954C18.3386 7.64502 18.5938 7.75464 18.7969 7.85864C19 7.96265 19.2151 8.10693 19.4414 8.29175C19.6677 8.47632 19.8384 8.70923 19.9534 8.99024C20.0684 9.271 20.126 9.6001 20.126 9.9773C20.126 10.6663 19.938 11.2141 19.562 11.6204C19.186 12.0269 18.6763 12.2764 18.032 12.3694V12.7559C18.032 12.824 17.9951 12.8848 17.9219 12.9377C17.8486 12.9907 17.7695 13.0173 17.6848 13.0173C17.5923 13.0173 17.5132 12.9907 17.4478 12.938C17.3821 12.8848 17.3494 12.8242 17.3494 12.7561V12.4043C16.6782 12.3965 16.1094 12.2429 15.6428 11.9436C15.176 11.6443 14.9429 11.3391 14.9429 11.0281ZM16.2966 6.17896C16.2966 6.47925 16.3899 6.70825 16.5771 6.86597C16.7639 7.02368 17.0447 7.17188 17.4187 7.3103V5.20728C16.6707 5.29981 16.2966 5.62354 16.2966 6.17896ZM17.9626 11.2473C18.6411 11.1243 18.9807 10.7432 18.9807 10.1042C18.9807 9.76587 18.8918 9.50025 18.7146 9.30786C18.5371 9.11548 18.2864 8.94995 17.9626 8.81128V11.2473Z" fill="url(#paint10_linear_596_13971)"/>
<path d="M17.5344 18.5894C19.6104 18.5894 21.5237 17.9678 23.0554 16.9219L10.0347 3.90112C9.02173 5.21362 8.42822 6.80493 8.42822 8.52027V10.4456C8.42798 14.9431 12.5051 18.5894 17.5344 18.5894Z" fill="url(#paint11_linear_596_13971)"/>
<path d="M31.6504 13.3501V29.8445C31.6504 31.148 30.5938 32.2046 29.2903 32.2046H5.20044C3.89697 32.2046 2.84033 31.148 2.84033 29.8445V12.7891C2.84033 12.0791 3.15674 11.4282 3.67188 10.99H29.2903C30.5938 10.99 31.6504 12.0466 31.6504 13.3501Z" fill="url(#paint12_linear_596_13971)"/>
<path d="M2.84009 13.269H27.5593C28.605 13.269 29.4526 14.0496 29.4526 15.0127V27.8826C29.4526 28.8455 28.605 29.6262 27.5593 29.6262H2.84009V13.269Z" fill="url(#paint13_linear_596_13971)"/>
<path d="M31.6501 29.8445V17.3855C31.5544 17.3499 31.4512 17.3301 31.343 17.3301H23.4236C22.9343 17.3301 22.5378 17.7266 22.5378 18.2158V22.384C22.5378 22.677 22.6807 22.9363 22.9001 23.0974L31.1277 31.3247C31.4543 30.9199 31.6501 30.4053 31.6501 29.8445Z" fill="url(#paint14_linear_596_13971)"/>
<path d="M31.343 23.2698H23.4236C22.9343 23.2698 22.5378 22.8733 22.5378 22.384V18.2158C22.5378 17.7266 22.9343 17.3301 23.4236 17.3301H31.343C31.8323 17.3301 32.2288 17.7266 32.2288 18.2158V22.384C32.2288 22.873 31.8323 23.2698 31.343 23.2698Z" fill="url(#paint15_linear_596_13971)"/>
<path d="M2.84009 24.5454V29.8445C2.84009 31.148 3.89673 32.2046 5.2002 32.2046H29.29C30.5935 32.2046 31.6502 31.148 31.6502 29.8445V24.5454H2.84009Z" fill="url(#paint16_linear_596_13971)"/>
<path d="M26.9902 19.0559C26.6511 18.6814 26.1611 18.4463 25.6162 18.4463C24.5925 18.4463 23.7627 19.2761 23.7627 20.2998C23.7627 20.8447 23.9978 21.3347 24.3721 21.6738L25.968 23.2698H31.2043L26.9902 19.0559Z" fill="url(#paint17_linear_596_13971)"/>
<path d="M27.47 20.2998C27.47 21.3237 26.6401 22.1536 25.6162 22.1536C24.5925 22.1536 23.7627 21.3237 23.7627 20.2998C23.7627 19.2761 24.5925 18.4463 25.6162 18.4463C26.6401 18.4463 27.47 19.2761 27.47 20.2998Z" fill="url(#paint18_linear_596_13971)"/>
<path d="M10.9514 11.8289C10.523 11.8289 10.1755 11.4814 10.1755 11.053V10.9919L10.1758 10.99H3.67188C3.15674 11.4282 2.84033 12.0791 2.84033 12.7891V16.0588L18.9861 32.2046H29.2903C30.0591 32.2046 30.7417 31.8369 31.1726 31.2681L12.2859 12.3816C11.9321 12.0276 11.4522 11.8289 10.9514 11.8289Z" fill="url(#paint19_linear_596_13971)"/>
<path d="M10.1604 8.57959V18.6262C10.1604 19.0571 9.811 19.0086 9.38009 19.0086H3.1711C2.7402 19.0086 2.39083 19.0571 2.39083 18.6262V8.57959C2.39083 7.98316 1.90743 7.49976 1.311 7.49976C0.348594 7.49976 -0.133096 6.33643 0.547324 5.65601L5.51193 0.691406C5.9338 0.269531 6.61739 0.269531 7.03927 0.691406L12.0039 5.65601C12.6843 6.33643 12.2026 7.49976 11.2402 7.49976C10.6438 7.49976 10.1604 7.98316 10.1604 8.57959Z" fill="url(#paint20_linear_596_13971)"/>
</g>
<defs>
<linearGradient id="paint0_linear_596_13971" x1="16.4815" y1="5.87671" x2="16.4815" y2="11.7037" gradientUnits="userSpaceOnUse">
<stop stop-color="#4F4A72"/>
<stop offset="1" stop-color="#3B395F"/>
</linearGradient>
<linearGradient id="paint1_linear_596_13971" x1="16.8406" y1="7.31873" x2="16.8406" y2="16.1724" gradientUnits="userSpaceOnUse">
<stop stop-color="#B53759" stop-opacity="0"/>
<stop offset="1" stop-color="#FFB5B0"/>
</linearGradient>
<linearGradient id="paint2_linear_596_13971" x1="8.42813" y1="9.48295" x2="26.6408" y2="9.48295" gradientUnits="userSpaceOnUse">
<stop stop-color="#FFC738"/>
<stop offset="0.2344" stop-color="#FEC33A"/>
<stop offset="0.4454" stop-color="#FBB840"/>
<stop offset="0.6474" stop-color="#F6A649"/>
<stop offset="0.8426" stop-color="#F08D56"/>
<stop offset="1" stop-color="#E97264"/>
</linearGradient>
<linearGradient id="paint3_linear_596_13971" x1="16.6676" y1="7.81594" x2="24.1525" y2="22.2099" gradientUnits="userSpaceOnUse">
<stop stop-color="#FCA17A" stop-opacity="0"/>
<stop offset="0.152" stop-color="#F69373" stop-opacity="0.152941"/>
<stop offset="0.416" stop-color="#EF816B" stop-opacity="0.415686"/>
<stop offset="0.6926" stop-color="#EA7666" stop-opacity="0.694118"/>
<stop offset="1" stop-color="#E97264"/>
</linearGradient>
<linearGradient id="paint4_linear_596_13971" x1="17.2543" y1="12.3247" x2="16.3702" y2="21.2915" gradientUnits="userSpaceOnUse">
<stop stop-color="#E97264" stop-opacity="0"/>
<stop offset="1" stop-color="#B53759"/>
</linearGradient>
<linearGradient id="paint5_linear_596_13971" x1="15.7308" y1="12.7817" x2="12.998" y2="17.7799" gradientUnits="userSpaceOnUse">
<stop stop-color="#E97264" stop-opacity="0"/>
<stop offset="1" stop-color="#B53759"/>
</linearGradient>
<radialGradient id="paint6_radial_596_13971" cx="0" cy="0" r="1" gradientUnits="userSpaceOnUse" gradientTransform="translate(14.9918 2.62522) scale(17.1695 15.3547)">
<stop stop-color="#FFC738"/>
<stop offset="0.2344" stop-color="#FEC33A"/>
<stop offset="0.4454" stop-color="#FBB840"/>
<stop offset="0.6474" stop-color="#F6A649"/>
<stop offset="0.8426" stop-color="#F08D56"/>
<stop offset="1" stop-color="#E97264"/>
</radialGradient>
<radialGradient id="paint7_radial_596_13971" cx="0" cy="0" r="1" gradientUnits="userSpaceOnUse" gradientTransform="translate(18.161 10.59) rotate(180) scale(12.6628 11.3243)">
<stop stop-color="#FFC738"/>
<stop offset="0.2344" stop-color="#FEC33A"/>
<stop offset="0.4454" stop-color="#FBB840"/>
<stop offset="0.6474" stop-color="#F6A649"/>
<stop offset="0.8426" stop-color="#F08D56"/>
<stop offset="1" stop-color="#E97264"/>
</radialGradient>
<radialGradient id="paint8_radial_596_13971" cx="0" cy="0" r="1" gradientUnits="userSpaceOnUse" gradientTransform="translate(16.2885 4.512) scale(14.256 12.7491)">
<stop stop-color="#FFC738"/>
<stop offset="0.2344" stop-color="#FEC33A"/>
<stop offset="0.4454" stop-color="#FBB840"/>
<stop offset="0.6474" stop-color="#F6A649"/>
<stop offset="0.8426" stop-color="#F08D56"/>
<stop offset="1" stop-color="#E97264"/>
</radialGradient>
<linearGradient id="paint9_linear_596_13971" x1="22.6054" y1="12.2681" x2="11.9006" y2="5.2408" gradientUnits="userSpaceOnUse">
<stop stop-color="#E97264" stop-opacity="0"/>
<stop offset="1" stop-color="#B53759"/>
</linearGradient>
<linearGradient id="paint10_linear_596_13971" x1="19.6128" y1="8.27985" x2="11.4524" y2="8.27985" gradientUnits="userSpaceOnUse">
<stop stop-color="#FFC738"/>
<stop offset="1" stop-color="#E97264"/>
</linearGradient>
<linearGradient id="paint11_linear_596_13971" x1="18.0477" y1="17.5448" x2="5.157" y2="4.65416" gradientUnits="userSpaceOnUse">
<stop stop-color="#E97264" stop-opacity="0"/>
<stop offset="1" stop-color="#B53759"/>
</linearGradient>
<linearGradient id="paint12_linear_596_13971" x1="17.2454" y1="15.8904" x2="17.2454" y2="34.4821" gradientUnits="userSpaceOnUse">
<stop stop-color="#4F4A72"/>
<stop offset="1" stop-color="#3B395F"/>
</linearGradient>
<linearGradient id="paint13_linear_596_13971" x1="14.2399" y1="13.2434" x2="21.0486" y2="45.3533" gradientUnits="userSpaceOnUse">
<stop stop-color="#B53759" stop-opacity="0"/>
<stop offset="1" stop-color="#FFB5B0"/>
</linearGradient>
<linearGradient id="paint14_linear_596_13971" x1="27.9709" y1="20.9445" x2="35.2471" y2="28.2206" gradientUnits="userSpaceOnUse">
<stop stop-color="#B53759" stop-opacity="0"/>
<stop offset="1" stop-color="#FFB5B0"/>
</linearGradient>
<linearGradient id="paint15_linear_596_13971" x1="27.1568" y1="18.5929" x2="28.2982" y2="27.1967" gradientUnits="userSpaceOnUse">
<stop stop-color="#00E7B2"/>
<stop offset="0.4139" stop-color="#1FA999"/>
<stop offset="1" stop-color="#4F4A72"/>
</linearGradient>
<linearGradient id="paint16_linear_596_13971" x1="17.2452" y1="27.5305" x2="17.2452" y2="33.0395" gradientUnits="userSpaceOnUse">
<stop stop-color="#B53759" stop-opacity="0"/>
<stop offset="1" stop-color="#FFB5B0"/>
</linearGradient>
<linearGradient id="paint17_linear_596_13971" x1="28.4114" y1="23.095" x2="23.6315" y2="18.3152" gradientUnits="userSpaceOnUse">
<stop stop-color="#3B395F" stop-opacity="0"/>
<stop offset="1" stop-color="#3B395F"/>
</linearGradient>
<linearGradient id="paint18_linear_596_13971" x1="24.4704" y1="19.154" x2="26.5419" y2="21.2256" gradientUnits="userSpaceOnUse">
<stop stop-color="#FFB5B0"/>
<stop offset="1" stop-color="#FF70AC"/>
</linearGradient>
<linearGradient id="paint19_linear_596_13971" x1="20.1049" y1="26.7619" x2="7.80453" y2="14.4616" gradientUnits="userSpaceOnUse">
<stop stop-color="#4F4A72" stop-opacity="0"/>
<stop offset="1" stop-color="#3B395F"/>
</linearGradient>
<linearGradient id="paint20_linear_596_13971" x1="4.5613" y1="9.67088" x2="11.2123" y2="13.1846" gradientUnits="userSpaceOnUse">
<stop stop-color="#AF9CE6"/>
<stop offset="1" stop-color="#0796FF"/>
</linearGradient>
<clipPath id="clip0_596_13971">
<rect width="32" height="32" fill="white" transform="translate(0.22876 0.25)"/>
</clipPath>
</defs>
</svg>
