<svg width="16" height="16" viewBox="0 0 16 16" fill="none" xmlns="http://www.w3.org/2000/svg">
<path d="M12.5548 5.27321H11.2306C11.0835 5.27321 10.9364 5.20633 10.8294 5.09932L10.2943 4.49741C10.1338 4.32353 9.87969 4.31015 9.69243 4.45728L9.6523 4.49741L9.19752 5.01907C9.05039 5.19295 8.823 5.28658 8.59561 5.28658H1.35933C1.1587 5.87511 1.02494 6.50378 0.971436 7.13244H7.81982C7.9402 7.13244 8.06058 7.07893 8.14084 6.99868L8.78288 6.32989C8.86313 6.24964 8.97014 6.19613 9.09052 6.19613H9.11727C9.23765 6.19613 9.35803 6.24964 9.43829 6.34327L9.97332 6.94518C10.0803 7.06556 10.2275 7.13244 10.3746 7.13244H15.9523C15.8988 6.50378 15.765 5.87511 15.5644 5.28658H12.5548V5.27321ZM8.16759 8.96491L7.63256 8.363C7.47205 8.18912 7.21791 8.17574 7.03065 8.32288L6.99052 8.363L6.52237 8.88466C6.37524 9.05854 6.16123 9.15217 5.93384 9.15217H1.07844C1.19882 9.79421 1.41284 10.4229 1.69373 11.0248H5.10454C5.22493 11.0248 5.33193 10.9713 5.42556 10.891L6.0676 10.2222C6.14785 10.142 6.25486 10.0885 6.37524 10.0885H6.40199C6.52237 10.0885 6.64276 10.142 6.72301 10.2356L7.25804 10.8375C7.36505 10.9579 7.51218 11.0248 7.65931 11.0248H15.23C15.5109 10.4362 15.7249 9.80759 15.8453 9.15217H8.56886C8.40835 9.15217 8.26122 9.0853 8.16759 8.96491ZM10.7892 3.13308L11.4313 2.4643C11.5115 2.38404 11.6185 2.33054 11.7389 2.33054H11.7657C11.886 2.33054 12.0064 2.38404 12.0867 2.4643L12.6217 3.06621C12.7287 3.18659 12.8759 3.24009 13.023 3.24009H14.4676C11.9529 -0.0770961 7.23129 -0.732508 3.90073 1.76876C3.35232 2.18341 2.85742 2.67831 2.42939 3.24009H10.4682C10.602 3.26684 10.709 3.21334 10.7892 3.13308ZM5.61282 12.8706C5.45231 12.8706 5.30518 12.8038 5.21155 12.6967L4.67652 12.0948C4.51601 11.921 4.2485 11.9076 4.07461 12.0681L4.04786 12.0948L3.57971 12.6165C3.43257 12.7904 3.21856 12.884 2.99117 12.884H2.96442C5.78671 15.9069 10.5619 16.0541 13.5981 13.205C13.7185 13.098 13.8255 12.9776 13.9459 12.8573H5.61282V12.8706Z" fill="black"/>
</svg>
