<svg width="17" height="17" viewBox="0 0 17 17" fill="none" xmlns="http://www.w3.org/2000/svg">
<g clip-path="url(#clip0_1544_13837)">
<mask id="mask0_1544_13837" style="mask-type:luminance" maskUnits="userSpaceOnUse" x="0" y="2" width="17" height="12">
<path d="M16.3467 2.79541H0.34668V13.7045H16.3467V2.79541Z" fill="white"/>
</mask>
<g mask="url(#mask0_1544_13837)">
<path d="M5.89736 2.79541H4.43199C4.3308 2.79541 4.24047 2.85886 4.20575 2.95417L0.35407 13.5424C0.32543 13.6212 0.38359 13.7045 0.46719 13.7045H1.93256C2.03375 13.7045 2.12408 13.641 2.1588 13.5458L6.01048 2.95754C6.03912 2.87876 5.98095 2.79541 5.89736 2.79541ZM7.67967 7.23195C7.6412 7.12614 7.49199 7.12614 7.45343 7.23195L6.69375 9.32059C6.67432 9.37401 6.67432 9.43266 6.69375 9.48609L8.17055 13.5457C8.2052 13.641 8.2956 13.7044 8.39679 13.7044H9.86216C9.94575 13.7044 10.0039 13.6211 9.97528 13.5423L7.67967 7.23195ZM11.4153 9.2763C11.4537 9.38211 11.603 9.38211 11.6414 9.2763L13.94 2.95754C13.9686 2.87876 13.9105 2.79541 13.8269 2.79541H12.3615C12.2603 2.79541 12.17 2.85878 12.1353 2.95417L10.6555 7.02209C10.6361 7.07553 10.6361 7.13409 10.6555 7.18751L11.4153 9.2763ZM8.526 2.95305C8.49167 2.85838 8.40191 2.79541 8.30152 2.79541H6.83119C6.73007 2.79541 6.63976 2.85878 6.60504 2.95409L2.75343 13.5424C2.72479 13.6212 2.78296 13.7045 2.86655 13.7045H4.33199C4.4332 13.7045 4.52351 13.6411 4.55823 13.5458L7.50719 5.43886C7.52655 5.38566 7.60152 5.38566 7.62079 5.43886L10.5698 13.5458C10.6045 13.6411 10.6949 13.7045 10.7961 13.7045H12.2615C12.3451 13.7045 12.4033 13.6212 12.3746 13.5424L8.526 2.95305ZM16.2262 2.79541H14.7607C14.6596 2.79541 14.5692 2.85878 14.5345 2.95409L11.8551 10.32C11.8357 10.3734 11.8357 10.432 11.8551 10.4854L12.615 12.5742C12.6534 12.68 12.8026 12.68 12.8411 12.5742L15.4934 5.28267L16.3394 2.95746C16.3681 2.87876 16.3099 2.79541 16.2262 2.79541Z" fill="#EF8220"/>
</g>
</g>
<defs>
<clipPath id="clip0_1544_13837">
<rect width="16" height="16" fill="white" transform="translate(0.34668 0.25)"/>
</clipPath>
</defs>
</svg>
