<svg width="17" height="17" viewBox="0 0 17 17" fill="none" xmlns="http://www.w3.org/2000/svg">
<path d="M10.4559 7.58039L11.6309 5.58673L14.7979 10.5195L14.7994 11.4659L14.789 4.95175C14.7853 4.87318 14.7628 4.79665 14.7233 4.72862C14.6838 4.66059 14.6285 4.60306 14.5621 4.56089L8.86027 1.28131C8.79215 1.24894 8.71762 1.23232 8.6422 1.23267C8.56678 1.23303 8.49241 1.25035 8.4246 1.28336C8.407 1.29218 8.38994 1.30204 8.37351 1.31289L8.35368 1.32543L2.81899 4.53261L2.79744 4.5423C2.76875 4.55559 2.74138 4.57155 2.71569 4.58996C2.61189 4.66409 2.54115 4.77582 2.51855 4.90136C2.51508 4.9204 2.51272 4.93962 2.51147 4.95894L2.52014 10.2673L5.47009 5.69505C5.84145 5.08881 6.65066 4.89349 7.40183 4.90409L8.28344 4.9269L3.08865 13.2577L3.70105 13.6103L8.9581 4.93522L11.2817 4.92678L6.03825 13.8204L8.22358 15.0781L8.48469 15.2282C8.59732 15.273 8.72235 15.2755 8.83667 15.2352L14.6187 11.8844L13.5127 12.525L10.4559 7.58039ZM10.9042 14.037L8.69722 10.5732L10.0444 8.2872L12.9428 12.8556L10.9042 14.037Z" fill="#2D374B"/>
<path d="M8.69971 10.5743L10.9067 14.0381L12.9454 12.8566L10.0471 8.28833L8.69971 10.5743Z" fill="#28A0F0"/>
<path d="M14.8005 11.4661L14.799 10.5197L11.632 5.58691L10.4563 7.58034L13.5137 12.525L14.6197 11.8844C14.6732 11.841 14.717 11.7868 14.7482 11.7253C14.7794 11.6638 14.7972 11.5965 14.8006 11.5276L14.8005 11.4661Z" fill="#28A0F0"/>
<path d="M1.52881 12.3586L3.08987 13.2581L8.28466 4.92726L7.40305 4.90446C6.65188 4.89386 5.84267 5.08906 5.47131 5.69542L2.52136 10.2677L1.52938 11.7925V12.359L1.52881 12.3586Z" fill="white"/>
<path d="M11.2832 4.92749L8.95968 4.93593L3.70264 13.611L5.54008 14.669L6.03972 13.8215L11.2832 4.92749Z" fill="white"/>
<path d="M15.7799 4.91572C15.7693 4.67593 15.7005 4.44232 15.5795 4.23504C15.4584 4.02777 15.2888 3.85303 15.0852 3.72591L9.30868 0.40403C9.10247 0.302694 8.87576 0.25 8.64599 0.25C8.41622 0.25 8.18952 0.302694 7.9833 0.40403C7.93507 0.428317 2.36572 3.65841 2.36572 3.65841C2.28834 3.69557 2.21433 3.73936 2.14452 3.78931C1.96368 3.91791 1.81433 4.08581 1.70769 4.28041C1.60105 4.47501 1.53989 4.69124 1.52881 4.91287V11.7927L2.52079 10.2679L2.51315 4.95973C2.51779 4.88696 2.53851 4.81612 2.57383 4.75232C2.60914 4.68852 2.65816 4.63334 2.71736 4.59076C2.74359 4.57195 8.40803 1.29316 8.42604 1.28416C8.49386 1.25115 8.56823 1.23383 8.64365 1.23347C8.71907 1.23312 8.7936 1.24974 8.86172 1.2821L14.5636 4.56191C14.63 4.60409 14.6852 4.66161 14.7247 4.72964C14.7642 4.79767 14.7868 4.8742 14.7905 4.95278V11.5286C14.7891 11.5968 14.7732 11.6639 14.7438 11.7254C14.7144 11.7869 14.6722 11.8415 14.62 11.8854L13.514 12.5259L12.9439 12.8566L10.9052 14.0381L8.83766 15.2363C8.72335 15.2766 8.5983 15.2742 8.48568 15.2294L6.03959 13.8225L5.53995 14.6699L7.73827 15.9355C7.81102 15.9768 7.87578 16.0135 7.92891 16.0434C8.01124 16.089 8.06734 16.1203 8.08706 16.1299C8.27098 16.2105 8.46982 16.2514 8.67062 16.25C8.85477 16.2502 9.03733 16.2159 9.2088 16.1487L15.2139 12.6711C15.3834 12.5393 15.5218 12.372 15.6196 12.1809C15.7173 11.9898 15.772 11.7796 15.7797 11.5651L15.7799 4.91572Z" fill="#96BEDC"/>
</svg>
