<svg width="17" height="17" viewBox="0 0 17 17" fill="none" xmlns="http://www.w3.org/2000/svg">
<path d="M13.4426 3.07837H3.55713V12.069H13.4426V3.07837Z" fill="white"/>
<path fill-rule="evenodd" clip-rule="evenodd" d="M16.5061 8.34155C16.5061 12.7599 12.9244 16.3416 8.5061 16.3416C4.08782 16.3416 0.506104 12.7599 0.506104 8.34155C0.506104 3.92327 4.08782 0.341553 8.5061 0.341553C12.9244 0.341553 16.5061 3.92327 16.5061 8.34155ZM6.23913 11.5251H4.68656C4.36031 11.5251 4.19916 11.5251 4.1009 11.4623C3.99477 11.3935 3.92992 11.2795 3.92206 11.1537C3.91616 11.0378 3.99675 10.8962 4.1579 10.6132L7.9914 3.85617C8.15452 3.56924 8.23705 3.42577 8.34121 3.37271C8.45324 3.31572 8.58688 3.31572 8.6989 3.37271C8.80306 3.42577 8.88561 3.56924 9.04872 3.85617L9.83681 5.23187L9.84083 5.23889C10.017 5.54672 10.1063 5.70282 10.1454 5.86665C10.1886 6.0455 10.1886 6.23417 10.1454 6.41301C10.106 6.57809 10.0176 6.73532 9.83877 7.0478L7.82512 10.6074L7.81991 10.6165C7.64257 10.9268 7.5527 11.0841 7.42814 11.2028C7.29253 11.3326 7.12941 11.4268 6.95057 11.48C6.78745 11.5251 6.60468 11.5251 6.23913 11.5251ZM10.1599 11.5251H12.3846C12.7128 11.5251 12.8779 11.5251 12.9762 11.4604C13.0823 11.3916 13.1491 11.2756 13.1551 11.1499C13.1607 11.0377 13.0819 10.9017 12.9274 10.6351C12.9221 10.626 12.9168 10.6168 12.9113 10.6074L11.797 8.70107L11.7843 8.67961C11.6277 8.41481 11.5487 8.28109 11.4471 8.2294C11.3352 8.1724 11.2034 8.1724 11.0914 8.2294C10.9892 8.28246 10.9067 8.422 10.7436 8.70303L9.6332 10.6094L9.62939 10.6159C9.46685 10.8965 9.38561 11.0367 9.39147 11.1518C9.39933 11.2776 9.46419 11.3935 9.5703 11.4623C9.66661 11.5251 9.8317 11.5251 10.1599 11.5251Z" fill="#E84142"/>
<path d="M13.4426 3.07837H3.55713V12.069H13.4426V3.07837Z" fill="white"/>
<path fill-rule="evenodd" clip-rule="evenodd" d="M16.5061 8.34155C16.5061 12.7599 12.9244 16.3416 8.5061 16.3416C4.08782 16.3416 0.506104 12.7599 0.506104 8.34155C0.506104 3.92327 4.08782 0.341553 8.5061 0.341553C12.9244 0.341553 16.5061 3.92327 16.5061 8.34155ZM6.23913 11.5251H4.68656C4.36031 11.5251 4.19916 11.5251 4.1009 11.4623C3.99477 11.3935 3.92992 11.2795 3.92206 11.1537C3.91616 11.0378 3.99675 10.8962 4.1579 10.6132L7.9914 3.85617C8.15452 3.56924 8.23705 3.42577 8.34121 3.37271C8.45324 3.31572 8.58688 3.31572 8.6989 3.37271C8.80306 3.42577 8.88561 3.56924 9.04872 3.85617L9.83681 5.23187L9.84083 5.23889C10.017 5.54672 10.1063 5.70282 10.1454 5.86665C10.1886 6.0455 10.1886 6.23417 10.1454 6.41301C10.106 6.57809 10.0176 6.73532 9.83877 7.0478L7.82512 10.6074L7.81991 10.6165C7.64257 10.9268 7.5527 11.0841 7.42814 11.2028C7.29253 11.3326 7.12941 11.4268 6.95057 11.48C6.78745 11.5251 6.60468 11.5251 6.23913 11.5251ZM10.1599 11.5251H12.3846C12.7128 11.5251 12.8779 11.5251 12.9762 11.4604C13.0823 11.3916 13.1491 11.2756 13.1551 11.1499C13.1607 11.0377 13.0819 10.9017 12.9274 10.6351C12.9221 10.626 12.9168 10.6168 12.9113 10.6074L11.797 8.70107L11.7843 8.67961C11.6277 8.41481 11.5487 8.28109 11.4471 8.2294C11.3352 8.1724 11.2034 8.1724 11.0914 8.2294C10.9892 8.28246 10.9067 8.422 10.7436 8.70303L9.6332 10.6094L9.62939 10.6159C9.46685 10.8965 9.38561 11.0367 9.39147 11.1518C9.39933 11.2776 9.46419 11.3935 9.5703 11.4623C9.66661 11.5251 9.8317 11.5251 10.1599 11.5251Z" fill="#E84142"/>
<path d="M13.1341 3.40723H3.86646V11.836H13.1341V3.40723Z" fill="white"/>
<path fill-rule="evenodd" clip-rule="evenodd" d="M16.0061 8.34155C16.0061 12.4837 12.6483 15.8416 8.5061 15.8416C4.36397 15.8416 1.0061 12.4837 1.0061 8.34155C1.0061 4.19942 4.36397 0.841553 8.5061 0.841553C12.6483 0.841553 16.0061 4.19942 16.0061 8.34155ZM6.38082 11.3262H4.92528C4.61943 11.3262 4.46835 11.3262 4.37623 11.2673C4.27673 11.2027 4.21593 11.0959 4.20856 10.9779C4.20303 10.8693 4.27858 10.7366 4.42966 10.4713L8.02357 4.13651C8.17649 3.86751 8.25387 3.73301 8.35152 3.68326C8.45654 3.62983 8.58183 3.62983 8.68685 3.68326C8.7845 3.73301 8.86189 3.86751 9.01481 4.13651L9.75364 5.42623L9.75741 5.43281C9.92257 5.7214 10.0063 5.86774 10.0429 6.02134C10.0834 6.189 10.0834 6.36588 10.0429 6.53354C10.0061 6.68831 9.92314 6.83571 9.75548 7.12866L7.86768 10.4657L7.8628 10.4743C7.69654 10.7653 7.61229 10.9127 7.49551 11.024C7.36838 11.1456 7.21545 11.234 7.04779 11.2838C6.89486 11.3262 6.72352 11.3262 6.38082 11.3262ZM10.0565 11.3262H12.1422C12.4498 11.3262 12.6046 11.3262 12.6968 11.2655C12.7963 11.2009 12.8589 11.0922 12.8645 10.9743C12.8698 10.8692 12.7959 10.7417 12.6511 10.4918C12.6461 10.4832 12.6411 10.4746 12.636 10.4658L11.5913 8.6786L11.5794 8.65848C11.4326 8.41023 11.3585 8.28487 11.2633 8.23641C11.1584 8.18297 11.0348 8.18297 10.9299 8.23641C10.834 8.28616 10.7567 8.41697 10.6037 8.68044L9.56276 10.4676L9.55919 10.4738C9.4068 10.7368 9.33064 10.8683 9.33614 10.9761C9.34351 11.0941 9.40431 11.2027 9.50379 11.2673C9.59408 11.3262 9.74885 11.3262 10.0565 11.3262Z" fill="#E84142"/>
<path d="M13.1341 3.40723H3.86646V11.836H13.1341V3.40723Z" fill="white"/>
<path fill-rule="evenodd" clip-rule="evenodd" d="M16.0061 8.34155C16.0061 12.4837 12.6483 15.8416 8.5061 15.8416C4.36397 15.8416 1.0061 12.4837 1.0061 8.34155C1.0061 4.19942 4.36397 0.841553 8.5061 0.841553C12.6483 0.841553 16.0061 4.19942 16.0061 8.34155ZM6.38082 11.3262H4.92528C4.61943 11.3262 4.46835 11.3262 4.37623 11.2673C4.27673 11.2027 4.21593 11.0959 4.20856 10.9779C4.20303 10.8693 4.27858 10.7366 4.42966 10.4713L8.02357 4.13651C8.17649 3.86751 8.25387 3.73301 8.35152 3.68326C8.45654 3.62983 8.58183 3.62983 8.68685 3.68326C8.7845 3.73301 8.86189 3.86751 9.01481 4.13651L9.75364 5.42623L9.75741 5.43281C9.92257 5.7214 10.0063 5.86774 10.0429 6.02134C10.0834 6.189 10.0834 6.36588 10.0429 6.53354C10.0061 6.68831 9.92314 6.83571 9.75548 7.12866L7.86768 10.4657L7.8628 10.4743C7.69654 10.7653 7.61229 10.9127 7.49551 11.024C7.36838 11.1456 7.21545 11.234 7.04779 11.2838C6.89486 11.3262 6.72352 11.3262 6.38082 11.3262ZM10.0565 11.3262H12.1422C12.4498 11.3262 12.6046 11.3262 12.6968 11.2655C12.7963 11.2009 12.8589 11.0922 12.8645 10.9743C12.8698 10.8692 12.7959 10.7417 12.6511 10.4918C12.6461 10.4832 12.6411 10.4746 12.636 10.4658L11.5913 8.6786L11.5794 8.65848C11.4326 8.41023 11.3585 8.28487 11.2633 8.23641C11.1584 8.18297 11.0348 8.18297 10.9299 8.23641C10.834 8.28616 10.7567 8.41697 10.6037 8.68044L9.56276 10.4676L9.55919 10.4738C9.4068 10.7368 9.33064 10.8683 9.33614 10.9761C9.34351 11.0941 9.40431 11.2027 9.50379 11.2673C9.59408 11.3262 9.74885 11.3262 10.0565 11.3262Z" fill="#E84142"/>
</svg>
