<svg width="17" height="17" viewBox="0 0 17 17" fill="none" xmlns="http://www.w3.org/2000/svg">
<path fill-rule="evenodd" clip-rule="evenodd" d="M8.42383 0.25C12.8424 0.25 16.4238 3.83141 16.4238 8.25C16.4238 12.6686 12.8424 16.25 8.42383 16.25C4.00524 16.25 0.423828 12.6686 0.423828 8.25C0.423828 3.83141 4.00524 0.25 8.42383 0.25Z" fill="#231F20"/>
<path d="M4.82097 8.25009L4.82673 10.3655L6.62417 11.4232V12.6616L3.77481 10.9905V7.6315L4.82097 8.25009ZM4.82097 6.1347V7.36739L3.77417 6.74816V5.51547L4.82097 4.89624L5.87289 5.51547L4.82097 6.1347ZM7.37481 5.51547L8.42161 4.89624L9.47353 5.51547L8.42161 6.1347L7.37481 5.51547Z" fill="#F0B90B"/>
<path d="M5.57666 9.92701V8.68855L6.62345 9.30778V10.5405L5.57666 9.92701ZM7.3741 11.8668L8.42089 12.486L9.47281 11.8668V13.0994L8.42089 13.7187L7.3741 13.0994V11.8668ZM10.9741 5.51547L12.0209 4.89624L13.0728 5.51547V6.74816L12.0209 7.36739V6.1347L10.9741 5.51547ZM12.0209 10.3655L12.0267 8.25009L13.0735 7.63086V10.9898L10.2241 12.661V11.4225L12.0209 10.3655Z" fill="#F0B90B"/>
<path d="M11.2699 9.92743L10.2231 10.5409V9.3082L11.2699 8.68896V9.92743Z" fill="#F0B90B"/>
<path d="M11.2702 6.57292L11.276 7.81138L9.47346 8.86907V10.9896L8.42666 11.603L7.37986 10.9896V8.86907L5.5773 7.81138V6.57292L6.62858 5.95369L8.42025 7.01651L10.2228 5.95369L11.2747 6.57292H11.2702ZM5.57666 4.45817L8.42089 2.78125L11.2702 4.45817L10.2235 5.0774L8.42089 4.01458L6.62346 5.0774L5.57666 4.45817Z" fill="#F0B90B"/>
</svg>
