<svg width="17" height="17" viewBox="0 0 17 17" fill="none" xmlns="http://www.w3.org/2000/svg">
<g clip-path="url(#clip0_1544_13849)">
<path d="M8.19336 16.25C12.6116 16.25 16.1934 12.6683 16.1934 8.25C16.1934 3.83172 12.6116 0.25 8.19336 0.25C3.77508 0.25 0.193359 3.83172 0.193359 8.25C0.193359 12.6683 3.77508 16.25 8.19336 16.25Z" fill="#2E3148"/>
<path d="M8.19374 12.8926C10.7574 12.8926 12.8357 10.8143 12.8357 8.25063C12.8357 5.68693 10.7574 3.60864 8.19374 3.60864C5.63004 3.60864 3.55176 5.68693 3.55176 8.25063C3.55176 10.8143 5.63004 12.8926 8.19374 12.8926Z" fill="#1B1E36"/>
<path d="M8.20928 1.27148C7.34573 1.27148 6.64551 4.40364 6.64551 8.26739C6.64551 12.1311 7.34573 15.2633 8.20928 15.2633C9.07284 15.2633 9.77306 12.1311 9.77306 8.26739C9.77306 4.40364 9.07284 1.27148 8.20928 1.27148ZM8.31725 14.8685C8.2185 15.0002 8.11975 14.9014 8.11975 14.9014C7.72205 14.4406 7.5232 13.5845 7.5232 13.5845C6.82759 11.3459 6.99316 6.53926 6.99316 6.53926C7.32007 2.72332 7.91476 1.82188 8.11712 1.62176C8.13779 1.60133 8.165 1.58885 8.19396 1.58651C8.22292 1.58417 8.25178 1.59212 8.27546 1.60896C8.56909 1.81702 8.81536 2.68716 8.81536 2.68716C9.5426 5.38675 9.47674 7.92172 9.47674 7.92172C9.5426 10.1275 9.11232 12.5966 9.11232 12.5966C8.78112 14.4731 8.31725 14.8685 8.31725 14.8685Z" fill="#6F7390"/>
<path d="M14.2783 4.78555C13.8483 4.03624 10.7833 4.98766 7.43027 6.91035C4.07725 8.83304 1.71206 10.9992 2.1417 11.7482C2.57133 12.4972 5.63667 11.5461 8.98969 9.62344C12.3427 7.70075 14.7079 5.53454 14.2783 4.78555ZM2.53837 11.6455C2.37376 11.6247 2.41094 11.4894 2.41094 11.4894C2.61286 10.9153 3.25542 10.3167 3.25542 10.3167C4.85177 8.59925 9.10368 6.35099 9.10368 6.35099C12.5759 4.7355 13.6545 4.80366 13.9281 4.87899C13.9561 4.88683 13.9805 4.90435 13.9969 4.92846C14.0133 4.95257 14.0207 4.9817 14.0177 5.0107C13.9848 5.3691 13.351 6.0155 13.351 6.0155C11.3726 7.99048 9.14086 9.19509 9.14086 9.19509C7.26035 10.3503 4.90451 11.2053 4.90451 11.2053C3.11193 11.8512 2.53843 11.6455 2.53843 11.6455H2.53837Z" fill="#6F7390"/>
<path d="M14.2634 11.7728C14.6967 11.0255 12.3375 8.84934 8.9962 6.91219C5.65496 4.97504 2.59032 4.01184 2.15742 4.76044C1.72453 5.50905 4.08337 7.6839 7.42654 9.62105C10.7697 11.5582 13.8305 12.5215 14.2634 11.7728ZM2.44453 5.04921C2.38053 4.89747 2.51563 4.86093 2.51563 4.86093C3.11377 4.74797 3.95397 5.00537 3.95397 5.00537C6.23973 5.52589 10.3156 8.07897 10.3156 8.07897C13.4537 10.2749 13.935 11.2421 14.0071 11.5167C14.0144 11.5448 14.0116 11.5747 13.999 11.6009C13.9865 11.6272 13.9651 11.6482 13.9386 11.6602C13.6114 11.81 12.735 11.5868 12.735 11.5868C10.0337 10.8625 7.87339 9.53548 7.87339 9.53548C5.93233 8.48857 4.01297 6.87769 4.01297 6.87769C2.55454 5.64973 2.44497 5.05088 2.44497 5.05088L2.44453 5.04921Z" fill="#6F7390"/>
<path d="M8.19413 9.07381C8.64869 9.07381 9.01717 8.70533 9.01717 8.25077C9.01717 7.79622 8.64869 7.42773 8.19413 7.42773C7.73958 7.42773 7.37109 7.79622 7.37109 8.25077C7.37109 8.70533 7.73958 9.07381 8.19413 9.07381Z" fill="#B7B9C8"/>
<path d="M11.5672 5.58311C11.8309 5.58311 12.0446 5.36201 12.0446 5.08928C12.0446 4.81655 11.8309 4.59546 11.5672 4.59546C11.3036 4.59546 11.0898 4.81655 11.0898 5.08928C11.0898 5.36201 11.3036 5.58311 11.5672 5.58311Z" fill="#B7B9C8"/>
<path d="M3.73324 7.26231C3.99688 7.26231 4.21061 7.04121 4.21061 6.76848C4.21061 6.49575 3.99688 6.27466 3.73324 6.27466C3.46959 6.27466 3.25586 6.49575 3.25586 6.76848C3.25586 7.04121 3.46959 7.26231 3.73324 7.26231Z" fill="#B7B9C8"/>
<path d="M7.22176 13.3199C7.48541 13.3199 7.69914 13.0988 7.69914 12.8261C7.69914 12.5534 7.48541 12.3323 7.22176 12.3323C6.95811 12.3323 6.74438 12.5534 6.74438 12.8261C6.74438 13.0988 6.95811 13.3199 7.22176 13.3199Z" fill="#B7B9C8"/>
</g>
<defs>
<clipPath id="clip0_1544_13849">
<rect width="16" height="16" fill="white" transform="translate(0.193359 0.25)"/>
</clipPath>
</defs>
</svg>
