<svg width="17" height="17" viewBox="0 0 17 17" fill="none" xmlns="http://www.w3.org/2000/svg">
<rect x="0.885742" y="0.25" width="16" height="16" rx="8" fill="#051221"/>
<path d="M8.82319 1.62817L3.18213 4.88516V11.3991L8.82319 14.6561L14.4549 11.3991V4.88516L8.82319 1.62817ZM12.7841 10.4323L8.8138 12.7226L4.85286 10.4323V5.85192L8.82319 3.56171L12.7841 5.85192V10.4323Z" fill="white"/>
<path d="M8.82286 14.6561L14.4545 11.3991V4.88516L8.82286 1.62817V3.56171L12.7838 5.85192V10.4417L8.81348 12.7319V14.6561H8.82286Z" fill="white"/>
<path d="M8.8138 1.62817L3.18213 4.88516V11.3991L8.8138 14.6561V12.7226L4.85286 10.4323V5.84254L8.8138 3.56171V1.62817Z" fill="white"/>
<path d="M11.4519 9.66223L8.82377 11.1828L6.18628 9.66223V6.62113L8.82377 5.10059L11.4519 6.62113L10.3537 7.25939L8.81439 6.36771L7.28445 7.25939V9.03336L8.82377 9.92504L10.3631 9.03336L11.4519 9.66223Z" fill="white"/>
</svg>
