<svg width="17" height="17" viewBox="0 0 17 17" fill="none" xmlns="http://www.w3.org/2000/svg">
<g clip-path="url(#clip0_1544_13848)">
<path d="M8.50098 16.25C12.9193 16.25 16.501 12.6683 16.501 8.25C16.501 3.83172 12.9193 0.25 8.50098 0.25C4.0827 0.25 0.500977 3.83172 0.500977 8.25C0.500977 12.6683 4.0827 16.25 8.50098 16.25Z" fill="#13B5EC"/>
<path fill-rule="evenodd" clip-rule="evenodd" d="M9.10098 6.7L10.901 5.65V7.75L9.10098 6.7ZM10.901 11.2L8.50098 12.6L6.10098 11.2V8.75L8.50098 10.15L10.901 8.75V11.2ZM6.10098 5.65L7.90098 6.7L6.10098 7.75V5.65ZM8.80098 7.2L10.601 8.25L8.80098 9.3V7.2ZM8.20098 9.3L6.40098 8.25L8.20098 7.2V9.3ZM10.601 5.15L8.50098 6.35L6.40098 5.15L8.50098 3.9L10.601 5.15ZM5.50098 4.95V11.5L8.50098 13.2L11.501 11.5V4.95L8.50098 3.25L5.50098 4.95Z" fill="white"/>
</g>
<defs>
<clipPath id="clip0_1544_13848">
<rect width="16" height="16" fill="white" transform="translate(0.500977 0.25)"/>
</clipPath>
</defs>
</svg>
