<svg width="17" height="17" viewBox="0 0 17 17" fill="none" xmlns="http://www.w3.org/2000/svg">
<g clip-path="url(#clip0_1544_13846)">
<path d="M4.81867 9.3615C5.27848 9.3615 5.72708 9.20822 6.0897 8.92785L3.17381 6.01196C2.47101 6.92037 2.63923 8.22879 3.54764 8.93159C3.914 9.20822 4.35886 9.3615 4.81867 9.3615Z" fill="#00193C"/>
<path d="M13.4921 7.27811C13.4921 6.8183 13.3388 6.3697 13.0585 6.00708L10.1426 8.92297C11.051 9.62577 12.3557 9.45755 13.0585 8.54914C13.3388 8.18652 13.4921 7.73792 13.4921 7.27811Z" fill="#00193C"/>
<path d="M14.9611 4.104L13.6714 5.39372C14.7106 6.63858 14.5461 8.49279 13.3013 9.53204C12.2097 10.4442 10.6246 10.4442 9.53303 9.53204L8.11621 10.9489L6.70313 9.53578C5.45827 10.575 3.60406 10.4105 2.56481 9.16569C1.65266 8.0741 1.65266 6.48905 2.56481 5.39746L1.90313 4.73578L1.27509 4.104C0.516211 5.3526 0.116211 6.78812 0.116211 8.2498C0.116211 12.6685 3.69752 16.2498 8.11621 16.2498C12.5349 16.2498 16.1162 12.6685 16.1162 8.2498C16.12 6.78812 15.7162 5.3526 14.9611 4.104Z" fill="#00193C"/>
<path d="M13.9039 2.72846C10.8571 -0.467803 5.79546 -0.587429 2.59919 2.4593C2.50574 2.54902 2.41602 2.63874 2.33003 2.72846C2.1319 2.9378 1.94499 3.15463 1.76929 3.38266L8.11695 9.73407L14.4646 3.38266C14.2927 3.15463 14.102 2.9378 13.9039 2.72846ZM8.11695 1.29668C9.98611 1.29668 11.7282 2.01818 13.0366 3.33407L8.11695 8.25369L3.19732 3.33407C4.50574 2.01818 6.24779 1.29668 8.11695 1.29668Z" fill="#00193C"/>
</g>
<defs>
<clipPath id="clip0_1544_13846">
<rect width="16" height="16" fill="white" transform="translate(0.116211 0.25)"/>
</clipPath>
</defs>
</svg>
