<svg width="19" height="17" viewBox="0 0 19 17" fill="none" xmlns="http://www.w3.org/2000/svg">
<path fill-rule="evenodd" clip-rule="evenodd" d="M17.8352 7.28954C17.8725 7.60384 17.8932 7.92432 17.8932 8.25001C17.8932 12.6677 14.3076 16.25 9.88362 16.25C6.66239 16.25 3.88626 14.3508 2.61411 11.6121L3.89557 10.968C4.93066 13.2394 7.22237 14.8181 9.88362 14.8181C13.5147 14.8181 16.4596 11.8778 16.4596 8.25001C16.4596 8.18279 16.4586 8.11559 16.4565 8.04839L17.8352 7.28954ZM9.88362 0.25C13.257 0.25 16.1439 2.33323 17.3239 5.28283L15.9534 5.7191C14.9618 3.34846 12.6173 1.6819 9.88362 1.6819C6.25248 1.6819 3.30764 4.62218 3.30764 8.25001C3.30764 8.29446 3.30866 8.33994 3.3097 8.38441L1.96822 9.48029C1.90611 9.07915 1.87402 8.66872 1.87402 8.25001C1.87506 3.8313 5.46064 0.25 9.88362 0.25Z" fill="#010F36"/>
<path fill-rule="evenodd" clip-rule="evenodd" d="M0.96167 11.4489L8.79528 5.04932L8.47028 7.71046L13.0423 5.12271L12.8104 7.64946L18.8078 5.742L10.674 10.2165L11.2816 7.67015L6.58226 10.4212L6.89279 8.46829L0.96167 11.4489Z" fill="#010F36"/>
</svg>
