<svg width="17" height="17" viewBox="0 0 17 17" fill="none" xmlns="http://www.w3.org/2000/svg">
<path d="M12.9507 10.3618C13.2431 10.0468 13.5046 9.69815 13.7324 9.31854C14.2807 8.39903 14.5563 7.38954 14.5563 6.29007C14.5563 5.1906 14.2835 4.16142 13.738 3.2391C13.1925 2.31397 12.4614 1.58568 11.5419 1.05141C10.6224 0.517137 9.62696 0.25 8.55842 0.25C7.48987 0.25 6.47757 0.517137 5.55244 1.05141C4.62731 1.58568 3.89058 2.31397 3.33943 3.23348C2.78829 4.15299 2.51553 5.15685 2.51553 6.24789C2.51553 7.33893 2.7911 8.40466 3.33943 9.32979C3.57283 9.72346 3.84277 10.0834 4.14365 10.404C3.12291 11.0254 2.49585 11.8605 2.49585 12.7772C2.49585 14.6922 5.22344 16.25 8.5781 16.25C11.9328 16.25 14.6603 14.6922 14.6603 12.7772C14.6603 11.8409 14.008 10.9888 12.9479 10.3646L12.9507 10.3618ZM4.21676 14.2619C3.61219 13.812 3.2832 13.2975 3.2832 12.7744C3.2832 12.1305 3.78372 11.495 4.68917 10.9832C4.70604 10.9748 4.72292 10.9635 4.7426 10.9551C4.99286 11.1576 5.25719 11.3403 5.54119 11.5062C5.56931 11.5231 5.60024 11.5372 5.62836 11.554C4.65543 12.0321 4.0368 12.7435 4.0368 13.5337C4.0368 13.7867 4.09866 14.0286 4.21676 14.2619ZM8.58372 15.3586C7.20306 15.3586 6.44945 14.7597 6.44945 14.4503C6.44945 14.141 7.20306 13.5421 8.58372 13.5421C9.96439 13.5421 10.718 14.141 10.718 14.4503C10.718 14.7597 9.96439 15.3586 8.58372 15.3586ZM11.48 14.6556C11.4941 14.5881 11.5025 14.5206 11.5025 14.4503C11.5025 13.5168 10.1922 12.7604 8.58372 12.7604C6.97529 12.7604 5.66492 13.5196 5.66492 14.4503C5.66492 14.5206 5.67335 14.5881 5.68741 14.6556C5.15314 14.3379 4.82133 13.9442 4.82133 13.5337C4.82133 12.915 5.57212 12.3358 6.63223 12.0011C7.22555 12.2008 7.84137 12.2992 8.4853 12.2992C9.17423 12.2992 9.83223 12.1924 10.4593 11.9786C11.5616 12.3076 12.3461 12.9038 12.3461 13.5337C12.3461 13.9442 12.0143 14.3379 11.48 14.6556ZM12.9507 14.2619C13.0688 14.0314 13.1306 13.7867 13.1306 13.5337C13.1306 12.7238 12.4839 12.0011 11.4744 11.5203C11.4885 11.5119 11.5025 11.5062 11.5166 11.4978C11.8175 11.3263 12.0987 11.1322 12.3574 10.9185C12.3967 10.941 12.4389 10.9607 12.4783 10.9832C13.3837 11.495 13.8842 12.1305 13.8842 12.7744C13.8842 13.2946 13.5581 13.812 12.9507 14.2619Z" fill="#00A84F"/>
</svg>
