<svg width="17" height="17" viewBox="0 0 17 17" fill="none" xmlns="http://www.w3.org/2000/svg">
<path d="M8.03906 16.25C12.4573 16.25 16.0391 12.6683 16.0391 8.25C16.0391 3.83172 12.4573 0.25 8.03906 0.25C3.62078 0.25 0.0390625 3.83172 0.0390625 8.25C0.0390625 12.6683 3.62078 16.25 8.03906 16.25Z" fill="#FF0420"/>
<path d="M5.7059 10.3742C5.2291 10.3742 4.8387 10.2622 4.5347 10.0382C4.2339 9.81102 4.0835 9.48463 4.0835 9.06543C4.0835 8.97583 4.0931 8.87022 4.1123 8.74222C4.1635 8.45422 4.2371 8.10862 4.3331 7.70222C4.6051 6.60142 5.3091 6.05103 6.4419 6.05103C6.7491 6.05103 7.0275 6.10223 7.2707 6.20783C7.5139 6.30703 7.7059 6.46063 7.8467 6.66543C7.9875 6.86703 8.0579 7.10703 8.0579 7.38543C8.0579 7.46863 8.0483 7.57422 8.0291 7.70222C7.9683 8.05743 7.8979 8.40622 7.8115 8.74222C7.6707 9.28942 7.4307 9.70222 7.0851 9.97422C6.7427 10.243 6.2819 10.3742 5.7059 10.3742ZM5.7923 9.51022C6.0163 9.51022 6.2051 9.44303 6.3619 9.31183C6.5219 9.18063 6.6371 8.97903 6.7043 8.70383C6.7971 8.32623 6.8675 7.99983 6.9155 7.71823C6.9315 7.63503 6.9411 7.54863 6.9411 7.45903C6.9411 7.09423 6.7523 6.91183 6.3715 6.91183C6.1475 6.91183 5.9555 6.97903 5.7955 7.11023C5.6387 7.24143 5.5267 7.44302 5.4595 7.71823C5.3859 7.98702 5.3155 8.31343 5.2419 8.70383C5.2259 8.78383 5.2163 8.86703 5.2163 8.95663C5.2131 9.32783 5.4083 9.51022 5.7923 9.51022Z" fill="white"/>
<path d="M8.33567 10.3166C8.29087 10.3166 8.25887 10.3038 8.23327 10.275C8.21407 10.243 8.20767 10.2078 8.21407 10.1662L9.04287 6.26222C9.04927 6.21742 9.07167 6.18222 9.11007 6.15342C9.14527 6.12462 9.18367 6.11182 9.22527 6.11182H10.8221C11.2669 6.11182 11.6221 6.20462 11.8909 6.38702C12.1629 6.57262 12.3005 6.83822 12.3005 7.18702C12.3005 7.28622 12.2877 7.39182 12.2653 7.50062C12.1661 7.96142 11.9645 8.30062 11.6573 8.52142C11.3565 8.74222 10.9437 8.85102 10.4189 8.85102H9.60927L9.33407 10.1662C9.32447 10.211 9.30527 10.2462 9.26687 10.275C9.23167 10.3038 9.19327 10.3166 9.15167 10.3166H8.33567ZM10.4605 8.02222C10.6301 8.02222 10.7741 7.97742 10.8989 7.88462C11.0269 7.79182 11.1101 7.66062 11.1517 7.48782C11.1645 7.42062 11.1709 7.35982 11.1709 7.30862C11.1709 7.19342 11.1357 7.10382 11.0685 7.04302C11.0013 6.97902 10.8829 6.94702 10.7197 6.94702H9.99967L9.77247 8.02222H10.4605Z" fill="white"/>
</svg>
