<svg width="17" height="16" viewBox="0 0 17 16" fill="none" xmlns="http://www.w3.org/2000/svg">
<rect x="0.97876" width="16" height="16" rx="8" fill="#A347FF"/>
<path d="M12.1458 9.86158L14.755 8.35499C14.8933 8.27496 14.9788 8.12653 14.9788 7.96725V4.95406C14.9788 4.79477 14.8933 4.64637 14.755 4.56633L12.1458 3.05973C12.0075 2.9797 11.8358 2.98048 11.6983 3.05973L9.08908 4.56633C8.9508 4.64637 8.86532 4.79477 8.86532 4.95406V10.3387L7.03548 11.3946L5.20564 10.3387V8.22602L7.03548 7.17008L8.24218 7.86701V6.44977L7.25924 5.88179C7.19164 5.84295 7.11397 5.82197 7.03548 5.82197C6.95698 5.82197 6.87932 5.84295 6.81172 5.88179L4.20254 7.38839C4.06423 7.46843 3.97876 7.61685 3.97876 7.77613V10.7893C3.97876 10.9486 4.06423 11.097 4.20254 11.177L6.81172 12.6837C6.95 12.7629 7.12096 12.7629 7.25924 12.6837L9.86842 11.177C10.0067 11.097 10.0922 10.9486 10.0922 10.7893V5.40394L10.1248 5.38529L11.9213 4.348L13.7511 5.40394V7.51661L11.9213 8.57256L10.7161 7.87712V9.2944L11.6975 9.86083C11.8358 9.94007 12.0075 9.94007 12.145 9.86083L12.1458 9.86158Z" fill="white"/>
</svg>
